<svg width="175" height="182" viewBox="0 0 175 182" fill="none" xmlns="http://www.w3.org/2000/svg">
<g filter="url(#filter0_d_11568_14323)">
<path d="M87.6 173.6C133.164 173.6 170.1 136.663 170.1 91.1C170.1 45.5361 133.164 8.59961 87.6 8.59961C42.0366 8.59961 5.1001 45.5361 5.1001 91.1C5.1001 136.663 42.0366 173.6 87.6 173.6Z" fill="#F47E08"/>
<path opacity="0.32" d="M134.664 137.977C129.302 142.053 123.146 145.005 116.876 147.393C110.94 149.653 104.822 151.393 98.666 152.939C91.258 154.799 83.8742 156.771 76.2482 157.521C69.8962 158.145 63.0582 158.009 57.1182 155.461C56.2082 158.069 56.7002 157.801 55.9002 159.201C55.3982 160.081 61.1002 164.801 52.8862 165.963C63.4382 170.865 75.2002 173.601 87.6 173.601C108.39 173.601 127.384 165.909 141.892 153.219C141.9 153.001 139.3 155.601 138.5 147.201C138.03 147.589 135.148 137.609 134.664 137.977Z" fill="#FFCE32"/>
<path d="M169.352 82.9076C169.352 128.416 132.46 165.308 86.952 165.308C41.4438 165.308 4.55176 128.416 4.55176 82.9076C4.55176 39.7076 37.7958 4.27359 80.0958 0.789589H80.1078C84.6798 0.571589 90.104 0.525589 94.804 0.993589C133.674 4.86759 163.674 34.6336 168.712 72.5896C169.134 75.9696 169.352 79.4136 169.352 82.9076Z" fill="#FFCE32"/>
<path d="M142.536 110.834C136.94 120.526 129.066 128.08 119.98 133.212C126.422 128.438 132.012 122.292 136.276 114.904C152.958 86.0078 143.058 49.0558 114.16 32.3718C94.958 21.2858 72.1998 21.9378 54.1958 32.1018C72.9498 18.1938 98.916 15.8878 120.422 28.3038C149.318 44.9858 159.22 81.9378 142.536 110.834Z" fill="#FDE77F"/>
<path d="M119.976 133.213C101.222 147.125 75.2522 149.435 53.7442 137.017C24.8462 120.333 14.9462 83.3834 31.6302 54.4854C37.2242 44.7954 45.1002 37.2394 54.1862 32.1074C47.7442 36.8834 42.1542 43.0294 37.8902 50.4174C21.2062 79.3134 31.1082 116.265 60.0042 132.949C79.2082 144.035 101.97 143.381 119.976 133.213Z" fill="#FDE77F"/>
<path opacity="0.68" d="M44.3522 114.095C49.4782 110.085 53.0262 100.479 58.4882 96.947C64.0162 93.373 69.5222 89.751 75.1182 86.2895C89.054 77.6675 103.68 70.1215 118.884 63.9955C133.036 58.2935 147.054 54.2275 162.082 51.5395C155.612 37.1655 146.426 26.2015 134.352 17.1055C132.304 20.4375 130.85 21.7015 128.068 24.4255C123.724 28.6815 118.874 32.3995 113.866 35.8335C103.948 42.6335 93.33 48.3775 82.9902 54.4995C71.9462 61.0375 60.7262 67.3195 49.0702 72.7115C37.1882 78.2075 30.1862 84.2795 15.4742 85.7655C12.7602 86.0395 7.31019 86.5595 4.59619 86.8615C5.14419 104.469 12.6562 122.783 23.4562 135.617C26.6662 125.599 36.0222 120.611 44.3522 114.095Z" fill="#FDE77F"/>
<path d="M168.66 72.6816C162.17 35.6836 132.572 5.85761 93.97 1.36161C89.278 0.815609 84.6282 0.66361 80.0562 0.88161C82.3122 0.69361 84.5962 0.599609 86.9 0.599609C128.914 0.599609 163.584 32.0436 168.66 72.6816Z" fill="#FDE77F"/>
<path d="M87.5 144.6C121.521 144.6 149.1 117.021 149.1 83.0004C149.1 48.9797 121.521 21.4004 87.5 21.4004C53.4792 21.4004 25.8999 48.9797 25.8999 83.0004C25.8999 117.021 53.4792 144.6 87.5 144.6Z" fill="#FFCE32"/>
<path d="M87.5 144.6C121.521 144.6 149.1 117.021 149.1 83.0004C149.1 48.9797 121.521 21.4004 87.5 21.4004C53.4792 21.4004 25.8999 48.9797 25.8999 83.0004C25.8999 117.021 53.4792 144.6 87.5 144.6Z" fill="url(#paint0_linear_11568_14323)"/>
<path d="M87.5 144.6C121.521 144.6 149.1 117.021 149.1 83.0004C149.1 48.9797 121.521 21.4004 87.5 21.4004C53.4792 21.4004 25.8999 48.9797 25.8999 83.0004C25.8999 117.021 53.4792 144.6 87.5 144.6Z" fill="url(#paint1_radial_11568_14323)"/>
<path opacity="0.63" d="M78.0501 77.3793C76.6001 76.4533 75.2901 75.2993 74.1881 73.9753C73.5161 73.1673 72.9181 72.2933 72.4321 71.3613C67.0141 74.3193 61.4261 76.9673 55.6761 79.2053C46.6121 82.7353 37.0681 85.2773 27.3361 85.9133C26.8121 85.9473 26.5621 85.5873 26.0381 85.6093C26.6641 96.839 29.6381 107.679 35.9361 116.553C37.1841 115.087 38.4521 113.637 39.7421 112.207C46.6401 104.555 54.1361 97.443 62.1941 91.021C67.8921 86.4793 73.8661 82.2893 80.0681 78.4633C79.3681 78.1533 78.6921 77.7873 78.0501 77.3793Z" fill="#FDE77F"/>
<path opacity="0.63" d="M122.268 31.8027C121.78 32.5227 121.266 33.2287 120.75 33.9267C119.354 35.8147 117.836 37.6127 116.238 39.3307C112.86 42.9627 109.124 46.2507 105.244 49.3367C104.374 50.0287 103.496 50.7087 102.61 51.3827C103.004 51.9387 103.388 52.5007 103.756 53.0727C104.524 54.2627 105.232 55.4907 105.854 56.7627C106.458 58.0007 106.98 59.2787 107.402 60.5907C107.742 61.6487 108.014 62.7267 108.224 63.8167C111.244 62.4747 114.3 61.2147 117.408 60.0887C122.552 58.2227 127.852 56.6947 133.278 55.9207C135.738 55.5687 138.224 55.3747 140.71 55.3987C141.328 55.4047 141.966 55.4067 142.608 55.4267C137.954 45.9327 130.924 37.7907 122.268 31.8027Z" fill="#FDE77F"/>
<path d="M149.1 83.0004C149.1 84.2084 149.066 85.4084 148.994 86.6004C147.132 54.2564 120.312 28.6004 87.5 28.6004C54.6879 28.6004 27.8679 54.2564 26.0059 86.6004C25.9339 85.4084 25.8999 84.2084 25.8999 83.0004C25.8999 48.9804 53.4799 21.4004 87.5 21.4004C121.52 21.4004 149.1 48.9804 149.1 83.0004Z" fill="#F47E08"/>
<path opacity="0.32" d="M116.924 32.3144C117.43 31.4224 118.112 30.5764 119.014 30.0644C109.794 24.5644 99.016 21.4004 87.5 21.4004C73.416 21.4004 60.44 26.1304 50.064 34.0844C50.212 34.1064 50.358 34.1304 50.504 34.1604C51.23 34.3104 51.96 34.5604 52.556 35.0124C53.022 35.3664 53.378 35.8324 53.576 36.3844C53.776 36.9364 53.808 37.5404 53.75 38.1204C53.73 38.3244 53.698 38.5244 53.658 38.7244C63.37 32.3284 75 28.6004 87.5 28.6004C97.672 28.6004 107.268 31.0684 115.722 35.4344C115.994 34.3504 116.374 33.2864 116.924 32.3144Z" fill="#FFCE32"/>
<path d="M111.734 85.8404C108.726 81.2444 103.466 77.0004 94.3 77.0004C94.3 77.0004 94.008 77.0344 93.5 77.0764V58.4264C96.32 59.0024 99.236 60.0684 98.7 62.0004C98.7 62.0004 96.806 69.1044 102.836 70.4084C104.528 70.7744 106.3 70.6004 107.894 69.9244C110.104 68.9884 113.026 66.8004 112.9 61.8004C112.9 61.8004 113.092 49.1444 96.202 47.4904C95.542 47.4264 94.882 47.3564 94.224 47.2704C94.016 47.2444 93.772 47.2144 93.5 47.1844V40.2004C93.5 37.4504 91.65 35.4004 88.9 35.4004C86.15 35.4004 84.3002 37.6504 84.3002 40.4004V47.1704C74.8362 48.1764 62.5462 52.9624 62.3002 71.0004C62.3002 71.0004 61.1562 90.314 84.3002 90.606V111.176C83.9962 111.186 83.6902 111.194 83.3762 111.196C83.1182 111.198 82.8582 111.204 82.6002 111.214C81.1342 111.268 74.7482 111.29 73.3702 107.732C72.8642 106.422 73.6842 104.966 75.0602 104.686C76.9342 104.304 79.4302 102.862 77.8362 97.692C77.2542 95.808 76.0022 94.18 74.2762 93.226C72.9182 92.476 71.0602 91.98 68.6162 92.372C65.2522 92.912 62.2822 94.94 60.5402 97.87C58.8022 100.792 57.5282 105.308 60.1002 111.2C60.1002 111.2 65.6542 125.184 82.9522 123.906C83.4022 123.872 83.8502 123.852 84.3002 123.838V129.6C84.3002 132.35 86.15 134.6 88.9 134.6C91.65 134.6 93.5 132.15 93.5 129.4V122.798C100.664 121.13 109.952 116.78 113.934 105.532C116.258 98.97 115.546 91.666 111.734 85.8404ZM74.8702 68.5984C74.9342 67.5464 75.2122 66.5184 75.6442 65.5564C76.6182 63.3904 79.0742 59.4204 84.3022 58.1664V76.8324C79.3762 76.0744 74.5462 73.9704 74.8702 68.5984ZM100.9 100.4C100.9 100.4 100.9 106.372 93.5 109.434V91.564C97.368 92.698 101.204 95.144 100.9 100.4Z" fill="#F47E08"/>
<path opacity="0.33" d="M95.782 118.648C95.61 117.408 95.506 116.15 95.5 114.898C95.49 113.326 95.636 111.76 95.836 110.204C95.928 109.48 96.032 108.76 96.134 108.038C95.38 108.542 94.512 109.016 93.5 109.434V91.564C94.624 91.894 95.744 92.334 96.762 92.922C96.76 92.658 96.758 92.394 96.76 92.13C96.784 89.354 97.034 86.5804 97.554 83.8544C97.968 81.6844 98.56 79.5524 99.306 77.4744C97.782 77.1704 96.12 77.0004 94.3 77.0004C94.3 77.0004 94.008 77.0344 93.5 77.0764V58.4264C94.414 58.6124 95.338 58.8524 96.152 59.1544C95.786 57.0664 96.21 54.9384 96.7 52.9064C97.12 51.1584 97.728 49.4704 98.294 47.7664C97.626 47.6564 96.932 47.5624 96.202 47.4904C95.542 47.4264 94.882 47.3564 94.224 47.2704C94.016 47.2444 93.772 47.2144 93.5 47.1844V40.2004C93.5 37.4504 91.65 35.4004 88.9 35.4004C86.15 35.4004 84.2998 37.6504 84.2998 40.4004V47.1704C82.1838 47.3944 79.9278 47.8104 77.6938 48.5184C78.2178 49.3444 78.6738 50.2164 79.0578 51.1164C80.0018 53.3304 80.5298 55.7124 80.6678 58.1144C80.6978 58.6284 80.7058 59.1424 80.6998 59.6564C81.7218 59.0244 82.9118 58.5004 84.2998 58.1664V76.8324C83.1818 76.6604 82.0678 76.4164 81.0198 76.0844C81.1498 76.5084 81.2678 76.9384 81.3718 77.3704C81.9738 79.8784 82.1578 82.4844 81.9958 85.0544C81.8818 86.8684 81.5938 88.676 81.1238 90.436C82.1278 90.534 83.1858 90.594 84.2998 90.608V111.178C83.9958 111.188 83.6898 111.196 83.3758 111.198C83.1178 111.2 82.8578 111.206 82.5998 111.216C82.1958 111.23 81.4178 111.242 80.4758 111.178C80.6018 111.958 80.7418 112.738 80.8738 113.516C81.1278 115.006 81.3538 116.506 81.3878 118.018C81.4198 119.5 81.2418 120.982 80.9198 122.428C80.8038 122.952 80.6678 123.472 80.5158 123.988C81.3018 123.994 82.1118 123.97 82.9518 123.908C83.4018 123.874 83.8498 123.854 84.2998 123.84V124.61C85.1658 124.6 86.032 124.608 86.896 124.624C89.096 124.662 91.298 124.74 93.5 124.68V122.802C94.448 122.582 95.434 122.312 96.438 121.988C96.1521 120.888 95.938 119.77 95.782 118.648Z" fill="#CC4400"/>
<path opacity="0.33" d="M71.9299 95.107C71.7899 96.453 71.6919 97.805 71.6959 99.157C71.6999 100.497 71.7959 101.847 72.1079 103.153C72.3559 104.187 72.7499 105.211 73.3919 106.067C73.6719 105.387 74.2759 104.843 75.0599 104.683C75.2739 104.639 75.4979 104.581 75.7199 104.505C75.6419 104.297 75.5719 104.087 75.5139 103.873C74.9979 101.967 75.1539 99.917 75.4099 97.983C75.5639 96.829 75.7819 95.685 75.9879 94.539C75.4879 94.021 74.9139 93.575 74.2759 93.221C73.6959 92.899 73.0219 92.627 72.2519 92.449C72.1379 93.335 72.0239 94.221 71.9299 95.107Z" fill="#CC4400"/>
<path d="M112.134 82.2408C109.126 77.6448 103.866 73.4008 94.7 73.4008C94.7 73.4008 94.408 73.4348 93.9 73.4768V54.8268C96.72 55.4028 99.636 56.4688 99.1 58.4008C99.1 58.4008 97.206 65.5048 103.236 66.8088C104.928 67.1748 106.7 67.0008 108.294 66.3248C110.504 65.3888 113.426 63.2008 113.3 58.2008C113.3 58.2008 113.492 45.5448 96.602 43.8908C95.942 43.8268 95.282 43.7568 94.624 43.6708C94.416 43.6448 94.172 43.6148 93.9 43.5848V37.8008C93.9 35.0508 91.65 32.8008 88.9 32.8008C86.15 32.8008 83.9001 35.0508 83.9001 37.8008V43.6628C74.5581 44.8528 62.9381 49.8668 62.7001 67.4008C62.7001 67.4008 61.5821 86.2708 83.9001 86.9908V107.595C83.8581 107.595 83.8181 107.597 83.7761 107.597C83.5181 107.599 83.2581 107.605 83.0001 107.615C81.5341 107.669 75.1481 107.691 73.7701 104.133C73.2641 102.823 74.0841 101.367 75.4601 101.087C77.3341 100.705 79.8301 99.263 78.2361 94.093C77.6541 92.209 76.4021 90.581 74.6761 89.627C73.3181 88.877 71.4601 88.381 69.0161 88.773C65.6521 89.313 62.6821 91.341 60.9401 94.271C59.2021 97.193 57.9281 101.709 60.5001 107.601C60.5001 107.601 66.0541 121.585 83.3521 120.307C83.5341 120.293 83.7181 120.283 83.9001 120.273V127.001C83.9001 129.751 86.15 132.001 88.9 132.001C91.65 132.001 93.9 129.751 93.9 127.001V119.199C101.064 117.531 110.352 113.181 114.334 101.933C116.658 95.371 115.946 88.067 112.134 82.2408ZM75.2701 64.9988C75.3341 63.9468 75.6121 62.9188 76.0441 61.9568C76.9681 59.9048 79.2201 56.2328 83.9021 54.7868V73.0988C79.2661 72.2368 74.9641 70.0808 75.2701 64.9988ZM101.3 96.801C101.3 96.801 101.3 102.773 93.9 105.835V87.9648C97.768 89.099 101.604 91.545 101.3 96.801Z" fill="#FFCE32"/>
<path d="M93.818 119.34C93.808 119.468 93.796 119.596 93.79 119.724C93.69 121.49 93.81 123.268 93.614 125.03C93.524 125.844 93.396 126.708 93.026 127.446C92.658 128.176 92.114 128.82 91.5 129.356C90.904 129.874 90.218 130.328 89.47 130.592C88.888 130.798 88.272 130.856 87.662 130.768C86.534 130.606 85.5402 129.992 84.5542 129.46C85.4142 130.972 87.042 132 88.9 132C91.65 132 93.9 129.75 93.9 127V119.344C93.872 119.342 93.844 119.34 93.818 119.34Z" fill="#FDE77F"/>
<path d="M75.2702 64.9973C75.3342 63.9453 75.6122 62.9173 76.0442 61.9553C76.8762 60.1073 78.7862 56.9473 82.5762 55.2793C81.0742 55.7053 79.6242 56.3733 78.4202 57.3773C77.1462 58.4413 76.2102 59.8413 75.6582 61.4033C74.9742 63.3453 74.6222 65.5913 75.3182 67.5793C75.5422 68.2153 75.9182 68.8033 76.3402 69.3253C76.7782 69.8633 77.2902 70.3533 77.8722 70.7353C76.1742 69.4473 75.1122 67.6093 75.2702 64.9973Z" fill="#FDE77F"/>
<path d="M75.3301 101.12C75.3741 101.108 75.4161 101.094 75.4601 101.086C77.3341 100.704 79.8301 99.2621 78.2361 94.0921C77.6541 92.2081 76.4021 90.5801 74.6761 89.6261C73.3181 88.8761 71.4601 88.3801 69.0161 88.7721C67.1621 89.0701 65.4281 89.8221 63.9541 90.9261C64.8461 90.5021 65.7621 90.1261 66.7021 89.8221C68.4381 89.2621 70.3161 88.9341 72.1301 89.2701C73.0141 89.4321 73.8641 89.7641 74.6141 90.2581C75.0161 90.5241 75.4081 90.8301 75.7321 91.1881C76.0741 91.5681 76.3541 92.0001 76.5741 92.4621C77.0221 93.4021 77.2341 94.4341 77.3341 95.4641C77.4321 96.4741 77.3461 97.4801 76.9881 98.4361C76.6121 99.4341 76.0001 100.298 75.3301 101.12Z" fill="#FDE77F"/>
<path d="M100.426 90.8561C99.7961 90.2621 99.102 89.7361 98.368 89.2761C97.64 88.8181 96.8621 88.4161 96.0381 88.1641C95.4221 87.9764 94.7361 87.8564 94.1021 88.0281C97.9001 89.1841 101.598 91.6361 101.3 96.8001C101.3 96.8001 101.296 99.2681 99.3301 101.844C100.598 100.732 101.674 99.3401 102.224 97.7361C102.5 96.9321 102.636 96.0841 102.588 95.2341C102.536 94.3281 102.272 93.4461 101.842 92.6481C101.476 91.9661 100.99 91.3861 100.426 90.8561Z" fill="#FDE77F"/>
<path d="M112.134 82.2404C109.126 77.6444 103.866 73.4004 94.6999 73.4004C94.6999 73.4004 94.6939 73.4004 94.6899 73.4024C94.9899 73.4324 95.2879 73.4644 95.5859 73.5024C99.3239 73.9804 103.078 75.1144 106.148 77.3604C107.678 78.4804 108.976 79.8564 110.02 81.4364C111.238 83.2804 112.246 85.2504 112.918 87.3604C114.218 91.436 114.172 95.784 113.138 99.914C112.594 102.082 111.806 104.208 110.894 106.248C110.008 108.228 108.832 110.044 107.424 111.692C106.476 112.8 105.444 113.824 104.374 114.806C108.462 112.092 112.176 108.026 114.334 101.934C116.658 95.37 115.946 88.066 112.134 82.2404Z" fill="#FDE77F"/>
<path d="M101.86 44.9661C103.426 45.5921 104.946 46.3521 106.32 47.3361C107.57 48.2341 108.662 49.3121 109.554 50.5681C110.422 51.7901 111.094 53.1481 111.59 54.5621C112.052 55.8861 112.404 57.2741 112.42 58.6841C112.432 59.8761 112.216 61.0701 111.758 62.1701C111.318 63.2281 110.664 64.1901 109.84 64.9861C109.108 65.6921 108.252 66.2561 107.326 66.6681C107.654 66.5741 107.98 66.4601 108.296 66.3261C110.504 65.3881 113.426 63.2001 113.3 58.2001C113.3 58.2001 113.456 47.7001 100.718 44.5781C101.104 44.6921 101.486 44.8161 101.86 44.9661Z" fill="#FDE77F"/>
<path d="M93.672 42.2927C93.746 42.3427 93.738 42.9387 93.814 42.9847C93.816 42.9867 93.9 43.6007 93.9 43.6027V37.8027C93.9 35.0527 91.65 32.8027 88.9 32.8027C87.414 32.8027 86.076 33.4607 85.1582 34.4967C85.5942 34.2187 86.076 34.0127 86.59 33.8987C87.816 33.6287 89.096 33.8927 90.18 34.5027C91.188 35.0707 91.936 35.9727 92.434 37.0067C92.948 38.0727 93.222 39.2387 93.414 40.4027C93.518 41.0287 93.596 41.6607 93.672 42.2927Z" fill="#FDE77F"/>
<path opacity="0.63" d="M106.728 47.0684C104.208 49.8384 101.296 52.2644 98.3418 54.5444C97.8518 54.9224 97.3598 55.3004 96.8638 55.6764C98.3918 56.3004 99.4378 57.1764 99.0978 58.4004C99.0978 58.4004 97.2038 65.5044 103.234 66.8084C104.926 67.1744 106.698 67.0004 108.292 66.3244C110.504 65.3884 113.426 63.2004 113.3 58.2004C113.3 58.2004 113.404 51.3484 106.728 47.0684Z" fill="#FDE77F"/>
<path opacity="0.63" d="M78.0338 86.2967C80.7638 84.0867 83.6138 82.0247 86.55 80.1007C90.156 77.7387 93.888 75.5807 97.696 73.5647C96.746 73.4587 95.75 73.4007 94.7 73.4007C94.7 73.4007 94.408 73.4347 93.9 73.4767V57.8887C91.372 59.7407 88.802 61.5367 86.192 63.2627C85.4318 63.7647 84.6678 64.2607 83.8998 64.7507V73.0987C80.8358 72.5287 77.9198 71.3927 76.3798 69.2207C74.8818 70.0407 73.3678 70.8287 71.8318 71.5707C69.3698 72.7587 66.8518 73.8387 64.2818 74.7727C64.1918 74.8047 64.1018 74.8367 64.0098 74.8687C65.6918 79.3167 69.4938 84.4447 78.0338 86.2967Z" fill="#FDE77F"/>
<path opacity="0.63" d="M60.2141 106.729C63.1741 101.501 66.9061 96.7349 71.1461 92.4849C72.1841 91.4449 73.2501 90.4369 74.3401 89.4529C73.0161 88.8029 71.2641 88.4109 69.0161 88.7729C65.6521 89.3129 62.6821 91.3409 60.9401 94.2709C59.2821 97.0589 58.0481 101.299 60.1741 106.803C60.1881 106.777 60.2001 106.753 60.2141 106.729Z" fill="#FDE77F"/>
</g>
<defs>
<filter id="filter0_d_11568_14323" x="0.551758" y="0.599609" width="173.548" height="181.001" filterUnits="userSpaceOnUse" color-interpolation-filters="sRGB">
<feFlood flood-opacity="0" result="BackgroundImageFix"/>
<feColorMatrix in="SourceAlpha" type="matrix" values="0 0 0 0 0 0 0 0 0 0 0 0 0 0 0 0 0 0 127 0" result="hardAlpha"/>
<feOffset dy="4"/>
<feGaussianBlur stdDeviation="2"/>
<feComposite in2="hardAlpha" operator="out"/>
<feColorMatrix type="matrix" values="0 0 0 0 0 0 0 0 0 0 0 0 0 0 0 0 0 0 0.25 0"/>
<feBlend mode="normal" in2="BackgroundImageFix" result="effect1_dropShadow_11568_14323"/>
<feBlend mode="normal" in="SourceGraphic" in2="effect1_dropShadow_11568_14323" result="shape"/>
</filter>
<linearGradient id="paint0_linear_11568_14323" x1="89.86" y1="177.595" x2="86.153" y2="28.9935" gradientUnits="userSpaceOnUse">
<stop offset="0.1326" stop-color="#F47E08" stop-opacity="0.5"/>
<stop offset="0.3219" stop-color="#F68A0E" stop-opacity="0.3909"/>
<stop offset="0.6609" stop-color="#FAA91E" stop-opacity="0.1955"/>
<stop offset="1" stop-color="#FFCE32" stop-opacity="0"/>
</linearGradient>
<radialGradient id="paint1_radial_11568_14323" cx="0" cy="0" r="1" gradientUnits="userSpaceOnUse" gradientTransform="translate(87.5 83.0004) scale(61.6 61.6)">
<stop stop-color="#F47E08"/>
<stop offset="0.2058" stop-color="#F5830A" stop-opacity="0.7942"/>
<stop offset="0.4424" stop-color="#F79112" stop-opacity="0.5576"/>
<stop offset="0.6942" stop-color="#FAA81E" stop-opacity="0.3058"/>
<stop offset="0.955" stop-color="#FEC82F" stop-opacity="0.045"/>
<stop offset="1" stop-color="#FFCE32" stop-opacity="0"/>
</radialGradient>
</defs>
</svg>
