<svg width="28" height="28" viewBox="0 0 28 28" fill="none" xmlns="http://www.w3.org/2000/svg">
    <path d="M21.0066 7.57227C19.7176 6.98074 18.3364 6.54518 16.8914 6.29602C16.8649 6.29111 16.8384 6.30288 16.8257 6.32741C16.6481 6.64328 16.4509 7.05627 16.3136 7.37999C14.7597 7.1475 13.2137 7.1475 11.6913 7.37999C11.5529 7.04842 11.3489 6.64328 11.1703 6.32741C11.1566 6.30387 11.1301 6.29209 11.1046 6.29602C9.66063 6.54518 8.27844 6.98074 6.98944 7.57227C6.97865 7.57717 6.96884 7.58502 6.96197 7.59581C4.3408 11.5119 3.62271 15.3318 3.97488 19.1046C3.97684 19.1233 3.98665 19.1409 4.00136 19.1517C5.73083 20.4221 7.40635 21.1931 9.05047 21.7042C9.07696 21.7121 9.10442 21.7022 9.1211 21.6807C9.50956 21.15 9.85683 20.5898 10.1541 20.0003C10.1717 19.9659 10.1541 19.9247 10.1187 19.911C9.56842 19.702 9.04555 19.448 8.54133 19.1596C8.50111 19.136 8.49818 19.0791 8.53448 19.0516C8.64042 18.9722 8.74636 18.8898 8.8474 18.8064C8.86604 18.7907 8.89154 18.7878 8.91312 18.7976C12.222 20.3083 15.8045 20.3083 19.0741 18.7976C19.0957 18.7868 19.1212 18.7907 19.1398 18.8054C19.2408 18.8888 19.3468 18.9722 19.4537 19.0516C19.49 19.0791 19.4881 19.136 19.4478 19.1596C18.9446 19.4538 18.4207 19.703 17.8694 19.911C17.8331 19.9247 17.8174 19.9659 17.8351 20.0012C18.1392 20.5888 18.4855 21.149 18.8671 21.6807C18.8828 21.7032 18.9112 21.713 18.9377 21.7052C20.5897 21.1941 22.2652 20.4231 23.9946 19.1527C24.0094 19.1419 24.0192 19.1242 24.0211 19.1066C24.443 14.7452 23.3148 10.9566 21.0321 7.59777C21.0262 7.58698 21.0174 7.57815 21.0056 7.57325L21.0066 7.57227ZM10.6465 16.8072C9.64983 16.8072 8.82975 15.8929 8.82975 14.7697C8.82975 13.6465 9.63511 12.7322 10.6465 12.7322C11.6579 12.7322 12.4799 13.6553 12.4633 14.7697C12.4633 15.8929 11.6579 16.8072 10.6465 16.8072ZM17.3652 16.8072C16.3685 16.8072 15.5485 15.8929 15.5485 14.7697C15.5485 13.6465 16.3538 12.7322 17.3652 12.7322C18.3766 12.7322 19.1986 13.6553 19.182 14.7697C19.182 15.8929 18.3854 16.8072 17.3652 16.8072Z" fill="#616498"/>
</svg>
