<svg width="28" height="28" viewBox="0 0 28 28" fill="none" xmlns="http://www.w3.org/2000/svg">
    <path d="M18.3324 5.69727H9.66846C7.27487 5.69727 5.32764 7.6445 5.32764 10.0381V17.9644C5.32764 20.358 7.27487 22.3052 9.66846 22.3052H18.3324C20.726 22.3052 22.6733 20.358 22.6733 17.9644V10.0381C22.6733 7.6445 20.726 5.69727 18.3324 5.69727ZM6.85894 10.0381C6.85894 8.48912 8.11949 7.22857 9.66846 7.22857H18.3324C19.8814 7.22857 21.142 8.48912 21.142 10.0381V17.9644C21.142 19.5133 19.8814 20.7739 18.3324 20.7739H9.66846C8.11949 20.7739 6.85894 19.5133 6.85894 17.9644V10.0381Z" fill="#616498"/>
    <path d="M14.0006 18.0383C16.2264 18.0383 18.0383 16.2274 18.0383 14.0006C18.0383 11.7738 16.2274 9.96289 14.0006 9.96289C11.7738 9.96289 9.96289 11.7738 9.96289 14.0006C9.96289 16.2274 11.7738 18.0383 14.0006 18.0383ZM14.0006 11.4952C15.3828 11.4952 16.507 12.6194 16.507 14.0016C16.507 15.3838 15.3828 16.508 14.0006 16.508C12.6184 16.508 11.4942 15.3838 11.4942 14.0016C11.4942 12.6194 12.6184 11.4952 14.0006 11.4952Z" fill="#616498"/>
    <path d="M18.4119 10.6133C19.0113 10.6133 19.4998 10.1258 19.4998 9.5254C19.4998 8.92505 19.0122 8.4375 18.4119 8.4375C17.8115 8.4375 17.324 8.92505 17.324 9.5254C17.324 10.1258 17.8115 10.6133 18.4119 10.6133Z" fill="#616498"/>
</svg>
