<svg width="28" height="28" viewBox="0 0 28 28" fill="none" xmlns="http://www.w3.org/2000/svg">
    <path d="M5.3034 13.5239C5.34263 13.5042 5.38189 13.4856 5.42015 13.4679C6.08525 13.1599 6.75918 12.8715 7.43213 12.5831C7.46843 12.5831 7.52923 12.5409 7.56357 12.5272C7.61556 12.5046 7.66756 12.4831 7.71955 12.4605C7.81961 12.4173 7.91968 12.3751 8.01875 12.332C8.21887 12.2466 8.418 12.1613 8.61812 12.0759L9.81589 11.5629C10.6144 11.2215 11.4139 10.8792 12.2124 10.5378C13.0109 10.1964 13.8104 9.85403 14.6089 9.51265C15.4075 9.17127 16.207 8.82892 17.0055 8.48754C17.804 8.14616 18.6035 7.8038 19.402 7.46242C19.5796 7.3859 19.7718 7.2721 19.9621 7.23875C20.122 7.2103 20.278 7.15537 20.4389 7.12496C20.744 7.06708 21.0804 7.04354 21.3728 7.17009C21.4738 7.21423 21.567 7.27603 21.6445 7.35353C22.0153 7.72041 21.9633 8.32273 21.8848 8.83872C21.3384 12.435 20.792 16.0322 20.2447 19.6285C20.1701 20.1219 20.0681 20.6634 19.6786 20.9754C19.349 21.2392 18.8801 21.2687 18.473 21.1568C18.0659 21.044 17.7069 20.8076 17.3547 20.5751C15.894 19.6079 14.4324 18.6406 12.9717 17.6734C12.6244 17.4438 12.2379 17.1437 12.2419 16.7268C12.2438 16.4756 12.3939 16.252 12.5469 16.0528C13.8163 14.3969 15.6478 13.259 17.0104 11.6796C17.2026 11.4569 17.3537 11.0548 17.0898 10.9262C16.9329 10.8497 16.7524 10.9537 16.6091 11.0528C14.8081 12.3035 13.008 13.5553 11.2069 14.806C10.6193 15.2141 10.0033 15.6339 9.29501 15.734C8.6613 15.8243 8.02366 15.6477 7.41055 15.4672C6.89652 15.3161 6.38346 15.1611 5.87237 15.0012C5.60064 14.9169 5.32007 14.8256 5.11015 14.6343C4.90022 14.443 4.77957 14.1213 4.90612 13.8662C4.98558 13.7063 5.13959 13.6053 5.30146 13.5229L5.3034 13.5239Z" fill="#616498"/>
</svg>
