<svg width="28" height="28" viewBox="0 0 28 28" fill="none" xmlns="http://www.w3.org/2000/svg">
    <path d="M22.8157 11.0988C22.7055 10.0354 22.4684 8.85976 21.5958 8.24195C20.9199 7.76285 20.0316 7.74514 19.2023 7.74613C17.4492 7.74613 15.6952 7.74908 13.9421 7.75007C12.2559 7.75203 10.5697 7.75302 8.88354 7.75498C8.17916 7.75498 7.49445 7.70088 6.84025 8.00584C6.27852 8.26753 5.83877 8.76532 5.57414 9.31918C5.20719 10.0895 5.13046 10.9621 5.08619 11.814C5.00454 13.3654 5.01339 14.9207 5.11079 16.4712C5.1826 17.6025 5.3646 18.8529 6.23917 19.574C7.01438 20.2124 8.10832 20.2439 9.11373 20.2449C12.3051 20.2479 15.4974 20.2508 18.6897 20.2528C19.099 20.2538 19.5259 20.2459 19.9431 20.2006C20.7635 20.1121 21.5456 19.877 22.0729 19.269C22.6051 18.6561 22.7419 17.8032 22.8226 16.9955C23.0193 15.0358 23.0173 13.0575 22.8157 11.0988ZM12.0965 16.7466V11.2523L16.854 13.999L12.0965 16.7466Z" fill="#616498"/>
</svg>
