<svg width="20" height="20" viewBox="0 0 20 20" fill="none" xmlns="http://www.w3.org/2000/svg">
    <g clip-path="url(#clip0_7210_26037)">
        <path d="M17.2491 14.4997C16.7628 14.4997 16.307 14.6271 15.9102 14.85L14.1988 13.1376C14.8552 12.2615 15.2493 11.1773 15.2493 10C15.2493 8.82281 14.8552 7.73852 14.1988 6.86207L15.9102 5.15004C16.307 5.37246 16.7628 5.5002 17.2491 5.5002C18.7654 5.5002 19.9991 4.2666 19.9991 2.75078C19.9991 1.23457 18.7654 0.000976562 17.2491 0.000976562C15.733 0.000976562 14.4993 1.23457 14.4993 2.75078C14.4993 3.23703 14.6277 3.69312 14.8499 4.08937L13.1382 5.8018C12.2615 5.14441 11.1773 4.75031 10.0001 4.75031C8.82285 4.75031 7.73863 5.14441 6.86207 5.8018L5.15019 4.08937C5.37238 3.69312 5.50082 3.23703 5.50082 2.75078C5.50082 1.23457 4.26711 0.000976562 2.75066 0.000976562C1.23465 0.000976562 0.000976562 1.23457 0.000976562 2.75078C0.000976562 4.2666 1.23469 5.5002 2.75066 5.5002C3.23691 5.5002 3.69312 5.37242 4.09004 5.15004L5.80145 6.86207C5.14496 7.73852 4.75094 8.82281 4.75094 10C4.75094 11.1773 5.14492 12.2615 5.80145 13.1376L4.09004 14.85C3.69312 14.6271 3.23695 14.4997 2.75066 14.4997C1.23465 14.4997 0.000976562 15.7333 0.000976562 17.2491C0.000976562 18.7655 1.23469 19.9991 2.75066 19.9991C4.26711 19.9991 5.50082 18.7655 5.50082 17.2491C5.50082 16.763 5.37238 16.3069 5.15019 15.9102L6.86207 14.1986C7.73867 14.8556 8.82289 15.2493 10.0001 15.2493C11.1773 15.2493 12.2615 14.8556 13.1382 14.1986L14.8499 15.9102C14.6277 16.3069 14.4993 16.763 14.4993 17.2491C14.4993 18.7655 15.733 19.9991 17.2491 19.9991C18.7654 19.9991 19.9991 18.7655 19.9991 17.2491C19.9991 15.7333 18.7655 14.4997 17.2491 14.4997Z" fill="#616498"/>
    </g>
    <defs>
        <clipPath id="clip0_7210_26037">
            <rect width="20" height="20" fill="white"/>
        </clipPath>
    </defs>
</svg>
