<svg width="24" height="24" viewBox="0 0 24 24" fill="none" xmlns="http://www.w3.org/2000/svg">
<path fill-rule="evenodd" clip-rule="evenodd" d="M9.00587 2.02128C8.98471 1.97681 8.93416 1.95454 8.88712 1.96912C7.09964 2.52322 5.51651 3.54195 4.27891 4.88414C4.23889 4.92755 4.24577 4.99593 4.29276 5.03168C5.51815 5.96385 6.49022 7.21187 7.0876 8.65437C7.10601 8.69882 7.15316 8.72434 7.20036 8.71506C8.38553 8.48216 9.60105 8.33385 10.8404 8.27669C10.9002 8.27393 10.9445 8.21971 10.9346 8.16062C10.5754 5.99878 9.91792 3.93776 9.00587 2.02128ZM3.22301 6.23472C3.25424 6.18726 3.31888 6.17595 3.36422 6.21018C4.31533 6.92823 5.08391 7.87522 5.58803 8.96919C5.61374 9.02499 5.58242 9.09007 5.52312 9.10611C4.22622 9.45681 2.97154 9.91029 1.76836 10.4573C1.69627 10.49 1.61625 10.4305 1.62858 10.3523C1.86533 8.85015 2.42058 7.45386 3.22301 6.23472ZM6.11674 10.6093C6.10584 10.5531 6.04958 10.5184 5.99434 10.5331C4.44648 10.9458 2.96216 11.5142 1.55919 12.2205C1.52479 12.2379 1.50346 12.2736 1.50458 12.3121C1.56327 14.3227 2.18721 16.1916 3.22301 17.7653C3.25424 17.8127 3.3189 17.824 3.36424 17.7898C5.11708 16.4665 6.25 14.3655 6.25 12C6.25 11.5243 6.20419 11.0594 6.11674 10.6093ZM20.4777 5.96717C20.5223 5.93743 20.5823 5.94885 20.6129 5.99274C21.5039 7.26775 22.1189 8.74979 22.3715 10.3523C22.3838 10.4305 22.3038 10.49 22.2317 10.4573C20.8919 9.84816 19.4882 9.355 18.0334 8.99059C17.9724 8.97531 17.9401 8.90829 17.9674 8.85165C18.533 7.68033 19.4043 6.6843 20.4777 5.96717ZM19.5148 4.66666C19.558 4.71092 19.5502 4.78331 19.4995 4.81869C18.1613 5.75223 17.0963 7.05025 16.4484 8.56884C16.4299 8.61205 16.3842 8.63706 16.3379 8.62888C15.1053 8.41098 13.8413 8.28429 12.5529 8.25606C12.5042 8.25499 12.4632 8.21908 12.4557 8.17092C12.1044 5.90884 11.4468 3.74807 10.5265 1.73236C10.4987 1.67152 10.537 1.6009 10.6033 1.59209C11.0602 1.53135 11.5265 1.5 12 1.5C14.9457 1.5 17.608 2.71296 19.5148 4.66666ZM20.4777 18.0328C20.5222 18.0626 20.5823 18.0512 20.6129 18.0073C21.7468 16.3847 22.4338 14.4268 22.4955 12.3121C22.4966 12.2736 22.4753 12.2379 22.4409 12.2205C20.8943 11.4419 19.2488 10.8309 17.5283 10.4112C17.4742 10.3981 17.4198 10.4318 17.4083 10.4863C17.3046 10.9745 17.25 11.4809 17.25 12C17.25 14.516 18.5317 16.7327 20.4777 18.0328ZM15.8564 10.0683C15.9128 10.0778 15.9495 10.1326 15.9377 10.1886C15.8147 10.773 15.75 11.379 15.75 12C15.75 14.9732 17.2329 17.6001 19.4995 19.1813C19.5502 19.2167 19.558 19.2891 19.5148 19.3333C17.608 21.287 14.9457 22.5 12 22.5C11.5265 22.5 11.0602 22.4686 10.6033 22.4079C10.537 22.3991 10.4987 22.3285 10.5265 22.2677C11.9545 19.1399 12.7502 15.6629 12.7502 12C12.7502 11.2828 12.7196 10.5727 12.6599 9.87092C12.6548 9.81128 12.7026 9.76034 12.7624 9.76227C13.8129 9.79611 14.8457 9.89962 15.8564 10.0683ZM11.2502 12C11.2502 11.2783 11.2173 10.5643 11.1529 9.85933C11.1481 9.8066 11.1028 9.76693 11.0499 9.76906C9.89603 9.81544 8.76378 9.94592 7.65913 10.1545C7.60417 10.1649 7.5687 10.2185 7.57968 10.2734C7.6914 10.8316 7.75 11.4089 7.75 12C7.75 14.8434 6.39371 17.3701 4.29277 18.9683C4.24578 19.0041 4.23889 19.0724 4.27891 19.1159C5.51651 20.458 7.09964 21.4768 8.88712 22.0309C8.93416 22.0455 8.9847 22.0232 9.00587 21.9787C10.4448 18.955 11.2502 15.5716 11.2502 12Z" fill="#616498"/>
</svg>
