<svg width="22" height="22" viewBox="0 0 22 22" fill="none" xmlns="http://www.w3.org/2000/svg">
<path d="M15.3083 17.3983H6.69161C6.30661 17.3983 5.87577 17.0958 5.74744 16.7292L1.95244 6.11416C1.41161 4.5925 2.04411 4.125 3.34577 5.06L6.92077 7.6175C7.51661 8.03 8.19494 7.81916 8.45161 7.15L10.0649 2.85083C10.5783 1.47583 11.4308 1.47583 11.9441 2.85083L13.5574 7.15C13.8141 7.81916 14.4924 8.03 15.0791 7.6175L18.4341 5.225C19.8641 4.19833 20.5516 4.72083 19.9649 6.38L16.2616 16.7475C16.1241 17.0958 15.6933 17.3983 15.3083 17.3983Z" stroke="#EEEEEE" stroke-width="1.5" stroke-linecap="round" stroke-linejoin="round"/>
<path d="M5.9585 20.1667H16.0418" stroke="#EEEEEE" stroke-width="1.5" stroke-linecap="round" stroke-linejoin="round"/>
<path d="M8.7085 12.8333H13.2918" stroke="#EEEEEE" stroke-width="1.5" stroke-linecap="round" stroke-linejoin="round"/>
</svg>
