<svg
        width="28"
        height="28"
        viewBox="0 0 28 28"
        fill="none"
        xmlns="http://www.w3.org/2000/svg"
>
    <path
            d="M18.888 2.33301H9.11134C4.86467 2.33301 2.33301 4.86467 2.33301 9.11134V18.8763C2.33301 23.1347 4.86467 25.6663 9.11134 25.6663H18.8763C23.123 25.6663 25.6547 23.1347 25.6547 18.888V9.11134C25.6663 4.86467 23.1347 2.33301 18.888 2.33301ZM19.1447 11.468C18.433 13.498 16.5197 14.863 14.373 14.863C14.3613 14.863 14.3613 14.863 14.3497 14.863L11.9463 14.8513C11.9463 14.8513 11.9463 14.8513 11.9347 14.8513C11.048 14.8513 10.278 15.4463 10.0447 16.298C11.083 16.6247 11.8413 17.593 11.8413 18.7363C11.8413 20.148 10.6863 21.303 9.27467 21.303C7.86301 21.303 6.70801 20.148 6.70801 18.7363C6.70801 17.698 7.33801 16.7997 8.22467 16.403V11.3163C7.33801 10.9663 6.70801 10.103 6.70801 9.09967C6.70801 7.78134 7.78134 6.70801 9.09967 6.70801C10.418 6.70801 11.4913 7.78134 11.4913 9.09967C11.4913 10.1147 10.8613 10.9663 9.97467 11.3163V13.673C10.5463 13.3113 11.223 13.1013 11.9347 13.1013H11.9463L14.3497 13.113C15.7263 13.1597 16.9513 12.273 17.4413 10.9897C16.8697 10.5463 16.4963 9.86967 16.4963 9.09967C16.4963 7.78134 17.5697 6.70801 18.888 6.70801C20.2063 6.70801 21.2797 7.78134 21.2797 9.09967C21.2913 10.3363 20.3463 11.3397 19.1447 11.468Z"
            fill="url(#paint0_linear_80_2375)"
    />
    <defs>
        <linearGradient
                id="paint0_linear_80_2375"
                x1="13.9939"
                y1="2.33301"
                x2="13.9939"
                y2="25.6663"
                gradientUnits="userSpaceOnUse"
        >
            <stop stop-color="#CA33FF" />
            <stop offset="1" stop-color="#3965FF" />
        </linearGradient>
    </defs>
</svg>