<svg width="18" height="18" viewBox="0 0 18 18" fill="none" xmlns="http://www.w3.org/2000/svg">
    <path d="M16.3399 2.3335C16.5127 2.3335 16.6857 2.26758 16.8175 2.13574L17.8005 1.15218C18.0642 0.888504 18.0642 0.461145 17.8005 0.197754C17.5369 -0.065918 17.1095 -0.065918 16.8461 0.197754L15.8625 1.18125C15.5992 1.44492 15.5992 1.87228 15.8628 2.13574C15.9947 2.26758 16.1671 2.3335 16.3399 2.3335Z" fill="#616498"/>
    <path d="M17.8008 4.13047L16.8175 3.14697C16.5538 2.88351 16.1265 2.88309 15.8628 3.14697C15.5991 3.41043 15.5991 3.83779 15.8628 4.10146L16.8461 5.08496C16.9779 5.2168 17.1504 5.28271 17.3234 5.28271C17.4962 5.28271 17.6689 5.2168 17.8008 5.08496C18.0645 4.8215 18.0645 4.39414 17.8008 4.13047Z" fill="#616498"/>
    <path d="M13.8963 2.13569C14.0282 2.26753 14.2009 2.33344 14.374 2.33344C14.5467 2.33344 14.7192 2.26753 14.851 2.1359C15.1147 1.87223 15.1147 1.44487 14.8513 1.1812L13.8683 0.197701C13.6046 -0.0659707 13.1773 -0.0657598 12.9136 0.19749C12.6499 0.461162 12.6499 0.888521 12.9133 1.15219L13.8963 2.13569Z" fill="#616498"/>
    <path d="M14.8511 4.10163C15.1148 3.83796 15.1148 3.4106 14.8511 3.14693C14.5874 2.88346 14.1601 2.88368 13.8964 3.14714L12.3867 4.65741C11.0313 3.52127 9.337 2.90234 7.54716 2.90234C5.53063 2.90234 3.63522 3.68717 2.20918 5.11279C-0.733788 8.05671 -0.733788 12.8459 2.20918 15.7884C3.63518 17.2142 5.5306 17.9993 7.54713 17.9993C9.56341 17.9993 11.4591 17.2142 12.8845 15.7884C15.6667 13.0069 15.8184 8.57579 13.3409 5.61254L14.8511 4.10163ZM11.3382 13.5089C11.4987 13.7122 11.5289 13.9888 11.4157 14.2217C11.3031 14.4544 11.0671 14.6023 10.8084 14.6023H9.77378C9.56724 14.6023 9.37195 14.5076 9.24398 14.3454L7.54713 12.1958L5.85003 14.3456C5.72178 14.5075 5.52677 14.6023 5.32022 14.6023H4.28557C4.02711 14.6023 3.79117 14.4544 3.67832 14.2217C3.56543 13.9888 3.59563 13.7121 3.75605 13.5091L6.16946 10.4512L3.75605 7.39327C3.59563 7.19025 3.56543 6.91357 3.67832 6.68066C3.79121 6.44796 4.02714 6.30013 4.28557 6.30013H5.32022C5.52677 6.30013 5.72178 6.39463 5.85003 6.55673L7.54713 8.70636L9.24422 6.55673C9.37223 6.39463 9.56748 6.30013 9.77403 6.30013H10.8084C11.0671 6.30013 11.303 6.44796 11.4156 6.68066C11.5288 6.91357 11.4986 7.19021 11.3382 7.39345L8.92423 10.4512L11.3382 13.5089Z" fill="#616498"/>
</svg>
