<svg width="28" height="28" viewBox="0 0 28 28" fill="none" xmlns="http://www.w3.org/2000/svg">
<path d="M9.82599 24.0544C11.8742 25.1293 12.8983 25.6667 14 25.6667V14.0001L3.07766 8.25146C3.06159 8.27731 3.04579 8.3034 3.03028 8.32975C2.33331 9.51334 2.33331 10.9862 2.33331 13.9318V14.0683C2.33331 17.0139 2.33331 18.4868 3.03028 19.6704C3.72724 20.8539 4.98238 21.5126 7.49266 22.83L9.82599 24.0544Z" fill="#F7BE2C"/>
<path opacity="0.7" d="M20.5069 5.17002L18.1736 3.94555C16.1254 2.87068 15.1013 2.33325 13.9996 2.33325C12.898 2.33325 11.8739 2.87068 9.82562 3.94555L7.49229 5.17002C5.0379 6.45803 3.78339 7.11637 3.0773 8.25133L13.9996 13.9999L24.9219 8.25133C24.2158 7.11637 22.9613 6.45803 20.5069 5.17002Z" fill="#F7BE2C"/>
<path opacity="0.5" d="M24.9697 8.32975C24.9542 8.3034 24.9384 8.27731 24.9223 8.25146L14 14.0001V25.6667C15.1017 25.6667 16.1258 25.1293 18.174 24.0544L20.5073 22.8299C23.0176 21.5126 24.2727 20.8539 24.9697 19.6704C25.6667 18.4868 25.6667 17.0139 25.6667 14.0683V13.9318C25.6667 10.9862 25.6667 9.51334 24.9697 8.32975Z" fill="#F7BE2C"/>
<path d="M7.37721 5.23104C7.41551 5.21093 7.45412 5.19067 7.49302 5.17026L9.23547 4.25586L19.853 10.0955L24.5474 7.74836C24.708 7.93027 24.8476 8.12196 24.9701 8.32985C25.1446 8.6262 25.2754 8.94069 25.3734 9.29189L20.7087 11.6243V15.1668C20.7087 15.6501 20.3169 16.0418 19.8337 16.0418C19.3504 16.0418 18.9587 15.6501 18.9587 15.1668V12.4993L14.8753 14.5409V25.5548C14.5756 25.6295 14.2907 25.6668 14.0003 25.6668C13.71 25.6668 13.4251 25.6295 13.1253 25.5548V14.5409L2.62726 9.29189C2.72532 8.94069 2.85613 8.6262 3.03064 8.32985C3.15306 8.12196 3.29269 7.93027 3.45332 7.74836L14.0003 13.0219L17.9509 11.0466L7.37721 5.23104Z" fill="#F7BE2C"/>
</svg>
