<svg width="78" height="42" viewBox="0 0 78 42" fill="none" xmlns="http://www.w3.org/2000/svg">
<g clip-path="url(#clip0_1223_3821)">
<path d="M60.3721 51.6674L40.9961 43.4443C39.714 42.8987 39.1547 41.5055 39.7513 40.3309L53.4618 13.3983C54.0584 12.2256 55.5864 11.7164 56.8696 12.2609L76.2456 20.4863C77.53 21.0307 78.087 22.4241 77.4917 23.5965L63.7793 50.5292C63.1822 51.7025 61.6551 52.21 60.3719 51.6675L60.3721 51.6674ZM13.6139 48.7286L0.750603 21.4492C0.190357 20.2614 0.79233 18.8827 2.09121 18.3722L8.46025 15.8682L16.4185 43.1748C17.1823 45.7852 20.1165 47.3411 22.9775 46.6463L29.3207 45.1044L16.9855 49.9544C15.6843 50.4647 14.1743 49.9159 13.6141 48.7281L13.6139 48.7286ZM19.1214 42.5184L10.7562 13.816C10.3915 12.5661 11.2083 11.2823 12.5749 10.9502L18.1046 9.60752L17.4395 14.1276C17.0452 16.8037 19.1009 19.2696 22.0352 19.6305L35.0075 21.2269L29.7274 37.4683C29.1829 39.1422 29.6675 40.8737 30.8433 42.0946L22.2593 44.1788C20.8915 44.5119 19.4853 43.7681 19.1216 42.5186L19.1214 42.5184ZM36.7413 41.8118L34.1376 41.1054C32.7786 40.7363 32.0053 39.4338 32.4084 38.1932L41.6656 9.72094C42.0699 8.48013 43.4987 7.77409 44.854 8.14109L52.8294 10.3047L52.8305 10.3036L52.852 10.3097L52.8294 10.3045C52.0019 10.8022 51.3431 11.5012 50.9274 12.3225L37.2143 39.2582C36.8081 40.055 36.6448 40.9371 36.7415 41.8115L36.7413 41.8118ZM35.8137 18.7507L22.409 17.101C21.0064 16.9276 20.0202 15.7478 20.209 14.4659L24.5529 -14.9693C24.7418 -16.2503 26.0363 -17.1503 27.4355 -16.9784L48.6146 -14.3723C50.0161 -14.1993 51.0034 -13.0182 50.8135 -11.7386L48.1414 6.37058L45.6493 5.69495C42.8112 4.92459 39.8283 6.40553 38.9869 8.99411L35.8141 18.7507H35.8137Z" fill="#272C3F" fill-opacity="0.5"/>
</g>
<defs>
<clipPath id="clip0_1223_3821">
<rect width="78" height="42" fill="white"/>
</clipPath>
</defs>
</svg>
