<svg width="24" height="24" viewBox="0 0 24 24" fill="none" xmlns="http://www.w3.org/2000/svg">
<g clip-path="url(#clip0_8180_2554)">
<path d="M23.0924 7.42308C23.0915 7.42036 23.09 7.41938 23.0886 7.41731C23.0876 7.41328 23.0876 7.40963 23.0851 7.40499C21.8586 4.44436 19.553 2.13933 16.5926 0.913595C16.5926 0.913595 16.5926 0.913126 16.592 0.913126C13.6604 -0.302296 10.3489 -0.305952 7.40845 0.911626C4.44661 2.13835 2.14036 4.4453 0.914295 7.40649C-0.312189 10.3666 -0.312189 13.6288 0.91392 16.5895C0.914295 16.5905 0.914857 16.5905 0.914857 16.5905C2.14186 19.5521 4.44661 21.8571 7.40611 23.0834C7.40648 23.0839 7.40704 23.0839 7.40845 23.0844C8.87428 23.6922 10.4196 23.9999 12.001 23.9999C12.0019 23.9999 12.0019 23.9999 12.0024 23.9999C13.578 23.9999 15.1223 23.6922 16.592 23.0834C19.553 21.856 21.8597 19.5502 23.0857 16.5895C24.3106 13.6339 24.3121 10.38 23.0924 7.42308ZM3.93914 9.633C3.4815 11.1819 3.4815 12.8126 3.93862 14.362L2.26861 15.054C1.63734 13.0568 1.63734 10.9388 2.26917 8.94155L3.813 9.58088L3.93914 9.633ZM9.47494 18.095C9.47386 18.095 9.47348 18.0945 9.47292 18.0945C7.85053 17.4228 6.58561 16.1598 5.90892 14.5386C5.90798 14.5365 5.90653 14.535 5.90597 14.5334C5.90414 14.5298 5.90358 14.5263 5.90269 14.5231C5.22801 12.8941 5.22801 11.1003 5.90306 9.47236C6.57773 7.84383 7.84575 6.57567 9.47437 5.90138C11.0947 5.23111 12.914 5.23378 14.5256 5.90138C16.1542 6.57628 17.4221 7.84495 18.0962 9.47236C18.0968 9.47283 18.0973 9.47283 18.0973 9.47335C18.7715 11.1019 18.7715 12.8952 18.0967 14.5231C18.0962 14.5231 18.0962 14.5241 18.0962 14.5241C17.4221 16.1527 16.1542 17.4207 14.526 18.095C14.5256 18.095 14.5256 18.095 14.525 18.095C12.9067 18.7663 11.0869 18.7637 9.47494 18.095ZM20.0608 14.362C20.5181 12.813 20.5181 11.1819 20.0608 9.633L20.3218 9.52458L21.731 8.94061C22.3622 10.9383 22.3628 13.0568 21.7315 15.0545L20.0608 14.362ZM15.057 2.26753L14.3644 3.93839C13.5965 3.71217 12.8033 3.597 11.9975 3.597C11.1943 3.597 10.4025 3.71217 9.6352 3.93839L8.94314 2.26645C10.927 1.63856 13.0784 1.64161 15.057 2.26753ZM12.001 22.2004C10.9582 22.2004 9.93319 22.0429 8.94314 21.73L9.6352 20.0581C11.1694 20.5114 12.8273 20.5125 14.3644 20.0592L14.9595 21.4945L15.057 21.7289C14.0658 22.0418 13.0417 22.2004 12.0024 22.2004C12.0019 22.2004 12.0019 22.2004 12.001 22.2004Z" fill="white"/>
<path d="M12.7371 15.513L14.8372 12.5147C15.0547 12.2044 15.0547 11.7919 14.8378 11.4821L12.7371 8.48169C12.4003 8.00089 11.5995 8.00089 11.2625 8.48169L9.16302 11.4821C8.94599 11.7919 8.94599 12.2044 9.16302 12.5147L11.263 15.513C11.4311 15.7536 11.7065 15.8967 11.9996 15.8967C12.2936 15.8967 12.569 15.7536 12.7371 15.513Z" fill="white"/>
</g>
<defs>
<clipPath id="clip0_8180_2554">
<rect width="24" height="24" fill="white"/>
</clipPath>
</defs>
</svg>
