<svg width="18" height="19" viewBox="0 0 18 19" fill="none" xmlns="http://www.w3.org/2000/svg">
    <g clip-path="url(#clip0_7203_25411)">
        <path d="M15.075 2.29965H14.1755V1.17496C14.1755 0.802484 13.8727 0.5 13.5001 0.5C13.1272 0.5 12.8251 0.802484 12.8251 1.17496V2.29965H5.17531V1.17496C5.17531 0.802484 4.87332 0.5 4.50007 0.5C4.12748 0.5 3.82538 0.802484 3.82538 1.17496V2.29965H2.92517C1.3121 2.29965 0.000488281 3.61172 0.000488281 5.22482V15.5749C0.000488281 17.1875 1.31213 18.5 2.92517 18.5H15.075C16.688 18.5 17.9999 17.1875 17.9999 15.5749V5.22482C17.9999 3.61172 16.688 2.29965 15.075 2.29965ZM11.8402 5.39016L11.9955 5.17564C12.2145 4.87425 12.6365 4.80653 12.9388 5.02573C13.2405 5.24458 13.3074 5.66667 13.0888 5.96841L12.933 6.18248C12.8013 6.36491 12.5948 6.46137 12.386 6.46137C12.2486 6.46137 12.11 6.41961 11.9904 6.33277C11.6887 6.11396 11.6211 5.69184 11.8402 5.39016ZM5.06053 5.02489C5.36252 4.80653 5.78454 4.87351 6.00317 5.17564L6.15821 5.38946C6.37752 5.6911 6.30995 6.11322 6.00799 6.33242C5.88877 6.4188 5.7498 6.46057 5.61276 6.46057C5.40362 6.46057 5.19736 6.36389 5.06562 6.18178L4.9103 5.96761C4.69163 5.66586 4.75892 5.24374 5.06053 5.02489ZM3.72814 12.8709L3.47656 12.9526C3.40748 12.9751 3.33689 12.9855 3.26742 12.9855C2.98343 12.9855 2.71866 12.8047 2.6261 12.5193C2.51103 12.1648 2.70478 11.7842 3.05908 11.6688L3.31066 11.5867C3.66525 11.472 4.04592 11.6657 4.16113 12.0201C4.27665 12.3747 4.08245 12.7555 3.72814 12.8709ZM9.67517 16.4749C9.67517 16.8475 9.37318 17.1499 9.00021 17.1499C8.62738 17.1499 8.32496 16.8475 8.32496 16.4749V16.2104C8.32496 15.8375 8.62738 15.5353 9.00021 15.5353C9.37318 15.5353 9.67517 15.8375 9.67517 16.2104V16.4749ZM12.0797 15.3499C12.0767 15.3499 12.0734 15.3499 12.0705 15.3499C11.9634 15.3499 11.8556 15.3242 11.7564 15.2723L9.00021 13.8228L6.24413 15.2723C6.14499 15.3243 6.03745 15.3499 5.92966 15.3499C5.7896 15.3499 5.65059 15.3065 5.53334 15.2209C5.32529 15.0698 5.22105 14.8142 5.26457 14.5606L5.79069 11.491L3.56073 9.318C3.37686 9.13828 3.31066 8.87063 3.3899 8.62584C3.46971 8.3815 3.68064 8.20337 3.93468 8.16659L7.01634 7.71849L8.39471 4.92579C8.50841 4.69534 8.74325 4.54972 9.00021 4.54972C9.25688 4.54972 9.49169 4.69534 9.60542 4.92579L10.9838 7.71849L14.0653 8.16659C14.3199 8.20333 14.5308 8.3815 14.6102 8.62584C14.6895 8.87063 14.6233 9.13828 14.4394 9.318L12.2094 11.491L12.7177 14.4541C12.7415 14.5226 12.7549 14.5974 12.7549 14.6748C12.7549 15.0474 12.4522 15.3499 12.0797 15.3499ZM15.3744 12.5193C15.2815 12.8047 15.0167 12.9855 14.7326 12.9855C14.6632 12.9855 14.5934 12.9751 14.5236 12.9526L14.2727 12.8709C13.9177 12.7555 13.7242 12.3747 13.839 12.0201C13.9542 11.6657 14.3352 11.4728 14.6895 11.5867L14.9415 11.6688C15.2958 11.7842 15.4898 12.1648 15.3744 12.5193Z" fill="#5B46BC"/>
    </g>
    <defs>
        <clipPath id="clip0_7203_25411">
            <rect width="18" height="18" fill="white" transform="translate(0 0.5)"/>
        </clipPath>
    </defs>
</svg>
