<svg
        width="28"
        height="28"
        viewBox="0 0 28 28"
        fill="none"
        xmlns="http://www.w3.org/2000/svg"
>
    <path
            d="M16.0177 4.09508L18.0711 8.20175C18.3511 8.77341 19.0977 9.32174 19.7277 9.42674L23.4494 10.0451C25.8294 10.4417 26.3894 12.1684 24.6744 13.8717L21.7811 16.7651C21.2911 17.2551 21.0227 18.2001 21.1744 18.8767L22.0027 22.4584C22.6561 25.2934 21.1511 26.3901 18.6427 24.9084L15.1544 22.8434C14.5244 22.4701 13.4861 22.4701 12.8444 22.8434L9.35607 24.9084C6.85941 26.3901 5.34274 25.2817 5.99607 22.4584L6.82441 18.8767C6.97607 18.2001 6.70774 17.2551 6.21774 16.7651L3.32441 13.8717C1.62107 12.1684 2.16941 10.4417 4.54941 10.0451L8.27107 9.42674C8.88941 9.32174 9.63607 8.77341 9.91607 8.20175L11.9694 4.09508C13.0894 1.86674 14.9094 1.86674 16.0177 4.09508Z"
            fill="#EEEEEE"
    />
</svg>