<svg width="18" height="19" viewBox="0 0 18 19" fill="none" xmlns="http://www.w3.org/2000/svg">
<g clip-path="url(#clip0_7280_14465)">
<path d="M15.0739 0.500977H2.92486C1.31259 0.500977 0.000488281 1.81259 0.000488281 3.42545V15.5741C0.000488281 17.187 1.31255 18.4994 2.92486 18.4994H15.0739C16.6865 18.4994 17.9991 17.187 17.9991 15.5741V3.42545C17.9991 1.81259 16.6865 0.500977 15.0739 0.500977ZM4.66885 5.1711C5.17261 4.66727 6.07721 4.66727 6.58097 5.1711C6.82843 5.42282 6.97222 5.76974 6.97222 6.12531C6.97222 6.48081 6.82843 6.82703 6.58097 7.0791C6.32935 7.33082 5.97807 7.47485 5.62704 7.47485C5.26696 7.47485 4.92032 7.33082 4.66885 7.0791C4.42096 6.82703 4.27254 6.48081 4.27254 6.12531C4.2725 5.76977 4.42096 5.42282 4.66885 5.1711ZM13.3306 13.8284C13.0784 14.0801 12.7275 14.2245 12.3764 14.2245C12.0166 14.2245 11.6701 14.0801 11.4186 13.8284C11.1659 13.5763 11.022 13.2301 11.022 12.8746C11.022 12.5191 11.1659 12.1725 11.4186 11.9209C11.922 11.4166 12.8217 11.4166 13.3306 11.9209C13.5822 12.1725 13.7263 12.5191 13.7263 12.8746C13.7263 13.2301 13.5823 13.5763 13.3306 13.8284ZM13.7514 6.33864L5.83808 14.2516C5.71187 14.3782 5.54006 14.4495 5.36125 14.4495C5.18217 14.4495 5.01025 14.3782 4.88376 14.2516L4.24761 13.6154C3.98408 13.3521 3.98408 12.9246 4.24761 12.6608L12.1607 4.74827C12.4244 4.48411 12.852 4.48411 13.1153 4.74827L13.7514 5.38453C13.8781 5.51116 13.9493 5.68266 13.9493 5.86164C13.9493 6.04051 13.8781 6.21207 13.7514 6.33864Z" fill="#616498"/>
</g>
<defs>
<clipPath id="clip0_7280_14465">
<rect width="18" height="18" fill="white" transform="translate(0 0.5)"/>
</clipPath>
</defs>
</svg>
