<svg
        xmlns="http://www.w3.org/2000/svg"
        width="22"
        height="22"
        viewBox="0 0 24 24"
        fill="none"
>
    <path
            d="M14.9798 17.3406L14.9773 17.3492L14.9751 17.358C14.6665 18.5841 13.664 19.37 12.19 19.37H9.47H9.31882L9.19297 19.4538L6.17297 21.4638L6.17293 21.4637L6.16635 21.4682C6.06086 21.5409 5.9 21.4728 5.9 21.32V19.87V19.37H5.4C4.493 19.37 3.77678 19.0697 3.29355 18.5864C2.79956 18.0925 2.5 17.3758 2.5 16.47V12.4C2.5 11.5553 2.76075 10.8764 3.19077 10.3939C3.61939 9.913 4.2461 9.59346 5.04255 9.5182C5.17289 9.50818 5.2833 9.5 5.4 9.5H12.19C13.0964 9.5 13.8128 9.79994 14.3014 10.2886C14.7901 10.7772 15.09 11.4936 15.09 12.4V16.47C15.09 16.7942 15.0538 17.0857 14.9798 17.3406Z"
            fill="#EEEEEE"
            stroke="#EEEEEE"
    />
    <path
            d="M20.4788 14.0741L20.4788 14.074L20.4741 14.0788C19.8428 14.7186 18.9088 15.1 17.75 15.1H17.59V12.4C17.59 9.41386 15.1761 7 12.19 7H5.5V6.25C5.5 4.17614 7.17614 2.5 9.25 2.5H17.75C19.8239 2.5 21.5 4.17614 21.5 6.25V11.35C21.5 12.5088 21.1186 13.4428 20.4788 14.0741Z"
            fill="#EEEEEE"
            stroke="#EEEEEE"
    />
</svg>