<svg width="18" height="18" viewBox="0 0 18 18" fill="none" xmlns="http://www.w3.org/2000/svg">
    <path d="M17.3247 0H0.674773C0.302187 0 -0.00012207 0.302379 -0.00012207 0.674965V13.6922C-0.00012207 14.0651 0.302187 14.3676 0.674773 14.3676H5.0879L8.52263 17.8019C8.65436 17.934 8.82684 17.9999 8.99988 17.9999C9.17239 17.9999 9.34504 17.934 9.47744 17.8019L12.9122 14.3676H17.3246C17.6975 14.3676 17.9999 14.0651 17.9999 13.6922V0.674965C18 0.302379 17.6975 0 17.3247 0ZM9.6354 11.8708C9.46869 12.0374 9.23929 12.1319 9.00058 12.1319C8.76219 12.1319 8.52857 12.0374 8.36183 11.8708C8.19512 11.7001 8.10072 11.4704 8.10072 11.2318C8.10072 10.9975 8.19512 10.7635 8.36183 10.597C8.69462 10.2639 9.30222 10.2596 9.6354 10.597C9.80211 10.7635 9.90044 10.9975 9.90044 11.2318C9.90044 11.4704 9.80211 11.7043 9.6354 11.8708ZM10.1205 4.10861L9.67041 8.15836C9.63237 8.50032 9.34399 8.75865 8.99991 8.75865C8.65591 8.75865 8.36693 8.50032 8.32889 8.15836L7.87882 4.10861C7.85765 3.91683 7.91865 3.72635 8.04704 3.58341C8.17532 3.44014 8.35743 3.35844 8.54974 3.35844H9.4496C9.64201 3.35844 9.82478 3.44018 9.95265 3.58341C10.0811 3.72635 10.1422 3.91686 10.1205 4.10861Z" fill="#616498"/>
</svg>
