<svg width="26" height="26" viewBox="0 0 26 26" fill="none" xmlns="http://www.w3.org/2000/svg">
<path d="M21.6668 12.3332C21.6668 8.56202 21.6668 6.6764 20.4953 5.50482C19.3237 4.33325 17.4381 4.33325 13.6668 4.33325H12.3335C8.56226 4.33325 6.67664 4.33325 5.50507 5.50482C4.3335 6.6764 4.3335 8.56202 4.3335 12.3333V19.6666C4.3335 20.6094 4.3335 21.0808 4.62639 21.3737C4.91928 21.6666 5.39069 21.6666 6.3335 21.6666H13.6668C17.4381 21.6666 19.3237 21.6666 20.4953 20.495C21.6668 19.3234 21.6668 17.4378 21.6668 13.6666V12.3332Z" stroke="#EEEEEE" stroke-width="2"/>
<path d="M9.75 10.8333L16.25 10.8333" stroke="#EEEEEE" stroke-width="2" stroke-linecap="round" stroke-linejoin="round"/>
<path d="M9.75 15.1667H13" stroke="#EEEEEE" stroke-width="2" stroke-linecap="round" stroke-linejoin="round"/>
</svg>
