<svg width="24" height="25" viewBox="0 0 24 25" fill="none" xmlns="http://www.w3.org/2000/svg">
<path fill-rule="evenodd" clip-rule="evenodd" d="M12 22.5C17.5228 22.5 22 18.0228 22 12.5C22 6.97715 17.5228 2.5 12 2.5C6.47715 2.5 2 6.97715 2 12.5C2 18.0228 6.47715 22.5 12 22.5ZM9.33421 9.83457L10.0686 13.0169L12.5165 10.5689L9.33421 9.83457ZM14.6659 15.1662L11.4823 14.4316L13.9312 11.9827L14.6659 15.1662ZM7.04364 8.80322C6.86916 8.04714 7.54677 7.36952 8.30285 7.544L14.6944 9.01899C15.0857 9.10927 15.3912 9.41476 15.4815 9.806L16.9564 16.1976C17.1309 16.9537 16.4533 17.6313 15.6972 17.4568L9.30563 15.9818C8.9144 15.8915 8.60891 15.586 8.51862 15.1948L7.04364 8.80322Z" fill="#616498"/>
</svg>
