<svg
        width="26"
        height="26"
        viewBox="0 0 26 26"
        fill="none"
        xmlns="http://www.w3.org/2000/svg"
>
    <path
            d="M16.8332 13.9748V18.5248C16.8332 20.3714 16.4608 21.5338 15.7473 22.2473C15.0338 22.9608 13.8714 23.3332 12.0248 23.3332H7.47484C5.62832 23.3332 4.46583 22.9608 3.75235 22.2473C3.03887 21.5338 2.6665 20.3714 2.6665 18.5248V13.9748C2.6665 12.1283 3.03887 10.9658 3.75235 10.2523C4.46583 9.53887 5.62832 9.1665 7.47484 9.1665H12.0248C13.8714 9.1665 15.0338 9.53887 15.7473 10.2523C16.4608 10.9658 16.8332 12.1283 16.8332 13.9748Z"
            fill="#EEEEEE"
            stroke="#EEEEEE"
    />
    <path
            d="M13.9752 2.6665H18.5252C20.3718 2.6665 21.5342 3.03887 22.2477 3.75235C22.9612 4.46583 23.3336 5.62832 23.3336 7.47484V12.0248C23.3336 13.6655 23.0369 14.7656 22.4702 15.4874C21.9153 16.1942 21.0315 16.6252 19.6466 16.7695C19.4202 16.7931 19.1877 16.6043 19.1877 16.3104V13.9748C19.1877 11.6321 18.6445 9.81204 17.4163 8.58378C16.188 7.35553 14.368 6.81234 12.0252 6.81234H9.68964C9.39576 6.81234 9.20694 6.57992 9.23054 6.35351C9.37491 4.96855 9.80588 4.08478 10.5127 3.52988C11.2345 2.96313 12.3346 2.6665 13.9752 2.6665Z"
            fill="#EEEEEE"
            stroke="#EEEEEE"
    />
</svg>

