<svg width="32" height="32" viewBox="0 0 32 32" fill="none" xmlns="http://www.w3.org/2000/svg">
<path d="M22.6666 29.3335H9.33325C8.78659 29.3335 8.33325 28.8802 8.33325 28.3335C8.33325 27.7868 8.78659 27.3335 9.33325 27.3335H22.6666C23.2133 27.3335 23.6666 27.7868 23.6666 28.3335C23.6666 28.8802 23.2133 29.3335 22.6666 29.3335Z" fill="current"/>
<path d="M27.1334 7.36021L21.8 11.1735C21.0934 11.6802 20.08 11.3735 19.7734 10.5602L17.2534 3.84021C16.8267 2.68021 15.1867 2.68021 14.76 3.84021L12.2267 10.5469C11.92 11.3735 10.92 11.6802 10.2134 11.1602L4.88005 7.34688C3.81338 6.60021 2.40005 7.65355 2.84005 8.89355L8.38671 24.4269C8.57338 24.9602 9.08005 25.3069 9.64005 25.3069H22.3467C22.9067 25.3069 23.4134 24.9469 23.6 24.4269L29.1467 8.89355C29.6 7.65355 28.1867 6.60021 27.1334 7.36021ZM19.3334 19.6669H12.6667C12.12 19.6669 11.6667 19.2135 11.6667 18.6669C11.6667 18.1202 12.12 17.6669 12.6667 17.6669H19.3334C19.88 17.6669 20.3334 18.1202 20.3334 18.6669C20.3334 19.2135 19.88 19.6669 19.3334 19.6669Z" fill="current"/>
</svg>
