<svg width="18" height="19" viewBox="0 0 18 19" fill="none" xmlns="http://www.w3.org/2000/svg">
    <path d="M16.411 9.5001L17.5237 7.22413C17.6839 6.89679 17.5554 6.50184 17.2341 6.33144L14.996 5.14407L14.5585 2.64847C14.4951 2.28988 14.1591 2.04473 13.799 2.09701L11.2904 2.45173L9.46949 0.689949C9.20775 0.436684 8.7927 0.436684 8.53096 0.689949L6.70979 2.45173L4.20157 2.09701C3.83999 2.04473 3.5046 2.28984 3.44171 2.64847L3.00443 5.14407L0.766455 6.33144C0.444705 6.50184 0.31628 6.89682 0.476135 7.22413L1.58865 9.5001L0.476135 11.7758C0.31628 12.1034 0.44467 12.4984 0.766455 12.6692L3.00443 13.8566L3.44171 16.3514C3.5046 16.7104 3.84066 16.9497 4.20157 16.9037L6.70979 16.5485L8.53096 18.3102C8.66153 18.437 8.8307 18.5 9.00001 18.5C9.16936 18.5 9.33857 18.437 9.46946 18.3103L11.2903 16.5486L13.7989 16.9037C14.1599 16.9498 14.4951 16.7105 14.5584 16.3514L14.9959 13.8566L17.234 12.6693C17.5554 12.4984 17.6838 12.1035 17.5237 11.7759L16.411 9.5001ZM8.99963 14.6749C6.14631 14.6749 3.82501 12.3536 3.82501 9.5001C3.82501 6.64672 6.14631 4.32532 8.99963 4.32532C11.8538 4.32532 14.1749 6.64672 14.1749 9.5001C14.1749 12.3536 11.8538 14.6749 8.99963 14.6749Z" fill="#EEEEEE"/>
    <path d="M8.9997 5.67529C6.89085 5.67529 5.17529 7.39092 5.17529 9.49998C5.17529 11.6088 6.89085 13.3251 8.9997 13.3251C11.1094 13.3251 12.8249 11.6088 12.8249 9.49998C12.8249 7.39092 11.1094 5.67529 8.9997 5.67529ZM8.9997 11.9751C7.6356 11.9751 6.52515 10.8648 6.52515 9.49998C6.52515 8.1356 7.6356 7.02529 8.9997 7.02529C10.3647 7.02529 11.4752 8.13563 11.4752 9.49998C11.4751 10.8648 10.3647 11.9751 8.9997 11.9751Z" fill="#EEEEEE"/>
</svg>
