<svg width="21" height="18" xmlns="http://www.w3.org/2000/svg" fill="none">
 <defs>
  <clipPath id="clip0_8180_2543">
   <rect id="svg_1" fill="white" height="20" width="20"/>
  </clipPath>
 </defs>
 <g>
  <g id="svg_2" clip-path="url(#clip0_8180_2543)">
   <path id="svg_3" fill="white" d="m15.93521,2.74652l-0.79885,0l0,-0.91862c0,-0.30433 -0.26809,-0.5513 -0.5992,-0.5513c-0.33103,0 -0.59911,0.24698 -0.59911,0.5513l0,0.91863l-6.79112,0l0,-0.91863c0,-0.30432 -0.26808,-0.5513 -0.59948,-0.5513c-0.33075,0 -0.59883,0.24698 -0.59883,0.5513l0,0.91863l-0.79919,0c-1.43169,0 -2.59623,1.07199 -2.59623,2.38915l0,8.4537c0,1.31723 1.16455,2.38926 2.59623,2.38926l10.78578,0c1.43161,0 2.59681,-1.07203 2.59681,-2.38926l0,-8.4537c0,-1.31719 -1.1652,-2.38915 -2.59681,-2.38915zm-0.56449,6.09994l-1.97923,1.77496l0.45078,2.4198c0.02139,0.05668 0.03311,0.11737 0.03311,0.18067c0,0.30433 -0.26853,0.55133 -0.59911,0.55133c-0.00293,0 -0.00559,0 -0.00852,0c-0.09507,0 -0.19077,-0.02091 -0.27883,-0.06297l-2.44666,-1.18434l-2.44627,1.18434c-0.20218,0.0972 -0.44694,0.08102 -0.63132,-0.04198c-0.18497,-0.12374 -0.27713,-0.33251 -0.23862,-0.53973l0.46744,-2.50712l-1.97918,-1.77496c-0.16363,-0.14651 -0.2224,-0.3654 -0.15192,-0.56557c0.07071,-0.19925 0.25831,-0.34486 0.48388,-0.37487l2.73527,-0.366l1.22331,-2.28066c0.10117,-0.18823 0.30968,-0.30745 0.53741,-0.30745c0.22791,0 0.43635,0.11923 0.53719,0.30745l1.22407,2.28066l2.73547,0.366c0.22557,0.03001 0.41314,0.17559 0.48327,0.37487c0.07084,0.20018 0.01207,0.4191 -0.15153,0.56557z"/>
  </g>
 </g>
</svg>