<svg width="24" height="25" viewBox="0 0 24 25" fill="none" xmlns="http://www.w3.org/2000/svg">
<path d="M11.8798 15.49C11.6898 15.49 11.4998 15.42 11.3498 15.27L8.78977 12.71C8.49977 12.42 8.49977 11.94 8.78977 11.65C9.07977 11.36 9.55977 11.36 9.84977 11.65L11.8798 13.68L13.9098 11.65C14.1998 11.36 14.6798 11.36 14.9698 11.65C15.2598 11.94 15.2598 12.42 14.9698 12.71L12.4098 15.27C12.2598 15.42 12.0698 15.49 11.8798 15.49Z" fill="#F7BE2C"/>
<path d="M11.8799 15.42C11.4699 15.42 11.1299 15.08 11.1299 14.67V4.5C11.1299 4.09 11.4699 3.75 11.8799 3.75C12.2899 3.75 12.6299 4.09 12.6299 4.5V14.67C12.6299 15.08 12.2899 15.42 11.8799 15.42Z" fill="#F7BE2C"/>
<path d="M12 21.43C6.85 21.43 3.25 17.83 3.25 12.68C3.25 12.27 3.59 11.93 4 11.93C4.41 11.93 4.75 12.27 4.75 12.68C4.75 16.95 7.73 19.93 12 19.93C16.27 19.93 19.25 16.95 19.25 12.68C19.25 12.27 19.59 11.93 20 11.93C20.41 11.93 20.75 12.27 20.75 12.68C20.75 17.83 17.15 21.43 12 21.43Z" fill="#F7BE2C"/>
</svg>
