<svg width="25" height="24" viewBox="0 0 25 24" fill="none" xmlns="http://www.w3.org/2000/svg">
<path d="M6 17C5.58333 17 5.22917 16.8542 4.9375 16.5625C4.64583 16.2708 4.5 15.9167 4.5 15.5C4.5 15.0833 4.64583 14.7292 4.9375 14.4375C5.22917 14.1458 5.58333 14 6 14H19C19.4167 14 19.7708 14.1458 20.0625 14.4375C20.3542 14.7292 20.5 15.0833 20.5 15.5C20.5 15.9167 20.3542 16.2708 20.0625 16.5625C19.7708 16.8542 19.4167 17 19 17H6ZM6 10C5.58333 10 5.22917 9.85417 4.9375 9.5625C4.64583 9.27083 4.5 8.91667 4.5 8.5C4.5 8.08333 4.64583 7.72917 4.9375 7.4375C5.22917 7.14583 5.58333 7 6 7H19C19.4167 7 19.7708 7.14583 20.0625 7.4375C20.3542 7.72917 20.5 8.08333 20.5 8.5C20.5 8.91667 20.3542 9.27083 20.0625 9.5625C19.7708 9.85417 19.4167 10 19 10H6Z" fill="#EEEEEE"/>
</svg>
