<svg width="26" height="26" viewBox="0 0 26 26" fill="none" xmlns="http://www.w3.org/2000/svg">
<path fill-rule="evenodd" clip-rule="evenodd" d="M22.5215 13C22.5215 12.6441 22.3279 12.4066 21.9407 11.9314C20.4372 10.0866 16.9998 6.5 12.9999 6.5C8.99994 6.5 5.56257 10.0866 4.05911 11.9314C3.67189 12.4066 3.47827 12.6441 3.47827 13C3.47827 13.3559 3.67189 13.5934 4.05911 14.0686C5.56257 15.9134 8.99994 19.5 12.9999 19.5C16.9998 19.5 20.4372 15.9134 21.9407 14.0686C22.3279 13.5934 22.5215 13.3559 22.5215 13ZM12.9999 16.25C14.7948 16.25 16.2499 14.7949 16.2499 13C16.2499 11.2051 14.7948 9.75 12.9999 9.75C11.205 9.75 9.74989 11.2051 9.74989 13C9.74989 14.7949 11.205 16.25 12.9999 16.25Z" fill="#616498"/>
</svg>
