<svg width="18" height="18" viewBox="0 0 18 18" fill="none" xmlns="http://www.w3.org/2000/svg">
    <path d="M16.4727 2.10643L9.18495 0.0259854C9.0643 -0.00801074 8.93555 -0.00801074 8.81493 0.0259854L1.52718 2.10643C1.23721 2.18897 1.0376 2.45423 1.0376 2.75552V10.0394C1.0376 14.4505 8.41053 17.8004 8.72427 17.941C8.81272 17.9801 8.9063 17.9998 8.99996 17.9998C9.09425 17.9998 9.18791 17.9801 9.27559 17.941C9.58932 17.8004 16.9623 14.4505 16.9623 10.0394V2.75552C16.9622 2.45423 16.7626 2.18894 16.4727 2.10643ZM13.0771 6.62787L8.27817 11.4266C8.14619 11.5584 7.97329 11.6242 7.80068 11.6242C7.62774 11.6242 7.45555 11.5584 7.3235 11.4266L4.92282 9.0275C4.65922 8.76376 4.65922 8.33622 4.92282 8.0729C5.18607 7.80909 5.61385 7.80909 5.87749 8.0729L7.80068 9.99493L12.1224 5.67327C12.3865 5.40992 12.8138 5.40992 13.0771 5.67327C13.3411 5.93702 13.3411 6.36417 13.0771 6.62787Z" fill="#EEEEEE" fill-opacity="0.75"/>
</svg>
