<svg
        width="40"
        height="40"
        viewBox="0 0 40 40"
        fill="none"
        xmlns="http://www.w3.org/2000/svg"
>
    <path
            d="M22.1667 13.5166L24.3667 17.9166C24.6667 18.5166 25.4667 19.1166 26.1333 19.2166L30.1167 19.8833C32.6667 20.3166 33.2667 22.15 31.4333 23.9833L28.3333 27.1C27.8167 27.6166 27.5167 28.6333 27.6833 29.3666L28.5667 33.2166C29.2667 36.25 27.65 37.4333 24.9667 35.85L21.2333 33.6333C20.55 33.2333 19.45 33.2333 18.7667 33.6333L15.0167 35.8333C12.3333 37.4166 10.7167 36.2333 11.4167 33.2L12.3 29.35C12.4667 28.6333 12.1667 27.6166 11.65 27.0833L8.56666 24C6.73333 22.1666 7.33333 20.3166 9.88333 19.9L13.8667 19.2333C14.5333 19.1166 15.3333 18.5333 15.6333 17.9333L17.8333 13.5333C19.0167 11.1333 20.9833 11.1333 22.1667 13.5166Z"
            fill="#F7BE2C"
    />
    <path
            d="M10 16.2499C9.31667 16.2499 8.75 15.6833 8.75 14.9999V3.33325C8.75 2.64992 9.31667 2.08325 10 2.08325C10.6833 2.08325 11.25 2.64992 11.25 3.33325V14.9999C11.25 15.6833 10.6833 16.2499 10 16.2499Z"
            fill="#F7BE2C"
    />
    <path
            d="M30 16.2499C29.3167 16.2499 28.75 15.6833 28.75 14.9999V3.33325C28.75 2.64992 29.3167 2.08325 30 2.08325C30.6833 2.08325 31.25 2.64992 31.25 3.33325V14.9999C31.25 15.6833 30.6833 16.2499 30 16.2499Z"
            fill="#F7BE2C"
    />
    <path
            d="M20 7.91659C19.3167 7.91659 18.75 7.34992 18.75 6.66659V3.33325C18.75 2.64992 19.3167 2.08325 20 2.08325C20.6833 2.08325 21.25 2.64992 21.25 3.33325V6.66659C21.25 7.34992 20.6833 7.91659 20 7.91659Z"
            fill="#F7BE2C"
    />
</svg>