<svg width="95" height="95" viewBox="0 0 95 95" fill="none" xmlns="http://www.w3.org/2000/svg">
<path d="M89.6702 41.4966H53.6702L46.6697 57.9966L64.6697 58.4966L61.6697 66.4966C54.3027 67.8779 47.0879 72.7192 39.6697 71.9966C24.6697 70.5354 10.6697 51.9966 38.1702 27.9966C6.16968 44.4966 5.65469 72.5696 18.1698 81.4966C30.6697 91.4966 54.422 84.4966 54.6702 84.4966C55.0702 84.4966 52.0477 90.8299 50.4864 93.9966H68.1702L89.6702 41.4966Z" fill="#616498"/>
<path d="M84.1714 3.49596L71.1714 19.996C61.6698 14.4966 11.0888 27.615 9.16983 64.4966C8.8055 71.4986 12.1698 79.64 18.6714 84.996C2.16979 73.9962 4.16968 59.4966 6.66983 50.4966C18.1698 11.4967 62.6698 -3.00344 84.1714 3.49596Z" fill="#616498"/>
</svg>
