<svg width="24" height="25" viewBox="0 0 24 25" fill="none" xmlns="http://www.w3.org/2000/svg">
<path d="M15.9702 23.25H7.97021C4.55021 23.25 3.22021 21.92 3.22021 18.5V10.5C3.22021 10.09 3.56021 9.75 3.97021 9.75H19.9702C20.3802 9.75 20.7202 10.09 20.7202 10.5V18.5C20.7202 21.92 19.3902 23.25 15.9702 23.25ZM4.72021 11.25V18.5C4.72021 21.08 5.39021 21.75 7.97021 21.75H15.9702C18.5502 21.75 19.2202 21.08 19.2202 18.5V11.25H4.72021Z" fill="#F7BE2C"/>
<path d="M19.5 11.25H4.5C2.75 11.25 1.75 10.25 1.75 8.5V7.5C1.75 5.75 2.75 4.75 4.5 4.75H19.5C21.2 4.75 22.25 5.8 22.25 7.5V8.5C22.25 10.2 21.2 11.25 19.5 11.25ZM4.5 6.25C3.59 6.25 3.25 6.59 3.25 7.5V8.5C3.25 9.41 3.59 9.75 4.5 9.75H19.5C20.38 9.75 20.75 9.38 20.75 8.5V7.5C20.75 6.62 20.38 6.25 19.5 6.25H4.5Z" fill="#F7BE2C"/>
<path d="M11.6401 6.25H6.12009C5.91009 6.25 5.71009 6.16001 5.57009 6.01C4.96009 5.34 4.98009 4.31 5.62009 3.67L7.04009 2.25C7.70009 1.59 8.79009 1.59 9.45009 2.25L12.1701 4.97C12.3801 5.18 12.4501 5.51 12.3301 5.79C12.2201 6.07 11.9501 6.25 11.6401 6.25ZM6.67009 4.75001H9.84009L8.39009 3.31C8.31009 3.23 8.18009 3.23 8.10009 3.31L6.68009 4.73001C6.68009 4.74001 6.67009 4.74001 6.67009 4.75001Z" fill="#F7BE2C"/>
<path d="M17.8701 6.25H12.3501C12.0501 6.25 11.7701 6.07 11.6601 5.79C11.5401 5.51 11.6101 5.19 11.8201 4.97L14.5401 2.25C15.2001 1.59 16.2901 1.59 16.9501 2.25L18.3701 3.67C19.0101 4.31 19.0401 5.34 18.4201 6.01C18.2801 6.16001 18.0801 6.25 17.8701 6.25ZM14.1701 4.75001H17.3401C17.3301 4.74001 17.3301 4.74001 17.3201 4.73001L15.9001 3.31C15.8201 3.23 15.6901 3.23 15.6101 3.31L14.1701 4.75001Z" fill="#F7BE2C"/>
<path d="M9.93994 17.4C9.65994 17.4 9.36994 17.33 9.10994 17.19C8.53994 16.88 8.18994 16.29 8.18994 15.65V10.5C8.18994 10.09 8.52994 9.75 8.93994 9.75H14.9799C15.3899 9.75 15.7299 10.09 15.7299 10.5V15.63C15.7299 16.28 15.3799 16.87 14.8099 17.17C14.2399 17.48 13.5499 17.44 13.0099 17.08L12.1199 16.48C12.0399 16.42 11.9299 16.42 11.8399 16.48L10.8999 17.1C10.6099 17.3 10.2699 17.4 9.93994 17.4ZM9.68994 11.25V15.64C9.68994 15.77 9.76994 15.83 9.81994 15.86C9.86994 15.89 9.96994 15.92 10.0799 15.85L11.0199 15.23C11.6099 14.84 12.3699 14.84 12.9499 15.23L13.8399 15.83C13.9499 15.9 14.0499 15.87 14.0999 15.84C14.1499 15.81 14.2299 15.75 14.2299 15.62V11.24H9.68994V11.25Z" fill="#F7BE2C"/>
</svg>
