<svg xmlns="http://www.w3.org/2000/svg" width="1920" height="1080" viewBox="0 0 1920 1080">
  <defs>
    <style>
      .cls-1 {
        fill: #fff;
        fill-rule: evenodd;
      }
    </style>
  </defs>
  <path id="GROWBIT._copy" class="cls-1" d="M754.845,487.225a4.706,4.706,0,0,0,.249-1.5,3.958,3.958,0,0,0-2.074-3.407l-1.161-.582a4.519,4.519,0,0,0-1.825-.415H630.5a4.848,4.848,0,0,0-1.825.415l-2.82,1.5a4.385,4.385,0,0,0-1.908,2.16L584.384,592.756a4.61,4.61,0,0,0-.249,1.412,3.976,3.976,0,0,0,2.157,3.407l1.078,0.582a3.78,3.78,0,0,0,1.825.5h119.53a3.78,3.78,0,0,0,1.825-.5l2.82-1.5a3.9,3.9,0,0,0,1.908-2.077l22.645-61.573a4.717,4.717,0,0,0,.249-1.5,3.957,3.957,0,0,0-2.073-3.407l-1.245-.665a4.515,4.515,0,0,0-1.825-.415H719.26a3.939,3.939,0,0,0-1.991.5c-2.986,1.745-6.968,3.989-11.862,6.731l-29.779,17.117a3.967,3.967,0,0,0-1.99,2.826v0.5a4.206,4.206,0,0,0,.912,2.742,3.483,3.483,0,0,0,3.069,1.33h1.327a3.681,3.681,0,0,1,3.152,1.662,3.827,3.827,0,0,1,.747,2.243,4.227,4.227,0,0,1-.249,1.413v0.166a3.945,3.945,0,0,1-3.733,2.576H644.605a3.659,3.659,0,0,1-3.235-1.579,3.826,3.826,0,0,1-.746-2.243,4.739,4.739,0,0,1,.248-1.5l16.922-45.868a3.8,3.8,0,0,1,3.733-2.576h78.719a4.9,4.9,0,0,0,1.908-.416l2.82-1.578a3.88,3.88,0,0,0,1.825-2.161Zm19.659-3.988a4.27,4.27,0,0,0-1.991,2.327L733.2,592.423a5.653,5.653,0,0,0-.249,1.579,4.256,4.256,0,0,0,2.157,3.656l0.83,0.416a3.936,3.936,0,0,0,2.073.581h32.6a4.412,4.412,0,0,0,1.99-.5l2.489-1.33a4.182,4.182,0,0,0,1.991-2.326l12.608-34.069a4.363,4.363,0,0,1,3.65-2.825h0.332a4.477,4.477,0,0,1,3.732,2.16L818.716,596.5a4.35,4.35,0,0,0,3.65,2.16h36.913a4.222,4.222,0,0,0,3.981-2.742,3.6,3.6,0,0,0,.332-1.579,3.753,3.753,0,0,0-.581-2.077l-18.829-32.989a5.611,5.611,0,0,1-.581-2.16,5.376,5.376,0,0,1,.913-2.576,3.89,3.89,0,0,1,3.4-1.662h26.3a4.412,4.412,0,0,0,1.99-.5l2.406-1.33a3.924,3.924,0,0,0,2.074-2.243l22.645-61.241a4.712,4.712,0,0,0,.249-1.5,4.343,4.343,0,0,0-2.323-3.822l-0.746-.416a4.5,4.5,0,0,0-2.074-.5H779.149a4.412,4.412,0,0,0-1.99.5Zm31.521,32.739a4.266,4.266,0,0,1,3.982-2.825h34.755a3.75,3.75,0,0,1,3.318,1.5,4.516,4.516,0,0,1,1,2.825c0,0.249-.083.665-0.166,1.412s-0.747,1.5-1.991,2.244l-43.963,25.011a5.587,5.587,0,0,1-2.157.582,4.158,4.158,0,0,1-2.654-1.08,3.816,3.816,0,0,1-1.493-3.075,6.206,6.206,0,0,1,.249-1.661Zm137.033,50.937a4.606,4.606,0,0,1-3.982-2.077,4.821,4.821,0,0,1-.829-2.742,6.962,6.962,0,0,1,.248-1.828l16.259-43.957a4.89,4.89,0,0,1,4.562-3.241h31.355a4.6,4.6,0,0,1,3.981,2.077,4.361,4.361,0,0,1,.913,2.742,4.738,4.738,0,0,1-.332,1.828l-16.258,43.957c-1,2.161-2.489,3.241-4.562,3.241H943.058Zm-61.051,25.012a7.545,7.545,0,0,0-.249,1.911,4.849,4.849,0,0,0,2.488,4.154l0.166,0.084a5.053,5.053,0,0,0,2.323.581H1005.77a4.122,4.122,0,0,0,2.24-.581l2.15-1.081a4.571,4.571,0,0,0,2.33-2.659l39.31-106.361a5.024,5.024,0,0,0,.34-1.828,4.9,4.9,0,0,0-2.66-4.238,4.572,4.572,0,0,0-2.32-.581H928.127a5.053,5.053,0,0,0-2.323.581l-2.322,1.247a5.416,5.416,0,0,0-2.323,2.576Zm298.953-27.339a3.328,3.328,0,0,1-3.15,2.244h-18.5a3.237,3.237,0,0,1-2.74-1.413,3.84,3.84,0,0,1-.66-1.994,5.811,5.811,0,0,1,.16-1.163l26.71-72.126a3.165,3.165,0,0,0,.17-1.247,2.987,2.987,0,0,0-1.16-2.492,3.084,3.084,0,0,0-2.16-.831,3.751,3.751,0,0,0-1.74.415l-46.45,26.59a3.074,3.074,0,0,0-1.5,1.745l-18.58,50.272a3.346,3.346,0,0,1-3.23,2.244h-18.5a3.25,3.25,0,0,1-2.74-1.413,3.36,3.36,0,0,1-.66-1.911,3.26,3.26,0,0,1,.25-1.246l27.87-75.533a3.845,3.845,0,0,0,.25-1.247,3.384,3.384,0,0,0-1.83-2.908l-1.57-.831a3.455,3.455,0,0,0-1.58-.415h-33.1a4.122,4.122,0,0,0-1.66.415l-3.15,1.662a3.135,3.135,0,0,0-1.57,1.828l-39.9,107.94a3.593,3.593,0,0,0-.25,1.246,3.374,3.374,0,0,0,1.82,2.909l1.66,0.914a3.455,3.455,0,0,0,1.58.415h60.55a2.884,2.884,0,0,0,1.16-.249l26.13-9.39a2.839,2.839,0,0,1,1.16-.166,3.258,3.258,0,0,1,1.66.416l15.51,8.891a3.511,3.511,0,0,0,1.75.5h65.28a3.382,3.382,0,0,0,1.57-.415l3.16-1.662a3.4,3.4,0,0,0,1.57-1.828l39.9-107.94a4.036,4.036,0,0,0,.25-1.33,3.466,3.466,0,0,0-1.83-2.908l-1.65-.831a3.455,3.455,0,0,0-1.58-.415h-33.01a4.044,4.044,0,0,0-1.66.415l-2.99,1.579a3.451,3.451,0,0,0-1.58,1.828Zm111.81,2.244a3.934,3.934,0,0,1-3.31-1.745,3.82,3.82,0,0,1-.75-2.244,4.6,4.6,0,0,1,.25-1.5l2.15-5.734a4.137,4.137,0,0,1,3.82-2.659h34.09a3.979,3.979,0,0,1,3.32,1.662,3.881,3.881,0,0,1,.75,2.327,4.882,4.882,0,0,1-.25,1.5l-2.16,5.734a4.048,4.048,0,0,1-3.81,2.659h-34.1Zm-60.22,25.842a4.775,4.775,0,0,0-.16,1.5,4.006,4.006,0,0,0,2.07,3.49l0.99,0.5a4.129,4.129,0,0,0,1.91.5h119.45a3.868,3.868,0,0,0,1.91-.5l2.74-1.413a4.019,4.019,0,0,0,1.9-2.16l14.02-38.141a4.031,4.031,0,0,0,.25-1.329,4.1,4.1,0,0,0-.83-2.493l-8.96-12.215a4.785,4.785,0,0,1-.74-2.493,4.281,4.281,0,0,1,1.74-3.241l21.15-14.541a3.559,3.559,0,0,0,1.49-1.994l11.45-30.745a4.6,4.6,0,0,0,.25-1.5,4.131,4.131,0,0,0-2.16-3.573l-0.99-.5a3.868,3.868,0,0,0-1.91-.5H1278.67a4.129,4.129,0,0,0-1.91.5l-2.82,1.5a4.79,4.79,0,0,0-1.9,2.16Zm73.25-76.862c0.91-1.745,2.15-2.659,3.81-2.659h26.79a3.629,3.629,0,0,1,3.07,1.413,4.323,4.323,0,0,1,1,2.825,8.884,8.884,0,0,1-.08,1.08c0,0.582-.58,1.33-1.75,2.16l-35.83,24.6a4.752,4.752,0,0,1-2.41.748,3.771,3.771,0,0,1-2.4-.914,3.891,3.891,0,0,1-1.58-3.074,5.886,5.886,0,0,1,.25-1.579Zm75.56,76.779a4.888,4.888,0,0,0-.25,1.5,3.944,3.944,0,0,0,2.16,3.49l1,0.582a4.891,4.891,0,0,0,1.9.415h32.85a5.233,5.233,0,0,0,1.91-.415l2.82-1.5a4.87,4.87,0,0,0,1.91-2.16l39.57-107.192a9.513,9.513,0,0,0,.16-1.5,4.006,4.006,0,0,0-2.07-3.49l-1-.582a5.233,5.233,0,0,0-1.91-.415h-32.93a3.83,3.83,0,0,0-1.9.5l-2.74,1.413a3.626,3.626,0,0,0-1.91,2.243Zm176.02-76.7a4.119,4.119,0,0,1,3.98-2.825h35.67a4.369,4.369,0,0,0,1.99-.5l2.66-1.412a4.3,4.3,0,0,0,1.99-2.327l7.96-21.438a4.5,4.5,0,0,0,.17-1.5,4.4,4.4,0,0,0-2.24-3.739l-0.67-.333a4.381,4.381,0,0,0-1.99-.5H1487.62a4.489,4.489,0,0,0-2.07.5l-2.66,1.413a3.787,3.787,0,0,0-1.99,2.243l-7.88,21.439a5.886,5.886,0,0,0-.25,1.579,4.18,4.18,0,0,0,2.24,3.656l0.75,0.415a4.4,4.4,0,0,0,1.99.5h29.78a3.917,3.917,0,0,1,3.48,1.828,4.467,4.467,0,0,1,.83,2.493,4.6,4.6,0,0,1-.25,1.5l-27.2,73.539a4.6,4.6,0,0,0-.25,1.5,4.332,4.332,0,0,0,2.32,3.822l0.83,0.416a3.925,3.925,0,0,0,1.99.5h32.52a4.444,4.444,0,0,0,1.99-.5l2.65-1.413a4.927,4.927,0,0,0,1.99-2.327Zm46.87,82.762a5.579,5.579,0,0,0,2.49-.665l2.07-1.08a5.393,5.393,0,0,0,2.41-2.825l4.48-12.464a7.685,7.685,0,0,0,.24-1.828,5.039,5.039,0,0,0-2.65-4.4,5.265,5.265,0,0,0-2.41-.665h-32.43a4.945,4.945,0,0,0-2.4.665l-2.08,1.08a5.01,5.01,0,0,0-2.4,2.825l-4.48,12.464a7.561,7.561,0,0,0-.33,1.828,5.058,5.058,0,0,0,2.73,4.4v0.084a5.464,5.464,0,0,0,2.49.581h32.27Z"/>
  <path class="cls-1" d="M503.526,457.046c-53.053-10.8-112.209,20.882-143.122,53.894-22.94,24.5-35.8,50.151-37.476,76.271-1.654,25.837,7.609,45.705,27.748,59.089l-0.01.008a1.665,1.665,0,0,1-1.791.34,86.42,86.42,0,0,1-8.079-5.107,78.943,78.943,0,0,1-22.676-27.592,80.077,80.077,0,0,1-8.133-37.569c0.146-9.386,2.1-19.119,4.616-29.141,1.033-4.122,6.041-16.625,8.994-24a62.454,62.454,0,0,1,4.341-8.725c2.128-3.573,4.251-7.148,6.493-10.7,12.3-19.471,28.527-36.752,48.193-52.058,19.93-15.512,41.341-27.608,64.288-35.548a258.02,258.02,0,0,1,25.312-6.98c6.583-1.555,13.094-2.412,19.636-3.56a149.357,149.357,0,0,1,26.931-.151,156.375,156.375,0,0,1,19.578,3.7,31.12,31.12,0,0,1,3.452,1.082Zm52.957,63.6q-50.607-.01-101.224,0c-0.882,0-1.832.169-2.724,0.256a9.984,9.984,0,0,0-.819,1.273c-6.085,15.134-12.112,30.268-18.269,45.4-1.138,2.795.156,3.252,2.663,3.241,13.652-.059,27.269-0.027,40.9-0.027h8.4c-2.485,6.2-5.1,11.99-7,17.734-1.293,3.916-4.01,6.111-7.966,8.064-23.569,11.637-46.009,16.21-66.886,12.581-19.189-3.336-32.3-12.961-38.921-28.251-6.541-15.093-5.532-32.411,3.443-51.88,6.735-14.61,16.665-27.774,30.249-39.734,3.317-2.92,6.831-5.669,10.254-8.5a151.389,151.389,0,0,0-37.947,25.29c-13.5,12.236-24.194,25.5-31.965,40.132q-11.387,21.446-12.071,41.672c-0.447,13.994,3.176,26.06,10.532,36.393,9,12.634,22.609,20.452,39.092,25.348,5.755,1.71,12.177,2.47,18.295,3.664,7.967,1.249,18.008,1.048,27,0,6.521-1.058,13.008-1.877,19.571-3.219q6.88-1.407,13.711-3.382L443.472,675h52.756l24.2-60.408,0.523-1.308q18.531-46.257,37.061-92.514C557.5,520.73,557.009,520.649,556.483,520.649Z"/>
</svg>
