<svg
        width="28"
        height="28"
        viewBox="0 0 28 28"
        fill="none"
        xmlns="http://www.w3.org/2000/svg"
>
    <path
            d="M25.153 12.5297L23.5664 10.6863C23.263 10.3363 23.018 9.68299 23.018 9.21633V7.23299C23.018 5.99633 22.003 4.98133 20.7664 4.98133H18.783C18.328 4.98133 17.663 4.73633 17.313 4.43299L15.4697 2.84633C14.6647 2.15799 13.3464 2.15799 12.5297 2.84633L10.698 4.44466C10.348 4.73633 9.68303 4.98133 9.22803 4.98133H7.2097C5.97303 4.98133 4.95803 5.99633 4.95803 7.23299V9.22799C4.95803 9.68299 4.71303 10.3363 4.42137 10.6863L2.84637 12.5413C2.1697 13.3463 2.1697 14.653 2.84637 15.458L4.42137 17.313C4.71303 17.663 4.95803 18.3163 4.95803 18.7713V20.7663C4.95803 22.003 5.97303 23.018 7.2097 23.018H9.22803C9.68303 23.018 10.348 23.263 10.698 23.5663L12.5414 25.153C13.3464 25.8413 14.6647 25.8413 15.4814 25.153L17.3247 23.5663C17.6747 23.263 18.328 23.018 18.7947 23.018H20.778C22.0147 23.018 23.0297 22.003 23.0297 20.7663V18.783C23.0297 18.328 23.2747 17.663 23.578 17.313L25.1647 15.4697C25.8414 14.6647 25.8414 13.3347 25.153 12.5297ZM18.853 11.7947L13.218 17.4297C13.0547 17.593 12.833 17.6863 12.5997 17.6863C12.3664 17.6863 12.1447 17.593 11.9814 17.4297L9.15803 14.6063C8.8197 14.268 8.8197 13.708 9.15803 13.3697C9.49637 13.0313 10.0564 13.0313 10.3947 13.3697L12.5997 15.5747L17.6164 10.558C17.9547 10.2197 18.5147 10.2197 18.853 10.558C19.1914 10.8963 19.1914 11.4563 18.853 11.7947Z"
            fill="url(#paint0_linear_2004_59)"
    />
    <defs>
        <linearGradient
                id="paint0_linear_2004_59"
                x1="14.0048"
                y1="2.33008"
                x2="14.0048"
                y2="25.6692"
                gradientUnits="userSpaceOnUse"
        >
            <stop stop-color="#CA33FF" />
            <stop offset="1" stop-color="#3965FF" />
        </linearGradient>
    </defs>
</svg>