<svg width="18" height="18" viewBox="0 0 18 18" fill="none" xmlns="http://www.w3.org/2000/svg">
<path d="M17.6477 7.24739C17.3043 6.43798 16.7337 5.75114 16.0144 5.26496C15.6565 5.02333 15.2605 4.83113 14.8354 4.70007C14.4133 4.56616 13.9621 4.49623 13.4964 4.49623C12.8994 4.49623 12.3259 4.61281 11.802 4.82547C11.7582 4.84277 11.7175 4.86014 11.6769 4.8806C11.2052 5.08728 10.7743 5.37841 10.4047 5.72495C10.2853 5.83839 10.1718 5.95779 10.0581 6.0917C9.85739 6.32169 9.65071 6.58666 9.44972 6.85445C9.40904 6.90957 9.36527 6.96786 9.32463 7.02334C9.21403 7.17458 8.15702 8.72342 7.9708 9.00003C7.87757 9.1396 7.76696 9.29682 7.64754 9.46856C7.62138 9.50639 7.59241 9.54731 7.56341 9.58795C7.36527 9.87029 7.14407 10.1674 6.94023 10.4295C6.83845 10.5603 6.73639 10.6825 6.6491 10.7846C6.559 10.8892 6.4774 10.9736 6.41911 11.029C6.16894 11.2647 5.87468 11.4569 5.55173 11.588C5.22851 11.7191 4.87624 11.7918 4.50352 11.7918C4.24737 11.7918 4.00001 11.7568 3.7672 11.6929C3.64781 11.6608 3.53123 11.6201 3.41779 11.5706C2.91688 11.3608 2.48899 11.0057 2.18907 10.5602C2.03783 10.3362 1.91841 10.0917 1.83684 9.82958C1.75834 9.56745 1.71176 9.29113 1.71176 9C1.71176 8.61279 1.79051 8.24888 1.93008 7.91395C2.14274 7.41332 2.49782 6.98832 2.94332 6.68552C3.16733 6.534 3.41181 6.4177 3.67393 6.3361C3.93578 6.2545 4.21239 6.2082 4.50352 6.2082C4.87624 6.21102 5.22851 6.28098 5.55173 6.41176C5.87471 6.54563 6.16894 6.73498 6.41911 6.97067C6.4774 7.02611 6.559 7.11337 6.6491 7.21543C6.80632 7.3988 6.99254 7.63449 7.17905 7.88213C7.25182 7.98106 7.32459 8.07999 7.39737 8.18177C7.67682 7.77438 8.16581 7.05821 8.42196 6.68833C8.37847 6.63004 8.3347 6.57207 8.29118 6.51378C8.1746 6.36507 8.05806 6.22265 7.9418 6.09159C7.82522 5.95768 7.71462 5.83829 7.59523 5.72484C7.19353 5.34614 6.71906 5.03771 6.19791 4.82533C5.67394 4.61267 5.10026 4.49609 4.50352 4.49609C3.88347 4.49609 3.28957 4.62146 2.74827 4.85145C1.9389 5.19205 1.25459 5.76263 0.76841 6.48161C0.526781 6.83986 0.334863 7.23842 0.200953 7.66061C0.0699258 8.08576 0 8.53411 0 9.00007C0 9.62012 0.125086 10.214 0.352266 10.7525C0.695672 11.5647 1.26626 12.249 1.98243 12.7352C2.34348 12.9768 2.73952 13.1687 3.16452 13.3026C3.58668 13.4337 4.03787 13.5036 4.50355 13.5036C5.10029 13.5036 5.67401 13.387 6.19794 13.1747C6.7191 12.962 7.19072 12.6535 7.59245 12.278L7.59526 12.2752C7.71469 12.1646 7.82529 12.042 7.94183 11.9081C8.14254 11.6781 8.34922 11.4134 8.55021 11.1456C8.59089 11.0902 8.63466 11.0347 8.6753 10.9796C8.7859 10.8252 10.233 8.70293 10.3521 8.53122C10.3785 8.49339 10.4076 8.45275 10.4365 8.41183C10.6347 8.13234 10.8559 7.83246 11.0597 7.57061C11.1615 7.43955 11.2635 7.31728 11.3508 7.2155C11.441 7.11059 11.5226 7.02615 11.5808 6.97074C11.831 6.73506 12.1252 6.5457 12.4482 6.41183C12.527 6.37998 12.6054 6.35386 12.687 6.32738C12.9432 6.2518 13.2138 6.21112 13.4964 6.20827C13.8836 6.21109 14.2504 6.28674 14.5821 6.42944C15.0828 6.63897 15.5109 6.99405 15.8106 7.43955C15.9621 7.66385 16.0815 7.90836 16.1628 8.17017C16.2444 8.43229 16.2882 8.7089 16.2882 9.00003C16.2882 9.38724 16.2094 9.75399 16.0699 10.0858C15.8572 10.5864 15.5021 11.0146 15.0566 11.3142C14.8326 11.4657 14.5881 11.5851 14.326 11.6636C14.067 11.7452 13.7875 11.7919 13.4964 11.7919C13.1237 11.7919 12.7714 11.7191 12.4482 11.588C12.1252 11.457 11.831 11.2648 11.5808 11.0291C11.5225 10.9736 11.4409 10.8864 11.3508 10.7846C11.1936 10.6041 11.0071 10.3653 10.8208 10.1179C10.7453 10.019 10.6725 9.91691 10.5997 9.81513C10.5764 9.85007 10.5531 9.88509 10.5269 9.92288C10.0465 10.6274 9.74366 11.0728 9.5779 11.3142C9.62139 11.3725 9.66519 11.428 9.70868 11.4862C9.82526 11.6346 9.9418 11.7774 10.0581 11.9081C10.1718 12.042 10.2852 12.1646 10.4046 12.2752C10.8063 12.6535 11.2808 12.962 11.802 13.1747C12.3259 13.387 12.8994 13.5036 13.4964 13.5036C14.1164 13.5036 14.7103 13.3785 15.2488 13.1514C16.061 12.8079 16.745 12.2374 17.2314 11.5181C17.4728 11.1602 17.6681 10.7641 17.7989 10.3391C17.93 9.91691 18 9.46575 18 9.00007C18 8.38002 17.8749 7.78612 17.6477 7.24739Z" fill="white"/>
</svg>
