<svg width="28" height="28" viewBox="0 0 28 28" fill="none" xmlns="http://www.w3.org/2000/svg">
<path d="M21.5833 14.7583V19.075C21.5833 22.715 18.1883 25.6666 14 25.6666C9.81166 25.6666 6.41666 22.715 6.41666 19.075V14.7583C6.41666 18.3983 9.81166 21 14 21C18.1883 21 21.5833 18.3983 21.5833 14.7583Z" fill="white" fill-opacity="0.07"/>
<path opacity="0.4" d="M21.5833 8.92505V14.7584C21.5833 18.3984 18.1883 21 14 21C9.81166 21 6.41666 18.3984 6.41666 14.7584V8.92505C6.41666 9.98672 6.70833 10.9667 7.22166 11.8067C8.46999 13.86 11.0367 15.1667 14 15.1667C16.9633 15.1667 19.53 13.86 20.7783 11.8067C21.2917 10.9667 21.5833 9.98672 21.5833 8.92505Z" fill="white" fill-opacity="0.07"/>
<path d="M21.5833 8.92492C21.5833 9.98659 21.2917 10.9666 20.7783 11.8066C19.53 13.8599 16.9633 15.1666 14 15.1666C11.0367 15.1666 8.46999 13.8599 7.22166 11.8066C6.70833 10.9666 6.41666 9.98659 6.41666 8.92492C6.41666 5.28492 9.81166 2.33325 14 2.33325C16.1 2.33325 17.99 3.06825 19.3667 4.25825C20.7317 5.45992 21.5833 7.10492 21.5833 8.92492Z" fill="white" fill-opacity="0.07"/>
</svg>
