<svg width="18" height="18" viewBox="0 0 18 18" fill="none" xmlns="http://www.w3.org/2000/svg">
<g clip-path="url(#clip0_10135_1967)">
<path d="M17.3193 5.56709C17.3189 5.56586 17.3175 5.5647 17.3167 5.56315C17.3156 5.56002 17.3153 5.55703 17.3142 5.55391C16.3942 3.33379 14.6646 1.60428 12.4447 0.685328C12.4443 0.685328 12.4443 0.684977 12.4443 0.684977C10.2455 -0.22659 7.7617 -0.229684 5.55634 0.683852C3.33521 1.60389 1.60556 3.33411 0.685728 5.555C-0.233714 7.77511 -0.233714 10.2214 0.685306 12.4422C0.685728 12.443 0.686396 12.443 0.686396 12.4437C1.60665 14.6642 3.33521 16.393 5.5548 17.3123C5.55522 17.313 5.5555 17.313 5.55631 17.313C6.65572 17.7688 7.81496 18 9.00099 18C10.1838 18 11.342 17.7688 12.4443 17.3123C14.665 16.3921 16.3951 14.6628 17.3142 12.4422C18.233 10.2256 18.2343 7.78485 17.3193 5.56709ZM2.95433 7.22443C2.61138 8.38623 2.61138 9.60957 2.95433 10.7716L1.701 11.2906C1.22784 9.79273 1.22826 8.20416 1.70143 6.70626L2.86 7.1853L2.95433 7.22443ZM7.10607 13.5714C7.10565 13.5714 7.10456 13.5714 7.10456 13.5707C5.88752 13.0672 4.93921 12.1199 4.43208 10.904C4.43127 10.9025 4.4299 10.9014 4.4299 10.9001C4.42797 10.897 4.42797 10.8948 4.42688 10.8921C3.92084 9.67018 3.92084 8.32531 4.4273 7.10437C4.93331 5.8829 5.88414 4.93147 7.10565 4.42613C8.32068 3.92304 9.68541 3.92543 10.8941 4.42613C12.116 4.93231 13.0669 5.88374 13.5726 7.10437C13.5726 7.10472 13.5728 7.10472 13.5728 7.10511C14.0789 8.32605 14.0789 9.67098 13.5726 10.8921C13.5726 10.8924 13.5726 10.8928 13.5726 10.8932C13.0666 12.1145 12.1159 13.0652 10.8945 13.5714H10.894C9.67993 14.0749 8.31544 14.0725 7.10607 13.5714ZM15.0452 10.7716C15.3885 9.60992 15.3885 8.38623 15.0452 7.22446L15.2415 7.14314L16.2984 6.70559C16.7719 8.20384 16.7719 9.79277 16.2989 11.291L15.0452 10.7716ZM11.293 1.70078L10.7735 2.95354C10.1973 2.78391 9.60286 2.69788 8.99853 2.69788C8.39595 2.69788 7.80195 2.78391 7.22644 2.95354L6.70764 1.69997C8.19552 1.22905 9.8086 1.23134 11.293 1.70078ZM9.00099 16.65C8.21866 16.65 7.44947 16.5319 6.70764 16.2973L7.22644 15.0437C8.37704 15.3834 9.62076 15.3841 10.7736 15.0441L11.2199 16.1208L11.293 16.2968C10.5493 16.5315 9.78156 16.65 9.00099 16.65Z" fill="white"/>
<path d="M12.2718 8.99875C12.2718 8.75779 12.1434 8.53476 11.9346 8.41432L8.03807 6.16484C7.82931 6.04401 7.57147 6.04401 7.36314 6.16484C7.15438 6.28487 7.02539 6.50797 7.02539 6.74917V11.2486C7.02539 11.49 7.15438 11.7126 7.36314 11.8334C7.46737 11.8934 7.58427 11.9239 7.70099 11.9239C7.81679 11.9239 7.93341 11.8934 8.03807 11.8334L11.9346 9.58354C12.1434 9.46303 12.2718 9.24042 12.2718 8.99875Z" fill="white"/>
</g>
<defs>
<clipPath id="clip0_10135_1967">
<rect width="18" height="18" fill="white"/>
</clipPath>
</defs>
</svg>
