<svg width="24" height="24" viewBox="0 0 24 24" fill="none" xmlns="http://www.w3.org/2000/svg">
    <path d="M23.7359 11.365L18.186 5.81497C17.9288 5.55683 17.5421 5.47981 17.2052 5.61969C16.8694 5.75914 16.6495 6.08769 16.6495 6.45116V8.32611H6.44966C5.95251 8.32611 5.5498 8.72928 5.5498 9.22606V14.7762C5.5498 15.2729 5.95251 15.6761 6.44966 15.6761H16.6495V17.5515C16.6495 17.9151 16.8694 18.2431 17.2052 18.383C17.3168 18.4288 17.4335 18.4511 17.5493 18.4511C17.7834 18.4511 18.0139 18.3602 18.186 18.1877L23.7359 12.6378C24.0875 12.2857 24.0875 11.7165 23.7359 11.365Z" fill="#616498"/>
    <path d="M9.29972 20.9998H2.99967V2.99953H9.29972C9.79655 2.99953 10.1996 2.59669 10.1996 2.09944V0.899953C10.1996 0.403172 9.79655 0 9.29972 0H3.89953C1.74914 0 0 1.74942 0 3.89958V20.0996C0 22.2499 1.74914 23.9999 3.89953 23.9999H9.29976C9.79659 23.9999 10.1996 23.5965 10.1996 23.0997V21.8997C10.1996 21.4029 9.79655 20.9998 9.29972 20.9998Z" fill="#616498"/>
</svg>
