<svg width="18" height="19" viewBox="0 0 18 19" fill="none" xmlns="http://www.w3.org/2000/svg">
<g clip-path="url(#clip0_7280_14463)">
<path d="M15.0742 0.500977H2.92566C1.31255 0.500977 0.000488281 1.81259 0.000488281 3.42545V15.5741C0.000488281 17.187 1.31255 18.4994 2.92566 18.4994H15.0742C16.6865 18.4994 17.9991 17.187 17.9991 15.5741V3.42545C17.9991 1.81259 16.6865 0.500977 15.0742 0.500977ZM8.72342 7.5086C8.61918 7.76067 8.37309 7.92531 8.10007 7.92531H7.19986V13.7746C7.19986 14.1472 6.89786 14.4496 6.52542 14.4496H5.62493C5.25192 14.4496 4.94993 14.1471 4.94993 13.7746V7.92527H4.05052C3.77711 7.92527 3.53098 7.76064 3.4265 7.50857C3.32184 7.256 3.38009 6.96565 3.57303 6.77278L5.59786 4.74824C5.86096 4.48407 6.2892 4.48407 6.55245 4.74824L8.57714 6.77278C8.77007 6.96565 8.82791 7.25604 8.72342 7.5086ZM14.4268 12.2271L12.4017 14.2516C12.27 14.3837 12.0975 14.4495 11.9246 14.4495C11.7516 14.4495 11.5787 14.3837 11.4471 14.2516L9.42268 12.2271C9.22932 12.0339 9.17149 11.7434 9.27615 11.4913C9.38067 11.2389 9.62676 11.0751 9.89975 11.0751H10.7996V5.22541C10.7996 4.85279 11.1016 4.55038 11.4744 4.55038H12.3742C12.7475 4.55038 13.0495 4.85283 13.0495 5.22541V11.0751H13.9496C14.2228 11.0751 14.4684 11.2389 14.5729 11.4914C14.6776 11.7435 14.6198 12.0339 14.4268 12.2271Z" fill="#616498"/>
</g>
<defs>
<clipPath id="clip0_7280_14463">
<rect width="18" height="18" fill="white" transform="translate(0 0.5)"/>
</clipPath>
</defs>
</svg>
