<svg width="18" height="19" viewBox="0 0 36 37" fill="none" xmlns="http://www.w3.org/2000/svg">
<g clip-path="url(#clip0_11455_14275)">
<path d="M17.2305 15.7126C17.658 16.1341 18.3432 16.1341 18.7719 15.7126C20.2411 14.2639 23.3636 11.133 24.1319 9.942C25.2253 8.24887 26.3139 6.85198 26.3139 4.41345C26.3139 1.97491 24.339 0 21.9005 0C20.1953 0 18.7334 0.977822 17.9988 2.39277C17.2643 0.977822 15.8036 0 14.0984 0C11.6598 0 9.68494 1.97491 9.68494 4.41345C9.68494 6.85198 10.7748 8.24887 11.867 9.942C12.6389 11.1318 15.7614 14.2639 17.2305 15.7126Z" fill="#616498"/>
<path d="M18.7707 20.2887C18.3432 19.866 17.6568 19.866 17.2293 20.2887C15.7602 21.7362 12.6377 24.8695 11.8682 26.0581C10.776 27.7512 9.68494 29.1481 9.68494 31.589C9.68494 34.0252 11.6598 36.0001 14.0984 36.0001C15.8036 36.0001 17.2655 35.0223 18 33.6097C18.7358 35.0247 20.1965 36.0001 21.9017 36.0001C24.339 36.0001 26.3151 34.0252 26.3151 31.589C26.3151 29.1505 25.2265 27.7512 24.1331 26.0581C23.3648 24.8671 20.2399 21.735 18.7707 20.2887Z" fill="#616498"/>
<path d="M33.6079 17.9994C35.0216 17.2648 35.9982 15.8029 35.9982 14.0978C35.9982 11.6592 34.0233 9.68431 31.586 9.68311C29.1487 9.68311 27.7494 10.7741 26.0562 11.8663C24.8677 12.6358 21.7331 15.7584 20.2856 17.2275C19.863 17.655 19.863 18.3402 20.2856 18.7677C21.7331 20.2368 24.8677 23.3594 26.0562 24.1301C27.7494 25.2223 29.1463 26.3121 31.586 26.3121C34.0221 26.3121 35.9982 24.3348 35.9982 21.8975C36.0018 20.1959 35.0228 18.734 33.6079 17.9994Z" fill="#616498"/>
<path d="M15.7132 18.7699C16.1347 18.3436 16.1347 17.656 15.7132 17.2285C14.2646 15.7593 11.1324 12.6368 9.94264 11.8673C8.25072 10.7751 6.85263 9.68408 4.4165 9.68408C1.97796 9.68408 0.00305176 11.6602 0.00305176 14.0987C0.00305176 15.8039 0.982078 17.2658 2.39583 18.0004C0.980874 18.735 0.00305176 20.1957 0.00305176 21.9008C0.00305176 24.337 1.97796 26.3119 4.4165 26.3143C6.85383 26.3143 8.25192 25.2245 9.94385 24.1323C11.1336 23.3616 14.2646 20.239 15.7132 18.7699Z" fill="#616498"/>
</g>
<defs>
<clipPath id="clip0_11455_14275">
<rect width="36" height="37" fill="white"/>
</clipPath>
</defs>
</svg>
