<svg width="19" height="19" viewBox="0 0 19 19" fill="none" xmlns="http://www.w3.org/2000/svg">
<g clip-path="url(#clip0_283_4467)">
<path d="M16.8125 0.714234C17.1465 0.415406 17.6563 0.429469 17.9727 0.745875L18.2539 1.02712C18.5703 1.34353 18.5844 1.8533 18.2855 2.18728L15.2691 5.55877C15.1777 5.66072 15.125 5.79431 15.125 5.93494V6.68728C15.125 6.99666 14.8719 7.24978 14.5625 7.24978H14.007C13.8453 7.24978 13.6941 7.31658 13.5887 7.43611L4.04023 18.1095C3.81523 18.3592 3.49883 18.4998 3.16484 18.4998C2.85547 18.4998 2.55664 18.3767 2.33867 18.1553L0.841016 16.6611C0.623047 16.4396 0.5 16.1443 0.5 15.8349C0.5 15.501 0.640625 15.1845 0.890234 14.9631L4.81367 11.4545C4.9332 11.349 5 11.1943 5 11.0361V10.0623C5 9.75291 5.25313 9.49978 5.5625 9.49978H6.77891C6.91602 9.49978 7.04961 9.44705 7.15508 9.35564L16.8125 0.714234ZM15.6875 10.6248C15.8141 10.6248 15.923 10.7092 15.9582 10.8287L16.4785 12.6463L18.2961 13.1666C18.4156 13.2017 18.5 13.3107 18.5 13.4373C18.5 13.5638 18.4156 13.6728 18.2961 13.708L16.4785 14.2283L15.9582 16.0459C15.923 16.1654 15.8141 16.2498 15.6875 16.2498C15.5609 16.2498 15.452 16.1654 15.4168 16.0459L14.8965 14.2283L13.0789 13.708C12.9594 13.6728 12.875 13.5638 12.875 13.4373C12.875 13.3107 12.9594 13.2017 13.0789 13.1666L14.8965 12.6463L15.4168 10.8287C15.452 10.7092 15.5609 10.6248 15.6875 10.6248ZM3.5832 2.95369L4.10352 4.77127L5.92109 5.29158C6.04063 5.32673 6.125 5.43572 6.125 5.56228C6.125 5.68884 6.04063 5.79783 5.92109 5.83298L4.10352 6.3533L3.5832 8.17088C3.54805 8.29041 3.43906 8.37478 3.3125 8.37478C3.18594 8.37478 3.07695 8.29041 3.0418 8.17088L2.52148 6.3533L0.703906 5.83298C0.584375 5.79783 0.5 5.68884 0.5 5.56228C0.5 5.43572 0.584375 5.32673 0.703906 5.29158L2.52148 4.77127L3.0418 2.95369C3.07695 2.83416 3.18594 2.74978 3.3125 2.74978C3.43906 2.74978 3.54805 2.83416 3.5832 2.95369ZM7.8125 0.499781C7.94258 0.499781 8.05508 0.587672 8.08672 0.714234L8.32578 1.674L9.28555 1.91306C9.41211 1.9447 9.5 2.0572 9.5 2.18728C9.5 2.31736 9.41211 2.42986 9.28555 2.4615L8.32578 2.70056L8.08672 3.66033C8.05508 3.78689 7.94258 3.87478 7.8125 3.87478C7.68242 3.87478 7.56992 3.78689 7.53828 3.66033L7.29922 2.70056L6.33945 2.4615C6.21289 2.42986 6.125 2.31736 6.125 2.18728C6.125 2.0572 6.21289 1.9447 6.33945 1.91306L7.29922 1.674L7.53828 0.714234C7.56992 0.587672 7.68242 0.499781 7.8125 0.499781Z" fill="#EEEEEE"/>
</g>
<defs>
<clipPath id="clip0_283_4467">
<rect width="18" height="18" fill="white" transform="translate(0.5 0.5)"/>
</clipPath>
</defs>
</svg>
