<svg width="18" height="19" viewBox="0 0 18 19" fill="none" xmlns="http://www.w3.org/2000/svg">
<g clip-path="url(#clip0_7280_14461)">
<path d="M15.074 0.500977H2.92531C1.31234 0.500977 0.000976562 1.81259 0.000976562 3.42545V15.5741C0.000976562 17.187 1.31234 18.4994 2.92531 18.4994H15.074C16.6871 18.4994 17.9987 17.187 17.9987 15.5741V3.42545C17.9987 1.81259 16.6871 0.500977 15.074 0.500977ZM13.5402 13.3564C13.7008 13.5593 13.7307 13.8362 13.6178 14.0689C13.5048 14.3021 13.269 14.4496 13.0108 14.4496H11.7382C11.5321 14.4496 11.3365 14.3551 11.2085 14.1932L8.99996 11.3953L6.79098 14.1932C6.66259 14.355 6.46811 14.4496 6.26118 14.4496H4.98888C4.73002 14.4496 4.49461 14.3021 4.38159 14.0689C4.26856 13.8362 4.2989 13.5593 4.45903 13.3564L7.50343 9.49975L4.45903 5.64356C4.2989 5.44068 4.26856 5.16382 4.38159 4.93066C4.49461 4.69793 4.73002 4.55041 4.98888 4.55041H6.26111C6.46807 4.55041 6.66252 4.64449 6.79091 4.80716L8.99989 7.60458L11.2087 4.80716C11.3371 4.64449 11.532 4.55041 11.7381 4.55041H13.0108C13.269 4.55041 13.5048 4.69793 13.6178 4.93066C13.7307 5.16382 13.7008 5.44068 13.5402 5.64356L10.4959 9.49975L13.5402 13.3564Z" fill="#616498"/>
</g>
<defs>
<clipPath id="clip0_7280_14461">
<rect width="18" height="18" fill="white" transform="translate(0 0.5)"/>
</clipPath>
</defs>
</svg>
