<svg width="18" height="19" viewBox="0 0 18 19" fill="none" xmlns="http://www.w3.org/2000/svg">
    <g clip-path="url(#clip0_8480_1678)">
        <path d="M6.52513 0.5C4.29187 0.5 2.4751 2.31673 2.4751 4.55018C2.4751 6.78355 4.29187 8.59989 6.52513 8.59989C8.75801 8.59989 10.5752 6.78355 10.5752 4.55018C10.5752 2.31673 8.75801 0.5 6.52513 0.5Z" fill="#616498"/>
        <path d="M8.85157 14.3372C8.52761 13.9783 8.32461 13.5077 8.32461 12.9876V10.8498C8.32461 10.5253 8.40881 10.2224 8.54515 9.94971H4.275C1.91742 9.94971 0 11.8676 0 14.2245V17.8246C0 18.1972 0.301992 18.4996 0.674578 18.4996H8.44907C8.37341 18.2874 8.32465 18.0624 8.32465 17.8246V15.6873C8.32465 15.1671 8.52761 14.6963 8.85157 14.3372Z" fill="#616498"/>
        <path d="M17.325 10.1748H10.3495C9.97655 10.1748 9.67456 10.4773 9.67456 10.8498V12.9876C9.67456 13.3602 9.97655 13.6622 10.3495 13.6622H17.325C17.6972 13.6622 18 13.3601 18 12.9876V10.8498C18 10.4773 17.6972 10.1748 17.325 10.1748Z" fill="#616498"/>
        <path d="M17.325 15.0127H10.3495C9.97655 15.0127 9.67456 15.3147 9.67456 15.6877V17.825C9.67456 18.1976 9.97655 18.5 10.3495 18.5H17.325C17.6972 18.5 18 18.1975 18 17.825V15.6877C18 15.3147 17.6972 15.0127 17.325 15.0127Z" fill="#616498"/>
    </g>
    <defs>
        <clipPath id="clip0_8480_1678">
            <rect width="18" height="18" fill="white" transform="translate(0 0.5)"/>
        </clipPath>
    </defs>
</svg>
