<svg width="18" height="18" viewBox="0 0 18 18" fill="none" xmlns="http://www.w3.org/2000/svg">
<g clip-path="url(#clip0_10135_1953)">
<path d="M16.4106 8.99961L17.5234 6.72332C17.6831 6.39612 17.5549 6.0011 17.2331 5.8307L14.9955 4.64344L14.558 2.14833C14.4951 1.78931 14.1588 1.54656 13.7987 1.59648L11.2906 1.95166L9.46951 0.189633C9.20774 -0.0632109 8.79237 -0.0632109 8.53098 0.189633L6.71024 1.95163L4.20152 1.59645C3.84068 1.54652 3.50501 1.78928 3.44211 2.14829L3.00491 4.6434L0.766617 5.83066C0.445359 6.00107 0.316898 6.39608 0.47707 6.72328L1.58962 8.99958L0.47707 11.275C0.316898 11.6026 0.445359 11.9977 0.766617 12.168L3.00491 13.3553L3.44211 15.8499C3.50501 16.2093 3.84068 16.4516 4.20152 16.4021L6.71024 16.047L8.53098 17.8086C8.66159 17.9353 8.83125 17.9983 9.00042 17.9983C9.16966 17.9983 9.33859 17.9352 9.46951 17.8086L11.2907 16.047L13.7987 16.4021C14.1591 16.4506 14.4951 16.2089 14.558 15.8499L14.9956 13.3553L17.2332 12.168C17.5549 11.9976 17.6831 11.6026 17.5234 11.275L16.4106 8.99961ZM13.7248 13.049C13.7248 13.4216 13.4225 13.7239 13.0499 13.7239H4.9506C4.57812 13.7239 4.27539 13.4215 4.27539 13.049V4.94965C4.27539 4.57678 4.57812 4.27468 4.9506 4.27468H13.0498C13.4225 4.27468 13.7248 4.57678 13.7248 4.94965V13.049H13.7248Z" fill="white"/>
<path d="M8.52048 8.52082C8.39423 8.64696 8.32227 8.82243 8.32227 8.99831C8.32227 9.17325 8.39423 9.3491 8.52048 9.4745C8.65094 9.60082 8.8217 9.67286 9.00187 9.67286C9.17741 9.67286 9.35294 9.60082 9.47905 9.4745C9.60445 9.3491 9.67641 9.17325 9.67641 8.99831C9.67641 8.82243 9.60445 8.64696 9.47905 8.52082C9.22234 8.2691 8.77705 8.2691 8.52048 8.52082Z" fill="white"/>
<path d="M6.27054 6.27251C6.14911 6.39872 6.07715 6.57415 6.07715 6.74997C6.07715 6.92494 6.14911 7.10079 6.27494 7.22665C6.40104 7.35251 6.57257 7.42454 6.75208 7.42454C6.92789 7.42454 7.09861 7.35251 7.22911 7.22665C7.35494 7.10079 7.4269 6.92494 7.4269 6.74997C7.4269 6.57415 7.35494 6.39872 7.22911 6.27251C6.97254 6.02114 6.5275 6.02114 6.27054 6.27251Z" fill="white"/>
<path d="M10.7749 10.7712C10.6493 10.8969 10.5771 11.0681 10.5771 11.2482C10.5771 11.4278 10.6493 11.5994 10.7749 11.7248C10.8968 11.8512 11.0719 11.9232 11.2474 11.9232C11.4276 11.9232 11.5983 11.8512 11.7288 11.7248C11.8549 11.5994 11.927 11.4236 11.927 11.2482C11.927 11.0724 11.8549 10.8969 11.7288 10.7712C11.4725 10.519 11.0222 10.519 10.7749 10.7712Z" fill="white"/>
<path d="M11.2521 7.42452C11.4276 7.42452 11.5984 7.35248 11.7289 7.22662C11.8549 7.10076 11.9223 6.92491 11.9223 6.74994C11.9223 6.57412 11.8549 6.39869 11.7289 6.27248C11.4725 6.02115 11.0266 6.02115 10.7703 6.27248C10.6444 6.39869 10.5771 6.57412 10.5771 6.74994C10.5771 6.92491 10.6444 7.10076 10.7703 7.22662C10.9011 7.35248 11.0719 7.42452 11.2521 7.42452Z" fill="white"/>
<path d="M6.27054 10.7712C6.14911 10.8969 6.07715 11.0724 6.07715 11.2482C6.07715 11.4236 6.14911 11.5994 6.27494 11.7248C6.39661 11.8512 6.57257 11.9232 6.7473 11.9232C6.92789 11.9232 7.09865 11.8512 7.22911 11.7248C7.35494 11.5994 7.4269 11.4236 7.4269 11.2482C7.4269 11.0724 7.35494 10.8969 7.22911 10.7712C6.97254 10.519 6.52282 10.519 6.27054 10.7712Z" fill="white"/>
</g>
<defs>
<clipPath id="clip0_10135_1953">
<rect width="18" height="18" fill="white"/>
</clipPath>
</defs>
</svg>
