<svg width="604" height="120" viewBox="0 0 604 120" fill="none" xmlns="http://www.w3.org/2000/svg">
<mask id="path-1-outside-1_10683_24942" maskUnits="userSpaceOnUse" x="128.976" y="34.8906" width="475" height="74" fill="black">
<rect fill="white" x="128.976" y="34.8906" width="475" height="74"/>
<path fill-rule="evenodd" clip-rule="evenodd" d="M208.906 40.4051C208.981 40.1177 209.019 39.8165 209.02 39.5131C209.014 39.0964 208.923 38.6893 208.756 38.3334C208.59 37.9774 208.354 37.6854 208.073 37.4871L207.543 37.141C207.281 36.9839 206.998 36.8998 206.71 36.8942H152.142C151.855 36.9052 151.572 36.989 151.309 37.141L150.021 38.033C149.628 38.3211 149.321 38.7737 149.15 39.3174L131.09 103.16C131.018 103.43 130.98 103.714 130.976 104C130.987 104.421 131.083 104.831 131.257 105.187C131.43 105.543 131.673 105.833 131.961 106.026L132.453 106.372C132.707 106.561 132.993 106.663 133.286 106.669H187.852C188.145 106.663 188.431 106.561 188.685 106.372L189.972 105.48C190.371 105.224 190.682 104.783 190.843 104.245L201.181 67.6297C201.256 67.3423 201.294 67.0411 201.295 66.7377C201.289 66.3211 201.198 65.914 201.032 65.558C200.866 65.2021 200.63 64.91 200.348 64.7117L199.78 64.3162C199.519 64.1591 199.235 64.075 198.947 64.0695H192.661C192.343 64.0622 192.03 64.1648 191.752 64.3668C190.389 65.4045 188.571 66.7389 186.337 68.3694L172.743 78.5482C172.504 78.7209 172.298 78.9617 172.141 79.2528C171.984 79.5438 171.879 79.8774 171.835 80.2287V80.526C171.821 81.1165 171.969 81.6941 172.251 82.1566C172.415 82.4309 172.629 82.6472 172.874 82.7854C173.119 82.9237 173.386 82.9794 173.652 82.9475H174.258C174.542 82.9401 174.823 83.0269 175.075 83.1997C175.327 83.3726 175.541 83.6258 175.697 83.9358C175.916 84.3224 176.035 84.7893 176.038 85.2696C176.037 85.5561 175.998 85.8403 175.924 86.1099V86.2086C175.795 86.6613 175.563 87.0513 175.258 87.3254C174.953 87.5995 174.59 87.7445 174.22 87.7404H158.581C158.293 87.763 158.006 87.6884 157.748 87.5239C157.489 87.3594 157.267 87.1105 157.104 86.8015C156.885 86.4148 156.766 85.9479 156.764 85.4676C156.764 85.1643 156.802 84.8631 156.877 84.5757L164.602 57.2999C164.722 56.8398 164.952 56.4424 165.259 56.1665C165.566 55.8905 165.933 55.7508 166.306 55.768H202.241C202.542 55.7625 202.838 55.6784 203.112 55.5207L204.4 54.5823C204.792 54.3058 205.089 53.8469 205.233 53.2972L208.906 40.4051ZM217.88 38.0336C217.457 38.3326 217.133 38.8255 216.972 39.4173L199.025 102.962C198.953 103.266 198.915 103.582 198.911 103.901C198.915 104.344 199.008 104.778 199.181 105.159C199.353 105.541 199.6 105.856 199.896 106.075L200.275 106.322C200.56 106.55 200.887 106.669 201.221 106.668H216.103C216.42 106.663 216.731 106.561 217.012 106.37L218.148 105.58C218.574 105.285 218.899 104.791 219.057 104.196L224.812 83.937C224.942 83.482 225.167 83.0834 225.461 82.7865C225.756 82.4896 226.108 82.3061 226.479 82.2571H226.63C226.974 82.267 227.311 82.39 227.609 82.6145C227.906 82.8391 228.156 83.1579 228.334 83.5415L238.063 105.386C238.234 105.768 238.477 106.086 238.768 106.311C239.06 106.536 239.391 106.66 239.73 106.671H256.581C256.975 106.674 257.361 106.519 257.686 106.228C258.011 105.936 258.26 105.522 258.398 105.04C258.502 104.746 258.554 104.425 258.549 104.101C258.556 103.665 258.464 103.235 258.284 102.866L249.689 83.249C249.535 82.8483 249.445 82.4115 249.424 81.9645C249.459 81.4156 249.602 80.888 249.84 80.4327C250.013 80.1094 250.246 79.849 250.518 79.6761C250.79 79.5031 251.091 79.4233 251.392 79.4443H263.398C263.715 79.4396 264.026 79.3377 264.307 79.147L265.405 78.3561C265.624 78.2275 265.82 78.0433 265.982 77.8142C266.145 77.585 266.271 77.3158 266.352 77.0223L276.69 40.6049C276.764 40.3175 276.803 40.0163 276.803 39.7129C276.801 39.2444 276.702 38.7854 276.515 38.385C276.328 37.9846 276.061 37.658 275.743 37.4401L275.402 37.1927C275.11 36.9962 274.785 36.8942 274.455 36.8954H220.001C219.684 36.9001 219.373 37.002 219.092 37.1927L217.88 38.0336ZM232.27 57.5021C232.405 57.0134 232.651 56.5903 232.976 56.2899C233.301 55.9895 233.689 55.8262 234.088 55.8222H249.954C250.243 55.791 250.535 55.8565 250.8 56.0126C251.065 56.1687 251.295 56.4101 251.468 56.7141C251.763 57.1901 251.924 57.7827 251.925 58.3941C251.925 58.5421 251.887 58.7895 251.849 59.2337C251.811 59.6779 251.508 60.1257 250.94 60.5681L230.871 75.4411C230.564 75.6417 230.229 75.7594 229.886 75.7872C229.437 75.7669 229.007 75.5393 228.674 75.145C228.46 74.9302 228.286 74.6531 228.168 74.3356C228.049 74.0182 227.99 73.6692 227.993 73.3164C227.996 72.982 228.035 72.6497 228.107 72.3287L232.27 57.5021ZM294.826 87.7922C294.467 87.8055 294.112 87.6989 293.794 87.4827C293.476 87.2666 293.205 86.9479 293.008 86.557C292.758 86.076 292.626 85.5074 292.63 84.9265C292.63 84.5592 292.668 84.1937 292.743 83.8395L300.165 57.7001C300.319 57.1399 300.602 56.6547 300.974 56.31C301.347 55.9654 301.791 55.7779 302.248 55.7728H316.562C316.92 55.7592 317.276 55.8657 317.594 56.0819C317.912 56.2981 318.182 56.6169 318.379 57.0079C318.656 57.4739 318.803 58.049 318.796 58.6385C318.801 59.0103 318.749 59.3797 318.644 59.7255L311.222 85.8649C310.766 87.1499 310.086 87.7922 309.14 87.7922H294.826ZM266.956 102.666C266.881 103.037 266.843 103.419 266.842 103.802C266.849 104.307 266.957 104.802 267.157 105.235C267.356 105.669 267.639 106.026 267.978 106.272L268.054 106.322C268.381 106.546 268.745 106.665 269.114 106.668H323.454C323.814 106.682 324.168 106.562 324.477 106.322L325.458 105.679C325.707 105.521 325.93 105.3 326.112 105.028C326.295 104.757 326.434 104.441 326.522 104.098L344.467 40.8499C344.571 40.5032 344.623 40.1346 344.623 39.7628C344.613 39.2394 344.495 38.7291 344.281 38.2856C344.067 37.8422 343.766 37.4819 343.408 37.2427C343.085 37.0071 342.719 36.8879 342.349 36.8972H288.01C287.64 36.9 287.277 37.0185 286.95 37.2427L285.89 37.9842C285.417 38.3296 285.044 38.8678 284.829 39.5161L266.956 102.666ZM403.429 86.4084C403.326 86.7982 403.132 87.1364 402.875 87.3756C402.617 87.6148 402.308 87.7432 401.992 87.7428H393.546C393.301 87.7493 393.057 87.6758 392.839 87.5291C392.621 87.3824 392.434 87.167 392.295 86.9025C392.112 86.5514 392.008 86.1408 391.994 85.7168C392 85.4836 392.025 85.2519 392.067 85.0252L404.26 42.1349C404.324 41.897 404.35 41.6448 404.338 41.3934C404.347 41.1092 404.304 40.8263 404.212 40.5684C404.12 40.3105 403.981 40.0852 403.808 39.9115C403.541 39.5863 403.188 39.4091 402.822 39.4173C402.546 39.4149 402.274 39.4996 402.028 39.6641L380.823 55.476C380.501 55.6934 380.255 56.0654 380.139 56.5138L371.657 86.4084C371.551 86.8051 371.351 87.1479 371.086 87.3876C370.821 87.6273 370.505 87.7516 370.182 87.7428H361.737C361.491 87.7486 361.248 87.6748 361.03 87.5282C360.812 87.3815 360.625 87.1665 360.486 86.9025C360.298 86.573 360.193 86.1762 360.185 85.7661C360.185 85.5118 360.224 85.26 360.299 85.0252L373.022 40.1089C373.091 39.8717 373.13 39.6211 373.136 39.3674C373.128 39.0082 373.046 38.6585 372.899 38.3544C372.752 38.0503 372.546 37.803 372.3 37.6381L371.584 37.144C371.362 36.9878 371.115 36.9031 370.862 36.8972H355.752C355.489 36.9095 355.231 36.9936 354.994 37.144L353.556 38.1323C353.388 38.2429 353.238 38.3959 353.115 38.5825C352.992 38.7691 352.898 38.9855 352.84 39.2193L334.625 103.407C334.554 103.643 334.515 103.894 334.511 104.148C334.518 104.506 334.599 104.856 334.745 105.16C334.891 105.465 335.097 105.712 335.342 105.877L336.1 106.421C336.321 106.577 336.569 106.662 336.821 106.668H364.462C364.645 106.667 364.825 106.616 364.992 106.52L376.92 100.936C377.09 100.855 377.27 100.822 377.45 100.837C377.715 100.83 377.976 100.916 378.208 101.085L385.288 106.372C385.53 106.56 385.805 106.663 386.087 106.669H415.888C416.138 106.664 416.384 106.579 416.604 106.422L418.047 105.434C418.38 105.198 418.634 104.811 418.764 104.347L436.978 40.1595C437.05 39.9061 437.089 39.6387 437.092 39.3686C437.08 39.0106 436.997 38.6628 436.85 38.3596C436.704 38.0564 436.499 37.8081 436.257 37.6393L435.504 37.1452C435.282 36.989 435.034 36.9043 434.782 36.8984H419.713C419.45 36.9093 419.191 36.9934 418.955 37.1452L417.59 38.0841C417.257 38.3214 417.001 38.7074 416.869 39.1711L403.429 86.4084ZM454.471 87.7428C454.173 87.7469 453.879 87.6541 453.615 87.4729C453.351 87.2918 453.126 87.0279 452.96 86.7051C452.741 86.3187 452.621 85.8515 452.618 85.3707C452.618 85.0672 452.656 84.7657 452.732 84.4787L453.713 81.0689C453.849 80.6079 454.088 80.2106 454.398 79.9286C454.71 79.6466 455.078 79.493 455.457 79.4878H471.02C471.315 79.4796 471.607 79.5653 471.871 79.7375C472.135 79.9098 472.363 80.1632 472.535 80.4761C472.761 80.8772 472.881 81.3626 472.878 81.8599C472.875 82.1631 472.837 82.4641 472.763 82.7518L471.777 86.1616C471.647 86.6259 471.41 87.0267 471.099 87.3096C470.788 87.5925 470.418 87.7438 470.038 87.7428H454.471ZM426.981 103.11C426.92 103.4 426.895 103.701 426.908 104.002C426.909 104.426 426.997 104.842 427.163 105.207C427.329 105.572 427.567 105.872 427.852 106.077L428.304 106.375C428.572 106.564 428.872 106.666 429.176 106.672H483.706C484.011 106.673 484.312 106.57 484.578 106.375L485.829 105.534C486.229 105.26 486.538 104.803 486.696 104.25L493.096 81.5691C493.168 81.3159 493.207 81.0487 493.21 80.7788C493.212 80.2438 493.079 79.7229 492.831 79.2963L488.741 72.0325C488.526 71.5885 488.409 71.0754 488.403 70.5501C488.417 70.1721 488.496 69.803 488.633 69.4696C488.771 69.1362 488.964 68.8469 489.198 68.6228L498.853 59.9758C499.182 59.7001 499.423 59.2791 499.533 58.7901L504.76 40.5073C504.836 40.2203 504.874 39.9189 504.874 39.6154C504.869 39.179 504.775 38.7522 504.602 38.3788C504.429 38.0054 504.182 37.6988 503.888 37.4906L503.436 37.1933C503.17 36.9976 502.87 36.8952 502.564 36.896H448.035C447.73 36.9018 447.431 37.0038 447.163 37.1933L445.875 38.0853C445.492 38.3876 445.189 38.836 445.008 39.3698L426.981 103.11ZM460.42 57.4034C460.835 56.3657 461.401 55.8222 462.159 55.8222H474.389C474.657 55.8036 474.925 55.8704 475.169 56.0168C475.413 56.1632 475.626 56.3848 475.79 56.6624C476.091 57.1336 476.253 57.7293 476.247 58.3423C476.244 58.5571 476.232 58.7716 476.21 58.9845C476.21 59.3306 475.945 59.7755 475.411 60.269L459.055 74.8976C458.725 75.1723 458.345 75.326 457.954 75.3424C457.552 75.3338 457.164 75.1414 456.859 74.7989C456.639 74.5872 456.459 74.312 456.334 73.9949C456.209 73.6778 456.142 73.3274 456.138 72.9709C456.143 72.6526 456.181 72.3367 456.252 72.0319L460.42 57.4034ZM494.913 103.061C494.839 103.348 494.801 103.649 494.799 103.953C494.801 104.383 494.894 104.804 495.068 105.17C495.242 105.537 495.49 105.833 495.785 106.028L496.241 106.374C496.515 106.531 496.81 106.615 497.109 106.621H512.105C512.405 106.611 512.701 106.527 512.977 106.374L514.264 105.482C514.648 105.178 514.952 104.731 515.136 104.198L533.2 40.455C533.242 40.1607 533.267 39.8624 533.273 39.563C533.272 39.1388 533.183 38.7228 533.017 38.358C532.851 37.9931 532.613 37.6927 532.328 37.4877L531.872 37.1416C531.595 36.9887 531.3 36.905 531 36.8948H515.967C515.663 36.894 515.364 36.9965 515.1 37.1921L513.849 38.0324C513.64 38.1628 513.454 38.349 513.304 38.5787C513.154 38.8085 513.043 39.0768 512.977 39.3662L494.913 103.061ZM575.267 57.4503C575.393 56.9546 575.637 56.5243 575.964 56.2221C576.291 55.9199 576.683 55.7616 577.084 55.7704H593.367C593.684 55.7667 593.995 55.6648 594.276 55.4731L595.49 54.6334C595.913 54.333 596.236 53.8405 596.399 53.2497L600.032 40.5014C600.097 40.2119 600.123 39.9103 600.11 39.6094C600.102 39.155 600.004 38.711 599.825 38.3212C599.646 37.9313 599.391 37.609 599.087 37.386L598.782 37.188C598.501 36.9966 598.19 36.8947 597.873 36.8906H543.421C543.092 36.8896 542.768 36.9916 542.476 37.188L541.262 38.0282C541.049 38.1583 540.858 38.3437 540.702 38.573C540.546 38.8024 540.427 39.0709 540.354 39.362L536.756 52.1109C536.686 52.4157 536.647 52.7316 536.642 53.0499C536.646 53.4988 536.743 53.9379 536.923 54.3207C537.103 54.7035 537.359 55.0156 537.665 55.2239L538.007 55.4707C538.288 55.6617 538.599 55.7636 538.916 55.768H552.51C552.825 55.7508 553.138 55.8423 553.417 56.0332C553.696 56.2241 553.931 56.5076 554.099 56.8551C554.336 57.2886 554.468 57.8051 554.478 58.3375C554.478 58.6411 554.439 58.9425 554.364 59.2295L541.947 102.96C541.871 103.247 541.832 103.549 541.833 103.852C541.834 104.321 541.933 104.78 542.12 105.18C542.306 105.581 542.573 105.907 542.892 106.125L543.271 106.372C543.548 106.575 543.861 106.677 544.179 106.67H559.025C559.341 106.664 559.652 106.562 559.933 106.372L561.143 105.532C561.551 105.208 561.869 104.723 562.051 104.148L575.267 57.4503ZM596.663 106.665C597.061 106.651 597.45 106.516 597.8 106.27L598.745 105.628C599.253 105.255 599.643 104.66 599.845 103.948L601.89 96.536C601.96 96.1807 601.997 95.8157 602 95.449C601.997 94.9116 601.883 94.3852 601.67 93.9249C601.457 93.4645 601.153 93.0872 600.79 92.8325C600.453 92.5875 600.076 92.4519 599.69 92.437H584.886C584.5 92.4449 584.123 92.581 583.79 92.8325L582.84 93.4747C582.324 93.8316 581.932 94.4328 581.745 95.1546L579.7 102.566C579.615 102.919 579.565 103.284 579.549 103.653C579.556 104.195 579.676 104.725 579.896 105.185C580.115 105.646 580.426 106.021 580.795 106.27V106.32C581.148 106.551 581.537 106.669 581.932 106.665H596.663Z"/>
</mask>
<path fill-rule="evenodd" clip-rule="evenodd" d="M208.906 40.4051C208.981 40.1177 209.019 39.8165 209.02 39.5131C209.014 39.0964 208.923 38.6893 208.756 38.3334C208.59 37.9774 208.354 37.6854 208.073 37.4871L207.543 37.141C207.281 36.9839 206.998 36.8998 206.71 36.8942H152.142C151.855 36.9052 151.572 36.989 151.309 37.141L150.021 38.033C149.628 38.3211 149.321 38.7737 149.15 39.3174L131.09 103.16C131.018 103.43 130.98 103.714 130.976 104C130.987 104.421 131.083 104.831 131.257 105.187C131.43 105.543 131.673 105.833 131.961 106.026L132.453 106.372C132.707 106.561 132.993 106.663 133.286 106.669H187.852C188.145 106.663 188.431 106.561 188.685 106.372L189.972 105.48C190.371 105.224 190.682 104.783 190.843 104.245L201.181 67.6297C201.256 67.3423 201.294 67.0411 201.295 66.7377C201.289 66.3211 201.198 65.914 201.032 65.558C200.866 65.2021 200.63 64.91 200.348 64.7117L199.78 64.3162C199.519 64.1591 199.235 64.075 198.947 64.0695H192.661C192.343 64.0622 192.03 64.1648 191.752 64.3668C190.389 65.4045 188.571 66.7389 186.337 68.3694L172.743 78.5482C172.504 78.7209 172.298 78.9617 172.141 79.2528C171.984 79.5438 171.879 79.8774 171.835 80.2287V80.526C171.821 81.1165 171.969 81.6941 172.251 82.1566C172.415 82.4309 172.629 82.6472 172.874 82.7854C173.119 82.9237 173.386 82.9794 173.652 82.9475H174.258C174.542 82.9401 174.823 83.0269 175.075 83.1997C175.327 83.3726 175.541 83.6258 175.697 83.9358C175.916 84.3224 176.035 84.7893 176.038 85.2696C176.037 85.5561 175.998 85.8403 175.924 86.1099V86.2086C175.795 86.6613 175.563 87.0513 175.258 87.3254C174.953 87.5995 174.59 87.7445 174.22 87.7404H158.581C158.293 87.763 158.006 87.6884 157.748 87.5239C157.489 87.3594 157.267 87.1105 157.104 86.8015C156.885 86.4148 156.766 85.9479 156.764 85.4676C156.764 85.1643 156.802 84.8631 156.877 84.5757L164.602 57.2999C164.722 56.8398 164.952 56.4424 165.259 56.1665C165.566 55.8905 165.933 55.7508 166.306 55.768H202.241C202.542 55.7625 202.838 55.6784 203.112 55.5207L204.4 54.5823C204.792 54.3058 205.089 53.8469 205.233 53.2972L208.906 40.4051ZM217.88 38.0336C217.457 38.3326 217.133 38.8255 216.972 39.4173L199.025 102.962C198.953 103.266 198.915 103.582 198.911 103.901C198.915 104.344 199.008 104.778 199.181 105.159C199.353 105.541 199.6 105.856 199.896 106.075L200.275 106.322C200.56 106.55 200.887 106.669 201.221 106.668H216.103C216.42 106.663 216.731 106.561 217.012 106.37L218.148 105.58C218.574 105.285 218.899 104.791 219.057 104.196L224.812 83.937C224.942 83.482 225.167 83.0834 225.461 82.7865C225.756 82.4896 226.108 82.3061 226.479 82.2571H226.63C226.974 82.267 227.311 82.39 227.609 82.6145C227.906 82.8391 228.156 83.1579 228.334 83.5415L238.063 105.386C238.234 105.768 238.477 106.086 238.768 106.311C239.06 106.536 239.391 106.66 239.73 106.671H256.581C256.975 106.674 257.361 106.519 257.686 106.228C258.011 105.936 258.26 105.522 258.398 105.04C258.502 104.746 258.554 104.425 258.549 104.101C258.556 103.665 258.464 103.235 258.284 102.866L249.689 83.249C249.535 82.8483 249.445 82.4115 249.424 81.9645C249.459 81.4156 249.602 80.888 249.84 80.4327C250.013 80.1094 250.246 79.849 250.518 79.6761C250.79 79.5031 251.091 79.4233 251.392 79.4443H263.398C263.715 79.4396 264.026 79.3377 264.307 79.147L265.405 78.3561C265.624 78.2275 265.82 78.0433 265.982 77.8142C266.145 77.585 266.271 77.3158 266.352 77.0223L276.69 40.6049C276.764 40.3175 276.803 40.0163 276.803 39.7129C276.801 39.2444 276.702 38.7854 276.515 38.385C276.328 37.9846 276.061 37.658 275.743 37.4401L275.402 37.1927C275.11 36.9962 274.785 36.8942 274.455 36.8954H220.001C219.684 36.9001 219.373 37.002 219.092 37.1927L217.88 38.0336ZM232.27 57.5021C232.405 57.0134 232.651 56.5903 232.976 56.2899C233.301 55.9895 233.689 55.8262 234.088 55.8222H249.954C250.243 55.791 250.535 55.8565 250.8 56.0126C251.065 56.1687 251.295 56.4101 251.468 56.7141C251.763 57.1901 251.924 57.7827 251.925 58.3941C251.925 58.5421 251.887 58.7895 251.849 59.2337C251.811 59.6779 251.508 60.1257 250.94 60.5681L230.871 75.4411C230.564 75.6417 230.229 75.7594 229.886 75.7872C229.437 75.7669 229.007 75.5393 228.674 75.145C228.46 74.9302 228.286 74.6531 228.168 74.3356C228.049 74.0182 227.99 73.6692 227.993 73.3164C227.996 72.982 228.035 72.6497 228.107 72.3287L232.27 57.5021ZM294.826 87.7922C294.467 87.8055 294.112 87.6989 293.794 87.4827C293.476 87.2666 293.205 86.9479 293.008 86.557C292.758 86.076 292.626 85.5074 292.63 84.9265C292.63 84.5592 292.668 84.1937 292.743 83.8395L300.165 57.7001C300.319 57.1399 300.602 56.6547 300.974 56.31C301.347 55.9654 301.791 55.7779 302.248 55.7728H316.562C316.92 55.7592 317.276 55.8657 317.594 56.0819C317.912 56.2981 318.182 56.6169 318.379 57.0079C318.656 57.4739 318.803 58.049 318.796 58.6385C318.801 59.0103 318.749 59.3797 318.644 59.7255L311.222 85.8649C310.766 87.1499 310.086 87.7922 309.14 87.7922H294.826ZM266.956 102.666C266.881 103.037 266.843 103.419 266.842 103.802C266.849 104.307 266.957 104.802 267.157 105.235C267.356 105.669 267.639 106.026 267.978 106.272L268.054 106.322C268.381 106.546 268.745 106.665 269.114 106.668H323.454C323.814 106.682 324.168 106.562 324.477 106.322L325.458 105.679C325.707 105.521 325.93 105.3 326.112 105.028C326.295 104.757 326.434 104.441 326.522 104.098L344.467 40.8499C344.571 40.5032 344.623 40.1346 344.623 39.7628C344.613 39.2394 344.495 38.7291 344.281 38.2856C344.067 37.8422 343.766 37.4819 343.408 37.2427C343.085 37.0071 342.719 36.8879 342.349 36.8972H288.01C287.64 36.9 287.277 37.0185 286.95 37.2427L285.89 37.9842C285.417 38.3296 285.044 38.8678 284.829 39.5161L266.956 102.666ZM403.429 86.4084C403.326 86.7982 403.132 87.1364 402.875 87.3756C402.617 87.6148 402.308 87.7432 401.992 87.7428H393.546C393.301 87.7493 393.057 87.6758 392.839 87.5291C392.621 87.3824 392.434 87.167 392.295 86.9025C392.112 86.5514 392.008 86.1408 391.994 85.7168C392 85.4836 392.025 85.2519 392.067 85.0252L404.26 42.1349C404.324 41.897 404.35 41.6448 404.338 41.3934C404.347 41.1092 404.304 40.8263 404.212 40.5684C404.12 40.3105 403.981 40.0852 403.808 39.9115C403.541 39.5863 403.188 39.4091 402.822 39.4173C402.546 39.4149 402.274 39.4996 402.028 39.6641L380.823 55.476C380.501 55.6934 380.255 56.0654 380.139 56.5138L371.657 86.4084C371.551 86.8051 371.351 87.1479 371.086 87.3876C370.821 87.6273 370.505 87.7516 370.182 87.7428H361.737C361.491 87.7486 361.248 87.6748 361.03 87.5282C360.812 87.3815 360.625 87.1665 360.486 86.9025C360.298 86.573 360.193 86.1762 360.185 85.7661C360.185 85.5118 360.224 85.26 360.299 85.0252L373.022 40.1089C373.091 39.8717 373.13 39.6211 373.136 39.3674C373.128 39.0082 373.046 38.6585 372.899 38.3544C372.752 38.0503 372.546 37.803 372.3 37.6381L371.584 37.144C371.362 36.9878 371.115 36.9031 370.862 36.8972H355.752C355.489 36.9095 355.231 36.9936 354.994 37.144L353.556 38.1323C353.388 38.2429 353.238 38.3959 353.115 38.5825C352.992 38.7691 352.898 38.9855 352.84 39.2193L334.625 103.407C334.554 103.643 334.515 103.894 334.511 104.148C334.518 104.506 334.599 104.856 334.745 105.16C334.891 105.465 335.097 105.712 335.342 105.877L336.1 106.421C336.321 106.577 336.569 106.662 336.821 106.668H364.462C364.645 106.667 364.825 106.616 364.992 106.52L376.92 100.936C377.09 100.855 377.27 100.822 377.45 100.837C377.715 100.83 377.976 100.916 378.208 101.085L385.288 106.372C385.53 106.56 385.805 106.663 386.087 106.669H415.888C416.138 106.664 416.384 106.579 416.604 106.422L418.047 105.434C418.38 105.198 418.634 104.811 418.764 104.347L436.978 40.1595C437.05 39.9061 437.089 39.6387 437.092 39.3686C437.08 39.0106 436.997 38.6628 436.85 38.3596C436.704 38.0564 436.499 37.8081 436.257 37.6393L435.504 37.1452C435.282 36.989 435.034 36.9043 434.782 36.8984H419.713C419.45 36.9093 419.191 36.9934 418.955 37.1452L417.59 38.0841C417.257 38.3214 417.001 38.7074 416.869 39.1711L403.429 86.4084ZM454.471 87.7428C454.173 87.7469 453.879 87.6541 453.615 87.4729C453.351 87.2918 453.126 87.0279 452.96 86.7051C452.741 86.3187 452.621 85.8515 452.618 85.3707C452.618 85.0672 452.656 84.7657 452.732 84.4787L453.713 81.0689C453.849 80.6079 454.088 80.2106 454.398 79.9286C454.71 79.6466 455.078 79.493 455.457 79.4878H471.02C471.315 79.4796 471.607 79.5653 471.871 79.7375C472.135 79.9098 472.363 80.1632 472.535 80.4761C472.761 80.8772 472.881 81.3626 472.878 81.8599C472.875 82.1631 472.837 82.4641 472.763 82.7518L471.777 86.1616C471.647 86.6259 471.41 87.0267 471.099 87.3096C470.788 87.5925 470.418 87.7438 470.038 87.7428H454.471ZM426.981 103.11C426.92 103.4 426.895 103.701 426.908 104.002C426.909 104.426 426.997 104.842 427.163 105.207C427.329 105.572 427.567 105.872 427.852 106.077L428.304 106.375C428.572 106.564 428.872 106.666 429.176 106.672H483.706C484.011 106.673 484.312 106.57 484.578 106.375L485.829 105.534C486.229 105.26 486.538 104.803 486.696 104.25L493.096 81.5691C493.168 81.3159 493.207 81.0487 493.21 80.7788C493.212 80.2438 493.079 79.7229 492.831 79.2963L488.741 72.0325C488.526 71.5885 488.409 71.0754 488.403 70.5501C488.417 70.1721 488.496 69.803 488.633 69.4696C488.771 69.1362 488.964 68.8469 489.198 68.6228L498.853 59.9758C499.182 59.7001 499.423 59.2791 499.533 58.7901L504.76 40.5073C504.836 40.2203 504.874 39.9189 504.874 39.6154C504.869 39.179 504.775 38.7522 504.602 38.3788C504.429 38.0054 504.182 37.6988 503.888 37.4906L503.436 37.1933C503.17 36.9976 502.87 36.8952 502.564 36.896H448.035C447.73 36.9018 447.431 37.0038 447.163 37.1933L445.875 38.0853C445.492 38.3876 445.189 38.836 445.008 39.3698L426.981 103.11ZM460.42 57.4034C460.835 56.3657 461.401 55.8222 462.159 55.8222H474.389C474.657 55.8036 474.925 55.8704 475.169 56.0168C475.413 56.1632 475.626 56.3848 475.79 56.6624C476.091 57.1336 476.253 57.7293 476.247 58.3423C476.244 58.5571 476.232 58.7716 476.21 58.9845C476.21 59.3306 475.945 59.7755 475.411 60.269L459.055 74.8976C458.725 75.1723 458.345 75.326 457.954 75.3424C457.552 75.3338 457.164 75.1414 456.859 74.7989C456.639 74.5872 456.459 74.312 456.334 73.9949C456.209 73.6778 456.142 73.3274 456.138 72.9709C456.143 72.6526 456.181 72.3367 456.252 72.0319L460.42 57.4034ZM494.913 103.061C494.839 103.348 494.801 103.649 494.799 103.953C494.801 104.383 494.894 104.804 495.068 105.17C495.242 105.537 495.49 105.833 495.785 106.028L496.241 106.374C496.515 106.531 496.81 106.615 497.109 106.621H512.105C512.405 106.611 512.701 106.527 512.977 106.374L514.264 105.482C514.648 105.178 514.952 104.731 515.136 104.198L533.2 40.455C533.242 40.1607 533.267 39.8624 533.273 39.563C533.272 39.1388 533.183 38.7228 533.017 38.358C532.851 37.9931 532.613 37.6927 532.328 37.4877L531.872 37.1416C531.595 36.9887 531.3 36.905 531 36.8948H515.967C515.663 36.894 515.364 36.9965 515.1 37.1921L513.849 38.0324C513.64 38.1628 513.454 38.349 513.304 38.5787C513.154 38.8085 513.043 39.0768 512.977 39.3662L494.913 103.061ZM575.267 57.4503C575.393 56.9546 575.637 56.5243 575.964 56.2221C576.291 55.9199 576.683 55.7616 577.084 55.7704H593.367C593.684 55.7667 593.995 55.6648 594.276 55.4731L595.49 54.6334C595.913 54.333 596.236 53.8405 596.399 53.2497L600.032 40.5014C600.097 40.2119 600.123 39.9103 600.11 39.6094C600.102 39.155 600.004 38.711 599.825 38.3212C599.646 37.9313 599.391 37.609 599.087 37.386L598.782 37.188C598.501 36.9966 598.19 36.8947 597.873 36.8906H543.421C543.092 36.8896 542.768 36.9916 542.476 37.188L541.262 38.0282C541.049 38.1583 540.858 38.3437 540.702 38.573C540.546 38.8024 540.427 39.0709 540.354 39.362L536.756 52.1109C536.686 52.4157 536.647 52.7316 536.642 53.0499C536.646 53.4988 536.743 53.9379 536.923 54.3207C537.103 54.7035 537.359 55.0156 537.665 55.2239L538.007 55.4707C538.288 55.6617 538.599 55.7636 538.916 55.768H552.51C552.825 55.7508 553.138 55.8423 553.417 56.0332C553.696 56.2241 553.931 56.5076 554.099 56.8551C554.336 57.2886 554.468 57.8051 554.478 58.3375C554.478 58.6411 554.439 58.9425 554.364 59.2295L541.947 102.96C541.871 103.247 541.832 103.549 541.833 103.852C541.834 104.321 541.933 104.78 542.12 105.18C542.306 105.581 542.573 105.907 542.892 106.125L543.271 106.372C543.548 106.575 543.861 106.677 544.179 106.67H559.025C559.341 106.664 559.652 106.562 559.933 106.372L561.143 105.532C561.551 105.208 561.869 104.723 562.051 104.148L575.267 57.4503ZM596.663 106.665C597.061 106.651 597.45 106.516 597.8 106.27L598.745 105.628C599.253 105.255 599.643 104.66 599.845 103.948L601.89 96.536C601.96 96.1807 601.997 95.8157 602 95.449C601.997 94.9116 601.883 94.3852 601.67 93.9249C601.457 93.4645 601.153 93.0872 600.79 92.8325C600.453 92.5875 600.076 92.4519 599.69 92.437H584.886C584.5 92.4449 584.123 92.581 583.79 92.8325L582.84 93.4747C582.324 93.8316 581.932 94.4328 581.745 95.1546L579.7 102.566C579.615 102.919 579.565 103.284 579.549 103.653C579.556 104.195 579.676 104.725 579.896 105.185C580.115 105.646 580.426 106.021 580.795 106.27V106.32C581.148 106.551 581.537 106.669 581.932 106.665H596.663Z" fill="white"/>
<path fill-rule="evenodd" clip-rule="evenodd" d="M208.906 40.4051C208.981 40.1177 209.019 39.8165 209.02 39.5131C209.014 39.0964 208.923 38.6893 208.756 38.3334C208.59 37.9774 208.354 37.6854 208.073 37.4871L207.543 37.141C207.281 36.9839 206.998 36.8998 206.71 36.8942H152.142C151.855 36.9052 151.572 36.989 151.309 37.141L150.021 38.033C149.628 38.3211 149.321 38.7737 149.15 39.3174L131.09 103.16C131.018 103.43 130.98 103.714 130.976 104C130.987 104.421 131.083 104.831 131.257 105.187C131.43 105.543 131.673 105.833 131.961 106.026L132.453 106.372C132.707 106.561 132.993 106.663 133.286 106.669H187.852C188.145 106.663 188.431 106.561 188.685 106.372L189.972 105.48C190.371 105.224 190.682 104.783 190.843 104.245L201.181 67.6297C201.256 67.3423 201.294 67.0411 201.295 66.7377C201.289 66.3211 201.198 65.914 201.032 65.558C200.866 65.2021 200.63 64.91 200.348 64.7117L199.78 64.3162C199.519 64.1591 199.235 64.075 198.947 64.0695H192.661C192.343 64.0622 192.03 64.1648 191.752 64.3668C190.389 65.4045 188.571 66.7389 186.337 68.3694L172.743 78.5482C172.504 78.7209 172.298 78.9617 172.141 79.2528C171.984 79.5438 171.879 79.8774 171.835 80.2287V80.526C171.821 81.1165 171.969 81.6941 172.251 82.1566C172.415 82.4309 172.629 82.6472 172.874 82.7854C173.119 82.9237 173.386 82.9794 173.652 82.9475H174.258C174.542 82.9401 174.823 83.0269 175.075 83.1997C175.327 83.3726 175.541 83.6258 175.697 83.9358C175.916 84.3224 176.035 84.7893 176.038 85.2696C176.037 85.5561 175.998 85.8403 175.924 86.1099V86.2086C175.795 86.6613 175.563 87.0513 175.258 87.3254C174.953 87.5995 174.59 87.7445 174.22 87.7404H158.581C158.293 87.763 158.006 87.6884 157.748 87.5239C157.489 87.3594 157.267 87.1105 157.104 86.8015C156.885 86.4148 156.766 85.9479 156.764 85.4676C156.764 85.1643 156.802 84.8631 156.877 84.5757L164.602 57.2999C164.722 56.8398 164.952 56.4424 165.259 56.1665C165.566 55.8905 165.933 55.7508 166.306 55.768H202.241C202.542 55.7625 202.838 55.6784 203.112 55.5207L204.4 54.5823C204.792 54.3058 205.089 53.8469 205.233 53.2972L208.906 40.4051ZM217.88 38.0336C217.457 38.3326 217.133 38.8255 216.972 39.4173L199.025 102.962C198.953 103.266 198.915 103.582 198.911 103.901C198.915 104.344 199.008 104.778 199.181 105.159C199.353 105.541 199.6 105.856 199.896 106.075L200.275 106.322C200.56 106.55 200.887 106.669 201.221 106.668H216.103C216.42 106.663 216.731 106.561 217.012 106.37L218.148 105.58C218.574 105.285 218.899 104.791 219.057 104.196L224.812 83.937C224.942 83.482 225.167 83.0834 225.461 82.7865C225.756 82.4896 226.108 82.3061 226.479 82.2571H226.63C226.974 82.267 227.311 82.39 227.609 82.6145C227.906 82.8391 228.156 83.1579 228.334 83.5415L238.063 105.386C238.234 105.768 238.477 106.086 238.768 106.311C239.06 106.536 239.391 106.66 239.73 106.671H256.581C256.975 106.674 257.361 106.519 257.686 106.228C258.011 105.936 258.26 105.522 258.398 105.04C258.502 104.746 258.554 104.425 258.549 104.101C258.556 103.665 258.464 103.235 258.284 102.866L249.689 83.249C249.535 82.8483 249.445 82.4115 249.424 81.9645C249.459 81.4156 249.602 80.888 249.84 80.4327C250.013 80.1094 250.246 79.849 250.518 79.6761C250.79 79.5031 251.091 79.4233 251.392 79.4443H263.398C263.715 79.4396 264.026 79.3377 264.307 79.147L265.405 78.3561C265.624 78.2275 265.82 78.0433 265.982 77.8142C266.145 77.585 266.271 77.3158 266.352 77.0223L276.69 40.6049C276.764 40.3175 276.803 40.0163 276.803 39.7129C276.801 39.2444 276.702 38.7854 276.515 38.385C276.328 37.9846 276.061 37.658 275.743 37.4401L275.402 37.1927C275.11 36.9962 274.785 36.8942 274.455 36.8954H220.001C219.684 36.9001 219.373 37.002 219.092 37.1927L217.88 38.0336ZM232.27 57.5021C232.405 57.0134 232.651 56.5903 232.976 56.2899C233.301 55.9895 233.689 55.8262 234.088 55.8222H249.954C250.243 55.791 250.535 55.8565 250.8 56.0126C251.065 56.1687 251.295 56.4101 251.468 56.7141C251.763 57.1901 251.924 57.7827 251.925 58.3941C251.925 58.5421 251.887 58.7895 251.849 59.2337C251.811 59.6779 251.508 60.1257 250.94 60.5681L230.871 75.4411C230.564 75.6417 230.229 75.7594 229.886 75.7872C229.437 75.7669 229.007 75.5393 228.674 75.145C228.46 74.9302 228.286 74.6531 228.168 74.3356C228.049 74.0182 227.99 73.6692 227.993 73.3164C227.996 72.982 228.035 72.6497 228.107 72.3287L232.27 57.5021ZM294.826 87.7922C294.467 87.8055 294.112 87.6989 293.794 87.4827C293.476 87.2666 293.205 86.9479 293.008 86.557C292.758 86.076 292.626 85.5074 292.63 84.9265C292.63 84.5592 292.668 84.1937 292.743 83.8395L300.165 57.7001C300.319 57.1399 300.602 56.6547 300.974 56.31C301.347 55.9654 301.791 55.7779 302.248 55.7728H316.562C316.92 55.7592 317.276 55.8657 317.594 56.0819C317.912 56.2981 318.182 56.6169 318.379 57.0079C318.656 57.4739 318.803 58.049 318.796 58.6385C318.801 59.0103 318.749 59.3797 318.644 59.7255L311.222 85.8649C310.766 87.1499 310.086 87.7922 309.14 87.7922H294.826ZM266.956 102.666C266.881 103.037 266.843 103.419 266.842 103.802C266.849 104.307 266.957 104.802 267.157 105.235C267.356 105.669 267.639 106.026 267.978 106.272L268.054 106.322C268.381 106.546 268.745 106.665 269.114 106.668H323.454C323.814 106.682 324.168 106.562 324.477 106.322L325.458 105.679C325.707 105.521 325.93 105.3 326.112 105.028C326.295 104.757 326.434 104.441 326.522 104.098L344.467 40.8499C344.571 40.5032 344.623 40.1346 344.623 39.7628C344.613 39.2394 344.495 38.7291 344.281 38.2856C344.067 37.8422 343.766 37.4819 343.408 37.2427C343.085 37.0071 342.719 36.8879 342.349 36.8972H288.01C287.64 36.9 287.277 37.0185 286.95 37.2427L285.89 37.9842C285.417 38.3296 285.044 38.8678 284.829 39.5161L266.956 102.666ZM403.429 86.4084C403.326 86.7982 403.132 87.1364 402.875 87.3756C402.617 87.6148 402.308 87.7432 401.992 87.7428H393.546C393.301 87.7493 393.057 87.6758 392.839 87.5291C392.621 87.3824 392.434 87.167 392.295 86.9025C392.112 86.5514 392.008 86.1408 391.994 85.7168C392 85.4836 392.025 85.2519 392.067 85.0252L404.26 42.1349C404.324 41.897 404.35 41.6448 404.338 41.3934C404.347 41.1092 404.304 40.8263 404.212 40.5684C404.12 40.3105 403.981 40.0852 403.808 39.9115C403.541 39.5863 403.188 39.4091 402.822 39.4173C402.546 39.4149 402.274 39.4996 402.028 39.6641L380.823 55.476C380.501 55.6934 380.255 56.0654 380.139 56.5138L371.657 86.4084C371.551 86.8051 371.351 87.1479 371.086 87.3876C370.821 87.6273 370.505 87.7516 370.182 87.7428H361.737C361.491 87.7486 361.248 87.6748 361.03 87.5282C360.812 87.3815 360.625 87.1665 360.486 86.9025C360.298 86.573 360.193 86.1762 360.185 85.7661C360.185 85.5118 360.224 85.26 360.299 85.0252L373.022 40.1089C373.091 39.8717 373.13 39.6211 373.136 39.3674C373.128 39.0082 373.046 38.6585 372.899 38.3544C372.752 38.0503 372.546 37.803 372.3 37.6381L371.584 37.144C371.362 36.9878 371.115 36.9031 370.862 36.8972H355.752C355.489 36.9095 355.231 36.9936 354.994 37.144L353.556 38.1323C353.388 38.2429 353.238 38.3959 353.115 38.5825C352.992 38.7691 352.898 38.9855 352.84 39.2193L334.625 103.407C334.554 103.643 334.515 103.894 334.511 104.148C334.518 104.506 334.599 104.856 334.745 105.16C334.891 105.465 335.097 105.712 335.342 105.877L336.1 106.421C336.321 106.577 336.569 106.662 336.821 106.668H364.462C364.645 106.667 364.825 106.616 364.992 106.52L376.92 100.936C377.09 100.855 377.27 100.822 377.45 100.837C377.715 100.83 377.976 100.916 378.208 101.085L385.288 106.372C385.53 106.56 385.805 106.663 386.087 106.669H415.888C416.138 106.664 416.384 106.579 416.604 106.422L418.047 105.434C418.38 105.198 418.634 104.811 418.764 104.347L436.978 40.1595C437.05 39.9061 437.089 39.6387 437.092 39.3686C437.08 39.0106 436.997 38.6628 436.85 38.3596C436.704 38.0564 436.499 37.8081 436.257 37.6393L435.504 37.1452C435.282 36.989 435.034 36.9043 434.782 36.8984H419.713C419.45 36.9093 419.191 36.9934 418.955 37.1452L417.59 38.0841C417.257 38.3214 417.001 38.7074 416.869 39.1711L403.429 86.4084ZM454.471 87.7428C454.173 87.7469 453.879 87.6541 453.615 87.4729C453.351 87.2918 453.126 87.0279 452.96 86.7051C452.741 86.3187 452.621 85.8515 452.618 85.3707C452.618 85.0672 452.656 84.7657 452.732 84.4787L453.713 81.0689C453.849 80.6079 454.088 80.2106 454.398 79.9286C454.71 79.6466 455.078 79.493 455.457 79.4878H471.02C471.315 79.4796 471.607 79.5653 471.871 79.7375C472.135 79.9098 472.363 80.1632 472.535 80.4761C472.761 80.8772 472.881 81.3626 472.878 81.8599C472.875 82.1631 472.837 82.4641 472.763 82.7518L471.777 86.1616C471.647 86.6259 471.41 87.0267 471.099 87.3096C470.788 87.5925 470.418 87.7438 470.038 87.7428H454.471ZM426.981 103.11C426.92 103.4 426.895 103.701 426.908 104.002C426.909 104.426 426.997 104.842 427.163 105.207C427.329 105.572 427.567 105.872 427.852 106.077L428.304 106.375C428.572 106.564 428.872 106.666 429.176 106.672H483.706C484.011 106.673 484.312 106.57 484.578 106.375L485.829 105.534C486.229 105.26 486.538 104.803 486.696 104.25L493.096 81.5691C493.168 81.3159 493.207 81.0487 493.21 80.7788C493.212 80.2438 493.079 79.7229 492.831 79.2963L488.741 72.0325C488.526 71.5885 488.409 71.0754 488.403 70.5501C488.417 70.1721 488.496 69.803 488.633 69.4696C488.771 69.1362 488.964 68.8469 489.198 68.6228L498.853 59.9758C499.182 59.7001 499.423 59.2791 499.533 58.7901L504.76 40.5073C504.836 40.2203 504.874 39.9189 504.874 39.6154C504.869 39.179 504.775 38.7522 504.602 38.3788C504.429 38.0054 504.182 37.6988 503.888 37.4906L503.436 37.1933C503.17 36.9976 502.87 36.8952 502.564 36.896H448.035C447.73 36.9018 447.431 37.0038 447.163 37.1933L445.875 38.0853C445.492 38.3876 445.189 38.836 445.008 39.3698L426.981 103.11ZM460.42 57.4034C460.835 56.3657 461.401 55.8222 462.159 55.8222H474.389C474.657 55.8036 474.925 55.8704 475.169 56.0168C475.413 56.1632 475.626 56.3848 475.79 56.6624C476.091 57.1336 476.253 57.7293 476.247 58.3423C476.244 58.5571 476.232 58.7716 476.21 58.9845C476.21 59.3306 475.945 59.7755 475.411 60.269L459.055 74.8976C458.725 75.1723 458.345 75.326 457.954 75.3424C457.552 75.3338 457.164 75.1414 456.859 74.7989C456.639 74.5872 456.459 74.312 456.334 73.9949C456.209 73.6778 456.142 73.3274 456.138 72.9709C456.143 72.6526 456.181 72.3367 456.252 72.0319L460.42 57.4034ZM494.913 103.061C494.839 103.348 494.801 103.649 494.799 103.953C494.801 104.383 494.894 104.804 495.068 105.17C495.242 105.537 495.49 105.833 495.785 106.028L496.241 106.374C496.515 106.531 496.81 106.615 497.109 106.621H512.105C512.405 106.611 512.701 106.527 512.977 106.374L514.264 105.482C514.648 105.178 514.952 104.731 515.136 104.198L533.2 40.455C533.242 40.1607 533.267 39.8624 533.273 39.563C533.272 39.1388 533.183 38.7228 533.017 38.358C532.851 37.9931 532.613 37.6927 532.328 37.4877L531.872 37.1416C531.595 36.9887 531.3 36.905 531 36.8948H515.967C515.663 36.894 515.364 36.9965 515.1 37.1921L513.849 38.0324C513.64 38.1628 513.454 38.349 513.304 38.5787C513.154 38.8085 513.043 39.0768 512.977 39.3662L494.913 103.061ZM575.267 57.4503C575.393 56.9546 575.637 56.5243 575.964 56.2221C576.291 55.9199 576.683 55.7616 577.084 55.7704H593.367C593.684 55.7667 593.995 55.6648 594.276 55.4731L595.49 54.6334C595.913 54.333 596.236 53.8405 596.399 53.2497L600.032 40.5014C600.097 40.2119 600.123 39.9103 600.11 39.6094C600.102 39.155 600.004 38.711 599.825 38.3212C599.646 37.9313 599.391 37.609 599.087 37.386L598.782 37.188C598.501 36.9966 598.19 36.8947 597.873 36.8906H543.421C543.092 36.8896 542.768 36.9916 542.476 37.188L541.262 38.0282C541.049 38.1583 540.858 38.3437 540.702 38.573C540.546 38.8024 540.427 39.0709 540.354 39.362L536.756 52.1109C536.686 52.4157 536.647 52.7316 536.642 53.0499C536.646 53.4988 536.743 53.9379 536.923 54.3207C537.103 54.7035 537.359 55.0156 537.665 55.2239L538.007 55.4707C538.288 55.6617 538.599 55.7636 538.916 55.768H552.51C552.825 55.7508 553.138 55.8423 553.417 56.0332C553.696 56.2241 553.931 56.5076 554.099 56.8551C554.336 57.2886 554.468 57.8051 554.478 58.3375C554.478 58.6411 554.439 58.9425 554.364 59.2295L541.947 102.96C541.871 103.247 541.832 103.549 541.833 103.852C541.834 104.321 541.933 104.78 542.12 105.18C542.306 105.581 542.573 105.907 542.892 106.125L543.271 106.372C543.548 106.575 543.861 106.677 544.179 106.67H559.025C559.341 106.664 559.652 106.562 559.933 106.372L561.143 105.532C561.551 105.208 561.869 104.723 562.051 104.148L575.267 57.4503ZM596.663 106.665C597.061 106.651 597.45 106.516 597.8 106.27L598.745 105.628C599.253 105.255 599.643 104.66 599.845 103.948L601.89 96.536C601.96 96.1807 601.997 95.8157 602 95.449C601.997 94.9116 601.883 94.3852 601.67 93.9249C601.457 93.4645 601.153 93.0872 600.79 92.8325C600.453 92.5875 600.076 92.4519 599.69 92.437H584.886C584.5 92.4449 584.123 92.581 583.79 92.8325L582.84 93.4747C582.324 93.8316 581.932 94.4328 581.745 95.1546L579.7 102.566C579.615 102.919 579.565 103.284 579.549 103.653C579.556 104.195 579.676 104.725 579.896 105.185C580.115 105.646 580.426 106.021 580.795 106.27V106.32C581.148 106.551 581.537 106.669 581.932 106.665H596.663Z" stroke="#21273D" stroke-width="2.89655" mask="url(#path-1-outside-1_10683_24942)"/>
<path d="M92.9624 25.1965L92.5608 25.1214C80.302 22.8288 67.2992 25.0405 55.5382 29.6115C43.7779 34.1822 33.3126 41.0916 26.1448 48.1237C15.4746 58.5927 9.57044 69.4776 8.80155 80.486C8.42165 85.9379 9.29724 90.7207 11.3955 94.8331C13.4935 98.9448 16.8359 102.429 21.4571 105.251L22.3792 105.814L21.5258 106.44C21.3179 106.614 21.0672 106.728 20.8037 106.774C20.5278 106.822 20.242 106.795 19.9791 106.696L19.9416 106.681L19.906 106.663C18.5784 105.984 17.2925 105.237 16.0542 104.426L16.0437 104.419L16.0334 104.412C11.4629 101.189 7.75163 97.0426 5.18904 92.2878L5.18754 92.285C2.44944 87.1509 1.11115 81.4776 1.29204 75.756C1.36274 71.6247 2.29783 67.3665 3.48008 63.0401L92.9624 25.1965ZM92.9624 25.1965L93.2344 24.8915M92.9624 25.1965L93.2344 24.8915M93.2344 24.8915L111.177 4.77055L111.898 3.96096L110.874 3.60465C110.321 3.41226 109.756 3.24964 109.183 3.11756C106.138 2.40179 103.047 1.86512 99.9277 1.51081L99.915 1.50936L99.9022 1.50837C95.6628 1.1778 91.3995 1.19976 87.1643 1.57398L87.1385 1.57627L87.1128 1.5804C86.229 1.72289 85.3389 1.85588 84.4441 1.98957C82.2752 2.31363 80.0791 2.64176 77.8791 3.11896C73.8523 3.93923 69.8734 4.94729 65.9579 6.13922L65.9579 6.13917L65.9494 6.14186C55.1188 9.58464 45.0199 14.8275 35.6271 21.5436C26.3569 28.1718 18.6903 35.6678 12.8719 44.1293L12.8718 44.1295C11.8624 45.5987 10.9047 47.076 9.95341 48.5436L9.81993 48.7495C9.81969 48.7499 9.81945 48.7503 9.81922 48.7506C9.01473 49.9843 8.316 51.2745 7.72962 52.6093L7.72878 52.6112M93.2344 24.8915L7.72878 52.6112M7.72878 52.6112L7.71656 52.6393M7.72878 52.6112L7.71656 52.6393M118.23 51.1121C118.246 51.1134 118.26 51.1146 118.274 51.1156L119.295 51.1889L118.886 52.1273C113.098 65.4007 107.31 78.6741 101.522 91.9474L101.277 92.51L101.277 92.5104L89.9384 118.511L89.7488 118.946H89.2746H64.5571H63.4516L63.8932 117.933L68.6087 107.112C66.9355 107.527 65.2575 107.893 63.5748 108.209L63.4411 107.497L63.5747 108.209C61.4473 108.608 59.325 108.903 57.2229 109.195C56.2701 109.327 55.3214 109.458 54.3783 109.599L54.3635 109.601L54.3486 109.603C50.1001 110.058 45.3309 110.149 41.5181 109.599L41.5058 109.598L41.4936 109.595C40.6304 109.441 39.7376 109.301 38.8352 109.16C36.8164 108.844 34.7496 108.52 32.859 108.004C25.0544 105.874 18.5112 102.448 14.1618 96.839L14.1617 96.8388C10.6088 92.2539 8.86074 86.8936 9.0759 80.7057L9.07595 80.7042C9.29481 74.7586 11.2254 68.6655 14.8282 62.4319L14.8282 62.4318C18.519 56.0477 23.5894 50.2755 29.9676 44.9646C35.3168 40.4862 41.3716 36.7796 47.9253 33.9696L48.6488 35.2117C48.1244 35.6101 47.6008 36.0009 47.0802 36.3895C45.9872 37.2053 44.9074 38.0112 43.8618 38.8568C37.5673 43.9481 32.9849 49.5357 29.8812 55.7209C25.7465 63.9607 25.331 71.1751 28.2758 77.4175L28.2759 77.4177C31.2517 83.731 37.1541 87.7632 45.9706 89.1713C55.5738 90.7049 65.9416 88.7801 76.895 83.8117L77.1941 84.4712L76.8951 83.8117C78.6803 83.0021 79.7373 82.1678 80.245 80.7554L80.2451 80.755C80.8771 78.9998 81.6814 77.2209 82.5009 75.4085C82.6985 74.9715 82.897 74.5324 83.0942 74.0913H80.2705C78.6073 74.0913 76.9448 74.0904 75.2827 74.0894C70.5604 74.0868 65.8403 74.0841 61.1107 74.1029C60.804 74.1042 60.4963 74.093 60.2202 74.0458C59.9537 74.0002 59.633 73.9079 59.3718 73.6836C59.0758 73.4295 58.9412 73.0812 58.9408 72.7108C58.9404 72.3764 59.0474 72.0304 59.198 71.6906C61.1957 67.1801 63.1637 62.6704 65.1326 58.1585C66.0061 56.1569 66.8797 54.1549 67.7562 52.1523L67.7736 52.1125L67.7956 52.0752C67.9277 51.8509 68.0777 51.6367 68.2443 51.4344L68.4369 51.2005L68.7387 51.1734C68.8355 51.1647 68.9491 51.1518 69.0724 51.1378C69.3827 51.1026 69.7551 51.0603 70.0796 51.0603M118.23 51.1121L70.0796 51.0603M118.23 51.1121V51.0605L117.506 51.0603C101.699 51.0575 85.8899 51.0575 70.0796 51.0603M118.23 51.1121L70.0796 51.0603M7.71656 52.6393C7.02642 54.2227 6.09781 56.3533 5.28008 58.3117M7.71656 52.6393L5.28008 58.3117M5.28008 58.3117C4.46577 60.262 3.73716 62.0979 3.48017 63.0398L5.28008 58.3117Z" fill="#C6CAFF" stroke="#21273D" stroke-width="1.44828"/>
</svg>
