<svg width="28" height="28" viewBox="0 0 28 28" fill="none" xmlns="http://www.w3.org/2000/svg">
<path d="M10.6709 10.5859C10.8702 9.97188 11.2352 9.42546 11.7259 9.00606C12.2166 8.58667 12.8144 8.31108 13.452 8.20992C14.0895 8.10877 14.7423 8.1858 15.3387 8.4327C15.9352 8.6796 16.4517 9.08687 16.8312 9.60905C17.2107 10.1312 17.438 10.748 17.4888 11.3915C17.5395 12.0351 17.4112 12.6803 17.1181 13.2555C16.8251 13.8306 16.3793 14.3132 15.8289 14.6506C15.2785 14.9879 14.6455 15.1664 14 15.1664V16.3336M14.0581 19.8333V19.95L13.9419 19.9502V19.8333H14.0581ZM8.55369 4.59375L4.59375 8.55369L4.59015 8.55706C4.189 8.95822 3.98794 9.15927 3.84408 9.39405C3.71614 9.60281 3.62163 9.83068 3.56447 10.0688C3.5 10.3373 3.5 10.6226 3.5 11.1933V16.8067C3.5 17.3774 3.5 17.6628 3.56447 17.9313C3.62163 18.1694 3.71614 18.3969 3.84408 18.6057C3.98833 18.8411 4.19046 19.0432 4.59375 19.4465L8.55369 23.4065C8.95724 23.81 9.15858 24.0114 9.39405 24.1557C9.60282 24.2836 9.83011 24.3785 10.0682 24.4356C10.3363 24.5 10.6211 24.5 11.1901 24.5H16.8088C17.3777 24.5 17.6637 24.5 17.9319 24.4356C18.17 24.3785 18.3975 24.2836 18.6063 24.1557C18.8418 24.0114 19.0436 23.81 19.4471 23.4065L23.407 19.4465C23.8106 19.043 24.0119 18.8412 24.1562 18.6057C24.2842 18.3969 24.3779 18.1694 24.4351 17.9313C24.4995 17.6628 24.5 17.3774 24.5 16.8067V11.1933C24.5 10.6226 24.4995 10.3373 24.4351 10.0688C24.3779 9.83068 24.2842 9.60282 24.1562 9.39405C24.0119 9.15859 23.8106 8.95721 23.407 8.55368L19.4471 4.59375C19.0438 4.19045 18.8417 3.98833 18.6063 3.84408C18.3975 3.71614 18.17 3.62163 17.9319 3.56447C17.6633 3.5 17.3769 3.5 16.8062 3.5H11.1927C10.622 3.5 10.3367 3.5 10.0682 3.56447C9.83011 3.62163 9.60282 3.71614 9.39405 3.84408C9.16071 3.98706 8.96123 4.18654 8.56497 4.58282L8.55369 4.59375Z" stroke="#616498" stroke-width="2" stroke-linecap="round" stroke-linejoin="round"/>
</svg>
