<svg width="18" height="18" viewBox="0 0 18 18" fill="none" xmlns="http://www.w3.org/2000/svg">
<path d="M16.9903 7.86246H10.1693L8.84285 10.9888L12.2534 11.0835L11.685 12.5993C11.685 12.5993 11.4058 13.9999 7.51653 13.6414C4.67303 13.3793 2.0218 9.85193 7.23242 5.30457C1.16917 8.43088 1.07159 13.75 3.44287 15.4414C5.81127 17.3361 10.3117 16.0098 10.3587 16.0098C10.4345 16.0098 9.86183 17.2098 9.56601 17.8098H12.9166L16.9903 7.86246Z" fill="white"/>
<path d="M15.9482 0.662229L13.485 3.78855C11.6847 2.74655 2.10094 5.23215 1.73734 12.2202C1.66831 13.5469 2.30576 15.0895 3.53764 16.1043C0.411019 14.0202 0.789945 11.2729 1.26366 9.56761C3.4426 2.17815 11.8742 -0.569236 15.9482 0.662229Z" fill="white"/>
</svg>
