<svg width="18" height="18" viewBox="0 0 18 18" fill="none" xmlns="http://www.w3.org/2000/svg">
<path d="M15.0744 0.000976562H2.92534C1.31308 0.000976562 0.000976562 1.31259 0.000976562 2.92545V15.0741C0.000976562 16.687 1.31304 17.9994 2.92534 17.9994H15.0744C16.687 17.9994 17.9996 16.687 17.9996 15.0741V2.92545C17.9996 1.31259 16.687 0.000976562 15.0744 0.000976562ZM4.66934 4.6711C5.17309 4.16727 6.0777 4.16727 6.58145 4.6711C6.82892 4.92282 6.97271 5.26974 6.97271 5.62531C6.97271 5.98081 6.82892 6.32703 6.58145 6.5791C6.32984 6.83082 5.97856 6.97485 5.62752 6.97485C5.26745 6.97485 4.92081 6.83082 4.66934 6.5791C4.42145 6.32703 4.27302 5.98081 4.27302 5.62531C4.27299 5.26977 4.42145 4.92282 4.66934 4.6711ZM13.3311 13.3284C13.0789 13.5801 12.728 13.7245 12.3769 13.7245C12.0171 13.7245 11.6706 13.5801 11.4191 13.3284C11.1664 13.0763 11.0225 12.7301 11.0225 12.3746C11.0225 12.0191 11.1664 11.6725 11.4191 11.4209C11.9225 10.9166 12.8221 10.9166 13.3311 11.4209C13.5827 11.6725 13.7268 12.0191 13.7268 12.3746C13.7268 12.7301 13.5827 13.0763 13.3311 13.3284ZM13.7519 5.83864L5.83857 13.7516C5.71236 13.8782 5.54055 13.9495 5.36174 13.9495C5.18266 13.9495 5.01074 13.8782 4.88425 13.7516L4.2481 13.1154C3.98457 12.8521 3.98457 12.4246 4.2481 12.1608L12.1612 4.24827C12.4249 3.98411 12.8525 3.98411 13.1158 4.24827L13.7519 4.88453C13.8786 5.01116 13.9498 5.18266 13.9498 5.36164C13.9498 5.54051 13.8786 5.71207 13.7519 5.83864Z" fill="#616498"/>
</svg>
