<svg width="18" height="18" viewBox="0 0 18 18" fill="none" xmlns="http://www.w3.org/2000/svg">
<path d="M13.9886 5.70572C13.8355 5.5569 13.6209 5.49074 13.4095 5.52361C13.1986 5.55771 13.0166 5.69053 12.9185 5.8803C12.7405 6.22575 12.5284 6.55137 12.2871 6.85343C12.2948 6.71481 12.2989 6.57622 12.2989 6.43672C12.2989 5.85358 12.2206 5.25326 12.0671 4.6523C11.5596 2.67848 10.2296 1.01025 8.41903 0.075022C8.21878 -0.028724 7.97891 -0.0243998 7.78182 0.0850767C7.58435 0.195116 7.45466 0.396456 7.43627 0.621772C7.30137 2.32963 6.42247 3.8828 5.03025 4.87891L4.94619 4.93885C4.91761 4.96023 4.88878 4.98185 4.83903 5.01479C3.9159 5.67664 3.15318 6.55875 2.63301 7.56721C2.10616 8.59145 1.83887 9.69156 1.83887 10.8367C1.83887 11.4218 1.91674 12.0225 2.0703 12.6215C2.88389 15.7873 5.73341 17.9985 8.99932 17.9985C12.9478 17.9985 16.1604 14.7859 16.1604 10.8367C16.1604 8.88883 15.3889 7.06686 13.9886 5.70572ZM12.5863 12.515C12.165 14.1538 10.6899 15.299 8.9996 15.299C6.95526 15.299 5.29209 13.6353 5.29209 11.5903C5.29209 10.8684 5.49793 10.1799 5.88061 9.58742C6.23417 10.0335 6.66269 10.4189 7.14823 10.7255C7.39359 10.8816 7.71056 10.8618 7.935 10.6779C8.16024 10.4948 8.24251 10.1876 8.14048 9.91694C7.98144 9.49602 7.90107 9.0585 7.90107 8.61739C7.90107 8.31878 7.94157 8.00747 8.02204 7.69345C8.20556 6.98052 8.59604 6.34387 9.13421 5.86058C9.45631 6.91038 10.1169 7.83664 11.0361 8.49456L11.0726 8.521C11.107 8.54613 11.1417 8.57053 11.1516 8.57556C11.6309 8.91977 12.0269 9.37796 12.2956 9.89887C12.5683 10.4297 12.7064 10.9986 12.7064 11.5903C12.7064 11.8923 12.6659 12.2036 12.5863 12.515Z" fill="white"/>
</svg>
