<svg width="25" height="25" viewBox="0 0 25 25" fill="none" xmlns="http://www.w3.org/2000/svg">
<path fill-rule="evenodd" clip-rule="evenodd" d="M0.153299 13.52C0.512729 14.7732 1.47869 15.7392 3.41061 17.6711L5.69765 19.9582C9.05888 23.3194 10.7395 25 12.8279 25C14.9163 25 16.5969 23.3194 19.9582 19.9582C23.3194 16.5969 25 14.9163 25 12.8279C25 10.7395 23.3194 9.05888 19.9582 5.69765L17.6711 3.41061C15.7392 1.47869 14.7732 0.512729 13.52 0.153299C12.2667 -0.206132 10.9356 0.101042 8.27344 0.715391L6.73821 1.06967C4.49851 1.58653 3.37865 1.84496 2.61181 2.61181C1.84496 3.37865 1.58653 4.49851 1.06967 6.73821L0.715391 8.27344C0.101042 10.9356 -0.206132 12.2667 0.153299 13.52ZM10.1542 6.58872C11.1387 7.5732 11.1387 9.16936 10.1542 10.1538C9.16976 11.1383 7.5736 11.1383 6.58912 10.1538C5.60463 9.16936 5.60463 7.5732 6.58912 6.58872C7.5736 5.60424 9.16976 5.60424 10.1542 6.58872ZM21.3139 12.5638L12.5901 21.2879C12.224 21.654 11.6304 21.654 11.2643 21.2879C10.8982 20.9218 10.8982 20.3282 11.2643 19.9621L19.988 11.238C20.3541 10.8719 20.9477 10.8719 21.3138 11.238C21.68 11.6041 21.68 12.1977 21.3139 12.5638Z" fill="#F7BE2C"/>
</svg>
