<svg
        width="22"
        height="22"
        viewBox="0 0 24 24"
        fill="none"
        xmlns="http://www.w3.org/2000/svg"
>
    <path
            d="M20.2247 23.2001L16.8122 19.8168L14.2455 22.3835L13.4288 21.5668C12.9816 21.1196 12.758 20.5654 12.758 19.9043C12.758 19.2432 12.9816 18.689 13.4288 18.2418L18.358 13.3126C18.8052 12.8654 19.3594 12.6418 20.0205 12.6418C20.6816 12.6418 21.2358 12.8654 21.683 13.3126L22.4997 14.1293L19.933 16.696L23.3163 20.1085C23.5497 20.3418 23.6663 20.614 23.6663 20.9251C23.6663 21.2362 23.5497 21.5085 23.3163 21.7418L21.858 23.2001C21.6247 23.4335 21.3525 23.5501 21.0413 23.5501C20.7302 23.5501 20.458 23.4335 20.2247 23.2001ZM23.6663 4.88346L10.4247 18.1251L10.5705 18.2418C11.0177 18.689 11.2413 19.2432 11.2413 19.9043C11.2413 20.5654 11.0177 21.1196 10.5705 21.5668L9.75384 22.3835L7.18717 19.8168L3.77467 23.2001C3.54134 23.4335 3.26912 23.5501 2.95801 23.5501C2.6469 23.5501 2.37467 23.4335 2.14134 23.2001L0.683008 21.7418C0.449674 21.5085 0.333008 21.2362 0.333008 20.9251C0.333008 20.614 0.449674 20.3418 0.683008 20.1085L4.06634 16.696L1.49967 14.1293L2.31634 13.3126C2.76356 12.8654 3.31773 12.6418 3.97884 12.6418C4.63995 12.6418 5.19412 12.8654 5.64134 13.3126L5.75801 13.4585L18.9997 0.216797H23.6663V4.88346ZM6.10801 10.6585L0.333008 4.88346V0.216797H4.99967L10.7747 5.9918L6.10801 10.6585Z"
            fill="#F7BE2C"
    />
</svg>