<svg width="30" height="30" viewBox="0 0 18 18" fill="none" xmlns="http://www.w3.org/2000/svg">
<path d="M8.5 10.35H8.37986C6.97143 10.35 6.26721 10.35 5.97228 9.88846C5.67735 9.42692 5.97321 8.78786 6.56493 7.50975L8.04627 4.31006L8.04627 4.31006C8.42045 3.50182 8.60755 3.0977 8.80377 3.14091C9 3.18413 9 3.62946 9 4.52013V7.15C9 7.3857 9 7.50355 9.07322 7.57678C9.14645 7.65 9.2643 7.65 9.5 7.65H9.62014C11.0286 7.65 11.7328 7.65 12.0277 8.11154C12.3226 8.57308 12.0268 9.21214 11.4351 10.4902L9.95373 13.6899C9.57955 14.4982 9.39245 14.9023 9.19623 14.8591C9 14.8159 9 14.3705 9 13.4799V10.85C9 10.6143 9 10.4964 8.92678 10.4232C8.85355 10.35 8.7357 10.35 8.5 10.35Z" fill="#9191A4"/>
</svg>