<svg width="18" height="19" viewBox="0 0 18 19" fill="none" xmlns="http://www.w3.org/2000/svg">
    <path d="M12.1674 2.73766L10.3967 2.48091L9.60473 0.876066C9.491 0.645617 9.25658 0.5 8.9992 0.5C8.74252 0.5 8.50772 0.645617 8.39399 0.876066L7.60174 2.48091L5.83131 2.73766C5.57684 2.7744 5.36591 2.95268 5.28652 3.19662C5.20714 3.44096 5.27306 3.70931 5.45696 3.88903L6.73922 5.13876L6.43656 6.90287C6.39303 7.15617 6.49727 7.41175 6.7049 7.5631C6.91254 7.71385 7.1883 7.73393 7.41573 7.61464L8.99927 6.78165L10.5835 7.61464C10.6827 7.66657 10.7902 7.69216 10.8976 7.69216C10.8991 7.69216 10.9006 7.69216 10.9024 7.69216C11.2776 7.67662 11.5818 7.39087 11.5818 7.01663C11.5818 6.93968 11.5682 6.8649 11.5444 6.79599L11.2607 5.13876L12.542 3.88829C12.7261 3.70931 12.792 3.44093 12.7126 3.19659C12.6332 2.95268 12.4219 2.77443 12.1674 2.73766Z" fill="#5B46BC"/>
    <path d="M4.31269 14.4502H0.674684C0.302098 14.4502 0 14.7525 0 15.1251V17.8253C0 18.1978 0.302133 18.5003 0.674684 18.5003H4.31265C4.68524 18.5003 4.98734 18.1978 4.98734 17.8253V15.1251C4.98737 14.7525 4.68524 14.4502 4.31269 14.4502Z" fill="#5B46BC"/>
    <path d="M17.3249 11.75H13.6872C13.3143 11.75 13.0122 12.0525 13.0122 12.425V17.8253C13.0122 18.1979 13.3143 18.5003 13.6872 18.5003H17.3249C17.6979 18.5003 17.9999 18.1978 17.9999 17.8253V12.425C17.9999 12.0526 17.6979 11.75 17.3249 11.75Z" fill="#5B46BC"/>
    <path d="M10.8188 9.0498H7.18082C6.80785 9.0498 6.50586 9.35183 6.50586 9.72477V17.8248C6.50586 18.1974 6.80785 18.4998 7.18082 18.4998H10.8188C11.1914 18.4998 11.4938 18.1973 11.4938 17.8248V9.72477C11.4938 9.35183 11.1914 9.0498 10.8188 9.0498Z" fill="#5B46BC"/>
</svg>
