<svg
        width="20"
        height="21"
        viewBox="0 0 20 21"
        fill="none"
        xmlns="http://www.w3.org/2000/svg"
>
    <path
            d="M6.66683 3.8335H6.00033C5.0669 3.8335 4.59985 3.8335 4.24333 4.01515C3.92972 4.17494 3.67494 4.42972 3.51515 4.74333C3.3335 5.09985 3.3335 5.5669 3.3335 6.50033V14.5003C3.3335 15.4337 3.3335 15.9002 3.51515 16.2567C3.67494 16.5703 3.92972 16.8256 4.24333 16.9854C4.5995 17.1668 5.06599 17.1668 5.99759 17.1668H6.66683M6.66683 3.8335H14.0003C14.9337 3.8335 15.3998 3.8335 15.7563 4.01515C16.0699 4.17494 16.3256 4.42972 16.4854 4.74333C16.6668 5.0995 16.6668 5.56599 16.6668 6.49759V14.5031C16.6668 15.4347 16.6668 15.9006 16.4854 16.2567C16.3256 16.5703 16.0699 16.8256 15.7563 16.9854C15.4002 17.1668 14.9343 17.1668 14.0027 17.1668H6.66683M6.66683 3.8335V17.1668M10.0002 9.66683H13.3335M10.0002 7.16683H13.3335"
            stroke="#EEEEEE"
            stroke-width="2"
            stroke-linecap="round"
            stroke-linejoin="round"
    />
</svg>