<svg width="20" height="20" viewBox="0 0 20 20" fill="none" xmlns="http://www.w3.org/2000/svg">
<g clip-path="url(#clip0_7210_26129)">
<path d="M19.2493 7.75008H17.9376C17.7633 7.13387 17.5171 6.54141 17.2019 5.97906L18.131 5.05016C18.2715 4.90937 18.3507 4.71879 18.3507 4.52004C18.3507 4.32129 18.2715 4.13016 18.131 3.98992L16.0097 1.86875C15.7167 1.57617 15.2419 1.57617 14.9494 1.86875L14.02 2.79809C13.4577 2.48227 12.8651 2.23578 12.2497 2.06152V0.750977C12.2497 0.337031 11.9137 0.000976562 11.4994 0.000976562H8.50025C8.08635 0.000976562 7.75041 0.337031 7.75041 0.750977V2.06152C7.13459 2.23578 6.54229 2.48227 5.97971 2.79809L5.05072 1.86875C4.75818 1.57617 4.28334 1.57617 3.99045 1.86875L1.86912 3.98992C1.72814 4.13016 1.64939 4.32129 1.64939 4.52004C1.64939 4.71879 1.72814 4.90941 1.86912 5.05016L2.79814 5.97906C2.48291 6.54141 2.23635 7.13387 2.06248 7.75008H0.751191C0.336934 7.75008 0.000488281 8.08613 0.000488281 8.49996V11.4998C0.000488281 11.9137 0.336895 12.2494 0.751191 12.2494H2.06248C2.23635 12.8659 2.48291 13.4576 2.79814 14.0198L1.86873 14.9488C1.57584 15.2418 1.57584 15.7164 1.86873 16.0098L3.98959 18.1307C4.28287 18.4237 4.75736 18.4245 5.05022 18.1307L5.97967 17.2017C6.5415 17.5175 7.13412 17.7637 7.75037 17.9384V19.2489C7.75037 19.6628 8.08635 19.9989 8.50022 19.9989H11.4993C11.9137 19.9989 12.2497 19.6628 12.2497 19.2489V17.9384C12.8658 17.7636 13.4577 17.5175 14.0199 17.2017L14.9493 18.1307C15.2309 18.412 15.7289 18.412 16.01 18.1307L18.1309 16.0098C18.4233 15.7164 18.4233 15.2418 18.1309 14.9488L17.2019 14.0198C17.5171 13.4575 17.7633 12.8659 17.9375 12.2494H19.2492C19.6631 12.2494 19.999 11.9137 19.999 11.4998V8.49996C19.9991 8.08613 19.6632 7.75008 19.2493 7.75008ZM13.2494 9.99996C13.2494 11.7916 11.7919 13.2497 9.99998 13.2497C8.20818 13.2497 6.75025 11.7916 6.75025 9.99996C6.75025 8.20832 8.20818 6.75012 9.99998 6.75012C11.7919 6.75008 13.2494 8.20832 13.2494 9.99996Z" fill="#616498"/>
</g>
<defs>
<clipPath id="clip0_7210_26129">
<rect width="20" height="20" fill="white"/>
</clipPath>
</defs>
</svg>
