<svg width="88" height="42" viewBox="0 0 88 42" fill="none" xmlns="http://www.w3.org/2000/svg">
<g clip-path="url(#clip0_1223_3817)">
<path d="M76.7153 21.1194C77.9714 15.1669 74.7902 9.35904 69.0978 7.21255C66.1775 6.11137 62.7241 4.98215 58.9946 4.10539L73.8938 31.3061C75.163 27.6912 76.0709 24.1731 76.7153 21.1194Z" fill="#272C3F" fill-opacity="0.5"/>
<path d="M11.2832 38.8805C10.0271 44.8331 13.2083 50.6409 18.9007 52.7874C21.8216 53.8888 25.2759 55.0183 29.0065 55.8952L14.1056 28.6913C12.8358 32.3071 11.9278 35.8261 11.2832 38.8805Z" fill="#272C3F" fill-opacity="0.5"/>
<path fill-rule="evenodd" clip-rule="evenodd" d="M16.2097 23.4257C19.3618 16.4697 24.0213 9.81178 30.8826 6.05355C37.7445 2.2949 45.8649 1.95356 53.4243 3.04302L71.7898 36.572C68.6377 43.5287 63.9779 50.1877 57.1159 53.9464C50.2547 57.7046 42.1354 58.0463 34.5766 56.9573L16.2097 23.4257ZM46.9797 19.2028C48.0393 18.6224 49.3687 19.0109 49.9491 20.0705L51.7089 23.2833L54.9218 21.5235C55.9814 20.9431 57.3108 21.3316 57.8912 22.3911C58.4716 23.4507 58.0831 24.7802 57.0235 25.3606L53.8107 27.1204L55.5705 30.3332C56.1509 31.3928 55.7625 32.7223 54.7029 33.3027C53.6433 33.883 52.3138 33.4946 51.7335 32.435L49.9736 29.2222L46.9689 30.868L48.7287 34.0809C49.3091 35.1404 48.9206 36.4699 47.861 37.0503C46.8015 37.6307 45.472 37.2422 44.8916 36.1826L43.1318 32.9698L40.127 34.6156L41.8869 37.8285C42.4673 38.8881 42.0788 40.2175 41.0192 40.7979C39.9596 41.3783 38.6302 40.9898 38.0498 39.9302L36.29 36.7174L33.0771 38.4772C32.0175 39.0576 30.6881 38.6692 30.1077 37.6096C29.5273 36.55 29.9158 35.2205 30.9754 34.6402L34.1882 32.8803L32.4284 29.6675C31.848 28.6079 32.2364 27.2785 33.296 26.6981C34.3556 26.1177 35.685 26.5061 36.2654 27.5657L38.0253 30.7786L41.03 29.1327L39.2702 25.9199C38.6898 24.8603 39.0783 23.5308 40.1378 22.9504C41.1974 22.3701 42.5269 22.7585 43.1073 23.8181L44.8671 27.0309L47.8719 25.3851L46.112 22.1722C45.5316 21.1127 45.9201 19.7832 46.9797 19.2028Z" fill="#272C3F" fill-opacity="0.5"/>
</g>
<defs>
<clipPath id="clip0_1223_3817">
<rect width="70" height="70" fill="white" transform="translate(20.2207 -13.4117) rotate(16.2882)"/>
</clipPath>
</defs>
</svg>
