<svg width="20" height="20" viewBox="0 0 20 20" fill="none" xmlns="http://www.w3.org/2000/svg">
<g clip-path="url(#clip0_7203_24883)">
<path d="M8.16639 15.9997H11.8337C12.2476 15.9997 12.5832 15.6636 12.5832 15.2493V0.750977C12.5832 0.337031 12.2476 0.000976562 11.8337 0.000976562H8.16639C7.75236 0.000976562 7.4165 0.337031 7.4165 0.750977V15.2493C7.41646 15.6636 7.75236 15.9997 8.16639 15.9997Z" fill="#616498"/>
<path d="M1.50037 15.9993H5.16732C5.58119 15.9993 5.91717 15.6632 5.91717 15.2489V11.083C5.91717 10.669 5.58115 10.333 5.16732 10.333H1.50037C1.08635 10.333 0.750488 10.669 0.750488 11.083V15.2488C0.750488 15.6632 1.08635 15.9993 1.50037 15.9993Z" fill="#616498"/>
<path d="M14.8329 15.9995H18.4994C18.9134 15.9995 19.2489 15.6634 19.2489 15.2491V5.91699C19.2489 5.50305 18.9133 5.16699 18.4994 5.16699H14.8329C14.4188 5.16699 14.0825 5.50305 14.0825 5.91699V15.2491C14.0825 15.6634 14.4188 15.9995 14.8329 15.9995Z" fill="#616498"/>
<path d="M19.2489 17.499H0.75082C0.336797 17.499 0.000976562 17.8346 0.000976562 18.2486V19.2485C0.000976562 19.6624 0.336836 19.9985 0.75082 19.9985H19.2489C19.6632 19.9985 19.9991 19.6624 19.9991 19.2485V18.2486C19.9991 17.8346 19.6632 17.499 19.2489 17.499Z" fill="#616498"/>
</g>
<defs>
<clipPath id="clip0_7203_24883">
<rect width="20" height="20" fill="white"/>
</clipPath>
</defs>
</svg>
