<svg width="20" height="20" viewBox="0 0 20 20" fill="none" xmlns="http://www.w3.org/2000/svg">
    <g clip-path="url(#clip0_7210_26005)">
        <path d="M19.7796 5.65832L15.1543 1.03378C14.9403 0.818707 14.6178 0.754097 14.3374 0.87109C14.0571 0.987261 13.8743 1.26054 13.8743 1.5639V3.12613H8.37537C7.96135 3.12613 7.62549 3.46218 7.62549 3.87613V8.50062C7.62549 8.91457 7.96139 9.25058 8.37537 9.25058H13.8744V10.8129C13.8744 11.1163 14.0571 11.3894 14.3374 11.5056C14.4305 11.5443 14.5276 11.5629 14.6247 11.5629C14.8192 11.5629 15.0114 11.4867 15.1544 11.343L19.7796 6.71843C20.0724 6.42589 20.0724 5.95089 19.7796 5.65832Z" fill="#616498"/>
        <path d="M11.6247 10.7497H6.12531V9.18793C6.12531 8.88461 5.94297 8.61132 5.66219 8.49511C5.3823 8.37812 5.05973 8.44273 4.84531 8.65781L0.220937 13.2823C-0.0723437 13.5748 -0.0723437 14.0495 0.220937 14.3425L4.84531 18.9671C4.98875 19.1108 5.18043 19.1864 5.37543 19.1864C5.47203 19.1864 5.56996 19.1684 5.66215 19.1297C5.94293 19.0135 6.12527 18.7399 6.12527 18.4369V16.8746H11.6247C12.0387 16.8746 12.3746 16.5386 12.3746 16.1247V11.5001C12.3746 11.0858 12.0387 10.7497 11.6247 10.7497Z" fill="#616498"/>
    </g>
    <defs>
        <clipPath id="clip0_7210_26005">
            <rect width="20" height="20" fill="white"/>
        </clipPath>
    </defs>
</svg>
