<svg width="40" height="40" viewBox="0 0 40 40" fill="none" xmlns="http://www.w3.org/2000/svg">
<path d="M35.9332 17.9L33.6666 15.2667C33.2332 14.7667 32.8832 13.8333 32.8832 13.1667V10.3333C32.8832 8.56666 31.4332 7.11666 29.6666 7.11666H26.8332C26.1832 7.11666 25.2332 6.76666 24.7332 6.33333L22.0999 4.06666C20.9499 3.08333 19.0666 3.08333 17.8999 4.06666L15.2832 6.35C14.7832 6.76666 13.8332 7.11666 13.1832 7.11666H10.2999C8.53322 7.11666 7.08322 8.56666 7.08322 10.3333V13.1833C7.08322 13.8333 6.73322 14.7667 6.31655 15.2667L4.06655 17.9167C3.09989 19.0667 3.09989 20.9333 4.06655 22.0833L6.31655 24.7333C6.73322 25.2333 7.08322 26.1667 7.08322 26.8167V29.6667C7.08322 31.4333 8.53322 32.8833 10.2999 32.8833H13.1832C13.8332 32.8833 14.7832 33.2333 15.2832 33.6667L17.9166 35.9333C19.0666 36.9167 20.9499 36.9167 22.1166 35.9333L24.7499 33.6667C25.2499 33.2333 26.1832 32.8833 26.8499 32.8833H29.6832C31.4499 32.8833 32.8999 31.4333 32.8999 29.6667V26.8333C32.8999 26.1833 33.2499 25.2333 33.6832 24.7333L35.9499 22.1C36.9166 20.95 36.9166 19.05 35.9332 17.9ZM26.9332 16.85L18.8832 24.9C18.6499 25.1333 18.3332 25.2667 17.9999 25.2667C17.6666 25.2667 17.3499 25.1333 17.1166 24.9L13.0832 20.8667C12.5999 20.3833 12.5999 19.5833 13.0832 19.1C13.5666 18.6167 14.3666 18.6167 14.8499 19.1L17.9999 22.25L25.1666 15.0833C25.6499 14.6 26.4499 14.6 26.9332 15.0833C27.4166 15.5667 27.4166 16.3667 26.9332 16.85Z" fill="#5B46BC"/>
</svg>
