<svg width="18" height="18" viewBox="0 0 18 18" fill="none" xmlns="http://www.w3.org/2000/svg">
    <path d="M10.03 1.89543C9.83074 1.77267 9.58212 1.76177 9.37329 1.86601L3.89141 4.60953H0.675316C0.302414 4.60953 0 4.91149 0 5.28446V12.7167C0 13.0896 0.302414 13.3921 0.675316 13.3921H3.89141L9.37329 16.1348C9.46839 16.1824 9.57185 16.206 9.67528 16.206C9.79889 16.206 9.92173 16.1719 10.03 16.1053C10.2285 15.9826 10.3503 15.7649 10.3503 15.5311V2.46974C10.3503 2.23627 10.2285 2.01855 10.03 1.89543Z" fill="#EEEEEE" fill-opacity="0.75"/>
    <path d="M15.5468 3.07971C15.2835 2.81748 14.8561 2.81675 14.5921 3.0801C14.3292 3.34416 14.3292 3.77176 14.5928 4.03512C15.9194 5.36037 16.6502 7.12325 16.6502 8.99957C16.6502 10.8755 15.9194 12.6393 14.5925 13.9656C14.3292 14.2285 14.3292 14.6561 14.5925 14.9198C14.7249 15.0516 14.8971 15.1177 15.07 15.1177C15.2426 15.1177 15.4151 15.0516 15.5471 14.9198C17.1292 13.3385 18.0001 11.2361 18.0001 8.99953C18.0001 6.76261 17.1292 4.66016 15.5468 3.07971Z" fill="#EEEEEE" fill-opacity="0.75"/>
    <path d="M13.3044 5.7722C13.0414 5.50842 12.614 5.50842 12.3504 5.77101C12.0861 6.03436 12.0853 6.46112 12.3489 6.72567C13.6005 7.98008 13.5997 10.0186 12.3478 11.2707C12.0846 11.5345 12.0846 11.9616 12.3478 12.2253C12.4795 12.357 12.6524 12.4228 12.8254 12.4228C12.998 12.4228 13.1705 12.357 13.3025 12.2253C15.0802 10.4473 15.0809 7.55244 13.3044 5.7722Z" fill="#EEEEEE" fill-opacity="0.75"/>
</svg>
