<svg width="24" height="25" viewBox="0 0 24 25" fill="none" xmlns="http://www.w3.org/2000/svg">
    <path d="M14.85 4.4498V8.2498H13.35V4.4498C13.35 4.1798 13.11 4.0498 12.95 4.0498C12.9 4.0498 12.85 4.0598 12.8 4.0798L4.87 7.06981C4.34 7.2698 4 7.7698 4 8.3398V9.0098C3.09 9.6898 2.5 10.7798 2.5 12.0098V8.3398C2.5 7.1498 3.23 6.0898 4.34 5.6698L12.28 2.6698C12.5 2.5898 12.73 2.5498 12.95 2.5498C13.95 2.5498 14.85 3.3598 14.85 4.4498Z" fill="#5B46BC"/>
    <path d="M21.5002 15V16C21.5002 16.27 21.2902 16.49 21.0102 16.5H19.5502C19.0202 16.5 18.5402 16.11 18.5002 15.59C18.4702 15.28 18.5902 14.99 18.7902 14.79C18.9702 14.6 19.2202 14.5 19.4902 14.5H21.0002C21.2902 14.51 21.5002 14.73 21.5002 15Z" fill="#5B46BC"/>
    <path d="M19.48 13.45H20.5C21.05 13.45 21.5 13 21.5 12.45V12.01C21.5 9.94 19.81 8.25 17.74 8.25H6.26C5.41 8.25 4.63 8.53 4 9.01C3.09 9.69 2.5 10.78 2.5 12.01V18.74C2.5 20.81 4.19 22.5 6.26 22.5H17.74C19.81 22.5 21.5 20.81 21.5 18.74V18.55C21.5 18 21.05 17.55 20.5 17.55H19.63C18.67 17.55 17.75 16.96 17.5 16.03C17.29 15.27 17.54 14.54 18.04 14.05C18.41 13.67 18.92 13.45 19.48 13.45ZM14 13.25H7C6.59 13.25 6.25 12.91 6.25 12.5C6.25 12.09 6.59 11.75 7 11.75H14C14.41 11.75 14.75 12.09 14.75 12.5C14.75 12.91 14.41 13.25 14 13.25Z" fill="#5B46BC"/>
</svg>
