<svg width="38" height="39" viewBox="0 0 38 39" fill="none" xmlns="http://www.w3.org/2000/svg">
    <path fill-rule="evenodd" clip-rule="evenodd" d="M12.4182 6.52009C15.6303 4.61786 17.2364 3.66675 19 3.66675C20.7636 3.66675 22.3697 4.61786 25.5818 6.52009L26.6682 7.16347C29.8803 9.0657 31.4864 10.0168 32.3682 11.5834C33.25 13.15 33.25 15.0522 33.25 18.8567V20.1435C33.25 23.9479 33.25 25.8502 32.3682 27.4167C31.4864 28.9833 29.8803 29.9345 26.6682 31.8367L25.5818 32.4801C22.3697 34.3823 20.7636 35.3334 19 35.3334C17.2364 35.3334 15.6303 34.3823 12.4182 32.4801L11.3318 31.8367C8.11965 29.9345 6.51359 28.9833 5.63179 27.4167C4.75 25.8502 4.75 23.9479 4.75 20.1435V18.8567C4.75 15.0522 4.75 13.15 5.63179 11.5834C6.51359 10.0168 8.11965 9.0657 11.3318 7.16347L12.4182 6.52009ZM20.5833 25.8334C20.5833 26.7079 19.8745 27.4167 19 27.4167C18.1255 27.4167 17.4167 26.7079 17.4167 25.8334C17.4167 24.959 18.1255 24.2501 19 24.2501C19.8745 24.2501 20.5833 24.959 20.5833 25.8334ZM19 10.3959C19.6558 10.3959 20.1875 10.9276 20.1875 11.5834V21.0834C20.1875 21.7393 19.6558 22.2709 19 22.2709C18.3442 22.2709 17.8125 21.7393 17.8125 21.0834V11.5834C17.8125 10.9276 18.3442 10.3959 19 10.3959Z" fill="#F7BE2C"/>
</svg>
