<svg width="20" height="18" viewBox="0 0 18 18" fill="none" xmlns="http://www.w3.org/2000/svg">
<g clip-path="url(#clip0_8180_2549)">
<path d="M15.0749 1.79972H14.1749V0.67507C14.1749 0.302449 13.8727 0 13.4998 0C13.1272 0 12.8252 0.302484 12.8252 0.67507V1.79972H5.17549V0.67507C5.17549 0.302449 4.87308 0 4.49982 0C4.12724 0 3.82525 0.302484 3.82525 0.67507V1.79972H2.92542C1.31221 1.79972 0 3.11217 0 4.72514V15.0748C0 16.6878 1.31221 17.9998 2.92542 17.9998H15.0749C16.6874 17.9998 18.0001 16.6878 18.0001 15.0748V4.72514C18.0001 3.11217 16.6874 1.79972 15.0749 1.79972ZM5.85007 15.0748C5.85007 15.4477 5.5478 15.7502 5.17549 15.7502H2.92542C2.55245 15.7502 2.25018 15.4477 2.25018 15.0748V10.575C2.25018 10.2021 2.55245 9.90004 2.92542 9.90004H5.17546C5.54776 9.90004 5.85004 10.2021 5.85004 10.575V15.0748H5.85007ZM10.8001 15.0748C10.8001 15.4477 10.4981 15.7502 10.125 15.7502H7.87528C7.50199 15.7502 7.2 15.4477 7.2 15.0748V8.32486C7.2 7.95238 7.50199 7.64993 7.87528 7.64993H10.125C10.4981 7.64993 10.8001 7.95241 10.8001 8.32486V15.0748ZM15.7503 15.0748C15.7503 15.4477 15.4483 15.7502 15.0749 15.7502H12.8253C12.4523 15.7502 12.1503 15.4477 12.1503 15.0748V12.825C12.1503 12.4524 12.4523 12.15 12.8253 12.15H15.0749C15.4483 12.15 15.7503 12.4525 15.7503 12.825V15.0748Z" fill="white"/>
</g>
<defs>
<clipPath id="clip0_8180_2549">
<rect width="18" height="18" fill="white"/>
</clipPath>
</defs>
</svg>
