<svg width="9" height="9" viewBox="0 0 9 9" fill="none" xmlns="http://www.w3.org/2000/svg">
<rect x="0.855469" y="0.217773" width="8" height="8" rx="4" fill="#3EC47B"/>
<path d="M3.29456 5.41797L3.11326 4.91477H2.08836L1.90706 5.41797H1.29286L2.26226 2.75397H2.98006L3.95316 5.41797H3.29456ZM2.93196 4.38567L2.59896 3.44957L2.26226 4.38567H2.93196ZM4.0759 4.26357V2.75397H4.6753V4.25987C4.6753 4.67797 4.8344 4.90367 5.1637 4.90367C5.4967 4.90367 5.6595 4.67797 5.6595 4.25617V2.75397H6.2589V4.26357C6.2589 4.98507 5.8704 5.46607 5.1637 5.46607C4.4311 5.46607 4.0759 5.00357 4.0759 4.26357ZM6.61748 3.54947C6.61748 3.14247 6.83948 2.85017 7.24648 2.75027V2.36177H7.80148V2.71327C8.00128 2.73177 8.14558 2.76877 8.30838 2.83537L8.27508 3.46437C8.06788 3.39777 7.85698 3.35337 7.62388 3.35337C7.39448 3.35337 7.23168 3.41627 7.23168 3.58277C7.23168 3.73077 7.36488 3.77887 7.63128 3.84177C8.12708 3.95277 8.46378 4.12297 8.46378 4.62987C8.46378 5.04427 8.23068 5.32917 7.79408 5.42537V5.87677H7.23908V5.45867C6.98748 5.44017 6.82468 5.38467 6.64708 5.31807L6.68038 4.75937C6.85428 4.83337 7.11328 4.89627 7.40188 4.89627C7.67568 4.89627 7.84958 4.81857 7.84958 4.64467C7.84958 4.47447 7.69418 4.42267 7.40928 4.35607C6.94678 4.25247 6.61748 4.06747 6.61748 3.54947Z" fill="#F7D14E"/>
</svg>
