<svg xmlns="http://www.w3.org/2000/svg" width="16" height="16" fill="none"><path fill="#0077E5" d="M15.957 8A7.958 7.958 0 1 1 .04 8a7.958 7.958 0 0 1 15.916 0Z"/><path fill="#0096EA" d="M15.957 8A7.958 7.958 0 1 1 .04 8a7.958 7.958 0 0 1 15.916 0Z"/><path fill="#fff" d="m10.236 11.325-.184-.834a.16.16 0 0 0-.078-.11.156.156 0 0 0-.137-.01l-.026.01-.063.016-.097.023a2.314 2.314 0 0 1-.283.05 3.985 3.985 0 0 1-.176.019 2.294 2.294 0 0 1-.189.007 2.112 2.112 0 0 1-1.982-1.332h2.03a.16.16 0 0 0 .104-.039.16.16 0 0 0 .058-.097l.126-.587a.17.17 0 0 0-.032-.142.164.164 0 0 0-.13-.063H6.768a4.722 4.722 0 0 1 0-.55h2.56c.094 0 .15-.046.167-.137l.126-.598a.154.154 0 0 0-.036-.136.154.154 0 0 0-.131-.063H7c.175-.392.437-.7.787-.923.35-.224.744-.336 1.185-.336a.468.468 0 0 1 .155.005c.089.01.14.015.152.013a.878.878 0 0 1 .136.016l.118.018.092.019.06.013.021.005a.154.154 0 0 0 .2-.115l.225-.834a.173.173 0 0 0-.016-.126.2.2 0 0 0-.105-.079c-.321-.08-.66-.12-1.017-.12a3.49 3.49 0 0 0-2.1.67 3.417 3.417 0 0 0-1.278 1.774h-.514a.163.163 0 0 0-.12.047.164.164 0 0 0-.047.12v.598c0 .05.015.09.047.12a.163.163 0 0 0 .12.048h.352c-.01.168-.012.351-.005.55H5.1a.161.161 0 0 0-.118.05.161.161 0 0 0-.05.119v.592c0 .046.017.085.05.118a.16.16 0 0 0 .118.05h.5c.22.773.636 1.387 1.248 1.844.612.456 1.327.684 2.145.684a3.83 3.83 0 0 0 1.057-.15.257.257 0 0 0 .055-.018l.026-.005a.165.165 0 0 0 .09-.076.154.154 0 0 0 .015-.118Z"/></svg>