<svg width="9" height="9" viewBox="0 0 9 9" fill="none" xmlns="http://www.w3.org/2000/svg">
<rect x="0.855469" y="0.217773" width="8" height="8" rx="4" fill="#3D55ED"/>
<path d="M3.37127 3.38797C3.37127 2.72797 3.73127 2.25397 4.39127 2.09197V1.46197H5.29127V2.03197C5.61527 2.06197 5.84927 2.12197 6.11327 2.22997L6.05927 3.24997C5.72327 3.14197 5.38127 3.06997 5.00327 3.06997C4.63127 3.06997 4.36727 3.17197 4.36727 3.44197C4.36727 3.68197 4.58327 3.75997 5.01527 3.86197C5.81927 4.04197 6.36527 4.31797 6.36527 5.13997C6.36527 5.81197 5.98727 6.27397 5.27927 6.42997V7.16197H4.37927V6.48397C3.97127 6.45397 3.70727 6.36397 3.41927 6.25597L3.47327 5.34997C3.75527 5.46997 4.17527 5.57197 4.64327 5.57197C5.08727 5.57197 5.36927 5.44597 5.36927 5.16397C5.36927 4.88797 5.11727 4.80397 4.65527 4.69597C3.90527 4.52797 3.37127 4.22797 3.37127 3.38797Z" fill="white"/>
</svg>
