<svg width="16" height="16" viewBox="0 0 16 16" fill="none" xmlns="http://www.w3.org/2000/svg">
<g clip-path="url(#clip0_12162_119142)">
<path d="M8 16C12.4183 16 16 12.4183 16 8C16 3.58172 12.4183 0 8 0C3.58172 0 0 3.58172 0 8C0 12.4183 3.58172 16 8 16Z" fill="#D73531"/>
<path d="M6.3239 13.32V7.9528L3.98438 8.51052V7.36608L6.3239 6.80835V5.65664L3.98438 6.21436V5.07L6.3239 4.51228V2.63623H7.72912V4.17179L10.1557 3.57789V4.72225L7.72912 5.31624V6.46787L10.1557 5.87396V7.01832L7.72912 7.61231V12.0959C8.19276 12.009 8.60064 11.8449 8.95327 11.6034C9.30565 11.362 9.60153 11.059 9.84049 10.6943C10.0795 10.3298 10.2606 9.91574 10.3838 9.4521C10.5068 8.98854 10.5685 8.49128 10.5685 7.95998H12.0171C12.0171 8.78096 11.8941 9.52338 11.6477 10.1873C11.4015 10.8514 11.0561 11.4187 10.6119 11.8895C10.1676 12.3603 9.63886 12.7237 9.02563 12.9796C8.4124 13.2357 7.74109 13.3635 7.01197 13.3635C6.77532 13.3635 6.54593 13.3491 6.3239 13.3201V13.32Z" fill="#F6F6F6"/>
</g>
<defs>
<clipPath id="clip0_12162_119142">
<rect width="16" height="16" fill="white"/>
</clipPath>
</defs>
</svg>
