<svg width="18" height="18" viewBox="0 0 18 18" fill="none" xmlns="http://www.w3.org/2000/svg">
<g clip-path="url(#clip0_9987_1294)">
<path d="M15.0744 0.000976562H2.92545C1.31276 0.000976562 0.000976562 1.31259 0.000976562 2.92545V15.0741C0.000976562 16.687 1.31276 17.9994 2.92548 17.9994H15.0744C16.6871 17.9994 17.9996 16.687 17.9996 15.0741V2.92545C17.9996 1.31259 16.6871 0.000976562 15.0744 0.000976562ZM12.3185 3.77117C12.8223 3.26738 13.7268 3.26738 14.2309 3.77117C14.4781 4.02289 14.6222 4.36984 14.6222 4.72545C14.6222 5.08088 14.4781 5.4271 14.2309 5.67955C13.979 5.93127 13.6276 6.07534 13.277 6.07534C12.9213 6.07534 12.5707 5.93127 12.3184 5.67955C12.0705 5.4271 11.9269 5.08091 11.9269 4.72545C11.9269 4.36984 12.0666 4.02289 12.3185 3.77117ZM5.6817 14.2284C5.42942 14.4805 5.07842 14.6246 4.72777 14.6246C4.37237 14.6246 4.02148 14.4805 3.7692 14.2284C3.52131 13.9762 3.37327 13.6301 3.37327 13.2745C3.37327 12.9191 3.52131 12.5725 3.7692 12.3208C4.27264 11.8166 5.1778 11.8166 5.68166 12.3208C5.92871 12.5725 6.07717 12.9191 6.07717 13.2745C6.07721 13.6301 5.92878 13.9762 5.6817 14.2284ZM5.6817 5.67952C5.42942 5.93124 5.08323 6.07531 4.72777 6.07531C4.3677 6.07531 4.02148 5.93124 3.7692 5.67952C3.52131 5.42706 3.37327 5.08088 3.37327 4.72541C3.37327 4.36984 3.52131 4.02289 3.7692 3.77113C4.27264 3.26734 5.1778 3.26734 5.68166 3.77113C5.92871 4.02285 6.07717 4.36981 6.07717 4.72541C6.07721 5.08088 5.92878 5.42706 5.6817 5.67952ZM9.95593 9.95399C9.70009 10.2057 9.35307 10.3497 8.99778 10.3497C8.64674 10.3497 8.29571 10.2057 8.04381 9.95399C7.79635 9.70143 7.65228 9.35532 7.65228 8.99971C7.65228 8.64428 7.79635 8.29768 8.04381 8.04599C8.54771 7.54178 9.45221 7.54178 9.95593 8.04599C10.2082 8.29768 10.3522 8.64428 10.3522 8.99971C10.3522 9.35532 10.2082 9.70143 9.95593 9.95399ZM14.2309 14.2284C13.979 14.4805 13.6276 14.6246 13.2723 14.6246C12.9213 14.6246 12.5707 14.4805 12.3184 14.2284C12.0705 13.9762 11.9269 13.6301 11.9269 13.2745C11.9269 12.9191 12.0705 12.5725 12.3228 12.3208C12.8223 11.8166 13.7311 11.8166 14.2309 12.3208C14.4828 12.5725 14.6268 12.9191 14.6268 13.2745C14.6269 13.6301 14.4828 13.9762 14.2309 14.2284Z" fill="white"/>
</g>
<defs>
<clipPath id="clip0_9987_1294">
<rect width="18" height="18" fill="white"/>
</clipPath>
</defs>
</svg>
