<svg width="390" height="440" viewBox="0 0 390 440" fill="none" xmlns="http://www.w3.org/2000/svg">
<g clip-path="url(#clip0_251_1888)">
<path d="M171.933 15.517L29.9519 98.0275C15.7886 106.258 7.05511 121.385 7.00867 137.766L6.54315 301.983C6.49631 318.504 15.2916 333.788 29.5995 342.049L172.508 424.558C186.816 432.818 204.45 432.793 218.735 424.492L360.716 341.981C374.879 333.751 383.613 318.624 383.659 302.243L384.125 138.026C384.172 121.504 375.376 106.221 361.068 97.9599L218.159 15.4514C203.852 7.19075 186.218 7.21575 171.933 15.517Z" fill="#DCDEE3"/>
<g filter="url(#filter0_f_251_1888)">
<path d="M37.6223 99.7325L175 19.8981C187.391 12.6975 202.687 12.6759 215.098 19.8414L353.621 99.8176C362.496 104.941 362.514 117.744 353.654 122.893L216.276 202.727C203.885 209.928 188.589 209.949 176.178 202.784L37.655 122.808C28.7806 117.684 28.7625 104.881 37.6223 99.7325Z" fill="url(#paint0_linear_251_1888)"/>
</g>
<g filter="url(#filter1_f_251_1888)">
<path fill-rule="evenodd" clip-rule="evenodd" d="M52.6016 91.0287L176.306 25.849C188.002 19.6867 201.987 19.7008 213.67 25.8867L354.967 100.7C354.544 100.386 354.096 100.091 353.623 99.8176L215.1 19.8414C202.689 12.6759 187.393 12.6975 175.002 19.8981L52.6016 91.0287Z" fill="url(#paint1_linear_251_1888)"/>
</g>
<g filter="url(#filter2_f_251_1888)">
<path d="M221.415 212.079L358.74 132.275C367.644 127.101 378.802 133.543 378.773 143.841L378.322 302.67C378.282 316.88 370.706 330.001 358.42 337.141L221.095 416.945C212.192 422.119 201.033 415.676 201.063 405.379L201.513 246.549C201.554 232.34 209.13 219.218 221.415 212.079Z" fill="url(#paint2_linear_251_1888)"/>
</g>
<g opacity="0.5" filter="url(#filter3_f_251_1888)">
<path fill-rule="evenodd" clip-rule="evenodd" d="M202.93 305.907L212.033 247.517C213.935 235.311 220.471 224.308 230.28 216.798L283.79 175.83L221.414 212.078C209.129 219.218 201.553 232.34 201.512 246.549L201.324 312.841C202.018 310.609 202.558 308.294 202.93 305.907Z" fill="white"/>
</g>
<g opacity="0.22" filter="url(#filter4_f_251_1888)">
<path fill-rule="evenodd" clip-rule="evenodd" d="M190.863 265.474L188.017 250.959C185.639 238.836 178.679 228.097 168.585 220.975L86.2074 162.857L170.908 212.08C183.193 219.219 190.769 232.341 190.81 246.55L190.863 265.474Z" fill="white"/>
</g>
<g filter="url(#filter5_f_251_1888)">
<path d="M11.9963 302.445L12.4472 143.553C12.4763 133.306 23.5728 126.921 32.4471 132.044L170.97 212.021C183.382 219.186 191.011 232.444 190.97 246.775L190.519 405.666C190.49 415.914 179.394 422.299 170.519 417.176L31.9961 337.199C19.5849 330.034 11.9556 316.776 11.9963 302.445Z" fill="url(#paint3_linear_251_1888)"/>
</g>
<path d="M338.136 172.34C338.134 172.341 338.131 172.343 338.128 172.345C338.088 172.368 338.048 172.391 338.008 172.415C337.978 172.432 337.95 172.449 337.92 172.466C337.87 172.496 337.821 172.525 337.771 172.555C337.752 172.567 337.732 172.579 337.713 172.59C337.655 172.626 337.596 172.662 337.538 172.698C337.528 172.704 337.517 172.711 337.506 172.717C328.842 178.099 321.935 190.275 321.93 200.337C321.93 200.355 321.93 200.373 321.93 200.391L321.93 200.401C321.93 200.424 321.93 200.446 321.93 200.469C321.958 205.35 323.62 208.845 326.322 210.61C326.332 210.617 326.343 210.624 326.354 210.631C326.385 210.652 326.417 210.672 326.449 210.692C326.488 210.716 326.527 210.741 326.566 210.764C326.571 210.767 326.576 210.77 326.581 210.773C329.538 212.543 333.66 212.325 338.216 209.702L338.226 209.697C338.248 209.684 338.269 209.671 338.292 209.658C347.029 204.583 354.121 192.514 354.422 182.356C354.422 182.347 354.423 182.337 354.423 182.327C354.425 182.257 354.427 182.186 354.428 182.116C354.428 182.092 354.429 182.068 354.429 182.044C354.43 181.988 354.431 181.932 354.431 181.875C354.431 181.843 354.431 181.812 354.432 181.781C354.432 181.736 354.432 181.69 354.432 181.645L354.432 181.636C354.432 181.588 354.431 181.54 354.431 181.493C354.43 181.461 354.43 181.429 354.43 181.398C354.429 181.345 354.428 181.292 354.427 181.239C354.426 181.213 354.426 181.187 354.425 181.161C354.424 181.1 354.422 181.039 354.42 180.979C354.419 180.961 354.419 180.944 354.418 180.927C354.416 180.862 354.413 180.8 354.41 180.736C354.409 180.722 354.409 180.708 354.408 180.694C354.405 180.622 354.4 180.549 354.396 180.477C354.396 180.473 354.396 180.469 354.396 180.464C354.391 180.389 354.386 180.315 354.381 180.241C354.381 180.239 354.381 180.237 354.381 180.236C354.097 176.285 352.658 173.373 350.439 171.712L350.437 171.711C350.357 171.652 350.277 171.594 350.195 171.538C350.188 171.533 350.182 171.529 350.176 171.524C350.142 171.501 350.109 171.479 350.075 171.456C350.064 171.449 350.053 171.442 350.042 171.435C350.012 171.415 349.981 171.396 349.951 171.376C349.936 171.367 349.922 171.357 349.907 171.348C349.88 171.331 349.851 171.313 349.823 171.297C349.805 171.286 349.788 171.275 349.771 171.265C349.746 171.25 349.722 171.236 349.697 171.221C349.675 171.209 349.653 171.196 349.632 171.184C349.61 171.172 349.589 171.16 349.567 171.148C349.542 171.134 349.517 171.12 349.492 171.106C349.474 171.096 349.456 171.087 349.438 171.077C349.409 171.062 349.38 171.046 349.35 171.031L349.305 171.008C349.272 170.991 349.24 170.975 349.207 170.959C349.195 170.953 349.184 170.948 349.173 170.943C349.136 170.925 349.099 170.907 349.062 170.89C349.054 170.886 349.047 170.882 349.039 170.879C348.997 170.86 348.957 170.842 348.915 170.823C348.911 170.822 348.907 170.819 348.902 170.818C348.712 170.734 348.518 170.658 348.319 170.589C348.311 170.586 348.301 170.583 348.292 170.58C348.249 170.565 348.207 170.551 348.165 170.537C348.161 170.536 348.157 170.535 348.153 170.534C345.641 169.724 342.541 170.08 339.165 171.784C339.159 171.787 339.152 171.79 339.146 171.794C339.083 171.825 339.021 171.857 338.958 171.89C338.948 171.895 338.938 171.9 338.928 171.905C338.869 171.936 338.811 171.967 338.751 171.998C338.734 172.008 338.717 172.017 338.7 172.026C338.648 172.054 338.596 172.082 338.544 172.111C338.522 172.123 338.5 172.135 338.478 172.147C338.431 172.173 338.383 172.2 338.336 172.226C338.306 172.243 338.277 172.26 338.247 172.277C338.211 172.297 338.173 172.318 338.136 172.34Z" fill="url(#paint4_linear_251_1888)"/>
<path d="M241.617 339.517C241.614 339.519 241.611 339.521 241.608 339.522C241.569 339.545 241.529 339.569 241.488 339.593C241.459 339.61 241.43 339.626 241.401 339.644C241.351 339.673 241.301 339.703 241.252 339.733C241.232 339.745 241.213 339.757 241.193 339.768C241.135 339.803 241.076 339.84 241.018 339.876C241.008 339.882 240.997 339.888 240.987 339.895C232.323 345.277 225.415 357.453 225.41 367.515C225.411 367.533 225.41 367.551 225.41 367.569L225.41 367.579C225.41 367.602 225.411 367.624 225.411 367.647C225.439 372.528 227.101 376.023 229.802 377.788C229.813 377.795 229.823 377.802 229.834 377.809C229.866 377.83 229.897 377.85 229.929 377.87C229.968 377.894 230.008 377.918 230.047 377.942C230.052 377.945 230.056 377.948 230.062 377.951C233.019 379.721 237.14 379.503 241.697 376.88L241.706 376.874C241.728 376.862 241.75 376.849 241.773 376.836C250.509 371.76 257.602 359.692 257.903 349.534C257.903 349.525 257.903 349.514 257.903 349.505C257.905 349.435 257.907 349.364 257.908 349.294C257.909 349.27 257.909 349.246 257.91 349.222C257.91 349.166 257.911 349.109 257.912 349.053C257.912 349.021 257.912 348.99 257.912 348.958C257.912 348.913 257.913 348.868 257.913 348.823L257.913 348.813C257.913 348.765 257.912 348.718 257.911 348.67C257.911 348.639 257.911 348.607 257.911 348.575C257.91 348.523 257.908 348.47 257.907 348.417C257.907 348.391 257.906 348.365 257.906 348.339C257.904 348.277 257.902 348.217 257.9 348.156C257.9 348.139 257.899 348.121 257.898 348.104C257.896 348.04 257.893 347.977 257.89 347.913C257.89 347.9 257.889 347.886 257.889 347.871C257.885 347.799 257.881 347.727 257.877 347.655C257.876 347.65 257.876 347.647 257.876 347.642C257.872 347.567 257.867 347.493 257.861 347.418C257.861 347.417 257.861 347.415 257.861 347.414C257.577 343.463 256.139 340.55 253.919 338.89L253.918 338.889C253.838 338.829 253.757 338.772 253.675 338.715C253.669 338.711 253.663 338.706 253.656 338.702C253.622 338.679 253.589 338.657 253.555 338.634C253.544 338.627 253.533 338.62 253.523 338.612C253.493 338.593 253.462 338.573 253.431 338.554C253.417 338.545 253.403 338.535 253.388 338.526C253.36 338.509 253.331 338.491 253.303 338.474C253.286 338.464 253.268 338.453 253.251 338.442C253.226 338.428 253.202 338.414 253.177 338.399C253.156 338.387 253.134 338.374 253.113 338.362C253.091 338.349 253.069 338.338 253.048 338.325C253.023 338.312 252.998 338.297 252.973 338.284C252.955 338.274 252.937 338.265 252.918 338.255C252.889 338.24 252.861 338.224 252.831 338.209L252.785 338.186C252.753 338.169 252.72 338.153 252.687 338.137C252.676 338.131 252.665 338.126 252.653 338.12C252.616 338.102 252.579 338.084 252.542 338.068C252.535 338.064 252.527 338.06 252.519 338.057C252.478 338.038 252.438 338.019 252.396 338.001C252.392 337.999 252.388 337.997 252.383 337.995C252.193 337.912 251.998 337.836 251.799 337.767C251.791 337.764 251.781 337.761 251.773 337.758C251.73 337.743 251.688 337.729 251.645 337.715C251.641 337.714 251.637 337.712 251.633 337.711C249.121 336.901 246.022 337.258 242.645 338.962C242.639 338.965 242.633 338.968 242.627 338.971C242.564 339.003 242.501 339.035 242.438 339.067C242.429 339.072 242.418 339.078 242.408 339.083C242.349 339.114 242.291 339.144 242.232 339.176C242.215 339.185 242.198 339.195 242.181 339.204C242.129 339.232 242.077 339.26 242.024 339.289C242.002 339.301 241.98 339.313 241.958 339.325C241.911 339.351 241.863 339.377 241.816 339.404C241.786 339.421 241.758 339.437 241.728 339.454C241.691 339.475 241.654 339.496 241.617 339.517Z" fill="url(#paint5_linear_251_1888)"/>
<path d="M101.42 255.947L101.404 255.938C92.4315 250.757 85.1377 254.933 85.1173 265.248C85.0881 275.553 92.334 288.1 101.308 293.281L101.324 293.29C110.296 298.47 117.59 294.304 117.611 283.979C117.64 273.675 110.386 261.123 101.42 255.947Z" fill="url(#paint6_linear_251_1888)"/>
<path d="M308.312 101.939C308.274 101.918 308.237 101.897 308.2 101.875C308.164 101.855 308.129 101.834 308.093 101.814C308.049 101.79 308.005 101.765 307.961 101.74C307.934 101.726 307.908 101.711 307.881 101.697C307.829 101.667 307.775 101.638 307.721 101.609C307.704 101.6 307.686 101.59 307.669 101.581C307.601 101.545 307.534 101.509 307.466 101.474C307.462 101.472 307.459 101.47 307.454 101.468C298.529 96.8027 284.824 96.9089 276.165 101.787C276.153 101.794 276.14 101.8 276.128 101.807C276.083 101.833 276.038 101.859 275.994 101.885C275.97 101.898 275.947 101.911 275.923 101.924C275.919 101.927 275.915 101.93 275.911 101.932C275.882 101.949 275.852 101.966 275.823 101.984C275.782 102.008 275.74 102.032 275.7 102.056C275.679 102.068 275.659 102.081 275.639 102.093C275.589 102.123 275.541 102.152 275.491 102.182C275.483 102.187 275.475 102.192 275.466 102.198C267.005 107.391 267.187 115.595 276.012 120.69C276.051 120.712 276.09 120.734 276.129 120.757C276.163 120.776 276.197 120.796 276.231 120.815C276.272 120.838 276.315 120.862 276.357 120.885C276.386 120.901 276.414 120.917 276.443 120.933C276.492 120.96 276.542 120.986 276.591 121.013C276.613 121.025 276.635 121.037 276.657 121.048C276.71 121.077 276.763 121.105 276.816 121.133C276.835 121.143 276.854 121.153 276.872 121.163C276.935 121.196 276.997 121.228 277.061 121.26C277.07 121.265 277.08 121.27 277.09 121.275C277.149 121.305 277.207 121.334 277.267 121.364C277.282 121.372 277.297 121.379 277.312 121.387C277.366 121.413 277.419 121.44 277.473 121.466C277.494 121.476 277.516 121.487 277.537 121.497C277.59 121.523 277.643 121.548 277.697 121.574C277.718 121.584 277.739 121.594 277.76 121.604C277.813 121.629 277.866 121.653 277.919 121.678C277.942 121.688 277.965 121.699 277.988 121.71C278.04 121.733 278.092 121.757 278.145 121.781C278.168 121.792 278.192 121.802 278.214 121.813C278.265 121.835 278.316 121.858 278.367 121.88C278.393 121.892 278.42 121.904 278.446 121.915C278.489 121.934 278.531 121.952 278.574 121.97C278.609 121.985 278.644 122 278.679 122.015C278.713 122.03 278.747 122.044 278.78 122.058C278.826 122.077 278.872 122.096 278.918 122.115C278.935 122.123 278.951 122.129 278.968 122.136C279.031 122.162 279.093 122.187 279.155 122.212C279.163 122.215 279.172 122.219 279.179 122.222C288.051 125.785 300.274 125.314 308.215 120.811L308.226 120.805C308.284 120.771 308.343 120.738 308.4 120.705L308.413 120.697C308.475 120.661 308.535 120.626 308.596 120.589L308.609 120.582C314.645 116.983 316.448 111.889 314.025 107.39C314.025 107.39 314.024 107.389 314.024 107.389C314 107.344 313.976 107.3 313.95 107.255C313.947 107.248 313.944 107.242 313.94 107.235C313.918 107.197 313.896 107.159 313.874 107.121C313.867 107.108 313.86 107.095 313.852 107.082C313.834 107.051 313.816 107.022 313.798 106.992L313.76 106.928C313.75 106.911 313.739 106.894 313.728 106.877C313.707 106.843 313.686 106.809 313.665 106.775L313.664 106.773C312.61 105.109 310.963 103.543 308.724 102.183C308.72 102.181 308.714 102.177 308.709 102.174C308.579 102.095 308.446 102.017 308.312 101.939Z" fill="url(#paint7_linear_251_1888)"/>
<path d="M115.273 101.939C115.235 101.918 115.198 101.896 115.161 101.875C115.125 101.855 115.09 101.834 115.054 101.814C115.01 101.79 114.966 101.765 114.922 101.74C114.895 101.726 114.869 101.711 114.842 101.697C114.789 101.667 114.735 101.638 114.682 101.609C114.665 101.6 114.647 101.59 114.63 101.581C114.562 101.545 114.495 101.509 114.427 101.474C114.423 101.472 114.42 101.47 114.415 101.468C105.49 96.8027 91.7845 96.9089 83.1258 101.787C83.1138 101.794 83.1012 101.8 83.0893 101.807C83.0438 101.833 82.9993 101.859 82.9548 101.884C82.931 101.898 82.908 101.911 82.8842 101.924C82.8798 101.927 82.8764 101.93 82.872 101.932C82.8426 101.949 82.8128 101.966 82.7839 101.984C82.7426 102.008 82.7011 102.032 82.6607 102.056C82.6401 102.068 82.6201 102.081 82.5999 102.093C82.5504 102.123 82.5015 102.152 82.452 102.182C82.4439 102.187 82.4359 102.192 82.4272 102.198C73.9657 107.391 74.1481 115.595 82.9732 120.69C83.012 120.712 83.0513 120.734 83.0903 120.757C83.1242 120.776 83.1579 120.796 83.1921 120.815C83.2337 120.838 83.2762 120.862 83.3177 120.885C83.3468 120.901 83.3748 120.917 83.4039 120.932C83.453 120.96 83.5027 120.986 83.5523 121.013C83.5742 121.025 83.5955 121.037 83.6176 121.048C83.6708 121.077 83.7238 121.105 83.7769 121.133C83.7959 121.143 83.815 121.153 83.8333 121.163C83.8958 121.196 83.9584 121.228 84.0217 121.26C84.0309 121.265 84.041 121.27 84.0505 121.275C84.1098 121.305 84.1682 121.334 84.2276 121.364C84.2428 121.372 84.258 121.379 84.273 121.387C84.3266 121.413 84.3801 121.44 84.4341 121.466C84.4554 121.476 84.4766 121.487 84.4976 121.497C84.5509 121.523 84.604 121.548 84.6578 121.574C84.679 121.584 84.6998 121.594 84.721 121.604C84.7739 121.629 84.8272 121.653 84.88 121.678C84.9031 121.688 84.9255 121.699 84.9486 121.71C85.0005 121.733 85.0533 121.757 85.1057 121.781C85.1288 121.792 85.1526 121.802 85.1754 121.813C85.2264 121.835 85.2772 121.858 85.3282 121.88C85.3542 121.892 85.3808 121.904 85.4071 121.915C85.4498 121.934 85.4922 121.952 85.5349 121.97C85.57 121.985 85.6053 122 85.6404 122.015C85.6743 122.03 85.7077 122.044 85.7414 122.058C85.7869 122.077 85.8332 122.096 85.8789 122.115C85.896 122.123 85.9124 122.129 85.9292 122.136C85.9917 122.162 86.0538 122.187 86.1163 122.212C86.1235 122.215 86.1327 122.219 86.1399 122.222C95.0118 125.785 107.235 125.314 115.176 120.811L115.187 120.805C115.245 120.771 115.304 120.738 115.361 120.705L115.374 120.697C115.435 120.661 115.496 120.626 115.557 120.589L115.57 120.582C121.606 116.983 123.409 111.889 120.986 107.39C120.986 107.39 120.985 107.389 120.985 107.389C120.961 107.344 120.937 107.3 120.911 107.255C120.908 107.248 120.904 107.242 120.9 107.235C120.879 107.197 120.857 107.159 120.835 107.121C120.828 107.108 120.821 107.095 120.813 107.082C120.795 107.051 120.777 107.022 120.759 106.992C120.746 106.971 120.734 106.949 120.721 106.928C120.711 106.911 120.7 106.894 120.689 106.877C120.668 106.843 120.647 106.809 120.626 106.775L120.624 106.773C119.571 105.109 117.924 103.543 115.685 102.183C115.681 102.181 115.675 102.177 115.67 102.174C115.54 102.095 115.407 102.017 115.273 101.939Z" fill="url(#paint8_linear_251_1888)"/>
<path d="M211.792 101.934L211.776 101.925C202.795 96.7492 188.293 96.7542 179.388 101.94C170.474 107.12 170.529 115.52 179.511 120.705C188.491 125.88 202.993 125.875 211.899 120.69C220.816 115.508 220.757 107.11 211.792 101.934Z" fill="url(#paint9_linear_251_1888)"/>
</g>
<defs>
<filter id="filter0_f_251_1888" x="10.9883" y="-5.51758" width="369.301" height="233.66" filterUnits="userSpaceOnUse" color-interpolation-filters="sRGB">
<feFlood flood-opacity="0" result="BackgroundImageFix"/>
<feBlend mode="normal" in="SourceGraphic" in2="BackgroundImageFix" result="shape"/>
<feGaussianBlur stdDeviation="10" result="effect1_foregroundBlur_251_1888"/>
</filter>
<filter id="filter1_f_251_1888" x="43.6016" y="5.48242" width="320.363" height="104.217" filterUnits="userSpaceOnUse" color-interpolation-filters="sRGB">
<feFlood flood-opacity="0" result="BackgroundImageFix"/>
<feBlend mode="normal" in="SourceGraphic" in2="BackgroundImageFix" result="shape"/>
<feGaussianBlur stdDeviation="4.5" result="effect1_foregroundBlur_251_1888"/>
</filter>
<filter id="filter2_f_251_1888" x="181.062" y="110.449" width="217.711" height="328.32" filterUnits="userSpaceOnUse" color-interpolation-filters="sRGB">
<feFlood flood-opacity="0" result="BackgroundImageFix"/>
<feBlend mode="normal" in="SourceGraphic" in2="BackgroundImageFix" result="shape"/>
<feGaussianBlur stdDeviation="10" result="effect1_foregroundBlur_251_1888"/>
</filter>
<filter id="filter3_f_251_1888" x="192.324" y="166.83" width="100.465" height="155.012" filterUnits="userSpaceOnUse" color-interpolation-filters="sRGB">
<feFlood flood-opacity="0" result="BackgroundImageFix"/>
<feBlend mode="normal" in="SourceGraphic" in2="BackgroundImageFix" result="shape"/>
<feGaussianBlur stdDeviation="4.5" result="effect1_foregroundBlur_251_1888"/>
</filter>
<filter id="filter4_f_251_1888" x="77.207" y="153.857" width="122.656" height="120.617" filterUnits="userSpaceOnUse" color-interpolation-filters="sRGB">
<feFlood flood-opacity="0" result="BackgroundImageFix"/>
<feBlend mode="normal" in="SourceGraphic" in2="BackgroundImageFix" result="shape"/>
<feGaussianBlur stdDeviation="4.5" result="effect1_foregroundBlur_251_1888"/>
</filter>
<filter id="filter5_f_251_1888" x="-8.00391" y="110.238" width="218.973" height="328.744" filterUnits="userSpaceOnUse" color-interpolation-filters="sRGB">
<feFlood flood-opacity="0" result="BackgroundImageFix"/>
<feBlend mode="normal" in="SourceGraphic" in2="BackgroundImageFix" result="shape"/>
<feGaussianBlur stdDeviation="10" result="effect1_foregroundBlur_251_1888"/>
</filter>
<linearGradient id="paint0_linear_251_1888" x1="195.638" y1="208.143" x2="195.638" y2="14.4824" gradientUnits="userSpaceOnUse">
<stop offset="0.572917" stop-color="#F9FAFF"/>
<stop offset="1" stop-color="#DCDEE3" stop-opacity="0"/>
</linearGradient>
<linearGradient id="paint1_linear_251_1888" x1="203.784" y1="14.4824" x2="203.784" y2="100.7" gradientUnits="userSpaceOnUse">
<stop stop-color="white"/>
<stop offset="0.416667" stop-color="white" stop-opacity="0"/>
</linearGradient>
<linearGradient id="paint2_linear_251_1888" x1="209.559" y1="222.424" x2="370.276" y2="326.795" gradientUnits="userSpaceOnUse">
<stop stop-color="#AFB2B9" stop-opacity="0"/>
<stop offset="1" stop-color="#AFB2B9"/>
</linearGradient>
<linearGradient id="paint3_linear_251_1888" x1="147.55" y1="197.941" x2="55.4161" y2="351.279" gradientUnits="userSpaceOnUse">
<stop stop-color="#AFB2B9" stop-opacity="0.74"/>
<stop offset="1" stop-color="#AFB2B9"/>
</linearGradient>
<linearGradient id="paint4_linear_251_1888" x1="338.181" y1="170.119" x2="338.181" y2="211.921" gradientUnits="userSpaceOnUse">
<stop stop-color="#1B1F28"/>
<stop offset="0.729167" stop-color="#444B5C"/>
</linearGradient>
<linearGradient id="paint5_linear_251_1888" x1="241.661" y1="337.297" x2="241.661" y2="379.098" gradientUnits="userSpaceOnUse">
<stop stop-color="#1B1F28"/>
<stop offset="0.729167" stop-color="#444B5C"/>
</linearGradient>
<linearGradient id="paint6_linear_251_1888" x1="101.364" y1="253.713" x2="101.364" y2="295.517" gradientUnits="userSpaceOnUse">
<stop stop-color="#1B1F28"/>
<stop offset="0.729167" stop-color="#444B5C"/>
</linearGradient>
<linearGradient id="paint7_linear_251_1888" x1="292.16" y1="98.0469" x2="292.16" y2="124.582" gradientUnits="userSpaceOnUse">
<stop stop-color="#1B1F28"/>
<stop offset="0.729167" stop-color="#444B5C"/>
</linearGradient>
<linearGradient id="paint8_linear_251_1888" x1="99.1213" y1="98.0469" x2="99.1213" y2="124.582" gradientUnits="userSpaceOnUse">
<stop stop-color="#1B1F28"/>
<stop offset="0.729167" stop-color="#444B5C"/>
</linearGradient>
<linearGradient id="paint9_linear_251_1888" x1="195.645" y1="98.0469" x2="195.645" y2="124.583" gradientUnits="userSpaceOnUse">
<stop stop-color="#1B1F28"/>
<stop offset="0.729167" stop-color="#444B5C"/>
</linearGradient>
<clipPath id="clip0_251_1888">
<rect width="390" height="440" fill="white"/>
</clipPath>
</defs>
</svg>
