<svg width="139" height="26" viewBox="0 0 139 26" fill="none" xmlns="http://www.w3.org/2000/svg">
<mask id="path-1-outside-1_10681_14042" maskUnits="userSpaceOnUse" x="0" y="-0.277588" width="139" height="27" fill="black">
<rect fill="white" y="-0.277588" width="139" height="27"/>
<path fill-rule="evenodd" clip-rule="evenodd" d="M24.3355 2.8668C24.3569 2.77324 24.3679 2.67514 24.368 2.57635C24.3663 2.44068 24.3403 2.30811 24.2926 2.1922C24.2449 2.07629 24.1773 1.9812 24.0967 1.91663L23.9448 1.80393C23.8699 1.75278 23.7885 1.72541 23.706 1.72358H8.06633C7.98397 1.72716 7.90286 1.75445 7.82755 1.80393L7.45859 2.09439C7.34591 2.18819 7.25795 2.33558 7.20895 2.51264L2.03257 23.3013C2.01215 23.3894 2.00116 23.4816 2 23.5747C2.00302 23.712 2.03079 23.8455 2.08041 23.9615C2.13003 24.0775 2.1997 24.1717 2.28222 24.2344L2.42326 24.3471C2.49602 24.4088 2.57819 24.4422 2.66204 24.444H18.3012C18.385 24.4422 18.4672 24.4088 18.54 24.3471L18.9089 24.0567C19.0231 23.9734 19.1122 23.83 19.1586 23.6545L22.1214 11.7318C22.1428 11.6382 22.1538 11.5401 22.154 11.4414C22.1523 11.3057 22.1263 11.1731 22.0786 11.0572C22.031 10.9413 21.9634 10.8462 21.8828 10.7816L21.7199 10.6529C21.6449 10.6017 21.5636 10.5743 21.4811 10.5725H19.6796C19.5885 10.5701 19.4986 10.6036 19.4191 10.6693C19.0284 11.0072 18.5074 11.4417 17.8671 11.9727L13.9708 15.2871C13.9023 15.3434 13.8433 15.4218 13.7982 15.5166C13.7532 15.6113 13.7231 15.72 13.7105 15.8343V15.9312C13.7066 16.1235 13.7489 16.3115 13.8298 16.4621C13.8767 16.5515 13.9381 16.6219 14.0083 16.6669C14.0785 16.7119 14.1552 16.73 14.2313 16.7197H14.4049C14.4865 16.7172 14.5671 16.7455 14.6392 16.8018C14.7113 16.8581 14.7726 16.9405 14.8174 17.0415C14.8801 17.1674 14.9143 17.3194 14.9151 17.4758C14.9148 17.5691 14.9038 17.6616 14.8825 17.7494V17.7816C14.8457 17.929 14.779 18.056 14.6916 18.1452C14.6042 18.2345 14.5003 18.2817 14.3941 18.2804H9.91181C9.82944 18.2877 9.74718 18.2634 9.67302 18.2098C9.59886 18.1563 9.53531 18.0752 9.48855 17.9746C9.42585 17.8487 9.39169 17.6967 9.39095 17.5403C9.39113 17.4415 9.40209 17.3434 9.42339 17.2498L11.6374 8.36817C11.6718 8.21837 11.7379 8.08895 11.8259 7.9991C11.9138 7.90925 12.019 7.86376 12.1259 7.86936H22.4254C22.5114 7.86757 22.5963 7.84018 22.675 7.78881L23.044 7.48326C23.1563 7.39321 23.2416 7.24379 23.2827 7.06481L24.3355 2.8668ZM26.9076 2.09458C26.7861 2.19194 26.6933 2.35247 26.6471 2.54517L21.5035 23.2368C21.4829 23.3359 21.4719 23.4389 21.4709 23.5426C21.472 23.6868 21.4986 23.8281 21.5481 23.9523C21.5976 24.0766 21.6683 24.1794 21.7531 24.2505L21.8617 24.3311C21.9433 24.4051 22.0372 24.4441 22.1329 24.4436H26.3983C26.489 24.442 26.5782 24.4089 26.6586 24.3468L26.9843 24.0892C27.1065 23.9932 27.1996 23.8323 27.2448 23.6388L28.8944 17.0419C28.9315 16.8937 28.9959 16.7639 29.0803 16.6672C29.1647 16.5705 29.2658 16.5108 29.372 16.4948H29.4154C29.514 16.4981 29.6105 16.5381 29.6958 16.6112C29.7812 16.6844 29.8527 16.7882 29.9037 16.9131L32.6923 24.0263C32.7411 24.1505 32.8107 24.2542 32.8943 24.3274C32.9779 24.4006 33.0727 24.4409 33.1698 24.4445H37.9995C38.1126 24.4456 38.2232 24.3953 38.3163 24.3003C38.4095 24.2053 38.4807 24.0704 38.5203 23.9136C38.5503 23.8179 38.5651 23.7133 38.5638 23.6078C38.5656 23.4657 38.5391 23.3258 38.4878 23.2057L36.0242 16.8178C35.9802 16.6874 35.9543 16.5451 35.9482 16.3996C35.9583 16.2208 35.9995 16.049 36.0676 15.9008C36.1171 15.7955 36.184 15.7107 36.2618 15.6544C36.3397 15.5981 36.426 15.5721 36.5125 15.5789H39.9535C40.0443 15.5774 40.1335 15.5442 40.2139 15.4821L40.5287 15.2246C40.5913 15.1827 40.6475 15.1227 40.6941 15.0481C40.7407 14.9735 40.7768 14.8858 40.8001 14.7903L43.7629 2.93186C43.7843 2.83829 43.7953 2.7402 43.7955 2.64141C43.795 2.48885 43.7664 2.33938 43.7129 2.20901C43.6593 2.07865 43.5828 1.97229 43.4916 1.90134L43.394 1.82078C43.3101 1.75678 43.217 1.72358 43.1226 1.72396H27.5154C27.4246 1.7255 27.3354 1.75867 27.255 1.82078L26.9076 2.09458ZM31.0318 8.43401C31.0704 8.27488 31.141 8.13711 31.2342 8.03929C31.3274 7.94147 31.4386 7.8883 31.5528 7.88698H36.1001C36.1832 7.87684 36.2666 7.89818 36.3426 7.949C36.4185 7.99982 36.4845 8.07843 36.5342 8.17744C36.6186 8.33242 36.6648 8.5254 36.6651 8.72446C36.6651 8.77268 36.6542 8.85322 36.6433 8.99787C36.6325 9.14252 36.5456 9.28833 36.3828 9.43239L30.6308 14.2754C30.5428 14.3407 30.4468 14.379 30.3486 14.3881C30.2197 14.3815 30.0967 14.3074 30.0013 14.179C29.9397 14.109 29.89 14.0188 29.8561 13.9154C29.8222 13.8121 29.805 13.6984 29.806 13.5835C29.8069 13.4746 29.8179 13.3664 29.8385 13.2619L31.0318 8.43401ZM48.961 18.2972C48.8582 18.3015 48.7563 18.2669 48.6651 18.1965C48.5739 18.1261 48.4964 18.0223 48.44 17.895C48.3683 17.7384 48.3305 17.5532 48.3315 17.3641C48.3317 17.2445 48.3426 17.1254 48.364 17.0101L50.4913 8.49849C50.5354 8.31606 50.6164 8.15808 50.7231 8.04585C50.8298 7.93363 50.9573 7.87256 51.0882 7.87091H55.1906C55.2934 7.8665 55.3953 7.90115 55.4865 7.97156C55.5777 8.04197 55.6551 8.14578 55.7115 8.2731C55.7909 8.42484 55.8331 8.61211 55.831 8.80405C55.8324 8.92512 55.8176 9.04542 55.7875 9.15801L53.6603 17.6696C53.5295 18.0881 53.3347 18.2972 53.0635 18.2972H48.961ZM40.9732 23.1404C40.9517 23.2612 40.9407 23.3855 40.9406 23.5104C40.9425 23.675 40.9735 23.8359 41.0307 23.9771C41.0878 24.1182 41.169 24.2347 41.2661 24.3148L41.2878 24.3311C41.3816 24.4041 41.4858 24.4427 41.5918 24.4436H57.1662C57.2691 24.4483 57.3708 24.4092 57.4592 24.3311L57.7405 24.1217C57.8119 24.0702 57.8756 23.9981 57.928 23.9097C57.9803 23.8213 58.0202 23.7183 58.0454 23.6069L63.1887 3.01164C63.2183 2.89877 63.2333 2.77873 63.2332 2.65767C63.2303 2.48723 63.1965 2.32107 63.1353 2.17666C63.074 2.03225 62.9876 1.91494 62.8851 1.83705C62.7925 1.76035 62.6877 1.72152 62.5816 1.72454H47.0075C46.9015 1.72546 46.7973 1.76405 46.7035 1.83705L46.3997 2.07851C46.2642 2.19097 46.1574 2.36623 46.0958 2.57732L40.9732 23.1404ZM80.0878 17.8466C80.0582 17.9736 80.0026 18.0837 79.9287 18.1616C79.8549 18.2395 79.7664 18.2813 79.6757 18.2811H77.2551C77.1847 18.2832 77.1151 18.2593 77.0525 18.2115C76.9899 18.1638 76.9363 18.0936 76.8966 18.0075C76.8442 17.8932 76.8143 17.7595 76.8103 17.6214C76.8121 17.5455 76.8191 17.47 76.8312 17.3962L80.3259 3.43008C80.3442 3.35261 80.3517 3.2705 80.3482 3.18862C80.3508 3.09608 80.3384 3.00395 80.312 2.91998C80.2856 2.83601 80.2459 2.76265 80.1964 2.70608C80.1199 2.60018 80.0185 2.54248 79.9138 2.54517C79.8346 2.54439 79.7565 2.57196 79.6861 2.62553L73.6087 7.77428C73.5161 7.84506 73.4458 7.9662 73.4124 8.11219L70.9814 17.8466C70.951 17.9758 70.8937 18.0874 70.8178 18.1655C70.7419 18.2435 70.6512 18.284 70.5588 18.2811H68.1383C68.0679 18.283 67.9983 18.259 67.9357 18.2112C67.8732 18.1635 67.8196 18.0935 67.7798 18.0075C67.726 17.9002 67.6959 17.771 67.6934 17.6375C67.6935 17.5547 67.7047 17.4727 67.7262 17.3962L71.3726 2.77037C71.3925 2.69312 71.4036 2.61152 71.4053 2.52891C71.403 2.41196 71.3796 2.29806 71.3375 2.19904C71.2954 2.10002 71.2361 2.01949 71.1659 1.96581L70.9605 1.8049C70.8969 1.75405 70.826 1.72649 70.7538 1.72454H66.423C66.3476 1.72855 66.2736 1.75593 66.2058 1.8049L65.7937 2.12673C65.7453 2.16276 65.7023 2.21258 65.6671 2.27333C65.6318 2.33408 65.605 2.40455 65.5883 2.48069L60.3678 23.3817C60.3473 23.4586 60.3362 23.5403 60.3351 23.6229C60.3371 23.7398 60.3603 23.8537 60.4021 23.9527C60.444 24.0518 60.5031 24.1324 60.5732 24.1862L60.7904 24.3632C60.854 24.4141 60.9249 24.4416 60.9971 24.4436H68.9194C68.9717 24.4432 69.0234 24.4268 69.0712 24.3954L72.49 22.5771C72.5385 22.5509 72.5902 22.5399 72.6418 22.545C72.7177 22.5427 72.7927 22.5705 72.8589 22.6255L74.8883 24.3471C74.9575 24.4086 75.0365 24.442 75.1172 24.444H83.6584C83.7302 24.4423 83.8007 24.4147 83.8638 24.3636L84.2772 24.0418C84.3726 23.9649 84.4457 23.839 84.4827 23.6878L89.7031 2.78683C89.7237 2.70432 89.7348 2.61725 89.7358 2.52929C89.7324 2.41273 89.7086 2.29949 89.6666 2.20075C89.6246 2.102 89.5659 2.02116 89.4964 1.9662L89.2805 1.80529C89.2169 1.75444 89.146 1.72688 89.0738 1.72493H84.7548C84.6794 1.72848 84.6053 1.75589 84.5376 1.80529L84.1464 2.11104C84.0509 2.1883 83.9775 2.314 83.9397 2.465L80.0878 17.8466ZM94.7169 18.2811C94.6314 18.2825 94.5471 18.2523 94.4715 18.1933C94.3958 18.1343 94.3313 18.0483 94.2838 17.9432C94.2208 17.8174 94.1865 17.6653 94.1857 17.5087C94.1856 17.4099 94.1966 17.3117 94.2184 17.2183L94.4997 16.108C94.5385 15.9578 94.6069 15.8285 94.696 15.7366C94.7851 15.6448 94.8909 15.5948 94.9995 15.5931H99.4598C99.5444 15.5904 99.6282 15.6183 99.7039 15.6744C99.7796 15.7305 99.8449 15.813 99.8941 15.9149C99.9588 16.0455 99.9932 16.2036 99.9923 16.3655C99.9917 16.4643 99.9807 16.5623 99.9596 16.656L99.677 17.7663C99.6396 17.9174 99.5718 18.048 99.4826 18.1401C99.3934 18.2322 99.2872 18.2814 99.1785 18.2811H94.7169ZM86.8378 23.285C86.8204 23.3796 86.8134 23.4777 86.8168 23.5755C86.8172 23.7136 86.8425 23.8491 86.8902 23.9679C86.9378 24.0867 87.0059 24.1845 87.0877 24.2513L87.2172 24.3481C87.294 24.4098 87.3797 24.443 87.4671 24.4449H103.096C103.183 24.4452 103.269 24.4118 103.346 24.3481L103.704 24.0745C103.819 23.9853 103.908 23.8363 103.953 23.6562L105.787 16.2708C105.808 16.1884 105.819 16.1014 105.82 16.0135C105.82 15.8393 105.782 15.6697 105.711 15.5307L104.539 13.1655C104.477 13.0209 104.444 12.8538 104.442 12.6828C104.446 12.5597 104.469 12.4395 104.508 12.3309C104.547 12.2224 104.603 12.1282 104.67 12.0552L107.437 9.23952C107.531 9.14975 107.6 9.01266 107.632 8.85342L109.13 2.9001C109.152 2.80664 109.163 2.70848 109.163 2.60965C109.161 2.46757 109.135 2.32859 109.085 2.20699C109.035 2.0854 108.965 1.98557 108.88 1.91779L108.751 1.82098C108.674 1.75725 108.588 1.72389 108.501 1.72416H92.872C92.7847 1.72605 92.6989 1.75927 92.6221 1.82098L92.2532 2.11143C92.1433 2.20986 92.0565 2.35586 92.0046 2.52968L86.8378 23.285ZM96.4217 8.40186C96.5408 8.06397 96.703 7.88698 96.9202 7.88698H100.425C100.502 7.88095 100.579 7.9027 100.649 7.95037C100.719 7.99804 100.78 8.07019 100.827 8.1606C100.913 8.31402 100.96 8.50801 100.958 8.70761C100.957 8.77757 100.954 8.84741 100.947 8.91674C100.947 9.02943 100.872 9.17428 100.718 9.33499L96.0305 14.0984C95.9361 14.1879 95.8272 14.2379 95.7152 14.2433C95.5997 14.2404 95.4886 14.1778 95.4012 14.0663C95.338 13.9973 95.2865 13.9077 95.2507 13.8045C95.2148 13.7012 95.1956 13.5871 95.1944 13.471C95.1959 13.3674 95.2069 13.2645 95.2271 13.1653L96.4217 8.40186ZM106.308 23.269C106.287 23.3627 106.276 23.4607 106.275 23.5594C106.276 23.6996 106.303 23.8368 106.352 23.956C106.402 24.0752 106.473 24.1718 106.558 24.2352L106.689 24.3479C106.767 24.3991 106.852 24.4264 106.937 24.4283H111.235C111.321 24.4249 111.406 24.3977 111.485 24.3479L111.854 24.0575C111.964 23.9586 112.051 23.8128 112.104 23.6392L117.281 2.88306C117.293 2.78722 117.3 2.69009 117.302 2.59261C117.302 2.45448 117.277 2.31902 117.229 2.20022C117.181 2.08141 117.113 1.98358 117.031 1.91682L116.901 1.80413C116.821 1.75435 116.737 1.72709 116.651 1.72377H112.342C112.255 1.7235 112.169 1.75687 112.094 1.82059L111.735 2.09419C111.675 2.13667 111.622 2.19729 111.579 2.2721C111.536 2.34692 111.504 2.43427 111.485 2.52852L106.308 23.269ZM129.338 8.41715C129.374 8.25574 129.444 8.11562 129.538 8.01721C129.631 7.91881 129.744 7.86728 129.859 7.87014H134.526C134.617 7.86892 134.706 7.83573 134.786 7.77333L135.134 7.49991C135.255 7.40208 135.348 7.24171 135.395 7.04932L136.436 2.89817C136.454 2.80389 136.462 2.70569 136.458 2.60771C136.456 2.45976 136.428 2.31518 136.377 2.18823C136.325 2.06128 136.252 1.95633 136.165 1.88371L136.078 1.81923C135.997 1.75691 135.908 1.72373 135.817 1.72241H120.211C120.117 1.72207 120.024 1.75528 119.94 1.81923L119.592 2.09284C119.531 2.13519 119.476 2.19556 119.431 2.27024C119.387 2.34492 119.353 2.43235 119.332 2.52716L118.301 6.67851C118.28 6.77775 118.269 6.88062 118.268 6.98426C118.269 7.13043 118.297 7.27343 118.348 7.39808C118.4 7.52272 118.473 7.62436 118.561 7.69219L118.659 7.77255C118.739 7.83473 118.829 7.86791 118.919 7.86936H122.816C122.906 7.86375 122.996 7.89354 123.076 7.9557C123.156 8.01786 123.223 8.11018 123.271 8.22333C123.339 8.36449 123.377 8.53267 123.38 8.70606C123.38 8.80489 123.369 8.90305 123.347 8.99651L119.788 23.2363C119.766 23.3297 119.755 23.4279 119.755 23.5267C119.756 23.6793 119.784 23.8288 119.838 23.9592C119.891 24.0896 119.968 24.1959 120.059 24.2668L120.168 24.3473C120.247 24.4132 120.337 24.4466 120.428 24.4442H124.683C124.774 24.4424 124.863 24.4092 124.943 24.3473L125.29 24.0737C125.407 23.9683 125.498 23.8105 125.55 23.6231L129.338 8.41715ZM135.47 24.4428C135.584 24.4381 135.696 24.394 135.796 24.314L136.067 24.1049C136.213 23.9836 136.324 23.7897 136.382 23.5579L136.969 21.1444C136.989 21.0287 136.999 20.9099 137 20.7904C136.999 20.6155 136.966 20.4441 136.905 20.2942C136.844 20.1443 136.757 20.0214 136.653 19.9384C136.557 19.8587 136.449 19.8145 136.338 19.8097H132.095C131.984 19.8123 131.876 19.8566 131.781 19.9384L131.509 20.1476C131.361 20.2638 131.248 20.4596 131.195 20.6946L130.609 23.1081C130.584 23.223 130.57 23.3419 130.565 23.462C130.567 23.6385 130.602 23.8108 130.665 23.9608C130.728 24.1108 130.817 24.2328 130.923 24.314V24.3303C131.024 24.4054 131.135 24.444 131.248 24.4428H135.47Z"/>
</mask>
<path fill-rule="evenodd" clip-rule="evenodd" d="M24.3355 2.8668C24.3569 2.77324 24.3679 2.67514 24.368 2.57635C24.3663 2.44068 24.3403 2.30811 24.2926 2.1922C24.2449 2.07629 24.1773 1.9812 24.0967 1.91663L23.9448 1.80393C23.8699 1.75278 23.7885 1.72541 23.706 1.72358H8.06633C7.98397 1.72716 7.90286 1.75445 7.82755 1.80393L7.45859 2.09439C7.34591 2.18819 7.25795 2.33558 7.20895 2.51264L2.03257 23.3013C2.01215 23.3894 2.00116 23.4816 2 23.5747C2.00302 23.712 2.03079 23.8455 2.08041 23.9615C2.13003 24.0775 2.1997 24.1717 2.28222 24.2344L2.42326 24.3471C2.49602 24.4088 2.57819 24.4422 2.66204 24.444H18.3012C18.385 24.4422 18.4672 24.4088 18.54 24.3471L18.9089 24.0567C19.0231 23.9734 19.1122 23.83 19.1586 23.6545L22.1214 11.7318C22.1428 11.6382 22.1538 11.5401 22.154 11.4414C22.1523 11.3057 22.1263 11.1731 22.0786 11.0572C22.031 10.9413 21.9634 10.8462 21.8828 10.7816L21.7199 10.6529C21.6449 10.6017 21.5636 10.5743 21.4811 10.5725H19.6796C19.5885 10.5701 19.4986 10.6036 19.4191 10.6693C19.0284 11.0072 18.5074 11.4417 17.8671 11.9727L13.9708 15.2871C13.9023 15.3434 13.8433 15.4218 13.7982 15.5166C13.7532 15.6113 13.7231 15.72 13.7105 15.8343V15.9312C13.7066 16.1235 13.7489 16.3115 13.8298 16.4621C13.8767 16.5515 13.9381 16.6219 14.0083 16.6669C14.0785 16.7119 14.1552 16.73 14.2313 16.7197H14.4049C14.4865 16.7172 14.5671 16.7455 14.6392 16.8018C14.7113 16.8581 14.7726 16.9405 14.8174 17.0415C14.8801 17.1674 14.9143 17.3194 14.9151 17.4758C14.9148 17.5691 14.9038 17.6616 14.8825 17.7494V17.7816C14.8457 17.929 14.779 18.056 14.6916 18.1452C14.6042 18.2345 14.5003 18.2817 14.3941 18.2804H9.91181C9.82944 18.2877 9.74718 18.2634 9.67302 18.2098C9.59886 18.1563 9.53531 18.0752 9.48855 17.9746C9.42585 17.8487 9.39169 17.6967 9.39095 17.5403C9.39113 17.4415 9.40209 17.3434 9.42339 17.2498L11.6374 8.36817C11.6718 8.21837 11.7379 8.08895 11.8259 7.9991C11.9138 7.90925 12.019 7.86376 12.1259 7.86936H22.4254C22.5114 7.86757 22.5963 7.84018 22.675 7.78881L23.044 7.48326C23.1563 7.39321 23.2416 7.24379 23.2827 7.06481L24.3355 2.8668ZM26.9076 2.09458C26.7861 2.19194 26.6933 2.35247 26.6471 2.54517L21.5035 23.2368C21.4829 23.3359 21.4719 23.4389 21.4709 23.5426C21.472 23.6868 21.4986 23.8281 21.5481 23.9523C21.5976 24.0766 21.6683 24.1794 21.7531 24.2505L21.8617 24.3311C21.9433 24.4051 22.0372 24.4441 22.1329 24.4436H26.3983C26.489 24.442 26.5782 24.4089 26.6586 24.3468L26.9843 24.0892C27.1065 23.9932 27.1996 23.8323 27.2448 23.6388L28.8944 17.0419C28.9315 16.8937 28.9959 16.7639 29.0803 16.6672C29.1647 16.5705 29.2658 16.5108 29.372 16.4948H29.4154C29.514 16.4981 29.6105 16.5381 29.6958 16.6112C29.7812 16.6844 29.8527 16.7882 29.9037 16.9131L32.6923 24.0263C32.7411 24.1505 32.8107 24.2542 32.8943 24.3274C32.9779 24.4006 33.0727 24.4409 33.1698 24.4445H37.9995C38.1126 24.4456 38.2232 24.3953 38.3163 24.3003C38.4095 24.2053 38.4807 24.0704 38.5203 23.9136C38.5503 23.8179 38.5651 23.7133 38.5638 23.6078C38.5656 23.4657 38.5391 23.3258 38.4878 23.2057L36.0242 16.8178C35.9802 16.6874 35.9543 16.5451 35.9482 16.3996C35.9583 16.2208 35.9995 16.049 36.0676 15.9008C36.1171 15.7955 36.184 15.7107 36.2618 15.6544C36.3397 15.5981 36.426 15.5721 36.5125 15.5789H39.9535C40.0443 15.5774 40.1335 15.5442 40.2139 15.4821L40.5287 15.2246C40.5913 15.1827 40.6475 15.1227 40.6941 15.0481C40.7407 14.9735 40.7768 14.8858 40.8001 14.7903L43.7629 2.93186C43.7843 2.83829 43.7953 2.7402 43.7955 2.64141C43.795 2.48885 43.7664 2.33938 43.7129 2.20901C43.6593 2.07865 43.5828 1.97229 43.4916 1.90134L43.394 1.82078C43.3101 1.75678 43.217 1.72358 43.1226 1.72396H27.5154C27.4246 1.7255 27.3354 1.75867 27.255 1.82078L26.9076 2.09458ZM31.0318 8.43401C31.0704 8.27488 31.141 8.13711 31.2342 8.03929C31.3274 7.94147 31.4386 7.8883 31.5528 7.88698H36.1001C36.1832 7.87684 36.2666 7.89818 36.3426 7.949C36.4185 7.99982 36.4845 8.07843 36.5342 8.17744C36.6186 8.33242 36.6648 8.5254 36.6651 8.72446C36.6651 8.77268 36.6542 8.85322 36.6433 8.99787C36.6325 9.14252 36.5456 9.28833 36.3828 9.43239L30.6308 14.2754C30.5428 14.3407 30.4468 14.379 30.3486 14.3881C30.2197 14.3815 30.0967 14.3074 30.0013 14.179C29.9397 14.109 29.89 14.0188 29.8561 13.9154C29.8222 13.8121 29.805 13.6984 29.806 13.5835C29.8069 13.4746 29.8179 13.3664 29.8385 13.2619L31.0318 8.43401ZM48.961 18.2972C48.8582 18.3015 48.7563 18.2669 48.6651 18.1965C48.5739 18.1261 48.4964 18.0223 48.44 17.895C48.3683 17.7384 48.3305 17.5532 48.3315 17.3641C48.3317 17.2445 48.3426 17.1254 48.364 17.0101L50.4913 8.49849C50.5354 8.31606 50.6164 8.15808 50.7231 8.04585C50.8298 7.93363 50.9573 7.87256 51.0882 7.87091H55.1906C55.2934 7.8665 55.3953 7.90115 55.4865 7.97156C55.5777 8.04197 55.6551 8.14578 55.7115 8.2731C55.7909 8.42484 55.8331 8.61211 55.831 8.80405C55.8324 8.92512 55.8176 9.04542 55.7875 9.15801L53.6603 17.6696C53.5295 18.0881 53.3347 18.2972 53.0635 18.2972H48.961ZM40.9732 23.1404C40.9517 23.2612 40.9407 23.3855 40.9406 23.5104C40.9425 23.675 40.9735 23.8359 41.0307 23.9771C41.0878 24.1182 41.169 24.2347 41.2661 24.3148L41.2878 24.3311C41.3816 24.4041 41.4858 24.4427 41.5918 24.4436H57.1662C57.2691 24.4483 57.3708 24.4092 57.4592 24.3311L57.7405 24.1217C57.8119 24.0702 57.8756 23.9981 57.928 23.9097C57.9803 23.8213 58.0202 23.7183 58.0454 23.6069L63.1887 3.01164C63.2183 2.89877 63.2333 2.77873 63.2332 2.65767C63.2303 2.48723 63.1965 2.32107 63.1353 2.17666C63.074 2.03225 62.9876 1.91494 62.8851 1.83705C62.7925 1.76035 62.6877 1.72152 62.5816 1.72454H47.0075C46.9015 1.72546 46.7973 1.76405 46.7035 1.83705L46.3997 2.07851C46.2642 2.19097 46.1574 2.36623 46.0958 2.57732L40.9732 23.1404ZM80.0878 17.8466C80.0582 17.9736 80.0026 18.0837 79.9287 18.1616C79.8549 18.2395 79.7664 18.2813 79.6757 18.2811H77.2551C77.1847 18.2832 77.1151 18.2593 77.0525 18.2115C76.9899 18.1638 76.9363 18.0936 76.8966 18.0075C76.8442 17.8932 76.8143 17.7595 76.8103 17.6214C76.8121 17.5455 76.8191 17.47 76.8312 17.3962L80.3259 3.43008C80.3442 3.35261 80.3517 3.2705 80.3482 3.18862C80.3508 3.09608 80.3384 3.00395 80.312 2.91998C80.2856 2.83601 80.2459 2.76265 80.1964 2.70608C80.1199 2.60018 80.0185 2.54248 79.9138 2.54517C79.8346 2.54439 79.7565 2.57196 79.6861 2.62553L73.6087 7.77428C73.5161 7.84506 73.4458 7.9662 73.4124 8.11219L70.9814 17.8466C70.951 17.9758 70.8937 18.0874 70.8178 18.1655C70.7419 18.2435 70.6512 18.284 70.5588 18.2811H68.1383C68.0679 18.283 67.9983 18.259 67.9357 18.2112C67.8732 18.1635 67.8196 18.0935 67.7798 18.0075C67.726 17.9002 67.6959 17.771 67.6934 17.6375C67.6935 17.5547 67.7047 17.4727 67.7262 17.3962L71.3726 2.77037C71.3925 2.69312 71.4036 2.61152 71.4053 2.52891C71.403 2.41196 71.3796 2.29806 71.3375 2.19904C71.2954 2.10002 71.2361 2.01949 71.1659 1.96581L70.9605 1.8049C70.8969 1.75405 70.826 1.72649 70.7538 1.72454H66.423C66.3476 1.72855 66.2736 1.75593 66.2058 1.8049L65.7937 2.12673C65.7453 2.16276 65.7023 2.21258 65.6671 2.27333C65.6318 2.33408 65.605 2.40455 65.5883 2.48069L60.3678 23.3817C60.3473 23.4586 60.3362 23.5403 60.3351 23.6229C60.3371 23.7398 60.3603 23.8537 60.4021 23.9527C60.444 24.0518 60.5031 24.1324 60.5732 24.1862L60.7904 24.3632C60.854 24.4141 60.9249 24.4416 60.9971 24.4436H68.9194C68.9717 24.4432 69.0234 24.4268 69.0712 24.3954L72.49 22.5771C72.5385 22.5509 72.5902 22.5399 72.6418 22.545C72.7177 22.5427 72.7927 22.5705 72.8589 22.6255L74.8883 24.3471C74.9575 24.4086 75.0365 24.442 75.1172 24.444H83.6584C83.7302 24.4423 83.8007 24.4147 83.8638 24.3636L84.2772 24.0418C84.3726 23.9649 84.4457 23.839 84.4827 23.6878L89.7031 2.78683C89.7237 2.70432 89.7348 2.61725 89.7358 2.52929C89.7324 2.41273 89.7086 2.29949 89.6666 2.20075C89.6246 2.102 89.5659 2.02116 89.4964 1.9662L89.2805 1.80529C89.2169 1.75444 89.146 1.72688 89.0738 1.72493H84.7548C84.6794 1.72848 84.6053 1.75589 84.5376 1.80529L84.1464 2.11104C84.0509 2.1883 83.9775 2.314 83.9397 2.465L80.0878 17.8466ZM94.7169 18.2811C94.6314 18.2825 94.5471 18.2523 94.4715 18.1933C94.3958 18.1343 94.3313 18.0483 94.2838 17.9432C94.2208 17.8174 94.1865 17.6653 94.1857 17.5087C94.1856 17.4099 94.1966 17.3117 94.2184 17.2183L94.4997 16.108C94.5385 15.9578 94.6069 15.8285 94.696 15.7366C94.7851 15.6448 94.8909 15.5948 94.9995 15.5931H99.4598C99.5444 15.5904 99.6282 15.6183 99.7039 15.6744C99.7796 15.7305 99.8449 15.813 99.8941 15.9149C99.9588 16.0455 99.9932 16.2036 99.9923 16.3655C99.9917 16.4643 99.9807 16.5623 99.9596 16.656L99.677 17.7663C99.6396 17.9174 99.5718 18.048 99.4826 18.1401C99.3934 18.2322 99.2872 18.2814 99.1785 18.2811H94.7169ZM86.8378 23.285C86.8204 23.3796 86.8134 23.4777 86.8168 23.5755C86.8172 23.7136 86.8425 23.8491 86.8902 23.9679C86.9378 24.0867 87.0059 24.1845 87.0877 24.2513L87.2172 24.3481C87.294 24.4098 87.3797 24.443 87.4671 24.4449H103.096C103.183 24.4452 103.269 24.4118 103.346 24.3481L103.704 24.0745C103.819 23.9853 103.908 23.8363 103.953 23.6562L105.787 16.2708C105.808 16.1884 105.819 16.1014 105.82 16.0135C105.82 15.8393 105.782 15.6697 105.711 15.5307L104.539 13.1655C104.477 13.0209 104.444 12.8538 104.442 12.6828C104.446 12.5597 104.469 12.4395 104.508 12.3309C104.547 12.2224 104.603 12.1282 104.67 12.0552L107.437 9.23952C107.531 9.14975 107.6 9.01266 107.632 8.85342L109.13 2.9001C109.152 2.80664 109.163 2.70848 109.163 2.60965C109.161 2.46757 109.135 2.32859 109.085 2.20699C109.035 2.0854 108.965 1.98557 108.88 1.91779L108.751 1.82098C108.674 1.75725 108.588 1.72389 108.501 1.72416H92.872C92.7847 1.72605 92.6989 1.75927 92.6221 1.82098L92.2532 2.11143C92.1433 2.20986 92.0565 2.35586 92.0046 2.52968L86.8378 23.285ZM96.4217 8.40186C96.5408 8.06397 96.703 7.88698 96.9202 7.88698H100.425C100.502 7.88095 100.579 7.9027 100.649 7.95037C100.719 7.99804 100.78 8.07019 100.827 8.1606C100.913 8.31402 100.96 8.50801 100.958 8.70761C100.957 8.77757 100.954 8.84741 100.947 8.91674C100.947 9.02943 100.872 9.17428 100.718 9.33499L96.0305 14.0984C95.9361 14.1879 95.8272 14.2379 95.7152 14.2433C95.5997 14.2404 95.4886 14.1778 95.4012 14.0663C95.338 13.9973 95.2865 13.9077 95.2507 13.8045C95.2148 13.7012 95.1956 13.5871 95.1944 13.471C95.1959 13.3674 95.2069 13.2645 95.2271 13.1653L96.4217 8.40186ZM106.308 23.269C106.287 23.3627 106.276 23.4607 106.275 23.5594C106.276 23.6996 106.303 23.8368 106.352 23.956C106.402 24.0752 106.473 24.1718 106.558 24.2352L106.689 24.3479C106.767 24.3991 106.852 24.4264 106.937 24.4283H111.235C111.321 24.4249 111.406 24.3977 111.485 24.3479L111.854 24.0575C111.964 23.9586 112.051 23.8128 112.104 23.6392L117.281 2.88306C117.293 2.78722 117.3 2.69009 117.302 2.59261C117.302 2.45448 117.277 2.31902 117.229 2.20022C117.181 2.08141 117.113 1.98358 117.031 1.91682L116.901 1.80413C116.821 1.75435 116.737 1.72709 116.651 1.72377H112.342C112.255 1.7235 112.169 1.75687 112.094 1.82059L111.735 2.09419C111.675 2.13667 111.622 2.19729 111.579 2.2721C111.536 2.34692 111.504 2.43427 111.485 2.52852L106.308 23.269ZM129.338 8.41715C129.374 8.25574 129.444 8.11562 129.538 8.01721C129.631 7.91881 129.744 7.86728 129.859 7.87014H134.526C134.617 7.86892 134.706 7.83573 134.786 7.77333L135.134 7.49991C135.255 7.40208 135.348 7.24171 135.395 7.04932L136.436 2.89817C136.454 2.80389 136.462 2.70569 136.458 2.60771C136.456 2.45976 136.428 2.31518 136.377 2.18823C136.325 2.06128 136.252 1.95633 136.165 1.88371L136.078 1.81923C135.997 1.75691 135.908 1.72373 135.817 1.72241H120.211C120.117 1.72207 120.024 1.75528 119.94 1.81923L119.592 2.09284C119.531 2.13519 119.476 2.19556 119.431 2.27024C119.387 2.34492 119.353 2.43235 119.332 2.52716L118.301 6.67851C118.28 6.77775 118.269 6.88062 118.268 6.98426C118.269 7.13043 118.297 7.27343 118.348 7.39808C118.4 7.52272 118.473 7.62436 118.561 7.69219L118.659 7.77255C118.739 7.83473 118.829 7.86791 118.919 7.86936H122.816C122.906 7.86375 122.996 7.89354 123.076 7.9557C123.156 8.01786 123.223 8.11018 123.271 8.22333C123.339 8.36449 123.377 8.53267 123.38 8.70606C123.38 8.80489 123.369 8.90305 123.347 8.99651L119.788 23.2363C119.766 23.3297 119.755 23.4279 119.755 23.5267C119.756 23.6793 119.784 23.8288 119.838 23.9592C119.891 24.0896 119.968 24.1959 120.059 24.2668L120.168 24.3473C120.247 24.4132 120.337 24.4466 120.428 24.4442H124.683C124.774 24.4424 124.863 24.4092 124.943 24.3473L125.29 24.0737C125.407 23.9683 125.498 23.8105 125.55 23.6231L129.338 8.41715ZM135.47 24.4428C135.584 24.4381 135.696 24.394 135.796 24.314L136.067 24.1049C136.213 23.9836 136.324 23.7897 136.382 23.5579L136.969 21.1444C136.989 21.0287 136.999 20.9099 137 20.7904C136.999 20.6155 136.966 20.4441 136.905 20.2942C136.844 20.1443 136.757 20.0214 136.653 19.9384C136.557 19.8587 136.449 19.8145 136.338 19.8097H132.095C131.984 19.8123 131.876 19.8566 131.781 19.9384L131.509 20.1476C131.361 20.2638 131.248 20.4596 131.195 20.6946L130.609 23.1081C130.584 23.223 130.57 23.3419 130.565 23.462C130.567 23.6385 130.602 23.8108 130.665 23.9608C130.728 24.1108 130.817 24.2328 130.923 24.314V24.3303C131.024 24.4054 131.135 24.444 131.248 24.4428H135.47Z" fill="white"/>
<path fill-rule="evenodd" clip-rule="evenodd" d="M24.3355 2.8668C24.3569 2.77324 24.3679 2.67514 24.368 2.57635C24.3663 2.44068 24.3403 2.30811 24.2926 2.1922C24.2449 2.07629 24.1773 1.9812 24.0967 1.91663L23.9448 1.80393C23.8699 1.75278 23.7885 1.72541 23.706 1.72358H8.06633C7.98397 1.72716 7.90286 1.75445 7.82755 1.80393L7.45859 2.09439C7.34591 2.18819 7.25795 2.33558 7.20895 2.51264L2.03257 23.3013C2.01215 23.3894 2.00116 23.4816 2 23.5747C2.00302 23.712 2.03079 23.8455 2.08041 23.9615C2.13003 24.0775 2.1997 24.1717 2.28222 24.2344L2.42326 24.3471C2.49602 24.4088 2.57819 24.4422 2.66204 24.444H18.3012C18.385 24.4422 18.4672 24.4088 18.54 24.3471L18.9089 24.0567C19.0231 23.9734 19.1122 23.83 19.1586 23.6545L22.1214 11.7318C22.1428 11.6382 22.1538 11.5401 22.154 11.4414C22.1523 11.3057 22.1263 11.1731 22.0786 11.0572C22.031 10.9413 21.9634 10.8462 21.8828 10.7816L21.7199 10.6529C21.6449 10.6017 21.5636 10.5743 21.4811 10.5725H19.6796C19.5885 10.5701 19.4986 10.6036 19.4191 10.6693C19.0284 11.0072 18.5074 11.4417 17.8671 11.9727L13.9708 15.2871C13.9023 15.3434 13.8433 15.4218 13.7982 15.5166C13.7532 15.6113 13.7231 15.72 13.7105 15.8343V15.9312C13.7066 16.1235 13.7489 16.3115 13.8298 16.4621C13.8767 16.5515 13.9381 16.6219 14.0083 16.6669C14.0785 16.7119 14.1552 16.73 14.2313 16.7197H14.4049C14.4865 16.7172 14.5671 16.7455 14.6392 16.8018C14.7113 16.8581 14.7726 16.9405 14.8174 17.0415C14.8801 17.1674 14.9143 17.3194 14.9151 17.4758C14.9148 17.5691 14.9038 17.6616 14.8825 17.7494V17.7816C14.8457 17.929 14.779 18.056 14.6916 18.1452C14.6042 18.2345 14.5003 18.2817 14.3941 18.2804H9.91181C9.82944 18.2877 9.74718 18.2634 9.67302 18.2098C9.59886 18.1563 9.53531 18.0752 9.48855 17.9746C9.42585 17.8487 9.39169 17.6967 9.39095 17.5403C9.39113 17.4415 9.40209 17.3434 9.42339 17.2498L11.6374 8.36817C11.6718 8.21837 11.7379 8.08895 11.8259 7.9991C11.9138 7.90925 12.019 7.86376 12.1259 7.86936H22.4254C22.5114 7.86757 22.5963 7.84018 22.675 7.78881L23.044 7.48326C23.1563 7.39321 23.2416 7.24379 23.2827 7.06481L24.3355 2.8668ZM26.9076 2.09458C26.7861 2.19194 26.6933 2.35247 26.6471 2.54517L21.5035 23.2368C21.4829 23.3359 21.4719 23.4389 21.4709 23.5426C21.472 23.6868 21.4986 23.8281 21.5481 23.9523C21.5976 24.0766 21.6683 24.1794 21.7531 24.2505L21.8617 24.3311C21.9433 24.4051 22.0372 24.4441 22.1329 24.4436H26.3983C26.489 24.442 26.5782 24.4089 26.6586 24.3468L26.9843 24.0892C27.1065 23.9932 27.1996 23.8323 27.2448 23.6388L28.8944 17.0419C28.9315 16.8937 28.9959 16.7639 29.0803 16.6672C29.1647 16.5705 29.2658 16.5108 29.372 16.4948H29.4154C29.514 16.4981 29.6105 16.5381 29.6958 16.6112C29.7812 16.6844 29.8527 16.7882 29.9037 16.9131L32.6923 24.0263C32.7411 24.1505 32.8107 24.2542 32.8943 24.3274C32.9779 24.4006 33.0727 24.4409 33.1698 24.4445H37.9995C38.1126 24.4456 38.2232 24.3953 38.3163 24.3003C38.4095 24.2053 38.4807 24.0704 38.5203 23.9136C38.5503 23.8179 38.5651 23.7133 38.5638 23.6078C38.5656 23.4657 38.5391 23.3258 38.4878 23.2057L36.0242 16.8178C35.9802 16.6874 35.9543 16.5451 35.9482 16.3996C35.9583 16.2208 35.9995 16.049 36.0676 15.9008C36.1171 15.7955 36.184 15.7107 36.2618 15.6544C36.3397 15.5981 36.426 15.5721 36.5125 15.5789H39.9535C40.0443 15.5774 40.1335 15.5442 40.2139 15.4821L40.5287 15.2246C40.5913 15.1827 40.6475 15.1227 40.6941 15.0481C40.7407 14.9735 40.7768 14.8858 40.8001 14.7903L43.7629 2.93186C43.7843 2.83829 43.7953 2.7402 43.7955 2.64141C43.795 2.48885 43.7664 2.33938 43.7129 2.20901C43.6593 2.07865 43.5828 1.97229 43.4916 1.90134L43.394 1.82078C43.3101 1.75678 43.217 1.72358 43.1226 1.72396H27.5154C27.4246 1.7255 27.3354 1.75867 27.255 1.82078L26.9076 2.09458ZM31.0318 8.43401C31.0704 8.27488 31.141 8.13711 31.2342 8.03929C31.3274 7.94147 31.4386 7.8883 31.5528 7.88698H36.1001C36.1832 7.87684 36.2666 7.89818 36.3426 7.949C36.4185 7.99982 36.4845 8.07843 36.5342 8.17744C36.6186 8.33242 36.6648 8.5254 36.6651 8.72446C36.6651 8.77268 36.6542 8.85322 36.6433 8.99787C36.6325 9.14252 36.5456 9.28833 36.3828 9.43239L30.6308 14.2754C30.5428 14.3407 30.4468 14.379 30.3486 14.3881C30.2197 14.3815 30.0967 14.3074 30.0013 14.179C29.9397 14.109 29.89 14.0188 29.8561 13.9154C29.8222 13.8121 29.805 13.6984 29.806 13.5835C29.8069 13.4746 29.8179 13.3664 29.8385 13.2619L31.0318 8.43401ZM48.961 18.2972C48.8582 18.3015 48.7563 18.2669 48.6651 18.1965C48.5739 18.1261 48.4964 18.0223 48.44 17.895C48.3683 17.7384 48.3305 17.5532 48.3315 17.3641C48.3317 17.2445 48.3426 17.1254 48.364 17.0101L50.4913 8.49849C50.5354 8.31606 50.6164 8.15808 50.7231 8.04585C50.8298 7.93363 50.9573 7.87256 51.0882 7.87091H55.1906C55.2934 7.8665 55.3953 7.90115 55.4865 7.97156C55.5777 8.04197 55.6551 8.14578 55.7115 8.2731C55.7909 8.42484 55.8331 8.61211 55.831 8.80405C55.8324 8.92512 55.8176 9.04542 55.7875 9.15801L53.6603 17.6696C53.5295 18.0881 53.3347 18.2972 53.0635 18.2972H48.961ZM40.9732 23.1404C40.9517 23.2612 40.9407 23.3855 40.9406 23.5104C40.9425 23.675 40.9735 23.8359 41.0307 23.9771C41.0878 24.1182 41.169 24.2347 41.2661 24.3148L41.2878 24.3311C41.3816 24.4041 41.4858 24.4427 41.5918 24.4436H57.1662C57.2691 24.4483 57.3708 24.4092 57.4592 24.3311L57.7405 24.1217C57.8119 24.0702 57.8756 23.9981 57.928 23.9097C57.9803 23.8213 58.0202 23.7183 58.0454 23.6069L63.1887 3.01164C63.2183 2.89877 63.2333 2.77873 63.2332 2.65767C63.2303 2.48723 63.1965 2.32107 63.1353 2.17666C63.074 2.03225 62.9876 1.91494 62.8851 1.83705C62.7925 1.76035 62.6877 1.72152 62.5816 1.72454H47.0075C46.9015 1.72546 46.7973 1.76405 46.7035 1.83705L46.3997 2.07851C46.2642 2.19097 46.1574 2.36623 46.0958 2.57732L40.9732 23.1404ZM80.0878 17.8466C80.0582 17.9736 80.0026 18.0837 79.9287 18.1616C79.8549 18.2395 79.7664 18.2813 79.6757 18.2811H77.2551C77.1847 18.2832 77.1151 18.2593 77.0525 18.2115C76.9899 18.1638 76.9363 18.0936 76.8966 18.0075C76.8442 17.8932 76.8143 17.7595 76.8103 17.6214C76.8121 17.5455 76.8191 17.47 76.8312 17.3962L80.3259 3.43008C80.3442 3.35261 80.3517 3.2705 80.3482 3.18862C80.3508 3.09608 80.3384 3.00395 80.312 2.91998C80.2856 2.83601 80.2459 2.76265 80.1964 2.70608C80.1199 2.60018 80.0185 2.54248 79.9138 2.54517C79.8346 2.54439 79.7565 2.57196 79.6861 2.62553L73.6087 7.77428C73.5161 7.84506 73.4458 7.9662 73.4124 8.11219L70.9814 17.8466C70.951 17.9758 70.8937 18.0874 70.8178 18.1655C70.7419 18.2435 70.6512 18.284 70.5588 18.2811H68.1383C68.0679 18.283 67.9983 18.259 67.9357 18.2112C67.8732 18.1635 67.8196 18.0935 67.7798 18.0075C67.726 17.9002 67.6959 17.771 67.6934 17.6375C67.6935 17.5547 67.7047 17.4727 67.7262 17.3962L71.3726 2.77037C71.3925 2.69312 71.4036 2.61152 71.4053 2.52891C71.403 2.41196 71.3796 2.29806 71.3375 2.19904C71.2954 2.10002 71.2361 2.01949 71.1659 1.96581L70.9605 1.8049C70.8969 1.75405 70.826 1.72649 70.7538 1.72454H66.423C66.3476 1.72855 66.2736 1.75593 66.2058 1.8049L65.7937 2.12673C65.7453 2.16276 65.7023 2.21258 65.6671 2.27333C65.6318 2.33408 65.605 2.40455 65.5883 2.48069L60.3678 23.3817C60.3473 23.4586 60.3362 23.5403 60.3351 23.6229C60.3371 23.7398 60.3603 23.8537 60.4021 23.9527C60.444 24.0518 60.5031 24.1324 60.5732 24.1862L60.7904 24.3632C60.854 24.4141 60.9249 24.4416 60.9971 24.4436H68.9194C68.9717 24.4432 69.0234 24.4268 69.0712 24.3954L72.49 22.5771C72.5385 22.5509 72.5902 22.5399 72.6418 22.545C72.7177 22.5427 72.7927 22.5705 72.8589 22.6255L74.8883 24.3471C74.9575 24.4086 75.0365 24.442 75.1172 24.444H83.6584C83.7302 24.4423 83.8007 24.4147 83.8638 24.3636L84.2772 24.0418C84.3726 23.9649 84.4457 23.839 84.4827 23.6878L89.7031 2.78683C89.7237 2.70432 89.7348 2.61725 89.7358 2.52929C89.7324 2.41273 89.7086 2.29949 89.6666 2.20075C89.6246 2.102 89.5659 2.02116 89.4964 1.9662L89.2805 1.80529C89.2169 1.75444 89.146 1.72688 89.0738 1.72493H84.7548C84.6794 1.72848 84.6053 1.75589 84.5376 1.80529L84.1464 2.11104C84.0509 2.1883 83.9775 2.314 83.9397 2.465L80.0878 17.8466ZM94.7169 18.2811C94.6314 18.2825 94.5471 18.2523 94.4715 18.1933C94.3958 18.1343 94.3313 18.0483 94.2838 17.9432C94.2208 17.8174 94.1865 17.6653 94.1857 17.5087C94.1856 17.4099 94.1966 17.3117 94.2184 17.2183L94.4997 16.108C94.5385 15.9578 94.6069 15.8285 94.696 15.7366C94.7851 15.6448 94.8909 15.5948 94.9995 15.5931H99.4598C99.5444 15.5904 99.6282 15.6183 99.7039 15.6744C99.7796 15.7305 99.8449 15.813 99.8941 15.9149C99.9588 16.0455 99.9932 16.2036 99.9923 16.3655C99.9917 16.4643 99.9807 16.5623 99.9596 16.656L99.677 17.7663C99.6396 17.9174 99.5718 18.048 99.4826 18.1401C99.3934 18.2322 99.2872 18.2814 99.1785 18.2811H94.7169ZM86.8378 23.285C86.8204 23.3796 86.8134 23.4777 86.8168 23.5755C86.8172 23.7136 86.8425 23.8491 86.8902 23.9679C86.9378 24.0867 87.0059 24.1845 87.0877 24.2513L87.2172 24.3481C87.294 24.4098 87.3797 24.443 87.4671 24.4449H103.096C103.183 24.4452 103.269 24.4118 103.346 24.3481L103.704 24.0745C103.819 23.9853 103.908 23.8363 103.953 23.6562L105.787 16.2708C105.808 16.1884 105.819 16.1014 105.82 16.0135C105.82 15.8393 105.782 15.6697 105.711 15.5307L104.539 13.1655C104.477 13.0209 104.444 12.8538 104.442 12.6828C104.446 12.5597 104.469 12.4395 104.508 12.3309C104.547 12.2224 104.603 12.1282 104.67 12.0552L107.437 9.23952C107.531 9.14975 107.6 9.01266 107.632 8.85342L109.13 2.9001C109.152 2.80664 109.163 2.70848 109.163 2.60965C109.161 2.46757 109.135 2.32859 109.085 2.20699C109.035 2.0854 108.965 1.98557 108.88 1.91779L108.751 1.82098C108.674 1.75725 108.588 1.72389 108.501 1.72416H92.872C92.7847 1.72605 92.6989 1.75927 92.6221 1.82098L92.2532 2.11143C92.1433 2.20986 92.0565 2.35586 92.0046 2.52968L86.8378 23.285ZM96.4217 8.40186C96.5408 8.06397 96.703 7.88698 96.9202 7.88698H100.425C100.502 7.88095 100.579 7.9027 100.649 7.95037C100.719 7.99804 100.78 8.07019 100.827 8.1606C100.913 8.31402 100.96 8.50801 100.958 8.70761C100.957 8.77757 100.954 8.84741 100.947 8.91674C100.947 9.02943 100.872 9.17428 100.718 9.33499L96.0305 14.0984C95.9361 14.1879 95.8272 14.2379 95.7152 14.2433C95.5997 14.2404 95.4886 14.1778 95.4012 14.0663C95.338 13.9973 95.2865 13.9077 95.2507 13.8045C95.2148 13.7012 95.1956 13.5871 95.1944 13.471C95.1959 13.3674 95.2069 13.2645 95.2271 13.1653L96.4217 8.40186ZM106.308 23.269C106.287 23.3627 106.276 23.4607 106.275 23.5594C106.276 23.6996 106.303 23.8368 106.352 23.956C106.402 24.0752 106.473 24.1718 106.558 24.2352L106.689 24.3479C106.767 24.3991 106.852 24.4264 106.937 24.4283H111.235C111.321 24.4249 111.406 24.3977 111.485 24.3479L111.854 24.0575C111.964 23.9586 112.051 23.8128 112.104 23.6392L117.281 2.88306C117.293 2.78722 117.3 2.69009 117.302 2.59261C117.302 2.45448 117.277 2.31902 117.229 2.20022C117.181 2.08141 117.113 1.98358 117.031 1.91682L116.901 1.80413C116.821 1.75435 116.737 1.72709 116.651 1.72377H112.342C112.255 1.7235 112.169 1.75687 112.094 1.82059L111.735 2.09419C111.675 2.13667 111.622 2.19729 111.579 2.2721C111.536 2.34692 111.504 2.43427 111.485 2.52852L106.308 23.269ZM129.338 8.41715C129.374 8.25574 129.444 8.11562 129.538 8.01721C129.631 7.91881 129.744 7.86728 129.859 7.87014H134.526C134.617 7.86892 134.706 7.83573 134.786 7.77333L135.134 7.49991C135.255 7.40208 135.348 7.24171 135.395 7.04932L136.436 2.89817C136.454 2.80389 136.462 2.70569 136.458 2.60771C136.456 2.45976 136.428 2.31518 136.377 2.18823C136.325 2.06128 136.252 1.95633 136.165 1.88371L136.078 1.81923C135.997 1.75691 135.908 1.72373 135.817 1.72241H120.211C120.117 1.72207 120.024 1.75528 119.94 1.81923L119.592 2.09284C119.531 2.13519 119.476 2.19556 119.431 2.27024C119.387 2.34492 119.353 2.43235 119.332 2.52716L118.301 6.67851C118.28 6.77775 118.269 6.88062 118.268 6.98426C118.269 7.13043 118.297 7.27343 118.348 7.39808C118.4 7.52272 118.473 7.62436 118.561 7.69219L118.659 7.77255C118.739 7.83473 118.829 7.86791 118.919 7.86936H122.816C122.906 7.86375 122.996 7.89354 123.076 7.9557C123.156 8.01786 123.223 8.11018 123.271 8.22333C123.339 8.36449 123.377 8.53267 123.38 8.70606C123.38 8.80489 123.369 8.90305 123.347 8.99651L119.788 23.2363C119.766 23.3297 119.755 23.4279 119.755 23.5267C119.756 23.6793 119.784 23.8288 119.838 23.9592C119.891 24.0896 119.968 24.1959 120.059 24.2668L120.168 24.3473C120.247 24.4132 120.337 24.4466 120.428 24.4442H124.683C124.774 24.4424 124.863 24.4092 124.943 24.3473L125.29 24.0737C125.407 23.9683 125.498 23.8105 125.55 23.6231L129.338 8.41715ZM135.47 24.4428C135.584 24.4381 135.696 24.394 135.796 24.314L136.067 24.1049C136.213 23.9836 136.324 23.7897 136.382 23.5579L136.969 21.1444C136.989 21.0287 136.999 20.9099 137 20.7904C136.999 20.6155 136.966 20.4441 136.905 20.2942C136.844 20.1443 136.757 20.0214 136.653 19.9384C136.557 19.8587 136.449 19.8145 136.338 19.8097H132.095C131.984 19.8123 131.876 19.8566 131.781 19.9384L131.509 20.1476C131.361 20.2638 131.248 20.4596 131.195 20.6946L130.609 23.1081C130.584 23.223 130.57 23.3419 130.565 23.462C130.567 23.6385 130.602 23.8108 130.665 23.9608C130.728 24.1108 130.817 24.2328 130.923 24.314V24.3303C131.024 24.4054 131.135 24.444 131.248 24.4428H135.47Z" stroke="#21273D" stroke-width="2.89655" mask="url(#path-1-outside-1_10681_14042)"/>
</svg>
