<svg width="18" height="20" viewBox="0 0 18 20" fill="none" xmlns="http://www.w3.org/2000/svg">
<path d="M16.3999 7.40027H14.3745V5.37547C14.3745 2.4118 11.9632 0.000976562 9.00016 0.000976562C6.03637 0.000976562 3.62547 2.4118 3.62547 5.37547V7.40027H1.60047C1.18691 7.40027 0.850586 7.7359 0.850586 8.14984V19.249C0.850586 19.6629 1.18691 19.999 1.60047 19.999H16.3999C16.8139 19.999 17.1493 19.6629 17.1493 19.249V8.14984C17.1494 7.73594 16.8139 7.40027 16.3999 7.40027ZM9.75008 14.3066V16.4746C9.75008 16.8886 9.41375 17.2242 9.0002 17.2242C8.58625 17.2242 8.24996 16.8886 8.24996 16.4746V14.3066C7.44156 14.0014 6.8623 13.2261 6.8623 12.3121C6.8623 11.1337 7.82141 10.1746 9.0002 10.1746C10.1786 10.1746 11.1377 11.1337 11.1377 12.3121C11.1377 13.2261 10.5581 14.0015 9.75008 14.3066ZM11.8746 7.40027H6.12539V5.37547C6.12539 3.78992 7.4143 2.50035 9.0002 2.50035C10.5854 2.50035 11.8746 3.78992 11.8746 5.37547V7.40027Z" fill="#616498"/>
</svg>
