<svg width="18" height="18" viewBox="0 0 18 18" fill="none" xmlns="http://www.w3.org/2000/svg">
<path d="M17.3247 4.80296H14.4777V4.19768C14.4777 3.82512 14.1758 3.52271 13.8029 3.52271H9.67556V2.27653C9.67556 1.90398 9.37282 1.60156 9.00063 1.60156C8.62814 1.60156 8.32538 1.90401 8.32538 2.27653V3.52271H4.19804C3.8252 3.52271 3.52318 3.82516 3.52318 4.19768V4.80296H0.676223H0.000976562V5.47782V12.5226V13.1976H0.676258H3.52321V13.8032C3.52321 14.1758 3.8252 14.4782 4.19807 14.4782H8.32538V15.7244C8.32538 16.097 8.62814 16.399 9.00063 16.399C9.37279 16.399 9.67556 16.0969 9.67556 15.7244V14.4782H13.8029C14.1758 14.4782 14.4777 14.1758 14.4777 13.8032V13.1976H17.3247H17.9996V12.5226V5.47786V4.803H17.3247V4.80296ZM8.32534 13.1283H4.87339V12.5226V5.47786V4.87225H8.32534V13.1283ZM13.1275 5.47786V12.5227V13.1284H9.67552V4.87225H13.1275V5.47786Z" fill="#616498"/>
</svg>
