<svg width="18" height="18" viewBox="0 0 18 18" fill="none" xmlns="http://www.w3.org/2000/svg">
    <path d="M13.7244 0.000976562C11.4357 0.000976562 9.56641 1.81089 9.45996 4.07362C10.2095 4.11855 10.9286 4.27032 11.6049 4.51627C11.5955 4.43724 11.5871 4.35747 11.5871 4.27531C11.5871 3.09662 12.5464 2.1382 13.7244 2.1382C14.903 2.1382 15.8621 3.09662 15.8621 4.27531C15.8621 5.21486 15.2486 6.00556 14.4044 6.29138C14.9228 6.80951 15.3671 7.40119 15.7206 8.04947C17.0736 7.33186 17.9993 5.91067 17.9993 4.27531C17.9993 1.91822 16.0815 0.000976562 13.7244 0.000976562Z" fill="#616498"/>
    <path d="M2.13827 4.27531C2.13827 3.09662 3.09691 2.1382 4.27598 2.1382C5.45396 2.1382 6.41295 3.09662 6.41295 4.27531C6.41295 4.35747 6.4049 4.4372 6.39537 4.51627C7.07174 4.27032 7.79086 4.11855 8.54036 4.07362C8.43363 1.81093 6.56468 0.000976562 4.27598 0.000976562C1.91861 0.000976562 0.000976562 1.91819 0.000976562 4.27531C0.000976562 5.91067 0.926746 7.33183 2.27945 8.04947C2.63334 7.40123 3.07711 6.80951 3.59598 6.29138C2.75181 6.00556 2.13827 5.21486 2.13827 4.27531Z" fill="#616498"/>
    <path d="M8.99988 5.40039C5.52634 5.40039 2.7002 8.22614 2.7002 11.6997C2.7002 15.1733 5.52637 17.9994 8.99988 17.9994C12.4735 17.9994 15.2996 15.1733 15.2996 11.6997C15.2996 8.22611 12.4735 5.40039 8.99988 5.40039ZM8.99988 15.1873C7.07683 15.1873 5.5128 13.6228 5.5128 11.6997C5.5128 9.77664 7.0768 8.21261 8.99988 8.21261C10.923 8.21261 12.487 9.77664 12.487 11.6997C12.487 13.6228 10.923 15.1873 8.99988 15.1873Z" fill="#616498"/>
    <path d="M9.00005 9.5625C8.62754 9.5625 8.3252 9.86498 8.3252 10.2375V13.162C8.3252 13.5349 8.62754 13.8373 9.00005 13.8373C9.37264 13.8373 9.67498 13.5349 9.67498 13.162V10.2375C9.67498 9.86498 9.37264 9.5625 9.00005 9.5625Z" fill="#616498"/>
</svg>
