<svg width="18" height="18" viewBox="0 0 18 18" fill="none" xmlns="http://www.w3.org/2000/svg">
<g clip-path="url(#clip0_9987_1297)">
<path d="M3.22167 11.3908C3.07288 11.2417 2.8637 11.1688 2.65456 11.1991C2.4458 11.2265 2.26229 11.3505 2.15812 11.5329C-0.740022 16.6058 0.0628062 17.4078 0.326443 17.6714C0.535939 17.8814 0.829494 17.9875 1.19842 17.9879C2.63262 17.9879 5.83715 16.198 6.4649 15.8394C6.64768 15.7349 6.77129 15.5513 6.79945 15.343C6.82719 15.1343 6.75592 14.9248 6.60746 14.7761L3.22167 11.3908Z" fill="#616498"/>
<path d="M17.2575 0.740812C16.7727 0.255937 15.9541 0 14.8906 0C12.5035 0 8.79123 1.303 5.87959 4.21474C5.5443 4.55013 5.21854 4.90915 4.90963 5.28349H2.33946C2.10106 5.28349 1.88063 5.40935 1.75847 5.61428L0.0939229 8.42688C-0.0293349 8.63483 -0.0315146 8.89421 0.0887901 9.10487C0.208321 9.31553 0.432478 9.44525 0.675196 9.44525L3.2074 9.44575L8.55217 14.7897L8.55174 17.3235C8.55174 17.5659 8.68158 17.7893 8.89251 17.9093C8.99591 17.9686 9.11111 17.9984 9.2266 17.9984C9.34547 17.9984 9.46426 17.9667 9.57061 17.9043L12.3832 16.2392C12.5883 16.1175 12.7141 15.8972 12.7141 15.6583V13.0881C13.0837 12.7834 13.442 12.4581 13.7835 12.1177C15.5939 10.3069 16.9536 8.01098 17.6125 5.65193C18.2351 3.42134 18.1024 1.58537 17.2575 0.740812ZM13.0003 7.86111C12.6176 8.24372 12.109 8.45392 11.5684 8.45392C11.0276 8.45392 10.5191 8.24372 10.1366 7.86111C9.75381 7.47847 9.54322 6.96969 9.54322 6.42906C9.54322 5.88769 9.75416 5.37957 10.1366 4.99743C10.5194 4.61486 11.0273 4.40371 11.5679 4.40371C12.109 4.40371 12.6172 4.61486 13 4.99743C13.7894 5.78658 13.7897 7.0715 13.0003 7.86111Z" fill="#616498"/>
</g>
<defs>
<clipPath id="clip0_9987_1297">
<rect width="18" height="18" fill="white"/>
</clipPath>
</defs>
</svg>
