<svg width="18" height="18" viewBox="0 0 18 18" fill="none" xmlns="http://www.w3.org/2000/svg">
<path d="M6.63773 0.716797C6.45141 1.66074 6.79945 2.67641 7.83656 3.75852C8.23031 3.50223 8.9475 3.37391 9.59438 3.47164C7.97719 2.6873 7.25648 1.81473 6.63773 0.716797ZM1.02645 0.936172C1.53164 2.56953 2.85106 4.52844 4.55648 5.91711C3.2877 5.83625 1.75559 5.38273 0.659766 5.02766C1.53727 6.26516 2.91574 6.88742 4.29281 7.35852C3.41496 7.98078 2.35535 8.61359 0.65625 8.71906C2.57719 9.39406 4.43695 9.03195 5.27367 8.74367C4.64438 9.97062 1.73273 11.071 0.973711 11.4507C2.84613 11.5984 5.25258 11.064 6.84516 10.2941C7.19672 11.1589 6.78891 12.1644 6.49008 13.0292C6.42328 13.1874 6.35648 13.3421 6.28969 13.4968C6.46898 13.3737 6.64477 13.2507 6.81352 13.1241C7.6432 12.5546 8.49399 12.0027 8.90531 11.057C9.82289 12.1538 11.1096 13.2402 12.667 14.0593C13.2788 14.8362 13.662 15.782 13.8694 16.6538C14.1612 15.9823 14.3545 15.2405 14.2104 14.5339C15.0717 14.4073 15.462 13.4898 15.4584 12.6214C15.0155 12.8394 14.9276 12.8429 14.3616 12.9097C14.3616 12.5546 14.3827 12.4702 14.2561 11.9007C13.894 12.196 13.5178 12.2945 13.1733 12.3155C13.2471 12.0484 13.2788 11.63 13.3034 11.3558C12.8463 11.6054 12.6284 11.6968 12.2452 11.7355C12.2311 11.3523 12.2416 11.0323 12.101 10.6667C11.0604 11.3347 10.3924 10.7195 9.71039 9.91789C10.4065 9.32023 13.0995 9.15148 13.0538 10.1675C13.5459 9.91086 13.7147 9.77375 13.8834 9.60851C14.2034 9.90734 14.3545 10.3433 14.4143 10.7124C14.7413 10.382 14.7764 10.3433 15.0155 9.8757C15.2159 10.2308 15.3248 10.4734 15.3916 10.9515C15.6905 10.7335 15.933 10.4909 16.0877 10.1991C16.3514 10.7441 16.3795 10.7616 16.5237 11.3593C17.1495 10.8988 17.2901 10.2624 17.3252 9.68586C17.3955 8.5257 17.3147 5.88195 16.2354 4.66203C16.2952 5.9382 15.7748 7.12297 15.0471 7.49914C14.6041 7.67141 11.6545 4.87648 10.2096 4.21906C9.38344 3.86047 8.5186 4.46867 7.82602 4.54602C5.1682 3.73391 2.93824 2.4943 1.02645 0.936172ZM10.41 5.37219C10.8776 6.10695 11.542 6.66945 12.5229 7.30578C11.8409 7.40773 10.2096 7.07023 9.79125 6.46203C9.59789 6.1843 10.0409 5.7132 10.41 5.37219Z" fill="#616498"/>
</svg>