<svg width="18" height="18" viewBox="0 0 18 18" fill="none" xmlns="http://www.w3.org/2000/svg">
<g clip-path="url(#clip0_9987_1315)">
<path d="M16.3399 2.3335C16.5127 2.3335 16.6857 2.26758 16.8175 2.13574L17.8005 1.15218C18.0642 0.888504 18.0642 0.461145 17.8005 0.197754C17.5369 -0.065918 17.1095 -0.065918 16.8461 0.197754L15.8625 1.18125C15.5992 1.44492 15.5992 1.87228 15.8628 2.13574C15.9947 2.26758 16.1674 2.3335 16.3399 2.3335Z" fill="#616498"/>
<path d="M14.8514 4.10261C15.1148 3.83893 15.1148 3.41157 14.8511 3.1479C14.5874 2.88444 14.1601 2.88465 13.8964 3.14811L12.3866 4.65839C11.0312 3.52225 9.33693 2.90332 7.54709 2.90332C5.53056 2.90332 3.63515 3.68815 2.20939 5.11377C-0.733858 8.05768 -0.733858 12.8468 2.20939 15.7894C3.63511 17.2152 5.53053 18.0003 7.54709 18.0003C9.56365 18.0003 11.4591 17.2152 12.8848 15.7894C15.6669 13.0079 15.8187 8.5768 13.341 5.61352L14.8514 4.10261Z" fill="#616498"/>
<path d="M17.8008 4.13145L16.8172 3.14795C16.5538 2.88449 16.1265 2.88407 15.8628 3.14795C15.5991 3.41141 15.5991 3.83877 15.8628 4.10244L16.8458 5.08594C16.9776 5.21777 17.1504 5.28369 17.3231 5.28369C17.4959 5.28369 17.6687 5.21777 17.8005 5.08594C18.0642 4.82248 18.0642 4.39512 17.8008 4.13145Z" fill="#616498"/>
<path d="M13.8966 2.13569C14.0284 2.26753 14.2009 2.33344 14.3739 2.33344C14.5467 2.33344 14.7194 2.26753 14.8513 2.1359C15.115 1.87223 15.115 1.44487 14.8513 1.1812L13.8683 0.197701C13.6046 -0.0659707 13.1773 -0.0657598 12.9136 0.19749C12.6499 0.461162 12.6499 0.888521 12.9133 1.15219L13.8966 2.13569Z" fill="#616498"/>
</g>
<defs>
<clipPath id="clip0_9987_1315">
<rect width="18" height="18" fill="white"/>
</clipPath>
</defs>
</svg>
