<svg data-v-32aed0c7="" role="img" xmlns="http://www.w3.org/2000/svg" focusable="false" viewBox="0 0 32 32" class="svg-inline--fa fa-slide fa-w-16 transformed"><path fill="#616498" d="M15.059 4.759c-1.153 0.096-2.219 0.351-3.215 0.743l0.076-0.027-1.265-2.628c1.294-0.538 2.793-0.898 4.362-1.004l0.044-0.002v2.917zM10.289 6.261c-0.964 0.569-1.792 1.235-2.513 2.003l-0.006 0.006-2.282-1.821c1.006-1.106 2.172-2.043 3.466-2.781l0.069-0.036 1.265 2.629zM6.643 9.686c-0.569 0.834-1.045 1.795-1.378 2.82l-0.023 0.080-2.846-0.65c0.47-1.551 1.14-2.904 1.994-4.116l-0.030 0.045 2.282 1.821zM4.838 14.352c-0.074 0.484-0.116 1.043-0.116 1.611s0.042 1.127 0.124 1.673l-0.008-0.062-2.843 0.648c-0.116-0.682-0.183-1.467-0.183-2.268 0-0.795 0.066-1.576 0.192-2.335l-0.011 0.082 2.845 0.65zM5.24 19.338c0.322 1.023 0.79 2.003 1.396 2.904l-2.283 1.82c-0.822-1.169-1.49-2.522-1.93-3.974l-0.026-0.101 2.843-0.648zM15.056 27.173l-0.002 2.918c-1.613-0.105-3.113-0.466-4.501-1.044l0.093 0.034 1.268-2.629c0.921 0.369 1.988 0.625 3.101 0.718l0.041 0.003zM20.007 26.457l1.265 2.628c-1.295 0.538-2.796 0.898-4.367 1.003l-0.043 0.002 0.002-2.917c1.154-0.096 2.222-0.351 3.22-0.743l-0.077 0.027zM24.157 23.665l2.282 1.822c-1.007 1.106-2.174 2.043-3.469 2.779l-0.069 0.036-1.264-2.629c0.964-0.569 1.793-1.235 2.515-2.003l0.005-0.006zM26.686 19.35l2.847 0.651c-0.471 1.551-1.141 2.902-1.996 4.115l0.030-0.045-2.282-1.821c0.601-0.894 1.076-1.873 1.401-2.9zM27.093 14.362l2.844-0.646c0.116 0.681 0.183 1.465 0.183 2.265 0 0.796-0.066 1.577-0.192 2.338l0.011-0.082-2.846-0.651c0.074-0.484 0.116-1.043 0.116-1.612s-0.042-1.127-0.123-1.673l0.008 0.062zM25.299 9.694l2.282-1.817c0.822 1.169 1.488 2.523 1.928 3.975l0.026 0.1-2.843 0.646c-0.352-1.107-0.825-2.069-1.418-2.944l0.025 0.039zM21.651 6.268l1.269-2.628c1.362 0.777 2.526 1.714 3.523 2.808l0.010 0.011-2.283 1.817c-0.727-0.774-1.556-1.44-2.467-1.98l-0.052-0.028zM7.766 23.657c0.727 0.772 1.556 1.438 2.467 1.978l0.052 0.029-1.268 2.631c-1.362-0.776-2.528-1.713-3.525-2.806l-0.010-0.011 2.283-1.82zM16.651 14.148l3.149-3.446 1.429 1.43-3.447 3.148v1.37l3.447 3.149-1.43 1.43-3.149-3.446h-1.37l-3.148 3.446-1.43-1.43 3.446-3.149v-1.37l-3.446-3.148 1.43-1.43 3.148 3.446h1.37zM31.385 11.835c-2.28-8.509-11.043-13.569-19.551-11.29s-13.567 11.042-11.288 19.55c2.28 8.509 11.042 13.569 19.55 11.288 8.509-2.278 13.568-11.041 11.288-19.55zM20.022 5.482c-0.923-0.37-1.993-0.627-3.109-0.72l-0.041-0.003v-2.918c1.616 0.105 3.12 0.467 4.511 1.046l-0.093-0.034-1.269 2.629z"></path></svg>