<svg width="24" height="24" viewBox="0 0 24 24" fill="none" xmlns="http://www.w3.org/2000/svg">
    <g clip-path="url(#clip0_1950_8192)">
        <path d="M11.5781 0.75V1.8375C6.3 2.05359 2.05359 6.3 1.8375 11.5781H0.75V12.4219H1.8375C2.05359 17.7 6.3 21.9469 11.5781 22.1625V23.25H12.4219V22.1625C17.7 21.9469 21.9469 17.7 22.1625 12.4219H23.25V11.5781H22.1625C21.9469 6.3 17.7 2.05359 12.4219 1.8375V0.75H11.5781ZM11.5781 2.68172V3.75H12.4219V2.68172C17.2406 2.89594 21.1031 6.75937 21.3187 11.5781H20.25V12.4219H21.3187C21.1031 17.2406 17.2406 21.1031 12.4219 21.3187V20.25H11.5781V21.3187C6.75937 21.1031 2.89594 17.2406 2.68172 12.4219H3.75V11.5781H2.68172C2.89594 6.75937 6.75937 2.89594 11.5781 2.68172ZM11.9953 4.46859C11.7609 4.46859 11.55 4.52016 11.3906 4.60453L5.94375 7.74844C5.60156 7.94063 5.60156 8.25938 5.94375 8.46094L11.3906 11.5969C11.7281 11.7984 12.2578 11.7984 12.5953 11.5969L18.0281 8.46094C18.375 8.25938 18.375 7.94063 18.0281 7.74844L12.5953 4.60453C12.4359 4.52016 12.2062 4.46859 11.9953 4.46859ZM7.82344 7.40156C8.10469 7.40625 8.37187 7.47656 8.57344 7.59375C8.94844 7.86094 8.91562 8.25469 8.50312 8.50312C8.08125 8.74687 7.42031 8.76562 6.97031 8.54062C6.27187 8.10469 6.81094 7.38281 7.82344 7.40156ZM16.1953 7.40625H16.2891C16.5703 7.41563 16.8375 7.49062 17.0344 7.60312C17.4234 7.87031 17.3953 8.27344 16.9781 8.52188C16.5516 8.77031 15.8813 8.78438 15.4313 8.55469C14.7281 8.13281 15.2203 7.425 16.1953 7.40625ZM12.0234 7.40625C13.0266 7.41563 13.5141 8.13281 12.8109 8.55469C12.375 8.84531 11.6297 8.85469 11.1656 8.58281C10.7063 8.31094 10.7156 7.86562 11.1938 7.60312C11.4141 7.47656 11.7141 7.40156 12.0234 7.40625ZM5.41406 9.32812C5.20312 9.32812 5.0625 9.46875 5.0625 9.75937V15.3703C5.0625 15.7641 5.33437 16.2281 5.68125 16.4297L10.9031 19.4484C11.2406 19.6406 11.5078 19.4812 11.5078 19.0922V13.4813C11.5078 13.0922 11.2406 12.6188 10.9031 12.4266L5.67656 9.40313C5.57344 9.35156 5.48438 9.33281 5.41406 9.32812ZM18.6 9.32812C18.525 9.33281 18.4266 9.35156 18.3281 9.40313L13.1016 12.4266C12.7641 12.6188 12.4969 13.0922 12.4969 13.4813V19.0922C12.4969 19.4812 12.7641 19.6406 13.1016 19.4484L18.3281 16.4297C18.6562 16.2281 18.9375 15.7641 18.9375 15.3703V9.75937C18.9375 9.46875 18.7969 9.32812 18.6 9.32812ZM9.92813 12.3984C10.4531 12.4172 11.0859 13.2094 11.0766 13.875C11.0953 14.3906 10.7297 14.6016 10.2703 14.3391C9.81563 14.0719 9.45 13.4297 9.47812 12.9422C9.47812 12.6234 9.62813 12.4172 9.87656 12.3984H9.92813ZM16.0641 13.4203H16.1156C16.3594 13.4391 16.5141 13.6453 16.5141 13.9594C16.5094 14.4516 16.1531 15.0516 15.7125 15.3094C15.2672 15.5672 14.9109 15.3797 14.9062 14.8922C14.9016 14.2266 15.5391 13.425 16.0641 13.4203ZM5.89688 14.475C6.43125 14.4516 7.09219 15.2625 7.09219 15.9422C7.11094 16.4625 6.74531 16.6734 6.28594 16.4156C5.83125 16.1484 5.46562 15.5109 5.48906 15.0187C5.48906 14.6953 5.64375 14.4891 5.89688 14.475Z" fill="white"/>
    </g>
    <defs>
        <clipPath id="clip0_1950_8192">
            <rect width="24" height="24" fill="white"/>
        </clipPath>
    </defs>
</svg>