<svg width="18" height="18" viewBox="0 0 18 18" fill="none" xmlns="http://www.w3.org/2000/svg">
<g clip-path="url(#clip0_11652_14870)">
<g clip-path="url(#clip1_11652_14870)">
<path d="M6.0345 4.59722C7.56912 3.40387 9.2006 2.57699 10.6219 2.22515C11.3312 2.04986 12.0242 1.98316 12.641 2.07637C13.2113 2.16213 13.7545 2.3915 14.1524 2.82877L14.2571 2.95357L16.0987 5.32181C16.5029 5.84164 16.6141 6.4782 16.5507 7.10415C16.4891 7.72497 16.2543 8.37971 15.9091 9.02438C15.218 10.3152 14.0147 11.6927 12.48 12.8861C10.9454 14.0794 9.31394 14.9063 7.89261 15.2581C7.18336 15.4334 6.49036 15.5001 5.8735 15.4069C5.30326 15.3212 4.76008 15.0918 4.36209 14.6545L4.25745 14.5297L2.41587 12.1615C2.01164 11.6416 1.90047 11.0051 1.96382 10.3791C2.02545 9.75832 2.26022 9.10358 2.60543 8.45891C3.29657 7.16806 4.49988 5.79056 6.0345 4.59722ZM14.491 5.6979C14.3822 6.0162 14.2378 6.33752 14.0675 6.65613C13.3764 7.94698 12.1731 9.32448 10.6385 10.5178C9.10383 11.7112 7.47236 12.538 6.05103 12.8899C5.71172 12.9747 5.36634 13.033 5.01801 13.0642L5.44157 13.6089C5.54608 13.7433 5.73926 13.8696 6.09697 13.9239C6.45947 13.9784 6.94427 13.9482 7.53222 13.8026C8.70648 13.5118 10.1513 12.7968 11.5592 11.7019C12.9672 10.6071 14.0161 9.38295 14.5872 8.31652C14.8731 7.78256 15.0219 7.32014 15.0584 6.9554C15.0944 6.59487 15.0191 6.377 14.9145 6.2426L14.491 5.6979Z" fill="#616498"/>
</g>
</g>
<defs>
<clipPath id="clip0_11652_14870">
<rect width="18" height="18" fill="white"/>
</clipPath>
<clipPath id="clip1_11652_14870">
<rect width="18" height="18" fill="white" transform="translate(-3.37231 7.16406) rotate(-37.8692)"/>
</clipPath>
</defs>
</svg>
