<svg width="18" height="18" viewBox="0 0 18 18" fill="none" xmlns="http://www.w3.org/2000/svg">
<g clip-path="url(#clip0_7277_26427)">
<path d="M17.0114 6.76402C16.9675 6.75509 16.9217 6.75041 16.875 6.75041C16.8282 6.75041 16.7828 6.75509 16.739 6.76402C16.1836 6.83215 15.75 7.30149 15.75 7.87541C15.75 8.241 15.9284 8.56391 16.2001 8.76958V14.1748H14.8502V12.375V6.97506V3.82552C14.8502 3.45262 14.5479 3.15017 14.1753 3.15017H12.8734C11.7817 1.27036 9.75181 0.000976562 7.4258 0.000976562C5.10057 0.000976562 3.06963 1.27036 1.97866 3.15017H0.67668C0.303777 3.15017 0.000976562 3.45262 0.000976562 3.82552V6.97506V12.3749V17.3247C0.000976562 17.6973 0.303742 17.9993 0.67668 17.9993H14.1753C14.5479 17.9993 14.8502 17.6973 14.8502 17.3247V15.5244H16.875C17.2479 15.5244 17.5499 15.2224 17.5499 14.8498V8.76954C17.8219 8.56388 18 8.241 18 7.87538C18 7.30149 17.5671 6.83212 17.0114 6.76402ZM5.85115 7.65003H9.00087V11.7H5.85115V7.65003ZM1.35122 7.65003H4.50094V11.7H1.35122V7.65003ZM11.4757 15.5244H3.37598C3.00307 15.5244 2.70105 15.2224 2.70105 14.8498C2.70105 14.4772 3.00307 14.1748 3.37598 14.1748H11.4757C11.8483 14.1748 12.1509 14.4773 12.1509 14.8498C12.1509 15.2224 11.8482 15.5244 11.4757 15.5244ZM13.5004 11.7H10.3503V7.65003H13.5004V11.7Z" fill="#616498"/>
</g>
<defs>
<clipPath id="clip0_7277_26427">
<rect width="18" height="18" fill="white"/>
</clipPath>
</defs>
</svg>
