<svg width="24" height="24" viewBox="0 0 24 24" fill="none" xmlns="http://www.w3.org/2000/svg">
    <g clip-path="url(#clip0_2410_10419)">
        <path fill-rule="evenodd" clip-rule="evenodd" d="M12.3368 0.64838C12.5255 0.539442 12.7496 0.509745 12.9601 0.565798L23.3915 3.35837C23.496 3.38623 23.594 3.43441 23.6799 3.50016C23.7657 3.56591 23.8378 3.64794 23.8919 3.74156C23.946 3.83517 23.9812 3.93854 23.9953 4.04575C24.0095 4.15296 24.0024 4.26191 23.9744 4.36637L19.9715 19.2927C19.9153 19.5033 19.7777 19.683 19.589 19.7923C19.4003 19.9016 19.176 19.9315 18.9653 19.8755L8.53725 17.0812C8.3266 17.0249 8.1469 16.8874 8.03761 16.6987C7.92833 16.51 7.8984 16.2857 7.95439 16.0749L11.9538 1.14694C12.0105 0.936607 12.1482 0.757318 12.3368 0.64838ZM8.62125 5.31094L5.88525 15.5195L5.88353 15.5178C5.78242 15.8941 5.75645 16.2866 5.8071 16.673C5.85776 17.0593 5.98405 17.4319 6.17875 17.7694C6.37346 18.1069 6.63276 18.4027 6.94184 18.64C7.25093 18.8772 7.60374 19.0512 7.98011 19.1521L15.5058 21.1664C15.4928 21.1707 15.4796 21.1747 15.4664 21.1784L5.03668 23.9727C4.82595 24.0286 4.60161 23.9987 4.41294 23.8894C4.22426 23.7801 4.08667 23.6004 4.03039 23.3898L0.027535 8.46351C-0.00044661 8.35905 -0.00756368 8.25011 0.00659071 8.14289C0.0207451 8.03568 0.0558933 7.93232 0.110026 7.8387C0.164158 7.74508 0.236212 7.66305 0.322069 7.5973C0.407926 7.53155 0.505901 7.48337 0.610392 7.45551L8.62125 5.31094ZM15.7278 12.9735C15.7496 12.9793 15.7612 12.9796 15.7626 12.9741C15.7625 12.91 15.7705 12.848 15.7867 12.7883C15.8083 12.7301 15.8271 12.6711 15.8433 12.6113C15.8855 12.477 15.9249 12.342 15.9616 12.2062C15.9998 12.0651 16.0119 11.9343 15.9978 11.8139C15.6448 11.7184 15.3094 11.6335 14.9915 11.5592C14.679 11.4863 14.3424 11.3952 13.9815 11.2859C13.9627 11.2692 13.9584 11.2418 13.9687 11.2038C13.9859 11.1618 14.0065 11.1179 14.0306 11.072L14.1191 10.9386C14.1541 10.8956 14.1807 10.862 14.1989 10.8377C14.3289 10.7447 14.4729 10.6758 14.6307 10.6311C14.7954 10.5824 14.9613 10.5399 15.1285 10.5035C15.3011 10.4686 15.471 10.433 15.6382 10.3966C15.8108 10.3618 15.9708 10.3089 16.1182 10.238C16.271 10.1686 16.4065 10.0771 16.5247 9.96335C16.6497 9.84567 16.7476 9.68857 16.8182 9.49205C16.8531 9.38491 16.8854 9.26545 16.9152 9.13365C16.9465 8.99642 16.9749 8.87005 17.0003 8.75455C17.0525 8.45396 17.0464 8.16386 16.9822 7.88424C16.918 7.60462 16.7806 7.3693 16.57 7.1783C16.4395 7.0789 16.2659 6.98823 16.0492 6.90627C15.8393 6.82036 15.6174 6.75742 15.3834 6.71744C15.1495 6.67746 14.9218 6.66831 14.7003 6.68998C14.4788 6.71165 14.2946 6.77839 14.1478 6.8902C13.8867 7.05849 13.676 7.29871 13.5158 7.61086C13.3625 7.91906 13.2677 8.26931 13.2315 8.66164L13.2271 8.67793L13.2353 8.68013C13.414 8.7518 13.5972 8.80718 13.7848 8.84626C13.9778 8.88682 14.2001 8.92657 14.4518 8.96553L14.46 8.96773L14.4644 8.95144C14.4963 8.85516 14.5331 8.75147 14.5748 8.64038C14.6219 8.53074 14.6777 8.4322 14.7422 8.34474C14.8135 8.25331 14.896 8.1853 14.9897 8.1407C15.0888 8.09757 15.2035 8.09364 15.3338 8.12889C15.4543 8.17897 15.5366 8.26243 15.5807 8.37928C15.6318 8.49216 15.6459 8.61252 15.6229 8.74035C15.6 8.86819 15.5472 8.98795 15.4646 9.09962C15.3873 9.21277 15.2849 9.28995 15.1572 9.33116C14.9851 9.40701 14.8113 9.4678 14.6358 9.51356C14.4656 9.56078 14.2921 9.60998 14.115 9.66116C13.9434 9.71382 13.7697 9.77461 13.5937 9.84356C13.4246 9.90854 13.255 9.99671 13.085 10.1081C12.9599 10.2258 12.8564 10.3609 12.7743 10.5135C12.6991 10.6622 12.6326 10.822 12.5747 10.9928C12.5183 11.1582 12.4658 11.3305 12.4174 11.5097C12.3743 11.6904 12.3197 11.8708 12.2534 12.051C12.2505 12.0619 12.251 12.0708 12.255 12.0777L12.6215 12.1768L15.7278 12.9735ZM18.6589 13.644C18.6784 13.5502 18.7014 13.4544 18.7279 13.3567L18.805 13.0716C18.9739 12.4471 19.1542 11.8344 19.3459 11.2336C19.543 10.6342 19.7261 10.0223 19.895 9.39776C19.9567 9.16969 20.0149 8.9436 20.0697 8.71948C20.126 8.48994 20.1776 8.25621 20.2245 8.0183C20.0808 7.96777 19.9391 7.9207 19.7994 7.87707C19.6596 7.83345 19.5192 7.79254 19.378 7.75434C19.2531 7.72056 19.1275 7.68948 19.0011 7.66113C18.8816 7.62881 18.7587 7.59847 18.6323 7.57011C18.6185 7.57804 18.5735 7.61538 18.4971 7.68215C18.4277 7.74495 18.3423 7.82382 18.2408 7.91876C18.1394 8.0137 18.0296 8.11803 17.9114 8.23176C17.7932 8.34548 17.6812 8.45796 17.5753 8.56919C17.4749 8.68189 17.3856 8.78593 17.3073 8.88132C17.2291 8.9767 17.1784 9.05624 17.1553 9.11994C17.148 9.14709 17.1861 9.18944 17.2696 9.247C17.3531 9.30455 17.4502 9.36578 17.5608 9.43068C17.6715 9.49558 17.7754 9.55285 17.8727 9.60248C17.97 9.65212 18.0323 9.6806 18.0594 9.68795C18.1029 9.6997 18.1475 9.68555 18.1933 9.64549C18.2391 9.60543 18.2829 9.56192 18.3248 9.51496C18.3681 9.46258 18.4065 9.4176 18.4399 9.38003C18.4749 9.33703 18.5052 9.32192 18.5309 9.3347C18.529 9.36332 18.5251 9.38849 18.5192 9.41021L18.4994 9.48352C18.3569 10.0103 18.1995 10.5272 18.0274 11.0342C17.8553 11.5413 17.6979 12.0582 17.5555 12.585L17.3417 13.3751L17.3395 13.3832C17.4452 13.4235 17.5664 13.4708 17.7032 13.5253C17.8469 13.5758 17.9866 13.6195 18.1223 13.6562L18.2853 13.7003C18.3465 13.711 18.403 13.7175 18.4548 13.7199C18.5066 13.7223 18.551 13.7197 18.588 13.7122C18.6264 13.6993 18.6501 13.6766 18.6589 13.644Z" fill="white"/>
    </g>
    <defs>
        <clipPath id="clip0_2410_10419">
            <rect width="24" height="24" fill="white"/>
        </clipPath>
    </defs>
</svg>