<svg width="24" height="24" viewBox="0 0 24 24" fill="none" xmlns="http://www.w3.org/2000/svg">
<path d="M10.1256 1.72047C9.82807 1.72094 9.51363 1.74142 9.18785 1.78234C7.56597 1.98611 5.66547 2.68928 4.1531 3.99967L5.722 12.9152L5.73747 13.3886C7.7185 14.1287 10.4628 14.5401 12.9034 14.5263C14.178 14.5191 15.3717 14.3969 16.3244 14.1607C17.2772 13.9245 17.9739 13.5606 18.2839 13.1802L18.3042 13.1968C17.6331 10.9071 15.462 9.0438 11.9539 10.5591C11.3872 10.8222 10.8133 11.1639 10.2508 11.5756C10.7777 10.812 11.3658 10.2137 11.974 9.77312L11.9746 9.7675L10.7058 9.10267L9.04914 10.2745L8.54322 9.55942L9.83444 8.64611L8.54538 7.97064L8.95179 7.19467L10.6376 8.07789L12.2581 6.93147L12.334 6.17275L10.9184 5.33284L9.27025 6.38439L8.79916 5.64578L10.0745 4.83203L8.76344 4.05414L9.21054 3.30076L10.9018 4.30426L12.6403 3.19502C12.7084 2.22892 11.6334 1.71798 10.1256 1.72047ZM12.5201 4.31087L11.7456 4.80494L12.4301 5.21111L12.5201 4.31087ZM12.1426 8.08619L11.509 8.53445L12.0685 8.82761L12.1426 8.08623L12.1426 8.08619ZM18.4975 14.1757C17.9893 14.557 17.3142 14.8179 16.5353 15.011C15.4864 15.271 14.2351 15.3948 12.9084 15.4023C11.9132 15.4079 10.8767 15.3484 9.85605 15.226L10.4403 16.2637C14.1978 16.7061 17.0735 16.2072 18.5044 15.242C18.5381 14.8933 18.5352 14.5343 18.4974 14.1756L18.4975 14.1757ZM5.76841 14.331L5.8151 15.759L8.56174 16.1553L9.0108 15.1095C7.86049 14.9301 6.75133 14.6696 5.76846 14.331L5.76841 14.331ZM4.21544 15.3416C4.09778 15.3767 3.98547 15.4126 3.87911 15.4494H1.65175L2.82025 15.969L0.744629 17.1704L2.88574 16.9444C2.99496 17.0275 3.13005 17.1084 3.2898 17.1865L1.92152 19.274L4.95832 17.7282C5.15566 17.7736 5.36332 17.8169 5.58035 17.8582L5.07724 20.9886L7.95597 18.1881C8.21619 18.2134 8.47667 18.2358 8.73738 18.2554L9.28455 21.8895L11.6719 18.3705C11.7671 18.3711 11.8617 18.3721 11.9576 18.3721C12.0718 18.3721 12.185 18.371 12.2982 18.3702L14.9333 21.9693L15.2569 18.2492C15.5223 18.2287 15.7827 18.206 16.0362 18.1809L18.8853 20.9887L18.3809 17.8492C18.5931 17.8083 18.7962 17.7654 18.9893 17.7206L22.041 19.274L20.6611 17.1687C20.8081 17.0947 20.9334 17.0183 21.0354 16.94L23.218 17.1704L21.1436 15.9698L22.3139 15.4495H20.0361C19.9319 15.4134 19.8222 15.3782 19.7073 15.3438C19.9608 15.4964 20.0982 15.659 20.0982 15.8279C20.0982 16.6991 16.4543 17.4053 11.9594 17.4053C7.46458 17.4053 3.82066 16.6991 3.82066 15.8279C3.82066 15.6582 3.95941 15.4948 4.21525 15.3416L4.21544 15.3416Z" fill="white"/>
</svg>
