<svg xmlns="http://www.w3.org/2000/svg" xmlns:xlink="http://www.w3.org/1999/xlink" viewBox="0 0 144.93 154.92"><defs><style>.cls-1{fill:url(#Безымянный_градиент_48);}.cls-2{fill:url(#Безымянный_градиент_48-2);}.cls-3{fill:url(#Безымянный_градиент_48-3);}.cls-4{fill:url(#Безымянный_градиент_55);}.cls-5{fill:url(#Безымянный_градиент_54);}.cls-6{fill:url(#Безымянный_градиент_26);}.cls-7{fill:#fffbf5;opacity:0.49;}.cls-8,.cls-9{fill:#2c2a67;}.cls-8{opacity:0.25;}.cls-9{opacity:0.1;}.cls-10{fill:url(#Безымянный_градиент_55-2);}.cls-11{fill:url(#Безымянный_градиент_55-3);}.cls-12{fill:url(#Безымянный_градиент_55-4);}.cls-13{fill:url(#Безымянный_градиент_55-5);}.cls-14{fill:url(#Безымянный_градиент_55-6);}.cls-15{fill:url(#Безымянный_градиент_55-7);}.cls-16{fill:url(#Безымянный_градиент_55-8);}.cls-17{fill:url(#Безымянный_градиент_54-2);}.cls-18{fill:url(#Безымянный_градиент_54-3);}.cls-19{fill:url(#Безымянный_градиент_54-4);}.cls-20{fill:url(#Безымянный_градиент_54-5);}.cls-21{fill:url(#Безымянный_градиент_54-6);}.cls-22{fill:url(#Безымянный_градиент_54-7);}.cls-23{fill:url(#Безымянный_градиент_54-8);}</style><linearGradient id="Безымянный_градиент_48" x1="843.08" y1="-218.76" x2="946.2" y2="-218.76" gradientTransform="translate(-831.01 -156.62) rotate(30.14)" gradientUnits="userSpaceOnUse"><stop offset="0" stop-color="#ff8dab"/><stop offset="1" stop-color="#ed3f65"/></linearGradient><linearGradient id="Безымянный_градиент_48-2" x1="874.49" y1="-262.79" x2="904.21" y2="-264.75" xlink:href="#Безымянный_градиент_48"/><linearGradient id="Безымянный_градиент_48-3" x1="905.6" y1="-269" x2="890.08" y2="-277.45" xlink:href="#Безымянный_градиент_48"/><linearGradient id="Безымянный_градиент_55" x1="73.92" y1="54.89" x2="87.76" y2="54.89" gradientUnits="userSpaceOnUse"><stop offset="0" stop-color="#fec42d"/><stop offset="1" stop-color="#ffeabb"/></linearGradient><linearGradient id="Безымянный_градиент_54" x1="108.87" y1="22.57" x2="99.66" y2="38.51" gradientUnits="userSpaceOnUse"><stop offset="0" stop-color="#3796fc"/><stop offset="1" stop-color="#096cc6"/></linearGradient><radialGradient id="Безымянный_градиент_26" cx="-1071.36" cy="-283.34" r="56.09" gradientTransform="translate(1120.08 -494.48) rotate(-43.18)" gradientUnits="userSpaceOnUse"><stop offset="0" stop-color="#fec42d"/><stop offset="0.21" stop-color="#fec530"/><stop offset="0.38" stop-color="#fec73a"/><stop offset="0.53" stop-color="#fecc4a"/><stop offset="0.67" stop-color="#fed262"/><stop offset="0.8" stop-color="#ffda80"/><stop offset="0.93" stop-color="#ffe4a4"/><stop offset="1" stop-color="#ffeabb"/></radialGradient><linearGradient id="Безымянный_градиент_55-2" x1="-1239.61" y1="-277.17" x2="-1220.74" y2="-277.17" gradientTransform="translate(1077.07 -564.02) rotate(-44.7)" xlink:href="#Безымянный_градиент_55"/><linearGradient id="Безымянный_градиент_55-3" x1="-1237.37" y1="-251.16" x2="-1210.22" y2="-251.16" gradientTransform="translate(1077.07 -564.02) rotate(-44.7)" xlink:href="#Безымянный_градиент_55"/><linearGradient id="Безымянный_градиент_55-4" x1="-1223.24" y1="-256" x2="-1203.02" y2="-256" gradientTransform="translate(1077.07 -564.02) rotate(-44.7)" xlink:href="#Безымянный_градиент_55"/><linearGradient id="Безымянный_градиент_55-5" x1="-1257.33" y1="-252.43" x2="-1232.68" y2="-252.43" gradientTransform="translate(1077.07 -564.02) rotate(-44.7)" xlink:href="#Безымянный_градиент_55"/><linearGradient id="Безымянный_градиент_55-6" x1="-1257.33" y1="-260.92" x2="-1237.12" y2="-260.92" gradientTransform="translate(1077.07 -564.02) rotate(-44.7)" xlink:href="#Безымянный_градиент_55"/><linearGradient id="Безымянный_градиент_55-7" x1="-1225.94" y1="-212.3" x2="-1223.86" y2="-230.7" gradientTransform="translate(1077.07 -564.02) rotate(-44.7)" xlink:href="#Безымянный_градиент_55"/><linearGradient id="Безымянный_градиент_55-8" x1="-1236.97" y1="-226.56" x2="-1249.6" y2="-224.1" gradientTransform="translate(1077.07 -564.02) rotate(-44.7)" xlink:href="#Безымянный_градиент_55"/><linearGradient id="Безымянный_градиент_54-2" x1="1403.25" y1="-706.14" x2="1415.77" y2="-706.14" gradientTransform="translate(-1295.73 -636.26) rotate(55.59)" xlink:href="#Безымянный_градиент_54"/><linearGradient id="Безымянный_градиент_54-3" x1="1404.73" y1="-688.87" x2="1422.76" y2="-688.87" gradientTransform="translate(-1295.73 -636.26) rotate(55.59)" xlink:href="#Безымянный_градиент_54"/><linearGradient id="Безымянный_градиент_54-4" x1="1414.11" y1="-692.08" x2="1427.53" y2="-692.08" gradientTransform="translate(-1295.73 -636.26) rotate(55.59)" xlink:href="#Безымянный_градиент_54"/><linearGradient id="Безымянный_градиент_54-5" x1="1391.48" y1="-689.71" x2="1407.85" y2="-689.71" gradientTransform="translate(-1295.73 -636.26) rotate(55.59)" xlink:href="#Безымянный_градиент_54"/><linearGradient id="Безымянный_градиент_54-6" x1="1391.48" y1="-695.35" x2="1404.9" y2="-695.35" gradientTransform="translate(-1295.73 -636.26) rotate(55.59)" xlink:href="#Безымянный_градиент_54"/><linearGradient id="Безымянный_градиент_54-7" x1="1412.32" y1="-663.08" x2="1413.7" y2="-675.29" gradientTransform="translate(-1295.73 -636.26) rotate(55.59)" xlink:href="#Безымянный_градиент_54"/><linearGradient id="Безымянный_градиент_54-8" x1="1405" y1="-672.54" x2="1396.61" y2="-670.91" gradientTransform="translate(-1295.73 -636.26) rotate(55.59)" xlink:href="#Безымянный_градиент_54"/></defs><g id="Layer_2" data-name="Layer 2"><g id="Слой_2" data-name="Слой 2"><path class="cls-1" d="M97.48,128.62l-.07.11a69.51,69.51,0,0,1-4.54,6.51.34.34,0,0,1-.09.12l-.29.37c-.16.18-.31.36-.47.56l-.42.47c-1,1.13-2.17,2.28-3.1,3.22-.53.53-1.37,1.29-2.42,2.18l-.08.05c-.62.52-1.35,1.09-2.12,1.67l-.42.33c-.65.48-1.33.94-2.06,1.43l-.38.24c-.52.34-1,.66-1.55,1-.26.15-.49.3-.76.47a57,57,0,0,1-6.9,3.29c-.87.36-1.73.65-2.55.91-1.34.45-2.61.82-3.8,1.13-.58.16-1.16.26-1.72.38-1.22.28-2.38.46-3.49.63l-.82.11-.42,0c-1.15.12-2.22.22-3.15.26-1.66.1-3,.09-3.67.09a52.61,52.61,0,0,1-6.65-.52c-.15,0-.36-.06-.56-.1s-.37-.07-.56-.09a49.58,49.58,0,0,1-6.93-1.66h-.06s-.09,0-.11,0c-.61-.21-1.6-.53-2.75-1a7.65,7.65,0,0,1-.74-.3c-.95-.36-1.95-.79-2.89-1.24l-.27-.13c-1.06-.54-1.87-1-2.62-1.37-.21-.1-.43-.23-.64-.35-.89-.49-1.65-1-2.54-1.55l-1.61-1.08-.5-.36c-.3-.2-1-.68-1.74-1.31-.6-.5-1.27-1-2-1.63s-1.3-1.15-1.89-1.74c-.24-.21-.44-.42-.65-.62a1.8,1.8,0,0,1-.18-.2c-1-1-1.86-1.92-2.84-3.1-.51-.64-1.09-1.34-1.78-2.24l-.36-.47a51.89,51.89,0,0,1-3.88-6.19c-.61-1.14-1.17-2.3-1.67-3.43-.31-.69-.6-1.38-.85-2a43.74,43.74,0,0,1-2-6.4c-.16-.65-.34-1.4-.53-2.3a56.11,56.11,0,0,1-.92-7.09,1,1,0,0,1,0-.28c0-.31-.06-.87-.06-1.63a2,2,0,0,1,0-.35c0-.1,0-.21,0-.33,0-.68,0-1.47,0-2.33,0-.53,0-1.08.08-1.65a51.44,51.44,0,0,1,1.1-7.67,2.11,2.11,0,0,0,.11-.4c.11-.48.24-1,.45-1.73a1.56,1.56,0,0,1,.11-.41c.06-.23.14-.5.21-.78s.2-.6.28-.92l.12-.32c.14-.46.3-.94.49-1.44s.3-.81.46-1.26c.26-.71.56-1.44.91-2.2a51,51,0,0,1,5.45-9.56c.18-.27.38-.52.56-.76s.2-.25.3-.39C13,70,13.93,68.89,14.77,68a2.44,2.44,0,0,0,.27-.29c.21-.24.45-.47.65-.7s.54-.54.79-.8l.16-.15c.7-.7,1.29-1.26,1.73-1.67.1-.09.34-.29.62-.55.83-.72,2.36-2,4.32-3.39.57-.38,1.15-.79,1.77-1.19,1.19-.78,2.26-1.39,3.26-1.93.78-.41,1.51-.78,2.22-1.1s1.32-.64,2-.94c.2-.1.43-.19.65-.28s.66-.28,1-.4a.89.89,0,0,1,.19-.07c1.07-.41,2.19-.77,3.11-1.09.64-.22,1.46-.43,2.21-.63l1-.26a10.11,10.11,0,0,1,1.08-.25c.23-.06.48-.11.75-.16l.86-.16,1.8-.31c.3-.05.59-.07.87-.13a2.2,2.2,0,0,0,.37-.06c1-.12,2.28-.24,3.73-.32l.5,0c.23,0,.43,0,.65,0,1.62,0,3.37,0,5.12.07l.24,0s.07,0,.09,0c1.23.1,2.44.21,3.58.41l.32,0c1.21.21,2.2.39,3.13.58.26.06.52.11.77.18h0l1.16.28.8.22-4.63,8c-.06.09-.09.19-.16.3s-.11.21-.15.31-.07.25-.13.39a1.68,1.68,0,0,1-.09.32c0,.15,0,.29-.07.42s0,.23,0,.35,0,.32,0,.46v.37c0,.15.05.33.06.48s0,.24,0,.38l.15.55a3,3,0,0,0,.09.35c.06.2.16.41.23.62l.12.29c.14.33.3.64.48,1,2.54,4.59,8.46,8.5,14,9.43A14.86,14.86,0,0,0,78.7,77c.39,0,.76,0,1.11,0,.12,0,.24,0,.36-.06a4.76,4.76,0,0,0,.66-.08l.37-.08a5.62,5.62,0,0,0,.55-.15c.13,0,.24-.08.36-.11a4.78,4.78,0,0,1,.48-.19c.12,0,.21-.12.34-.17s.28-.14.39-.21a2.32,2.32,0,0,0,.3-.22,2.19,2.19,0,0,0,.35-.27,1.48,1.48,0,0,0,.25-.25,2.47,2.47,0,0,0,.28-.28l.22-.29,0,0c.07-.09.14-.2.21-.28l2.87-4.94c.61-1,1.21-2,1.8-3.06.91.92,1.78,1.89,2.52,2.77s1.52,1.86,2,2.45l.2.26c.66.85,1.2,1.66,1.86,2.68l.66,1.1.79,1.27A47.47,47.47,0,0,1,100,81.5a.82.82,0,0,1,.06.19c.48,1,.92,2.15,1.35,3.31a1.45,1.45,0,0,1,.09.22c.4,1.1.74,2.2,1.07,3.33l.09.35c.06.15.08.32.14.47s.16.58.25,1,.14.68.23,1.07a.21.21,0,0,1,0,.12c.3,1.35.64,3.14.9,5.23,0,.11,0,.23,0,.34,0,.44.09.91.12,1.37s.08,1,.11,1.54a0,0,0,0,0,0,0c.06,1.29.08,2.6,0,4a55.78,55.78,0,0,1-.75,7.39,41.5,41.5,0,0,1-1,4.64l-.23.77c-.11.4-.24.8-.37,1.22-.19.62-.39,1.27-.61,1.86a8.45,8.45,0,0,1-.35.9c-.22.55-.48,1.21-.76,1.86s-.44,1-.65,1.5a.93.93,0,0,1,0,.1c-.25.52-.53,1.07-.81,1.64C98.47,126.87,98,127.84,97.48,128.62Z"/><path class="cls-2" d="M92.37,61.63l-2.6,4.44-2,3.32L85,74.33l-.23.31-.22.29a2.47,2.47,0,0,1-.28.28,1.48,1.48,0,0,1-.25.25,2.19,2.19,0,0,1-.35.27,2.32,2.32,0,0,1-.3.22c-.11.07-.27.13-.39.21s-.22.12-.34.17a4.78,4.78,0,0,0-.48.19c-.12,0-.23.09-.36.11a5.62,5.62,0,0,1-.55.15l-.37.08a4.76,4.76,0,0,1-.66.08c-.12,0-.24,0-.36.06-.35,0-.72,0-1.11,0a14.86,14.86,0,0,1-2.27-.21c-5.5-.93-11.42-4.84-14-9.43-.18-.33-.34-.64-.48-1l-.12-.29c-.07-.21-.17-.42-.23-.62a3,3,0,0,1-.09-.35l-.15-.55c0-.14,0-.24,0-.38s-.05-.33-.06-.48v-.37c0-.14,0-.3,0-.46s0-.22,0-.35,0-.27.07-.42a1.68,1.68,0,0,0,.09-.32c.06-.14.08-.27.13-.39s.1-.21.15-.31.1-.21.16-.3l4.63-8,2.77-4.71c-.07.11-.1.21-.17.32a2.79,2.79,0,0,0-.15.3c-.05.13-.07.26-.12.38s-.08.22-.1.34,0,.27-.05.43a1.86,1.86,0,0,0,0,.34c0,.14,0,.29,0,.47a1.92,1.92,0,0,0,0,.34,2.24,2.24,0,0,0,.07.51,1.27,1.27,0,0,0,0,.34c0,.2.1.38.14.57a2.17,2.17,0,0,0,.1.33c.06.21.15.43.23.63a2.83,2.83,0,0,0,.11.31q.21.48.48,1c2.59,4.68,8.66,8.62,14.24,9.47a17.1,17.1,0,0,0,2,.18,7.74,7.74,0,0,0,1.1,0c.13,0,.26,0,.37,0a4.76,4.76,0,0,0,.66-.09l.37-.08.55-.15a2.65,2.65,0,0,0,.37-.12l.47-.18c.12,0,.21-.12.34-.16s.28-.14.41-.24a2.83,2.83,0,0,0,.28-.2,3.54,3.54,0,0,0,.35-.26,2,2,0,0,0,.25-.25,2.07,2.07,0,0,0,.29-.3l.21-.27a2.46,2.46,0,0,0,.22-.34S92.36,61.65,92.37,61.63Z"/><path class="cls-3" d="M69,48.78c0,.12-.09.26-.13.39a3.18,3.18,0,0,0-.09.33c0,.13,0,.28-.07.42s0,.23,0,.35,0,.3,0,.45,0,.24,0,.36,0,.34.06.51,0,.23,0,.35.09.37.14.56.06.22.1.34.15.42.23.63.07.2.12.3q.21.48.48,1C72.77,60,80,64.29,86.09,64.38c.39,0,.75,0,1.11,0l.36,0c.22,0,.45,0,.65-.09s.25-.06.38-.09l.55-.13.36-.13c.16-.06.33-.11.48-.18s.22-.12.34-.18.27-.13.4-.21l.3-.21.34-.26a3,3,0,0,0,.25-.25l.29-.29c.08-.09.14-.19.21-.28l.23-.33a2.26,2.26,0,0,0,.17-.35,1.77,1.77,0,0,0,.15-.31c0-.13.09-.26.13-.39a3.18,3.18,0,0,0,.09-.33c0-.13.05-.28.07-.42s0-.23,0-.35,0-.3,0-.45,0-.24,0-.36,0-.33-.06-.5,0-.24-.05-.36-.09-.36-.14-.54,0-.24-.09-.36-.16-.41-.24-.62a2.85,2.85,0,0,0-.12-.31c-.14-.32-.29-.64-.47-1-2.91-5.23-10.17-9.55-16.23-9.64-.39,0-.75,0-1.11,0l-.36,0c-.22,0-.45,0-.65.09s-.25.06-.38.09l-.55.13-.36.13c-.16.06-.33.11-.48.18s-.22.12-.33.17-.28.14-.41.22l-.29.21-.35.26-.25.25-.29.29c-.08.09-.14.19-.21.28l-.23.33-.18.35C69.12,48.57,69.06,48.67,69,48.78Z"/><path class="cls-4" d="M87.76,57.25a1.17,1.17,0,0,1,0,.27,1.25,1.25,0,0,1,0,.21c0,.07,0,.16,0,.23a.59.59,0,0,1,0,.19c0,.08,0,.15-.06.24l-.1.16a.82.82,0,0,1-.09.19c0,.08-.11.14-.13.2a1.58,1.58,0,0,1-.12.15l-.18.17a.44.44,0,0,1-.13.15.64.64,0,0,1-.21.14l-.16.13a2.26,2.26,0,0,0-.22.11L86,59.9l-.25.1a1.42,1.42,0,0,1-.22.07,1.5,1.5,0,0,1-.32.07c-.06,0-.13,0-.2.07l-.36,0c-.08,0-.15,0-.21,0a3.11,3.11,0,0,1-.61,0s0,0,0,0h-.17a11.84,11.84,0,0,1-9-5.33.79.79,0,0,1-.08-.16.09.09,0,0,1,0,0c-.08-.16-.17-.32-.24-.49a.59.59,0,0,0-.06-.16,3.3,3.3,0,0,1-.13-.37l-.07-.18L74,53.22A.76.76,0,0,1,74,53c0-.11,0-.2,0-.3a1.19,1.19,0,0,1,0-.19v-.26a1,1,0,0,0,0-.2,2,2,0,0,1,0-.24.7.7,0,0,1,.06-.19.83.83,0,0,1,.06-.21.6.6,0,0,1,.09-.18c0-.06.06-.15.09-.2a2.31,2.31,0,0,1,.14-.19,1.43,1.43,0,0,0,.11-.15,1.36,1.36,0,0,1,.17-.17l.14-.15a1.91,1.91,0,0,1,.21-.15.36.36,0,0,1,.16-.11l.22-.14.19-.08a2,2,0,0,1,.29-.1l.19-.09.31-.06.24-.06c.11,0,.24,0,.36,0l.19,0a2.66,2.66,0,0,1,.63,0h0a5.57,5.57,0,0,1,.9.08A12,12,0,0,1,87,54.86l.08.12c.11.18.18.37.27.55l.07.19a1.12,1.12,0,0,1,.09.22l0,.13a1,1,0,0,0,.05.2c0,.11.06.21.07.31a.65.65,0,0,0,0,.19,1.42,1.42,0,0,1,0,.29C87.75,57.13,87.76,57.22,87.76,57.25Z"/><path class="cls-5" d="M109.17,37.57c-.39-.06-3.25-.46-3.37-.49L104,36.85a4.17,4.17,0,0,1-2.62,2.55,3.57,3.57,0,0,1-1.07.21c-1,.08-2,.2-3,.36a34,34,0,0,0-18.59,9.61,32.86,32.86,0,0,0-4.2,5.16.09.09,0,0,0,0,0,.79.79,0,0,0,.08.16,11.84,11.84,0,0,0,9,5.33,22.17,22.17,0,0,1,3.85-4.34,23.38,23.38,0,0,1,10-5.13,22,22,0,0,1,3.63-.58A15.08,15.08,0,0,0,108,47.91a14.92,14.92,0,0,0,3.7-3.4,6.37,6.37,0,0,0,.44-.62.61.61,0,0,0,.12-.16,14.56,14.56,0,0,0,2.25-5.22C112.76,38.17,111,37.85,109.17,37.57Z"/><polygon class="cls-6" points="91.19 7.39 107.52 20.11 107.81 8.98 113.76 18.65 122.75 0 119.9 20.51 137 8.85 124.28 25.18 144.93 23.64 125.75 31.42 133.4 36.43 123.89 37.56 135.55 54.66 119.22 41.94 120.76 62.59 112.98 43.4 103.99 62.06 106.84 41.55 97.49 45.09 102.46 36.88 81.81 38.42 101 30.64 82.34 21.65 102.85 24.5 91.19 7.39"/><polygon class="cls-7" points="101.58 17.83 110.09 24.46 109.28 13.7 113.34 23.7 118.03 13.97 116.54 24.66 125.46 18.59 118.83 27.1 129.59 26.3 119.59 30.35 129.31 35.04 118.62 33.55 124.7 42.47 116.19 35.84 116.99 46.6 112.93 36.6 108.25 46.33 109.74 35.63 100.82 41.71 107.45 33.2 96.69 34 106.69 29.95 96.96 25.26 107.65 26.75 101.58 17.83"/><path class="cls-8" d="M97.48,128.62l-.07.11a69.51,69.51,0,0,1-4.54,6.51.34.34,0,0,1-.09.12l-.29.37c-.16.18-.31.36-.47.56l-.42.47c-1,1.13-2.17,2.28-3.1,3.22-.53.53-1.37,1.29-2.42,2.18l-.08.05c-.62.52-1.35,1.09-2.12,1.67l-.42.33c-.65.48-1.33.94-2.06,1.43l-.38.24c-.52.34-1,.66-1.55,1-.26.15-.49.3-.76.47a57,57,0,0,1-6.9,3.29c-.87.36-1.73.65-2.55.91-1.34.45-2.61.82-3.8,1.13-.58.16-1.16.26-1.72.38-1.22.28-2.38.46-3.49.63l-.82.11-.42,0c-1.15.12-2.22.22-3.15.26-1.66.1-3,.09-3.67.09a52.61,52.61,0,0,1-6.65-.52c-.15,0-.36-.06-.56-.1s-.37-.07-.56-.09a49.58,49.58,0,0,1-6.93-1.66h-.06s-.09,0-.11,0c-.61-.21-1.6-.53-2.75-1a7.65,7.65,0,0,1-.74-.3c-.95-.36-1.95-.79-2.89-1.24l-.27-.13c-1.06-.54-1.87-1-2.62-1.37-.21-.1-.43-.23-.64-.35-.89-.49-1.65-1-2.54-1.55l-1.61-1.08-.5-.36c-.3-.2-1-.68-1.74-1.31-.6-.5-1.27-1-2-1.63s-1.3-1.15-1.89-1.74c-.24-.21-.44-.42-.65-.62a1.8,1.8,0,0,1-.18-.2c-1-1-1.86-1.92-2.84-3.1-.51-.64-1.09-1.34-1.78-2.24l-.36-.47a51.89,51.89,0,0,1-3.88-6.19c-.61-1.14-1.17-2.3-1.67-3.43-.31-.69-.6-1.38-.85-2a43.74,43.74,0,0,1-2-6.4c-.16-.65-.34-1.4-.53-2.3a56.11,56.11,0,0,1-.92-7.09,1,1,0,0,1,0-.28c0-.31-.06-.87-.06-1.63a2,2,0,0,1,0-.35c0-.1,0-.21,0-.33,0-.68,0-1.47,0-2.33,0-.53,0-1.08.08-1.65a51.44,51.44,0,0,1,1.1-7.67,2.11,2.11,0,0,0,.11-.4c.11-.48.24-1,.45-1.73a1.56,1.56,0,0,1,.11-.41c.06-.23.14-.5.21-.78s.2-.6.28-.92l.12-.32c.14-.46.3-.94.49-1.44s.3-.81.46-1.26c-3.39,41.53,46.82,64.35,67.72,46.72,20.3-17.15,8.71-42.73,3.88-54.06A14.86,14.86,0,0,0,78.7,77c.39,0,.76,0,1.11,0,.12,0,.24,0,.36-.06a4.76,4.76,0,0,0,.66-.08l.37-.08a5.62,5.62,0,0,0,.55-.15c.13,0,.24-.08.36-.11a4.78,4.78,0,0,1,.48-.19c.12,0,.21-.12.34-.17s.28-.14.39-.21a2.32,2.32,0,0,0,.3-.22,2.19,2.19,0,0,0,.35-.27,1.48,1.48,0,0,0,.25-.25,2.47,2.47,0,0,0,.28-.28l.22-.29,0,0c.07-.09.14-.2.21-.28l2.87-4.94c.61-1,1.21-2,1.8-3.06.91.92,1.78,1.89,2.52,2.77s1.52,1.86,2,2.45l.2.26c.66.85,1.2,1.66,1.86,2.68l.66,1.1.79,1.27A47.47,47.47,0,0,1,100,81.5a.82.82,0,0,1,.06.19c.48,1,.92,2.15,1.35,3.31a1.45,1.45,0,0,1,.09.22c.4,1.1.74,2.2,1.07,3.33l.09.35c.06.15.08.32.14.47s.16.58.25,1,.14.68.23,1.07a.21.21,0,0,1,0,.12c.3,1.35.64,3.14.9,5.23,0,.11,0,.23,0,.34,0,.44.09.91.12,1.37s.08,1,.11,1.54a0,0,0,0,0,0,0c.06,1.29.08,2.6,0,4a55.78,55.78,0,0,1-.75,7.39,41.5,41.5,0,0,1-1,4.64l-.23.77c-.11.4-.24.8-.37,1.22-.19.62-.39,1.27-.61,1.86a8.45,8.45,0,0,1-.35.9c-.22.55-.48,1.21-.76,1.86s-.44,1-.65,1.5a.93.93,0,0,1,0,.1c-.25.52-.53,1.07-.81,1.64C98.47,126.87,98,127.84,97.48,128.62Z"/><path class="cls-9" d="M92.37,61.63l-2.6,4.44-2,3.32L85,74.33l-.23.31-.22.29a2.47,2.47,0,0,1-.28.28,1.48,1.48,0,0,1-.25.25,2.19,2.19,0,0,1-.35.27,2.32,2.32,0,0,1-.3.22c-.11.07-.27.13-.39.21s-.22.12-.34.17a4.78,4.78,0,0,0-.48.19c-.12,0-.23.09-.36.11a5.62,5.62,0,0,1-.55.15l-.37.08a4.76,4.76,0,0,1-.66.08c-.12,0-.24,0-.36.06-.35,0-.72,0-1.11,0a14.86,14.86,0,0,1-2.27-.21s7.08-2.92,7.67-12.61a17.1,17.1,0,0,0,2,.18,7.74,7.74,0,0,0,1.1,0c.13,0,.26,0,.37,0a4.76,4.76,0,0,0,.66-.09l.37-.08.55-.15a2.65,2.65,0,0,0,.37-.12l.47-.18c.12,0,.21-.12.34-.16s.28-.14.41-.24a2.83,2.83,0,0,0,.28-.2,3.54,3.54,0,0,0,.35-.26,2,2,0,0,0,.25-.25,2.07,2.07,0,0,0,.29-.3l.21-.27a2.46,2.46,0,0,0,.22-.34S92.36,61.65,92.37,61.63Z"/><polygon class="cls-10" points="13.42 96.67 15.49 102.31 9.82 109.99 2.07 112.02 0 106.38 5.68 98.7 13.42 96.67"/><polygon class="cls-11" points="36.42 143.54 52.75 121.44 15.49 102.31 9.82 109.99 36.42 143.54"/><polygon class="cls-12" points="46.79 105.19 13.42 96.67 15.49 102.31 52.75 121.44 46.79 105.19"/><polygon class="cls-13" points="2.07 112.02 14.12 149.39 36.42 143.54 9.82 109.99 2.07 112.02"/><polygon class="cls-14" points="0 106.38 2.07 112.02 14.12 149.39 8.16 133.14 0 106.38"/><polygon class="cls-15" points="54.39 153.31 57.33 149.34 52.75 121.44 36.42 143.54 54.39 153.31"/><polygon class="cls-16" points="14.12 149.39 36.42 143.54 54.39 153.31 50.38 154.36 14.12 149.39"/><polygon class="cls-17" points="87.72 132.17 83.78 132.85 79.44 128.24 79.03 122.94 82.97 122.25 87.31 126.87 87.72 132.17"/><polygon class="cls-18" points="54.38 141.63 66.87 154.92 83.78 132.85 79.44 128.24 54.38 141.63"/><polygon class="cls-19" points="78.2 152.95 87.72 132.17 83.78 132.85 66.87 154.92 78.2 152.95"/><polygon class="cls-20" points="79.03 122.94 53.2 126.37 54.38 141.63 79.44 128.24 79.03 122.94"/><polygon class="cls-21" points="82.97 122.25 79.03 122.94 53.2 126.37 64.52 124.4 82.97 122.25"/><polygon class="cls-22" points="45.87 152.21 48.11 154.59 66.87 154.92 54.38 141.63 45.87 152.21"/><polygon class="cls-23" points="53.2 126.37 54.38 141.63 45.87 152.21 45.66 149.46 53.2 126.37"/></g></g></svg>