<svg xmlns="http://www.w3.org/2000/svg" xmlns:xlink="http://www.w3.org/1999/xlink" viewBox="0 0 221.14 135.64"><defs><style>.cls-1{fill:#2c2a67;opacity:0.5;}.cls-2{fill:#fffbf5;}.cls-3{fill:url(#Безымянный_градиент_48);}.cls-4{fill:url(#Безымянный_градиент_48-2);}.cls-5{fill:url(#Безымянный_градиент_48-3);}.cls-6{fill:url(#Безымянный_градиент_48-4);}.cls-7{fill:url(#Безымянный_градиент_48-5);}.cls-8{fill:url(#Безымянный_градиент_48-6);}.cls-9{fill:url(#Безымянный_градиент_48-7);}.cls-10{fill:url(#Безымянный_градиент_48-8);}.cls-11{fill:url(#Безымянный_градиент_48-9);}.cls-12{fill:url(#Безымянный_градиент_48-10);}.cls-13{fill:url(#Безымянный_градиент_48-11);}.cls-14{fill:url(#Безымянный_градиент_48-12);}.cls-15{fill:url(#Безымянный_градиент_48-13);}.cls-16{fill:url(#Безымянный_градиент_48-14);}.cls-17{fill:url(#Безымянный_градиент_48-15);}.cls-18{fill:url(#Безымянный_градиент_48-16);}.cls-19{fill:url(#Безымянный_градиент_48-17);}.cls-20{fill:url(#Безымянный_градиент_54);}.cls-21{fill:url(#Безымянный_градиент_55);}.cls-22{fill:url(#Безымянный_градиент_55-2);}.cls-23{fill:url(#Безымянный_градиент_54-2);}.cls-24{fill:url(#Безымянный_градиент_54-3);}.cls-25{fill:url(#Безымянный_градиент_55-3);}.cls-26{fill:url(#Безымянный_градиент_54-4);}.cls-27{fill:url(#Безымянный_градиент_2);}</style><linearGradient id="Безымянный_градиент_48" x1="141.97" y1="27.77" x2="141.97" y2="104.64" gradientUnits="userSpaceOnUse"><stop offset="0" stop-color="#ff8dab"/><stop offset="1" stop-color="#ed3f65"/></linearGradient><linearGradient id="Безымянный_градиент_48-2" x1="166.56" y1="27.77" x2="166.56" y2="104.64" xlink:href="#Безымянный_градиент_48"/><linearGradient id="Безымянный_градиент_48-3" x1="112.44" y1="27.77" x2="112.44" y2="104.64" xlink:href="#Безымянный_градиент_48"/><linearGradient id="Безымянный_градиент_48-4" x1="83.34" y1="27.77" x2="83.34" y2="104.64" xlink:href="#Безымянный_градиент_48"/><linearGradient id="Безымянный_градиент_48-5" x1="59.48" y1="27.77" x2="59.48" y2="104.64" xlink:href="#Безымянный_градиент_48"/><linearGradient id="Безымянный_градиент_48-6" x1="43.96" y1="27.77" x2="43.96" y2="104.64" xlink:href="#Безымянный_градиент_48"/><linearGradient id="Безымянный_градиент_48-7" x1="182.84" y1="27.77" x2="182.84" y2="104.64" xlink:href="#Безымянный_градиент_48"/><linearGradient id="Безымянный_градиент_48-8" x1="188.26" y1="27.77" x2="188.26" y2="104.64" xlink:href="#Безымянный_градиент_48"/><linearGradient id="Безымянный_градиент_48-9" x1="38.97" y1="27.77" x2="38.97" y2="104.64" xlink:href="#Безымянный_градиент_48"/><linearGradient id="Безымянный_градиент_48-10" x1="182.34" y1="27.77" x2="182.34" y2="104.64" xlink:href="#Безымянный_градиент_48"/><linearGradient id="Безымянный_градиент_48-11" x1="44.75" y1="27.77" x2="44.75" y2="104.64" xlink:href="#Безымянный_градиент_48"/><linearGradient id="Безымянный_градиент_48-12" x1="113.77" y1="89.13" x2="113.44" y2="38.68" xlink:href="#Безымянный_градиент_48"/><linearGradient id="Безымянный_градиент_48-13" x1="60.66" y1="27.77" x2="60.66" y2="104.64" xlink:href="#Безымянный_градиент_48"/><linearGradient id="Безымянный_градиент_48-14" x1="165.93" y1="27.77" x2="165.93" y2="104.64" xlink:href="#Безымянный_градиент_48"/><linearGradient id="Безымянный_градиент_48-15" x1="84.35" y1="27.77" x2="84.35" y2="104.64" xlink:href="#Безымянный_градиент_48"/><linearGradient id="Безымянный_градиент_48-16" x1="141.7" y1="27.77" x2="141.7" y2="104.64" xlink:href="#Безымянный_градиент_48"/><linearGradient id="Безымянный_градиент_48-17" x1="112.97" y1="27.77" x2="112.97" y2="104.64" xlink:href="#Безымянный_градиент_48"/><linearGradient id="Безымянный_градиент_54" x1="176.25" y1="50.49" x2="56.11" y2="41.35" gradientUnits="userSpaceOnUse"><stop offset="0" stop-color="#3796fc"/><stop offset="1" stop-color="#096cc6"/></linearGradient><linearGradient id="Безымянный_градиент_55" x1="6.17" y1="62.26" x2="221.14" y2="62.26" gradientUnits="userSpaceOnUse"><stop offset="0" stop-color="#fec42d"/><stop offset="1" stop-color="#ffeabb"/></linearGradient><linearGradient id="Безымянный_градиент_55-2" x1="88.9" y1="58.75" x2="138.41" y2="58.75" xlink:href="#Безымянный_градиент_55"/><linearGradient id="Безымянный_градиент_54-2" x1="104.92" y1="54.26" x2="122.41" y2="54.26" xlink:href="#Безымянный_градиент_54"/><linearGradient id="Безымянный_градиент_54-3" x1="88.88" y1="69.29" x2="138.42" y2="69.29" xlink:href="#Безымянный_градиент_54"/><linearGradient id="Безымянный_градиент_55-3" x1="103.72" y1="35.85" x2="123.73" y2="35.85" xlink:href="#Безымянный_градиент_55"/><linearGradient id="Безымянный_градиент_54-4" x1="187.87" y1="106.83" x2="42.09" y2="98.4" xlink:href="#Безымянный_градиент_54"/><radialGradient id="Безымянный_градиент_2" cx="161.25" cy="85.77" r="12.36" gradientUnits="userSpaceOnUse"><stop offset="0" stop-color="#3796fc"/><stop offset="0.25" stop-color="#3392f7"/><stop offset="0.56" stop-color="#2687e8"/><stop offset="0.89" stop-color="#1174d0"/><stop offset="1" stop-color="#096cc6"/></radialGradient></defs><g id="Layer_2" data-name="Layer 2"><g id="Слой_2" data-name="Слой 2"><path class="cls-1" d="M214.94,64.47c0-.18,0-.36,0-.54q0-.85-.12-1.71v-.07c-.06-.59-.14-1.18-.23-1.77,0-.17,0-.35-.08-.52-.07-.44-.15-.87-.23-1.3l-.12-.55c-.11-.52-.23-1-.36-1.55l-.06-.22c-.15-.58-.32-1.17-.51-1.75-.05-.17-.11-.34-.16-.5q-.21-.65-.45-1.29l-.21-.55c-.18-.48-.38-1-.58-1.44-.05-.11-.09-.21-.13-.32-.25-.57-.52-1.15-.8-1.72l-.24-.46c-.21-.43-.44-.86-.67-1.29l-.3-.54c-.25-.45-.52-.9-.79-1.34-.07-.13-.14-.26-.22-.38-.35-.57-.71-1.13-1.09-1.68l-.28-.41-.92-1.29-.4-.53c-.31-.42-.64-.84-1-1.26l-.33-.42q-.66-.81-1.38-1.62l-.3-.35c-.39-.43-.78-.86-1.19-1.28l-.48-.51-1.18-1.19-.44-.43c-.54-.53-1.1-1-1.67-1.56l-.29-.26c-.49-.44-1-.87-1.49-1.29l-.57-.49L194.29,29l-.55-.44c-.64-.5-1.29-1-2-1.48l-.21-.15c-.6-.44-1.22-.88-1.85-1.31l-.66-.45c-.52-.35-1-.7-1.58-1l-.66-.43c-.74-.47-1.49-.93-2.26-1.39C143.18-2.45,75.13-3.14,32.56,20.75q-1.2.67-2.37,1.38c-.23.13-.45.27-.67.41L27.8,23.6l-.62.4c-.74.48-1.46,1-2.17,1.44l-.22.16c-.63.44-1.25.88-1.86,1.33l-.6.45c-.51.38-1,.76-1.5,1.15l-.51.39c-.63.51-1.26,1-1.86,1.54l-.32.27c-.5.44-1,.87-1.47,1.31l-.52.48c-.45.41-.88.83-1.3,1.24-.13.13-.27.25-.39.38-.54.54-1.06,1.07-1.57,1.61l-.32.36c-.4.44-.79.87-1.17,1.31l-.43.5q-.57.67-1.11,1.35c-.09.11-.19.22-.27.34-.44.55-.86,1.11-1.27,1.67l-.3.43c-.31.44-.61.87-.9,1.31l-.34.52c-.31.49-.62,1-.91,1.47l-.16.26c-.34.58-.66,1.15-1,1.73-.09.16-.17.32-.25.48-.23.44-.45.88-.66,1.33l-.24.51c-.25.55-.49,1.1-.72,1.66a.54.54,0,0,1,0,.11c-.24.59-.46,1.19-.66,1.78L2,53.38c-.15.44-.29.89-.42,1.34-.05.17-.11.34-.15.51-.17.6-.33,1.2-.47,1.8,0,0,0,.07,0,.1-.13.57-.24,1.13-.35,1.7l-.09.53c-.07.46-.14.92-.2,1.37l-.06.49c-.07.6-.12,1.2-.16,1.81a2.17,2.17,0,0,0,0,.26q0,.78-.06,1.56v.54c0,.47,0,.93,0,1.4,0,.15,0,.3,0,.45,0,.61.07,1.21.13,1.81,0,.12,0,.24.05.36.05.49.12,1,.19,1.46l.09.56c.08.47.17.95.27,1.42,0,.14,0,.27.08.4.13.6.28,1.2.44,1.79l.12.42c.13.47.28.94.43,1.41.06.18.11.36.18.54.16.49.34,1,.53,1.48l.12.32c.23.59.48,1.18.74,1.76l.22.48c-.05-.11-.11-.22-.16-.34l.63,1.41.56,1.24.47,1c.24.55.49,1.09.73,1.63.54,1.19,1.06,2.35,1.52,3.38,0,.09.09.17.13.26s.09.2.14.3l.17.36c-.15-.33-.32-.65-.46-1l.47,1,.33.69.09.18v0c.16.31.31.61.46.88s.26.48.4.73c.52.91,1.1,1.93,1.66,2.78.1.16.2.32.3.46.6.89,1.4,2.07,2.06,2.91l.69.85c1,1.23,2.17,2.61,3.13,3.67.77.84,1.69,1.76,2.65,2.67,1.14,1.08,2.34,2.14,3.41,3.05l.35.29a85,85,0,0,0,6.87,5.1l.71.46c1.52,1,3.34,2.09,5.14,3.13,1.16.67,2.3,1.3,3.34,1.81l.27.13c2.15,1.07,4.94,2.41,7.09,3.36l.92.39c1.71.72,3.75,1.49,5.34,2.11,2.23.85,5.24,1.88,7.53,2.51,1.78.5,4,1.16,6,1.67l1,.25L68,131l1.44.35c1.93.46,4.07.94,5.8,1.24h0c4.48.76,10.47,1.64,15,2.2h0c2.36.29,5.53.53,7.91.61h0c2.34.08,5.45.23,7.79.25,2,0,4.49,0,6.63-.06h.58l.58,0h0c2.91-.1,5.57-.27,7.85-.45,1.06-.08,2-.17,2.9-.25,2.26-.22,3.89-.42,4.64-.52h.1c1.23-.16,2.68-.36,4.35-.61s3.79-.6,6-1c1.4-.27,2.89-.57,4.47-.92l.69-.16.38-.09c2-.45,4.26-1,6.05-1.52.55-.15,1.15-.32,1.77-.51,1.78-.52,3.74-1.15,5.31-1.64,2-.61,4.55-1.58,6.47-2.34l.74-.3c1.87-.76,4.1-1.76,5.85-2.53l.13,0c2.2-1,5-2.5,7.13-3.66,2.81-1.68,6.54-4,9.19-5.87l.2-.15a77.25,77.25,0,0,0,6.82-5.63c.06-.06.12-.11.16-.16,1.56-1.55,3.55-3.66,5-5.33l.13-.15c.51-.57,1.09-1.32,1.61-2l.62-.83.23-.31.68-1c.51-.76,1-1.57,1.49-2.33l.51-.84c.19-.32.38-.68.58-1s.29-.54.43-.81l.13-.24.23-.47.21-.44.41-.83.06-.13,4-8.68c0,.11-.1.21-.14.31.06-.14.13-.29.2-.43.26-.57.5-1.15.73-1.72l.14-.35c.18-.47.35-.94.52-1.41l.18-.55c.15-.44.28-.87.41-1.3l.15-.49c.16-.58.31-1.17.45-1.75,0-.09,0-.18.05-.27.11-.5.21-1,.31-1.51l.09-.55c.07-.43.13-.87.19-1.3,0-.17.05-.35.07-.52.06-.59.12-1.18.16-1.77V68q.06-.83.06-1.65c0-.18,0-.36,0-.54C215,65.34,215,64.9,214.94,64.47ZM200.55,48.88l.16.26-.19-.3-.12-.18Zm5.51,30c.17-.42.34-.84.48-1.26-.15.43-.31.86-.48,1.28-.05.14-.11.27-.16.41C206,79.18,206,79,206.06,78.9ZM98.26,35.44ZM8.83,78.35c.05.11.08.23.13.34,0-.11-.09-.21-.13-.32-.18-.47-.35-.93-.52-1.4C8.47,77.43,8.65,77.89,8.83,78.35ZM6.53,61.56h0l0-.24c0,.07,0,.14,0,.21h0c0,.49-.11,1-.14,1.46C6.43,62.51,6.48,62,6.53,61.56Z"/><path class="cls-2" d="M213,64.6c0-.15,0-.29,0-.44,0-.56-.07-1.13-.12-1.69,0-.1,0-.2,0-.3-.05-.47-.11-.94-.19-1.42,0-.16-.05-.33-.08-.5-.08-.46-.16-.92-.26-1.38,0-.11,0-.22-.07-.33-.12-.56-.26-1.12-.41-1.68l-.12-.42c-.13-.44-.26-.87-.4-1.31-.05-.16-.11-.32-.16-.48-.19-.55-.39-1.09-.6-1.64,0,0,0,0,0,0-.22-.56-.46-1.11-.71-1.67-.07-.15-.14-.31-.22-.47-.2-.42-.4-.85-.62-1.27l-.21-.43c-.29-.55-.59-1.09-.9-1.63-.06-.1-.12-.19-.17-.29-.27-.45-.55-.9-.83-1.35l-.2-.3a1.74,1.74,0,0,0-.11-.18q-.44-.66-.9-1.32l-.21-.31c-.38-.53-.78-1-1.19-1.58l-.31-.4-1-1.22-.38-.45c-.45-.51-.9-1-1.37-1.53l0,0c-.47-.51-1-1-1.48-1.53l-.43-.43-1.23-1.17-.41-.38c-.54-.5-1.09-1-1.66-1.48l-.32-.26c-.48-.41-1-.81-1.47-1.21l-.54-.43-1.54-1.18-.35-.26c-.64-.47-1.29-.93-2-1.39l-.51-.35-1.6-1.06-.6-.39c-.71-.45-1.43-.9-2.16-1.34C148.53,3.94,89.8,2.3,50.27,21.22h0q-3,1.44-5.9,3.05c-.77.43-1.53.87-2.27,1.32l-.61.37c-.6.36-1.18.73-1.76,1.1l-.45.29c-.7.45-1.39.91-2.06,1.38l-.46.32L35.17,30.2l-.53.39L32.78,32l-.13.11L31,33.52l-.48.42c-.47.42-.93.83-1.38,1.25l-.31.29c-.53.5-1,1-1.56,1.52l-.37.38c-.4.41-.78.82-1.16,1.24-.13.13-.26.27-.38.41-.47.52-.92,1-1.36,1.58-.06.06-.11.13-.17.2q-.57.7-1.11,1.41l-.35.46c-.34.46-.68.92-1,1.38l-.18.26c-.37.54-.72,1.08-1.06,1.63l-.26.43c-.26.43-.52.87-.76,1.3-.08.15-.17.29-.24.43-.3.55-.59,1.11-.87,1.66,0,.09-.08.19-.13.28-.23.48-.44,1-.65,1.43L17,52c-.21.5-.41,1-.6,1.51,0,.07-.05.13-.07.19-.21.57-.39,1.14-.57,1.7,0,.16-.09.31-.13.46-.13.46-.26.91-.37,1.36,0,.14-.08.28-.11.42-.13.57-.26,1.14-.36,1.71l-.06.34c-.08.47-.16,1-.22,1.42l-.06.49c-.07.54-.12,1.09-.16,1.64a.28.28,0,0,1,0,.09c0,.58-.05,1.16-.06,1.73v.48c0,.46,0,.93,0,1.39,0,.13,0,.26,0,.39,0,.58.07,1.15.13,1.72,0,.13,0,.26.05.38,0,.47.12.93.19,1.4,0,.16,0,.31.08.47.09.58.2,1.16.33,1.73a.08.08,0,0,1,0,0c.13.57.28,1.12.43,1.68,0,.16.09.32.14.48.13.47.28.94.44,1.4l.11.35c.2.57.41,1.13.64,1.69.05.14.11.27.16.41.19.45.39.9.59,1.34l.21.46.09.17.22.37.6,1,.36.56.63.93c.13.19.25.37.39.56l.7,1c.13.16.24.32.37.49.32.42.66.85,1,1.27.05.05.09.11.14.17.39.47.79,1,1.21,1.42l.39.43c.29.33.59.65.9,1l.49.52.87.89.54.53.93.88.53.5,1.12,1,.41.35c.52.45,1.05.9,1.59,1.34l.36.29c.43.34.86.68,1.31,1l.6.46,1.14.84.69.49,1.16.8.69.47,1.29.85.62.4c.65.41,1.31.81,2,1.21C69.9,120.18,112.43,125,148.83,117.28a125.69,125.69,0,0,0,35.33-12.86c.72-.4,1.42-.81,2.11-1.22l.64-.39,1.41-.87.7-.44,1.35-.9.61-.4c.62-.42,1.23-.85,1.83-1.28,0,0,0,0,0,0,.61-.44,1.2-.88,1.78-1.33l.54-.42,1.18-1,.58-.48,1.13-1,.5-.44c.5-.45,1-.9,1.48-1.35l0,0,1.45-1.42c.14-.15.28-.3.43-.44l1-1,.46-.51c.31-.34.6-.68.89-1,.14-.15.27-.31.4-.47.4-.46.78-.93,1.15-1.41l.06-.06,1.12-1.5.32-.46c.25-.35.5-.71.73-1.06.12-.18.24-.36.35-.54.23-.35.45-.7.67-1.06.08-.14.17-.28.26-.42a.54.54,0,0,1,.05-.11c.08-.16.15-.32.22-.47.2-.43.39-.85.57-1.27.06-.15.13-.29.18-.44.23-.55.44-1.1.64-1.65,0-.1.07-.2.1-.29.16-.47.31-.94.46-1.41.05-.16.1-.33.14-.49.14-.46.26-.92.37-1.38,0-.11.06-.22.08-.33.14-.56.25-1.12.35-1.68,0-.14.05-.28.08-.42.07-.44.14-.88.2-1.32l.06-.48c.06-.55.12-1.11.15-1.66a.06.06,0,0,0,0,0c0-.57.05-1.14.06-1.7,0-.16,0-.33,0-.49C213.05,65.48,213,65,213,64.6Zm-74.6-4.54c0,.2,0,.39,0,.59v1c0,1.43,0,2.91,0,4.14v.09c0,.12,0,.24,0,.36s0,.22,0,.33,0,.24-.05.36,0,.22-.05.33,0,.24-.07.36-.05.22-.08.33-.07.24-.11.36-.06.22-.1.33-.09.23-.14.35-.08.22-.13.33l-.17.35-.15.32-.2.34a3.37,3.37,0,0,1-.19.32c-.07.12-.15.23-.23.35s-.13.2-.21.3-.17.23-.26.35-.15.2-.24.3l-.29.34c-.09.09-.17.19-.26.29l-.33.34a3.7,3.7,0,0,0-.28.28l-.37.33-.3.27-.42.34-.31.25-.47.34-.31.23-.56.36-.28.19-.9.53c-9.81,5.5-25.48,5.34-35-.36-.3-.17-.59-.35-.86-.54l-.28-.19-.52-.36-.31-.24c-.15-.11-.3-.22-.44-.34l-.3-.25-.39-.34c-.1-.09-.18-.18-.28-.26l-.35-.34-.26-.28-.32-.34-.24-.29-.28-.34-.22-.3-.25-.34-.19-.31-.22-.34L90,69.94l-.18-.34c0-.11-.1-.21-.14-.32s-.11-.23-.16-.35-.08-.21-.11-.32-.09-.23-.13-.35l-.09-.32c0-.12-.07-.24-.09-.36s0-.21-.07-.32S89,67,89,66.9s0-.22,0-.32,0-.24,0-.36,0-.22,0-.33,0-.17,0-.26V58.46c0-.12,0-.24,0-.36s0-.22,0-.34,0-.24,0-.36,0-.22.05-.33,0-.24.07-.36,0-.22.08-.33.07-.23.11-.35.06-.22.1-.33.09-.24.14-.36.08-.21.13-.32.11-.23.17-.35a3.18,3.18,0,0,1,.16-.32l.19-.35c.07-.11.12-.21.19-.31s.15-.24.23-.35l.21-.31.26-.34c.08-.1.15-.2.24-.3a3.17,3.17,0,0,1,.3-.34,3.47,3.47,0,0,1,.25-.29l.34-.34.27-.28.38-.34.29-.26.42-.34.31-.25.47-.34.31-.23.56-.36.28-.19c.29-.18.59-.36.9-.53q.91-.51,1.89-1l.68-.28c.44-.19.87-.38,1.33-.55l.85-.28c.42-.14.83-.29,1.26-.41l1-.25,1.24-.32,1-.2c.41-.08.83-.17,1.25-.24l1-.14c.29,0,.58-.09.88-.12l-.2-.11a9.33,9.33,0,0,1-.86-.58l-.29-.22-.08-.07c-.12-.09-.22-.19-.33-.28l-.24-.23-.31-.3a7.73,7.73,0,0,1-.54-.62l0,0a8.79,8.79,0,0,1-.78-1.12l-.1-.17,0-.06a.41.41,0,0,0,0-.09,1.14,1.14,0,0,0-.1-.19,1.86,1.86,0,0,0-.1-.2l0-.08,0-.1c-.15-.32-.27-.61-.36-.85,0-.07,0-.15-.08-.22l-.13-.43-.1-.4a6.39,6.39,0,0,1-.17-.87,9.31,9.31,0,0,1-.11-1.52c0-.24,0-.56,0-.8l0-.2a4.49,4.49,0,0,1,.06-.48c0-.12,0-.23,0-.35l0-.15c0-.13,0-.26.08-.38l.11-.4,0-.11c.06-.2.13-.39.19-.57a9.88,9.88,0,0,1,.56-1.24c.2-.38.38-.66.48-.82l.41-.56.06-.08a10.17,10.17,0,0,1,.82-.93l.06-.05c.29-.28.57-.52.84-.74l.1-.07.09-.07a9.51,9.51,0,0,1,1-.68l0,0a5.12,5.12,0,0,1,.52-.27l.22-.1.45-.2h0l.35-.13.58-.18.21-.06.32-.08.37-.08.2,0c.23,0,.46-.07.71-.09l.46,0H114l.4,0a5.42,5.42,0,0,1,.58.06l.26,0,.72.14.17,0,.12,0s0,0,0,0c.17,0,.37.1.61.18l.08,0,.27.1a8.81,8.81,0,0,1,1.62.78l.06,0,.37.25.31.21.24.18a10.09,10.09,0,0,1,.9.77l.4.42,0,.05.07.09c.11.12.21.24.32.38s.21.27.31.42l0,.06.17.25a9.67,9.67,0,0,1,.9,1.73,1.29,1.29,0,0,1,.07.21c.07.17.13.34.18.5s.09.29.13.42a.75.75,0,0,0,0,.16c0,.2.09.4.13.61a8.16,8.16,0,0,1,.14,1c0,.37,0,.67,0,.85a10.52,10.52,0,0,1-.11,1.51,7.57,7.57,0,0,1-.18.86l-.1.41a1,1,0,0,0-.06.2h0a6.35,6.35,0,0,1-.35,1,10.49,10.49,0,0,1-.5,1l-.12.19s0,0,0,0a7.19,7.19,0,0,1-.59.86s0,0,0,0a4.94,4.94,0,0,1-.34.41l-.15.18-.34.36-.13.12-.15.15c-.12.12-.24.22-.36.32l0,.05a6.83,6.83,0,0,1-.67.5l-.17.12c-.24.16-.48.31-.69.43h0l.52.07c.48.06,1,.14,1.45.22.23,0,.46.07.69.12.61.11,1.21.24,1.81.38l.24.06c.68.17,1.34.35,2,.56l.57.19c.46.15.92.31,1.36.48l.65.26c.43.17.85.36,1.27.56l.55.26c.58.29,1.15.59,1.7.91l.85.54.27.19.54.37.29.23.45.34.3.26.39.34a3.45,3.45,0,0,1,.28.26l.35.34.27.28c.1.11.21.22.31.34l.24.29c.1.11.19.22.28.34l.22.3c.08.11.17.22.25.34s.13.2.19.3l.22.35c.06.1.11.21.16.31l.19.35c.05.1.1.21.14.31s.11.24.16.36.08.21.11.31.09.24.13.36l.09.32c0,.12.07.24.09.35s.05.22.07.33.05.23.06.35,0,.22,0,.33,0,.24,0,.35,0,.22,0,.33,0,.18,0,.26Z"/><path class="cls-2" d="M130.33,33.23a94.2,94.2,0,0,0-13.18-1.42L118,10.68a153.78,153.78,0,0,1,25.34,2.79Z"/><path class="cls-3" d="M138.86,35.23a83.44,83.44,0,0,0-8.53-2l13-19.76q5.24,1,10.28,2.43Z"/><path class="cls-4" d="M175.15,24.2q2.06,1.05,4,2.19c1.33.77,2.61,1.55,3.85,2.36L156.61,43.31c-1-.68-2.05-1.34-3.16-2s-2.21-1.22-3.36-1.79Z"/><path class="cls-5" d="M117.15,31.81c-3.06-.11-6.12-.09-9.17.08l-1.07-21.16c3.68-.14,7.38-.16,11.07-.05Z"/><path class="cls-6" d="M95,33.52a80.24,80.24,0,0,0-8.38,2.13l-15-19.35q5-1.44,10.15-2.52Z"/><path class="cls-2" d="M150.09,39.54a69.32,69.32,0,0,0-11.23-4.31L153.6,15.9a113.88,113.88,0,0,1,21.55,8.3Z"/><path class="cls-2" d="M86.64,35.65A65.86,65.86,0,0,0,75.92,40L50.71,24.68a110.07,110.07,0,0,1,21-8.38Z"/><path class="cls-7" d="M73.5,41.33c-1.38.8-2.67,1.64-3.87,2.5L43,29.25q2.18-1.47,4.58-2.86,1.52-.88,3.09-1.71L75.92,40C75.1,40.43,74.29,40.88,73.5,41.33Z"/><path class="cls-2" d="M197.39,41.21l-33.31,8.6a38.68,38.68,0,0,0-7.47-6.5L183,28.75A63.62,63.62,0,0,1,197.39,41.21Z"/><path class="cls-8" d="M62.69,50.15a26.5,26.5,0,0,0-3.29,4.91L25.23,47.47a43.83,43.83,0,0,1,4.05-5.92Z"/><path class="cls-2" d="M69.63,43.83a36.63,36.63,0,0,0-6.94,6.32l-33.41-8.6A61.76,61.76,0,0,1,43,29.25Z"/><path class="cls-9" d="M201.61,47.16l-34.07,7.59a27.33,27.33,0,0,0-3.46-4.94l33.31-8.6A44.73,44.73,0,0,1,201.61,47.16Z"/><path class="cls-2" d="M170,62.38a21,21,0,0,0-2.47-7.63l34.07-7.59a35,35,0,0,1,4.89,14.67Z"/><path class="cls-2" d="M59.4,55.06a20.71,20.71,0,0,0-2.22,7.3l-36.49-.55a34.44,34.44,0,0,1,4.54-14.34Z"/><path class="cls-10" d="M169.89,67.69a18.91,18.91,0,0,0,.12-5.31l36.49-.55a31.23,31.23,0,0,1-.08,6.41Z"/><path class="cls-11" d="M57.18,62.36a19.25,19.25,0,0,0,.17,5.25l-36.53.56a31.47,31.47,0,0,1-.13-6.36Z"/><path class="cls-2" d="M167.1,75.2a21.29,21.29,0,0,0,2.79-7.51l36.53.55a35.23,35.23,0,0,1-5.19,14.54Z"/><path class="cls-2" d="M57.35,67.61A21.52,21.52,0,0,0,60,74.8L26,82.38a35.61,35.61,0,0,1-5.13-14.21Z"/><path class="cls-12" d="M163.45,80.06a28.19,28.19,0,0,0,3.65-4.86l34.13,7.58a48,48,0,0,1-4.33,5.89Z"/><path class="cls-13" d="M26,82.38,60,74.8a28.31,28.31,0,0,0,3.56,4.84l-33.34,8.6A46.36,46.36,0,0,1,26,82.38Z"/><path class="cls-2" d="M153.45,41.33c1.11.64,2.16,1.3,3.16,2a38.68,38.68,0,0,1,7.47,6.5,27.33,27.33,0,0,1,3.46,4.94A21,21,0,0,1,170,62.38a18.91,18.91,0,0,1-.12,5.31,21.29,21.29,0,0,1-2.79,7.51,28.19,28.19,0,0,1-3.65,4.86,40,40,0,0,1-7.51,6.21c-.71.47-1.46.93-2.23,1.37-1.39.82-2.85,1.58-4.35,2.29a70.14,70.14,0,0,1-10.9,4A85.47,85.47,0,0,1,130,95.87a95.38,95.38,0,0,1-12.59,1.3c-3,.11-6.07.08-9.08-.09A92.41,92.41,0,0,1,95.9,95.56a82.94,82.94,0,0,1-8.36-2,68.62,68.62,0,0,1-10.47-4.1c-1.13-.56-2.23-1.15-3.31-1.77s-2.13-1.28-3.11-1.94a39.25,39.25,0,0,1-7.09-6.06A28.31,28.31,0,0,1,60,74.8a21.52,21.52,0,0,1-2.65-7.19,19.25,19.25,0,0,1-.17-5.25,20.92,20.92,0,0,1,2.22-7.3,26.5,26.5,0,0,1,3.29-4.91,36.63,36.63,0,0,1,6.94-6.32c1.2-.86,2.49-1.7,3.87-2.5.79-.45,1.6-.9,2.42-1.32a65.86,65.86,0,0,1,10.72-4.36A80.24,80.24,0,0,1,95,33.52a93.48,93.48,0,0,1,13-1.63c3-.17,6.11-.19,9.17-.08a94.2,94.2,0,0,1,13.18,1.42,83.44,83.44,0,0,1,8.53,2,69.32,69.32,0,0,1,11.23,4.31C151.24,40.11,152.36,40.7,153.45,41.33Z"/><path class="cls-14" d="M148.74,44.07c1,.57,1.9,1.15,2.78,1.75a33.81,33.81,0,0,1,6.58,5.73,23.7,23.7,0,0,1,3.05,4.35,18.66,18.66,0,0,1,2.19,6.73,17.07,17.07,0,0,1-.11,4.68,19.08,19.08,0,0,1-2.46,6.62,24.59,24.59,0,0,1-3.22,4.28,34.86,34.86,0,0,1-6.62,5.48c-.63.41-1.29.82-2,1.21q-1.86,1.08-3.84,2a62,62,0,0,1-9.61,3.56,75.06,75.06,0,0,1-7.47,1.68A83.15,83.15,0,0,1,117,93.3c-2.67.1-5.35.07-8-.08A80.53,80.53,0,0,1,98,91.88a72.74,72.74,0,0,1-7.37-1.81,60.22,60.22,0,0,1-9.23-3.61c-1-.49-2-1-2.92-1.56s-1.88-1.13-2.75-1.71a34.92,34.92,0,0,1-6.25-5.35,24.79,24.79,0,0,1-3.14-4.26A18.92,18.92,0,0,1,64,67.24a17.12,17.12,0,0,1-.15-4.63,18.43,18.43,0,0,1,2-6.43,23.07,23.07,0,0,1,2.9-4.33,32.62,32.62,0,0,1,6.11-5.58c1.07-.76,2.21-1.49,3.42-2.2.7-.4,1.41-.79,2.13-1.16a59.42,59.42,0,0,1,9.46-3.85,69.25,69.25,0,0,1,7.38-1.87,82.45,82.45,0,0,1,11.43-1.44c2.68-.15,5.39-.17,8.08-.07a84.11,84.11,0,0,1,11.62,1.25,75.56,75.56,0,0,1,7.52,1.76,62.12,62.12,0,0,1,9.9,3.8C146.79,43,147.78,43.52,148.74,44.07Z"/><path class="cls-2" d="M63.56,79.64a39.25,39.25,0,0,0,7.09,6.06l-26.4,14.56a64.35,64.35,0,0,1-14-12Z"/><path class="cls-2" d="M155.94,86.27a40,40,0,0,0,7.51-6.21l33.45,8.61a64.68,64.68,0,0,1-14.41,12.16Z"/><path class="cls-15" d="M73.76,87.64c1.08.62,2.18,1.21,3.31,1.77L52,104.75c-1.35-.69-2.68-1.42-4-2.16s-2.59-1.54-3.8-2.33L70.65,85.7C71.63,86.36,72.67,87,73.76,87.64Z"/><path class="cls-16" d="M182.49,100.83c-.94.59-1.9,1.18-2.89,1.76-1.62.94-3.29,1.83-5,2.69L149.36,89.93c1.5-.71,3-1.47,4.35-2.29.77-.44,1.52-.9,2.23-1.37Z"/><path class="cls-17" d="M87.54,93.51a82.94,82.94,0,0,0,8.36,2l-13,19.75q-5.16-1.05-10.12-2.47Z"/><path class="cls-2" d="M77.07,89.41a68.62,68.62,0,0,0,10.47,4.1L72.8,112.84A112.71,112.71,0,0,1,52,104.75Z"/><path class="cls-2" d="M138.46,94a70.14,70.14,0,0,0,10.9-4l25.25,15.35a114.06,114.06,0,0,1-21.2,8Z"/><path class="cls-2" d="M117.4,97.17A95.06,95.06,0,0,0,130,95.87l13.22,19.77a154.27,154.27,0,0,1-24.73,2.66Z"/><path class="cls-18" d="M130,95.87A85.47,85.47,0,0,0,138.46,94l14.95,19.32q-5,1.36-10.21,2.36Z"/><path class="cls-2" d="M95.9,95.56a92.41,92.41,0,0,0,12.42,1.52l-.84,21.16a154.45,154.45,0,0,1-24.56-2.93Z"/><path class="cls-19" d="M108.32,97.08c3,.17,6.05.2,9.08.09l1.07,21.13c-3.66.11-7.33.09-11-.06Z"/><path class="cls-2" d="M108,31.89a93.82,93.82,0,0,0-13,1.63L81.82,13.78a153.62,153.62,0,0,1,25.09-3Z"/><path class="cls-20" d="M38,23.24c-.71.47-1.4.93-2.08,1.4l-.48.34c-.54.38-1.07.76-1.59,1.15l-.54.4c-.64.49-1.28,1-1.89,1.47l-.14.11c-.57.47-1.13.93-1.67,1.4l-.49.43c-.48.42-.95.85-1.41,1.28l-.32.28c-.54.52-1.07,1-1.58,1.55l-.38.4c-.4.41-.8.83-1.18,1.25l-.39.42c-.47.53-.94,1.07-1.38,1.6l-.17.21q-.59.72-1.14,1.44l-.35.46c-.35.47-.69.94-1,1.42l-.18.25c-.37.55-.73,1.11-1.08,1.66-.09.15-.18.29-.26.44-.27.44-.53.88-.78,1.33-.08.14-.17.29-.24.43-.31.56-.61,1.13-.88,1.69l-.14.29c-.23.48-.45,1-.66,1.45l-.21.48c-.21.52-.41,1-.6,1.55,0,.06-.05.13-.08.19-.21.58-.39,1.16-.57,1.73-.05.16-.09.32-.14.47-.14.46-.26.92-.38,1.38,0,.15-.07.29-.11.43-.13.58-.26,1.16-.37,1.74,0,.11,0,.23-.05.35-.09.48-.16,1-.23,1.44l-.06.49c0,.07,0,.14,0,.21h0c-.05.49-.11,1-.14,1.46,0,0,0,.07,0,.1,0,.59-.06,1.18-.07,1.76v.49q0,.7,0,1.41c0,.13,0,.27,0,.4,0,.59.07,1.17.13,1.75,0,.13,0,.26.05.39,0,.47.12.94.19,1.42,0,.16.05.32.08.49.1.58.21,1.17.34,1.75v0c.13.58.28,1.15.44,1.71,0,.17.09.33.14.49.14.48.29,1,.45,1.42,0,.12.07.24.11.36.16.46.34.92.52,1.38.05.12.08.23.13.34s.11.28.17.41c.19.46.39.92.6,1.37l.21.47c.27.57.56,1.14.86,1.71l.14.25c.22.41.45.83.69,1.23a1.09,1.09,0,0,0,.08.15l-.08-.17c-.08-.16-.14-.31-.21-.46-.21-.45-.41-.9-.59-1.35-.06-.13-.12-.27-.17-.4-.23-.56-.44-1.13-.63-1.69l-.12-.35c-.16-.47-.3-.93-.44-1.4-.05-.16-.09-.32-.14-.48-.15-.56-.3-1.12-.42-1.68v0c-.13-.58-.24-1.15-.34-1.73,0-.16-.05-.32-.08-.48-.07-.46-.13-.93-.19-1.39,0-.13,0-.25,0-.38-.06-.57-.11-1.15-.14-1.72,0-.13,0-.26,0-.39,0-.47,0-.93,0-1.39V65c0-.58,0-1.15.07-1.73v-.1c0-.54.1-1.09.16-1.64l.06-.48c.07-.48.14-1,.22-1.42l.06-.34q.16-.86.36-1.71c0-.14.08-.28.11-.42.11-.45.24-.91.37-1.36,0-.15.09-.31.14-.46.17-.57.36-1.13.56-1.7a1.54,1.54,0,0,1,.08-.19c.18-.51.38-1,.59-1.52l.21-.47c.2-.48.42-1,.65-1.43,0-.09.08-.19.13-.28.27-.56.56-1.11.86-1.66l.24-.43c.24-.44.5-.87.76-1.31l.26-.42c.34-.55.7-1.09,1.07-1.63.05-.09.12-.17.18-.26.32-.46.65-.93,1-1.39l.35-.45c.36-.47.73-.95,1.12-1.41L24,40.6c.44-.53.89-1.05,1.36-1.57l.38-.42,1.16-1.23c.13-.13.25-.26.38-.38.5-.52,1-1,1.55-1.53l.31-.28c.45-.42.91-.84,1.38-1.25l.49-.42c.53-.47,1.08-.93,1.64-1.38l.13-.11c.61-.49,1.23-1,1.87-1.45l.52-.39c.52-.38,1-.76,1.57-1.13l.47-.33c.67-.46,1.35-.92,2-1.38l.45-.29c.58-.36,1.16-.73,1.76-1.09l.61-.37c.75-.45,1.5-.89,2.27-1.32C83.72,2.18,146.66,2.82,184.93,25.7c.74.44,1.45.88,2.16,1.33l.6.39,1.6,1.06.52.35c.66.46,1.31.93,1.95,1.39l.35.27c.53.39,1,.78,1.54,1.18l.54.42,1.47,1.21.32.27c.57.49,1.12,1,1.66,1.47l.42.39c.41.38.82.77,1.22,1.17l.44.43c.5.5,1,1,1.48,1.53h0c.47.51.93,1,1.37,1.54l.38.45c.34.4.68.81,1,1.22l.32.4c.41.52.8,1,1.18,1.58l.21.3c.31.44.61.88.9,1.33l.15.21a2.26,2.26,0,0,0,.16.26c.29.45.56.91.83,1.36a2.75,2.75,0,0,1,.17.29c.32.54.61,1.08.9,1.63l.21.42c.22.43.43.85.63,1.28l.21.47c.25.55.49,1.11.71,1.66v0c.22.54.41,1.09.6,1.64.06.16.11.32.16.48.14.43.28.87.4,1.31l.12.42c.15.56.29,1.11.42,1.67l.06.33c.1.46.19.93.27,1.39,0,.17,0,.33.08.5.07.47.13,1,.18,1.42,0,.1,0,.2,0,.3.06.56.1,1.12.13,1.69,0,.14,0,.29,0,.44,0,.43,0,.87,0,1.31v.48c0,.57,0,1.14-.07,1.7v0c0,.55-.09,1.1-.16,1.65l-.06.49c-.06.44-.13.88-.2,1.32,0,.14-.05.28-.07.42-.11.56-.22,1.12-.35,1.68l-.09.33c-.11.46-.23.92-.36,1.37l-.15.5c-.14.47-.29.94-.46,1.4l-.09.29c-.2.56-.42,1.11-.64,1.66l-.19.43c-.18.43-.37.85-.56,1.27l-.23.48a.47.47,0,0,1-.05.1.21.21,0,0,1,0-.06c.28-.48.55-1,.82-1.44a.41.41,0,0,1,0-.09c.3-.56.58-1.11.85-1.67l.22-.48c.2-.43.39-.86.58-1.3.06-.14.13-.29.19-.44s.1-.28.16-.43c.17-.42.33-.83.48-1.25,0-.1.07-.2.1-.3.17-.47.32-.95.47-1.42l.15-.51c.13-.46.26-.93.37-1.4l.09-.33c.13-.57.25-1.14.35-1.71,0-.15,0-.29.08-.43.07-.45.14-.9.2-1.34l.06-.5c.07-.56.12-1.12.16-1.68v0c0-.58.05-1.15.06-1.73v-.49c0-.45,0-.89,0-1.34,0-.15,0-.3,0-.45,0-.57-.07-1.14-.13-1.72l0-.3c-.06-.48-.12-1-.2-1.44,0-.17,0-.34-.08-.51-.08-.47-.17-.94-.27-1.42L214,55c-.13-.57-.27-1.13-.42-1.7,0-.15-.09-.29-.13-.44-.13-.44-.26-.88-.4-1.32-.06-.17-.11-.33-.17-.49-.19-.56-.39-1.12-.61-1.68v0c-.22-.56-.47-1.13-.72-1.69-.07-.16-.14-.32-.22-.48-.2-.43-.41-.87-.63-1.3l-.22-.43c-.29-.56-.59-1.11-.91-1.66l-.18-.29q-.4-.69-.84-1.38l-.32-.49c-.29-.45-.6-.9-.91-1.34-.08-.11-.14-.21-.22-.31-.38-.54-.79-1.08-1.2-1.61l-.33-.41c-.33-.41-.66-.83-1-1.24l-.39-.46c-.45-.52-.91-1-1.39-1.56l0,0c-.48-.52-1-1-1.5-1.55l-.45-.45-1.24-1.18-.42-.39c-.55-.51-1.12-1-1.7-1.5l-.32-.27q-.74-.63-1.5-1.23l-.54-.44-1.57-1.2-.36-.27c-.65-.47-1.31-.94-2-1.41l-.53-.36L189,23.31l-.61-.39c-.72-.46-1.45-.92-2.2-1.36C147.25-1.72,83.2-2.37,43.14,20.11c-.79.44-1.55.89-2.31,1.34l-.63.38c-.6.37-1.2.74-1.78,1.12Z"/><path class="cls-21" d="M10.41,79.43l.28.55c.23.44.46.87.7,1.3.07.14.15.28.23.41.32.56.65,1.12,1,1.68l.24.37c.28.44.57.87.86,1.31l.38.54L15,86.78l.37.49c.41.54.84,1.09,1.28,1.63l.09.1c.42.51.85,1,1.29,1.51l.45.49c.35.39.7.77,1.06,1.15l.48.5c.43.44.87.88,1.31,1.31l.28.27c.53.52,1.09,1,1.65,1.54l.48.42L25,97.31l.59.5L27,98.93l.5.39c.63.49,1.28,1,1.94,1.47l.4.28c.54.39,1.09.78,1.65,1.16l.67.46c.51.35,1,.68,1.54,1l.66.43c.73.46,1.47.92,2.23,1.37,41.38,24.74,109.43,25.43,152,1.54h0c.81-.46,1.6-.92,2.38-1.39l.68-.41c.59-.35,1.17-.72,1.74-1.08l.6-.39c.74-.47,1.47-1,2.18-1.45l.32-.22c.6-.42,1.19-.85,1.78-1.28l.6-.45c.53-.39,1-.79,1.56-1.19l.45-.36c.64-.51,1.26-1,1.87-1.54l.4-.35,1.41-1.26c.18-.15.35-.31.52-.47.48-.45,1-.9,1.41-1.36.09-.09.19-.17.27-.26.54-.54,1.06-1.08,1.57-1.63.14-.14.27-.29.4-.44.38-.41.76-.84,1.12-1.26l.42-.49c.46-.54.9-1.08,1.33-1.63l0,0c.44-.56.86-1.12,1.27-1.69l.35-.5c.3-.43.6-.87.88-1.3l.31-.47c.37-.58.73-1.15,1.06-1.73l.14-.24c.29-.51.57-1,.83-1.52.1-.18.19-.35.27-.53.24-.46.46-.92.68-1.38.06-.14.13-.28.2-.42.26-.58.5-1.15.73-1.73.05-.11.09-.23.14-.34.18-.47.35-.94.52-1.41l.18-.56c.15-.43.28-.86.41-1.3.05-.16.1-.32.14-.48.17-.59.32-1.17.46-1.76,0-.09,0-.17.05-.26.11-.5.21-1,.31-1.51l.09-.55c.07-.44.13-.87.19-1.31,0-.17,0-.34.06-.51.07-.59.13-1.18.17-1.78v-.13c0-.55.06-1.1.06-1.64,0-.19,0-.37,0-.55,0-.43,0-.86,0-1.3,0-.18,0-.35,0-.53,0-.58-.06-1.15-.12-1.72v-.06c-.06-.59-.14-1.18-.23-1.77,0-.18-.05-.35-.08-.53-.07-.43-.15-.86-.24-1.3,0-.18-.07-.36-.11-.54q-.17-.78-.36-1.56l-.06-.21c-.15-.59-.32-1.17-.51-1.76,0-.16-.11-.33-.16-.5q-.21-.65-.45-1.29l-.21-.55c-.18-.48-.38-1-.58-1.44,0-.1-.09-.21-.13-.31-.25-.58-.52-1.15-.8-1.72l-.24-.46c-.21-.43-.44-.86-.67-1.29l-.3-.55c-.25-.45-.52-.89-.79-1.34l-.22-.38c-.35-.56-.71-1.12-1.09-1.68l-.28-.41c-.3-.43-.61-.86-.92-1.28-.13-.18-.26-.36-.4-.53-.31-.43-.64-.85-1-1.27l-.33-.41c-.44-.55-.9-1.09-1.38-1.63-.1-.11-.2-.23-.31-.34-.38-.43-.77-.86-1.18-1.29l-.48-.51-1.18-1.18-.44-.44c-.54-.52-1.1-1-1.67-1.56l-.29-.26c-.49-.43-1-.86-1.49-1.29l-.57-.48c-.45-.37-.91-.75-1.38-1.12l-.55-.43c-.64-.5-1.29-1-2-1.49l-.21-.15c-.6-.44-1.22-.87-1.86-1.31l-.65-.44-1.58-1.05-.66-.42c-.74-.47-1.49-.94-2.26-1.4C149.35-5.72,81.3-6.41,38.73,17.47c-.81.46-1.59.92-2.37,1.38l-.67.41c-.58.35-1.15.71-1.72,1.07l-.62.39c-.74.48-1.46,1-2.17,1.45l-.22.16c-.63.43-1.25.88-1.86,1.32l-.6.45c-.51.38-1,.77-1.5,1.15l-.51.4c-.63.51-1.26,1-1.86,1.53l-.32.28c-.5.43-1,.87-1.47,1.3l-.52.48L21,30.49l-.39.38c-.53.53-1.05,1.07-1.56,1.61l-.33.36-1.16,1.3-.44.51c-.38.44-.74.89-1.11,1.35l-.26.33c-.44.56-.86,1.12-1.27,1.68l-.3.42q-.46.66-.9,1.32l-.34.51c-.31.49-.62,1-.91,1.48l-.16.26c-.34.57-.66,1.15-1,1.73l-.25.47c-.23.44-.45.89-.66,1.33l-.24.52q-.37.83-.72,1.65a.61.61,0,0,1-.05.12q-.36.88-.66,1.77l-.18.51q-.23.67-.42,1.35c0,.17-.11.34-.15.51-.17.6-.33,1.19-.47,1.79,0,0,0,.07,0,.1-.13.57-.24,1.14-.35,1.71l-.09.53c-.07.45-.14.91-.2,1.37L6.4,58c-.07.6-.12,1.2-.16,1.8a2.26,2.26,0,0,0,0,.26q0,.78-.06,1.56v.55c0,.46,0,.93,0,1.39,0,.16,0,.31,0,.46,0,.6.07,1.2.13,1.8,0,.12,0,.24.05.36,0,.49.12,1,.19,1.47l.09.55c.08.48.17.95.27,1.43,0,.13,0,.27.08.4.13.6.28,1.19.44,1.79l.12.42c.13.47.28.93.43,1.4q.08.27.18.54c.16.5.34,1,.53,1.48l.12.32c.23.59.48,1.18.74,1.77l.22.48C10,78.6,10.2,79,10.41,79.43Zm30.42-58c.76-.45,1.52-.9,2.31-1.34C83.2-2.37,147.25-1.72,186.2,21.56c.75.44,1.48.9,2.2,1.36l.61.39,1.62,1.08.53.36c.68.47,1.34.94,2,1.41l.36.27,1.57,1.2.54.44q.76.6,1.5,1.23l.32.27c.58.49,1.15,1,1.7,1.5l.42.39,1.24,1.18.45.45c.51.51,1,1,1.5,1.55l0,0c.48.52.94,1,1.39,1.56l.39.46c.35.41.68.83,1,1.24l.33.41c.41.53.82,1.07,1.2,1.61.08.1.14.2.22.31.31.44.62.89.91,1.34l.32.49q.44.69.84,1.38l.18.29c.32.55.62,1.1.91,1.66l.22.43c.22.43.43.87.63,1.3.08.16.15.32.22.48.25.56.5,1.13.72,1.69v0c.22.56.42,1.12.61,1.68.06.16.11.32.17.49.14.44.27.88.4,1.32,0,.15.09.29.13.44.15.57.29,1.13.42,1.7l.06.33c.1.48.19,1,.27,1.42,0,.17.06.34.08.51.08.48.14,1,.2,1.44l0,.3c.06.58.1,1.15.13,1.72,0,.15,0,.3,0,.45,0,.45,0,.89,0,1.34V63c0,.58,0,1.15-.06,1.73v0c0,.56-.09,1.12-.16,1.68l-.06.5c-.06.44-.13.89-.2,1.34,0,.14,0,.28-.08.43-.1.57-.22,1.14-.35,1.71l-.09.33c-.11.47-.24.94-.37,1.4l-.15.51c-.15.47-.3.95-.47,1.42,0,.1-.06.2-.1.3-.15.42-.31.85-.48,1.28l-.16.4c-.06.15-.13.3-.19.44-.19.44-.38.87-.58,1.3l-.22.48c-.27.56-.55,1.11-.85,1.67a.41.41,0,0,0,0,.09c-.27.48-.54,1-.82,1.44a.21.21,0,0,0,0,.06l-.26.43c-.22.36-.44.71-.67,1.06l-.34.53c-.24.36-.48.71-.73,1.06l-.33.47c-.36.5-.73,1-1.12,1.49l-.05.07c-.37.47-.76.94-1.15,1.41l-.4.47c-.29.34-.59.68-.9,1l-.46.51c-.31.34-.63.68-1,1l-.43.45c-.47.48-1,1-1.45,1.42l0,0c-.49.46-1,.91-1.49,1.36l-.5.44c-.37.32-.74.64-1.13,1l-.57.48-1.19.94-.54.43c-.58.44-1.17.89-1.77,1.32l0,0c-.6.44-1.21.86-1.83,1.29l-.6.4c-.45.3-.9.6-1.36.89l-.69.44-1.42.88-.64.39-2.1,1.22C144.1,126.9,80.05,126.25,41.11,103c-.67-.4-1.33-.81-2-1.22-.21-.13-.42-.26-.62-.4l-1.29-.84-.7-.47-1.16-.81c-.23-.16-.46-.32-.68-.49l-1.14-.84-.61-.45c-.44-.34-.88-.68-1.3-1l-.37-.29c-.54-.44-1.07-.88-1.59-1.33l-.4-.35-1.12-1-.53-.5c-.32-.29-.63-.59-.93-.88s-.37-.36-.54-.54-.59-.59-.87-.88l-.5-.52-.9-1-.39-.44c-.41-.47-.82-.94-1.21-1.42a1.09,1.09,0,0,1-.13-.17c-.35-.42-.68-.84-1-1.27l-.36-.49c-.24-.32-.48-.64-.71-1l-.39-.55c-.21-.31-.42-.62-.62-.94s-.25-.37-.37-.56l-.6-1c-.07-.13-.15-.25-.22-.37a1.09,1.09,0,0,1-.08-.15c-.24-.4-.47-.82-.69-1.23L17,79.37c-.3-.57-.59-1.14-.86-1.71l-.21-.47c-.21-.45-.41-.91-.6-1.37-.06-.13-.12-.27-.17-.41S15,75.2,15,75.09c-.18-.46-.35-.93-.52-1.4,0-.12-.07-.24-.11-.36-.16-.47-.31-.94-.45-1.42-.05-.16-.1-.32-.14-.49-.16-.56-.31-1.13-.44-1.71v0c-.13-.58-.24-1.17-.34-1.75,0-.17-.05-.33-.08-.49-.07-.48-.14-1-.19-1.42,0-.13,0-.26-.05-.39-.06-.58-.1-1.16-.13-1.75,0-.13,0-.27,0-.4q0-.7,0-1.41v-.49c0-.58,0-1.17.07-1.76,0,0,0-.06,0-.1,0-.47.08-1,.13-1.43h0l0-.24.06-.49c.07-.48.14-1,.23-1.44,0-.12,0-.24.05-.35.11-.58.24-1.16.37-1.74,0-.14.08-.28.11-.43.12-.46.24-.92.38-1.38.05-.15.09-.31.14-.47.18-.57.36-1.15.57-1.73,0-.06,0-.13.08-.19.19-.52.39-1,.6-1.55l.21-.48c.21-.49.43-1,.66-1.45l.14-.29c.27-.56.57-1.13.88-1.69.07-.14.16-.29.24-.43.25-.45.51-.89.78-1.33.08-.15.17-.29.26-.44.35-.55.71-1.11,1.08-1.66l.18-.25c.33-.48.67-1,1-1.42l.35-.46q.55-.72,1.14-1.44l.17-.21c.44-.53.91-1.07,1.38-1.6l.39-.42c.38-.42.78-.84,1.18-1.25l.38-.4c.51-.52,1-1,1.58-1.55l.32-.28c.46-.43.93-.86,1.41-1.28l.49-.43c.54-.47,1.1-.93,1.67-1.4l.14-.11c.61-.49,1.25-1,1.89-1.47l.54-.4c.52-.39,1.05-.77,1.59-1.15l.48-.34c.68-.47,1.37-.93,2.08-1.4l.47-.29c.58-.38,1.18-.75,1.78-1.12Z"/><path class="cls-22" d="M138.41,58.42c0,.17,0,.41,0,.71,0,.13,0,.22,0,.34s0,.24,0,.36,0,.22-.05.33-.05.24-.07.36-.05.22-.08.33a3.58,3.58,0,0,1-.11.35c0,.11-.06.22-.1.33s-.09.24-.14.36-.08.21-.13.32a3.78,3.78,0,0,1-.17.35l-.15.32-.2.35-.19.32-.23.34a3.37,3.37,0,0,1-.21.31c-.08.12-.17.23-.26.35s-.15.2-.24.29-.19.23-.29.35l-.26.28-.34.35-.27.27c-.12.12-.25.23-.38.34l-.29.26-.43.35-.3.24c-.15.12-.32.24-.48.35l-.3.22-.58.38-.26.17c-.29.18-.59.36-.9.53q-.91.51-1.89,1c-.21.1-.44.18-.66.27-.45.19-.89.39-1.35.56l-.84.28c-.42.14-.84.29-1.27.41s-.62.17-.94.25-.82.23-1.25.32-.67.13-1,.2-.83.17-1.26.24-.7.09-1,.14l-1.25.17-1.09.08c-.42,0-.83.07-1.25.09l-1.11,0-1.09,0h-.15c-.43,0-.86,0-1.28,0l-1.11,0-1.29-.11-1.09-.1c-.42,0-.85-.13-1.27-.19l-1.06-.16c-.43-.08-.84-.18-1.26-.27l-1-.21-1.25-.35c-.32-.09-.64-.17-1-.27s-.85-.29-1.27-.44-.57-.19-.84-.3c-.45-.18-.87-.37-1.3-.57h0c-.22-.11-.45-.19-.67-.3-.39-.19-.78-.39-1.15-.6l-.72-.41c-.3-.18-.59-.36-.86-.54l-.28-.19-.52-.37-.31-.23-.44-.34-.3-.26-.39-.33-.28-.27-.35-.34-.27-.28c-.1-.11-.21-.22-.31-.34l-.24-.29c-.1-.11-.19-.22-.28-.34l-.22-.3c-.08-.11-.17-.22-.25-.34l-.19-.3-.22-.35L90,62.86l-.18-.35c0-.1-.1-.21-.14-.31a1.17,1.17,0,0,0,0-.11l-.11-.24c0-.11-.08-.22-.11-.32s-.09-.24-.13-.35l-.09-.33c0-.12-.07-.23-.09-.35s0-.22-.07-.33,0-.23-.06-.35,0-.22,0-.33,0-.23,0-.35,0-.22,0-.33,0-.24,0-.35,0-.24,0-.36,0-.22,0-.34,0-.24,0-.36,0-.22.05-.33,0-.24.07-.36,0-.22.08-.33.07-.23.11-.35.06-.22.1-.33.09-.24.14-.36.08-.21.13-.32.11-.23.17-.35a3.18,3.18,0,0,1,.16-.32l.19-.35c.07-.11.12-.21.19-.31l.1-.15a1.37,1.37,0,0,1,.13-.2l.21-.31.26-.34c.08-.1.15-.2.24-.3a3.17,3.17,0,0,1,.3-.34,3.47,3.47,0,0,1,.25-.29l.34-.34.27-.28.38-.34.29-.26.42-.34.31-.25.47-.34.31-.23.56-.36.28-.19c.29-.18.59-.36.9-.53q.91-.51,1.89-1l.68-.28c.44-.19.87-.38,1.33-.55l.85-.28c.42-.14.83-.29,1.26-.41l1-.25,1.24-.32,1-.2c.41-.08.83-.17,1.25-.24l1-.14c.29,0,.58-.09.88-.12a4.94,4.94,0,0,0,.57.3l-.11.32c-.15.44-.35,1-.49,1.47s-.35,1-.49,1.46l-.17.49a2.41,2.41,0,0,0-.08.25L108,49l-.42,1.24s0,0,0,0l-.14.41c0,.16-.11.32-.16.48L106.3,54l-.49,1.46c-.06.17-.13.39-.2.58a.66.66,0,0,1,0,.15,3.79,3.79,0,0,1-.12.36c-.12.35-.25.74-.35,1.07l0,0a.35.35,0,0,1,0,.11c0,.14-.07.27-.09.41s0,.13,0,.19,0,.25,0,.37,0,.13,0,.19,0,.27.07.4,0,.1,0,.15a3,3,0,0,0,.21.54l0,.1a4.92,4.92,0,0,0,.26.43l.14.17c.09.12.19.23.29.34s.11.12.18.18.24.22.37.33l.19.15q.3.23.66.45c.21.12.43.24.66.35l.23.11c.16.07.31.14.48.2l.27.1.47.17.3.08.48.14.32.06.49.11.32,0,.5.08.34,0,.5,0,.34,0h1.34l.38,0,.45,0,.39-.05c.14,0,.28,0,.42-.06l.39-.07.41-.08.4-.1.37-.1.41-.14.33-.11.46-.19.25-.1a8.81,8.81,0,0,0,1.43-.82,6.71,6.71,0,0,0,.63-.52h0a4.22,4.22,0,0,0,.5-.55h0a5,5,0,0,0,.37-.57h0a3.37,3.37,0,0,0,.25-.59h0a1.6,1.6,0,0,0,0-.21l0-.1v0s0-.07,0-.1v0c0-.05,0-.1,0-.15h0c0-.1,0-.2,0-.31v-.14a.34.34,0,0,1,0-.1v0s0,0,0,0h0a3.22,3.22,0,0,0-.13-.6c-.08-.22-.16-.48-.25-.74s-.16-.51-.24-.73l-.24-.73c-.11-.33-.24-.75-.37-1.12,0-.12-.08-.24-.11-.35l-.49-1.47c-.07-.22-.16-.51-.24-.74-.14-.44-.33-1-.48-1.46s-.34-1-.48-1.47c0-.11-.08-.24-.12-.37s-.09-.26-.12-.37l-.49-1.46c-.07-.22-.15-.48-.24-.74s-.17-.51-.24-.73l-.11-.33h0l.54-.28.53.07c.48.06,1,.14,1.45.22.23,0,.46.07.69.12.61.11,1.21.24,1.81.38l.24.06c.68.17,1.34.35,2,.56l.57.19c.46.15.92.31,1.36.48l.65.26c.43.17.85.36,1.27.56l.55.26c.58.29,1.15.59,1.7.91l.85.54.27.19.54.37.29.23.45.34.3.26.39.34a3.45,3.45,0,0,1,.28.26l.35.34.27.28c.1.11.21.22.31.34l.24.29c.1.11.19.22.28.34l.22.3c.08.11.17.22.25.34s.13.2.19.3l.22.35c.06.1.11.21.16.31l.19.35c.05.1.1.21.14.31s.11.24.16.36.08.21.11.31.09.24.13.36l.09.32c0,.12.07.24.09.35s.05.22.07.33.05.23.06.35,0,.22,0,.33,0,.24,0,.35S138.41,58.3,138.41,58.42Z"/><path class="cls-23" d="M122.4,58.9h0a3.19,3.19,0,0,1-.12.6h0a3.37,3.37,0,0,1-.25.59h0a5,5,0,0,1-.37.57h0a4.22,4.22,0,0,1-.5.55h0a6.71,6.71,0,0,1-.63.52,8.81,8.81,0,0,1-1.43.82l-.25.1-.46.19-.33.11-.41.14-.37.1-.4.1-.41.08-.39.07c-.14,0-.28,0-.42.06l-.39.05-.45,0-.38,0h-1.34l-.34,0-.5,0-.34,0-.5-.08-.32,0-.49-.11-.32-.06-.48-.14-.3-.08L109,62.9l-.27-.1c-.17-.06-.32-.13-.48-.2l-.23-.11c-.23-.11-.45-.23-.66-.35s-.46-.3-.66-.45l-.19-.15c-.13-.11-.26-.22-.37-.33s-.12-.12-.18-.18-.2-.22-.29-.34l-.14-.17a4.92,4.92,0,0,1-.26-.43l0-.1a3,3,0,0,1-.21-.54c0-.05,0-.1,0-.15s0-.26-.07-.4,0-.13,0-.19,0-.25,0-.37,0-.13,0-.19.06-.27.09-.41a.35.35,0,0,0,0-.11l0,0c.1-.33.23-.72.35-1.07a3.79,3.79,0,0,0,.12-.36.66.66,0,0,0,0-.15c.07-.19.14-.41.2-.58L106.3,54c.36-1.09.73-2.17,1.09-3.26l.14-.41s0,0,0,0L108,49l.06-.18a2.41,2.41,0,0,1,.08-.25l.17-.49c.14-.44.34-1,.49-1.46s.34-1,.49-1.47l.11-.32,0,0a8.58,8.58,0,0,0,.83.35l.23.09.18.06.52.15.06,0,.67.14.09,0c.22,0,.44.07.67.09l.14,0,.82,0,.57,0h.19l.39,0,.3,0,.31,0,.36-.07.3-.07.19,0,.17,0h0c.18,0,.37-.11.55-.18h0a5.19,5.19,0,0,0,.6-.23h0a3.4,3.4,0,0,0,.34-.16l.09,0,.11.33c.07.22.16.47.24.73s.17.52.24.74l.49,1.46c0,.11.07.24.12.37s.08.26.12.37c.14.44.34,1,.48,1.47s.34,1,.48,1.46c.08.23.17.52.24.74l.49,1.47c0,.11.07.23.11.35.13.37.26.79.37,1.12l.24.73c.08.22.16.48.24.73s.17.52.25.74a3.22,3.22,0,0,1,.13.6h0A3.12,3.12,0,0,1,122.4,58.9Z"/><path class="cls-24" d="M138.42,58.77c0,.12,0,.24,0,.36s0,.22,0,.33,0,.24,0,.36,0,.23-.05.34,0,.23-.08.35-.05.22-.08.33-.07.24-.1.36-.07.22-.11.33-.09.24-.13.35l-.14.33c-.05.12-.11.23-.16.35s-.11.21-.16.32-.13.23-.2.35l-.18.31-.24.35-.2.31-.27.34-.23.3-.3.34c-.09.1-.17.2-.26.29s-.22.23-.33.34l-.28.28-.37.34-.3.26c-.13.12-.28.23-.42.34l-.3.25-.49.35c-.1.07-.19.15-.3.22l-.58.38-.26.17c-.29.18-.59.36-.9.53h0q-.91.51-1.89,1l-.66.27c-.44.19-.88.38-1.35.55-.27.11-.56.19-.84.28s-.83.29-1.26.42l-.94.25-1.25.32-1,.2c-.42.08-.83.17-1.25.24l-1.06.14c-.41.06-.83.12-1.25.16s-.73.06-1.09.09-.83.07-1.25.09l-1.1,0c-.37,0-.73,0-1.1,0h-.15c-.43,0-.85,0-1.28,0l-1.11,0-1.28-.11c-.37,0-.73-.06-1.09-.11s-.85-.12-1.28-.18-.71-.1-1.06-.17-.84-.17-1.26-.26-.68-.13-1-.22-.84-.23-1.26-.34-.64-.17-1-.27-.84-.29-1.26-.45-.57-.19-.85-.3c-.45-.18-.89-.38-1.32-.58l-.68-.29c-.64-.32-1.27-.66-1.87-1L95.05,68l-.27-.19-.53-.37-.31-.24-.44-.34-.3-.25-.39-.34L92.53,66l-.35-.33-.27-.28c-.1-.12-.21-.23-.31-.34l-.24-.29-.28-.34-.22-.3c-.08-.11-.17-.23-.24-.34l-.2-.31-.21-.34L90,62.86l-.19-.35-.14-.32a1.17,1.17,0,0,1,0-.11l-.1-.24a3,3,0,0,1-.12-.32,3.59,3.59,0,0,1-.12-.35c0-.11-.07-.21-.1-.32l-.09-.35c0-.11,0-.22-.07-.33L89,59.82c0-.11,0-.22,0-.33s0-.24,0-.36,0-.21,0-.32,0-.18,0-.27v2c0,.52,0,1.06,0,1.59v1.6c0,.68,0,1.35,0,1.95,0,.09,0,.17,0,.26s0,.22,0,.33,0,.23,0,.35,0,.22,0,.33l.06.35c0,.11,0,.22.07.33l.09.35c0,.11.06.22.1.33s.08.23.12.35.07.21.12.32.1.23.15.35.09.21.14.31l.19.35.17.31c.06.12.14.23.21.35l.2.3c.07.12.16.23.24.35l.22.29.28.35.24.28c.1.12.21.23.32.34l.26.28c.11.12.24.23.36.34l.27.27.4.34.29.25c.14.11.3.22.44.34s.2.16.31.23.35.25.53.37l.27.19.86.54c9.53,5.7,25.21,5.86,35,.35.31-.17.61-.35.9-.53l.28-.18c.19-.12.38-.24.56-.37l.32-.23.46-.34.32-.25.41-.33.3-.27.37-.34.28-.28c.11-.11.23-.22.33-.33l.26-.3.3-.33.23-.31.27-.34a3.28,3.28,0,0,0,.2-.31l.24-.34.18-.32a4,4,0,0,0,.2-.35c.05-.1.1-.21.16-.32s.11-.23.16-.35l.14-.32.13-.36.11-.32c0-.12.07-.24.1-.36s0-.22.08-.33.05-.24.08-.36,0-.22,0-.33,0-.24,0-.36,0-.22,0-.34,0-.23,0-.35v-.09c0-1.24,0-2.71,0-4.14V58.77Z"/><path class="cls-25" d="M123.73,35.88a10.52,10.52,0,0,1-.11,1.51,7.57,7.57,0,0,1-.18.86c0,.17-.09.36-.16.61h0a6.35,6.35,0,0,1-.35,1,12.85,12.85,0,0,1-.62,1.2s0,0,0,0a7.19,7.19,0,0,1-.59.86s0,0,0,0a4.94,4.94,0,0,1-.34.41l-.15.18-.34.36-.13.12-.15.15c-.12.12-.24.22-.36.32l0,.05a6.83,6.83,0,0,1-.67.5l-.17.12c-.24.16-.48.31-.69.43h0l-.54.28h0l-.09,0a2.39,2.39,0,0,1-.37.15,5.89,5.89,0,0,1-.58.24h0a5.05,5.05,0,0,1-.55.18h0l-.17,0-.19,0-.3.07-.36.07-.31,0-.3,0-.39,0h-.19l-.57,0-.82,0-.14,0c-.23,0-.45,0-.67-.09l-.09,0-.67-.14-.06,0-.52-.15-.18-.06-.23-.09a8.58,8.58,0,0,1-.83-.35l0,0-.57-.3-.2-.11a9.33,9.33,0,0,1-.86-.58l-.29-.22-.08-.07-.33-.28-.24-.23a10.88,10.88,0,0,1-.85-.92l0,0a11.15,11.15,0,0,1-.88-1.29l0-.06a.41.41,0,0,0,0-.09,1.14,1.14,0,0,0-.1-.19,1.86,1.86,0,0,0-.1-.2,1.42,1.42,0,0,1-.08-.18c-.15-.32-.27-.61-.36-.85,0-.08,0-.15-.08-.22l-.13-.43-.1-.4a8.29,8.29,0,0,1-.2-1.07,11.55,11.55,0,0,1-.08-1.32c0-.25,0-.6.06-1a4.49,4.49,0,0,1,.06-.48c0-.11,0-.22,0-.35l0-.15c0-.24.12-.51.19-.78l0-.11c.06-.2.13-.39.19-.57a10.67,10.67,0,0,1,.56-1.24c.2-.38.38-.66.48-.82l.41-.56.06-.08a10.17,10.17,0,0,1,.82-.93l.06-.05.08-.07c.26-.25.52-.47.76-.67l.1-.07.09-.07a9.51,9.51,0,0,1,1-.68c.18-.11.37-.2.55-.29l.22-.1.45-.2h0l.35-.13.58-.18.21-.06.32-.08.37-.08.2,0c.23,0,.46-.07.71-.09l.46,0H114l.4,0,.58.06.26,0,.72.14.17,0,.12,0s0,0,0,0c.17,0,.37.1.61.18l.08,0,.27.1a9.37,9.37,0,0,1,1.68.81l.37.25c.1.07.21.13.31.21l.24.18a10.09,10.09,0,0,1,1.3,1.19l0,.05.07.09c.11.13.22.25.32.38s.22.28.31.42l0,.06.17.25a9.67,9.67,0,0,1,.9,1.73,1.29,1.29,0,0,1,.07.21c.07.18.13.35.18.5s.09.29.13.42a.75.75,0,0,0,0,.16c0,.2.09.4.13.61a8.16,8.16,0,0,1,.14,1C123.71,35.26,123.72,35.53,123.73,35.88Z"/><path class="cls-1" d="M118.15,45.2s-3.37,2.19-5.77,2.39S107,60.23,109.8,63.15l-.3-.08L109,62.9l-.27-.1c-.17-.06-.32-.13-.48-.2l-.23-.11c-.23-.11-.45-.23-.66-.35s-.46-.3-.66-.45l-.19-.15c-.13-.11-.26-.22-.37-.33s-.12-.12-.18-.18-.2-.22-.29-.34l-.14-.17a4.92,4.92,0,0,1-.26-.43l0-.1a3,3,0,0,1-.21-.54c0-.05,0-.1,0-.15s0-.26-.07-.4,0-.13,0-.19,0-.25,0-.37,0-.13,0-.19.06-.27.09-.41a.35.35,0,0,0,0-.11l0,0c.1-.33.23-.72.35-1.07a3.79,3.79,0,0,0,.12-.36.66.66,0,0,0,0-.15c.07-.19.14-.41.2-.58L106.3,54c.36-1.09.73-2.17,1.09-3.26l.14-.41s0,0,0,0L108,49l.06-.18a2.41,2.41,0,0,1,.08-.25l.17-.49c.14-.44.34-1,.49-1.46s.34-1,.49-1.47l.11-.32-.57-.3-.2-.11a9.33,9.33,0,0,1-.86-.58l-.29-.22-.08-.07-.33-.28-.24-.23a10.88,10.88,0,0,1-.85-.92l0,0a11.15,11.15,0,0,1-.88-1.29l0-.06a.41.41,0,0,0,0-.09,1.14,1.14,0,0,0-.1-.19,1.86,1.86,0,0,0-.1-.2,1.42,1.42,0,0,1-.08-.18c-.15-.32-.27-.61-.36-.85,0-.08,0-.15-.08-.22l-.13-.43-.1-.4a8.29,8.29,0,0,1-.2-1.07,11.55,11.55,0,0,1-.08-1.32c0-.25,0-.6.06-1a4.49,4.49,0,0,1,.06-.48c0-.11,0-.22,0-.35l0-.15c0-.24.12-.51.19-.78l0-.11c.06-.2.13-.39.19-.57a10.67,10.67,0,0,1,.56-1.24c.2-.38.38-.66.48-.82l.41-.56.06-.08a10.17,10.17,0,0,1,.82-.93l.06-.05.08-.07c-.18.52-2.06,6.43,1.78,11.54a12.83,12.83,0,0,0,9,4.89h0Z"/><path class="cls-26" d="M217.42,78.73c-.22.46-.44.92-.68,1.38-.08.18-.17.35-.27.53-.26.51-.54,1-.83,1.52l-.14.24c-.33.58-.69,1.15-1.06,1.73l-.31.47c-.28.43-.58.87-.88,1.3l-.35.5c-.41.57-.83,1.13-1.27,1.69l0,0c-.43.55-.87,1.09-1.33,1.63l-.42.49c-.36.42-.74.85-1.12,1.26-.13.15-.26.3-.4.44-.51.55-1,1.09-1.57,1.63-.08.09-.18.17-.27.26-.46.46-.93.91-1.41,1.36-.17.16-.34.32-.52.47l-1.41,1.26-.4.35c-.61.52-1.23,1-1.87,1.54l-.45.36c-.51.4-1,.8-1.56,1.19l-.6.45c-.59.43-1.18.86-1.78,1.28l-.32.22c-.71.49-1.44,1-2.18,1.45l-.6.39c-.57.36-1.15.73-1.74,1.08l-.68.41c-.78.47-1.57.93-2.38,1.39h0C146,130.94,78,130.25,36.57,105.51c-.76-.45-1.5-.91-2.23-1.37l-.66-.43c-.52-.34-1-.67-1.54-1l-.67-.46c-.56-.38-1.11-.77-1.65-1.16l-.4-.28c-.66-.49-1.31-1-1.94-1.47l-.5-.39-1.39-1.12-.59-.5-1.3-1.12-.48-.42c-.56-.51-1.12-1-1.65-1.54L21.29,94c-.44-.43-.88-.87-1.31-1.31l-.48-.5c-.36-.38-.71-.76-1.06-1.15L18,90.51c-.44-.5-.87-1-1.29-1.51l-.09-.1c-.44-.54-.87-1.09-1.28-1.63L15,86.78l-.86-1.19-.38-.54c-.29-.44-.58-.87-.86-1.31l-.24-.37c-.35-.56-.68-1.12-1-1.68-.08-.13-.16-.27-.23-.41-.24-.43-.47-.86-.7-1.3l-.28-.55c-.21-.42-.41-.83-.6-1.25l-.16-.34.63,1.4c.18.41.37.82.56,1.24s.31.7.47,1L12,83.16l1.52,3.37c0,.09.09.18.13.26s.09.2.14.3l.17.36c-.15-.32-.32-.65-.46-1l.47,1,.33.68.09.18v0c.16.31.31.62.46.89s.26.47.4.73c.52.91,1.1,1.92,1.65,2.77l.31.47c.6.88,1.4,2.07,2.06,2.91L20,97c1,1.23,2.17,2.62,3.13,3.67.77.84,1.69,1.76,2.65,2.67,1.14,1.08,2.34,2.15,3.41,3.05l.35.3c2,1.62,4.62,3.62,6.87,5.1l.71.46c1.52,1,3.34,2.09,5.14,3.12,1.16.67,2.3,1.3,3.34,1.82l.27.13c2.15,1.06,4.94,2.41,7.09,3.35l.91.39c1.72.72,3.76,1.5,5.35,2.11,2.23.86,5.24,1.89,7.53,2.52,1.78.49,4,1.15,6,1.66l1,.26.42.1,1.44.35c1.93.46,4.07,1,5.8,1.24h0c4.48.76,10.47,1.64,15,2.2h0c2.36.29,5.53.54,7.91.61h0c2.34.08,5.45.23,7.79.26,2,0,4.49,0,6.63-.06h.58l.58,0h0c2.91-.1,5.57-.26,7.85-.44,1.06-.09,2-.17,2.9-.26,2.26-.21,3.89-.41,4.64-.51l.1,0c1.23-.16,2.68-.35,4.35-.6s3.79-.6,6-1q2.1-.41,4.47-.93l.69-.15.38-.09c2-.46,4.26-1,6.05-1.52l1.77-.51c1.78-.53,3.74-1.15,5.31-1.64,2-.61,4.55-1.58,6.47-2.34l.74-.3c1.87-.77,4.1-1.76,5.85-2.53l.13-.06c2.2-1,5-2.49,7.13-3.65,2.81-1.68,6.54-4,9.19-5.88l.2-.14a76.85,76.85,0,0,0,6.82-5.64l.16-.15c1.56-1.55,3.55-3.66,5-5.33l.13-.15c.51-.57,1.09-1.32,1.61-2l.62-.84.23-.31.68-1c.51-.76,1-1.57,1.49-2.33.18-.28.35-.57.51-.83s.38-.68.58-1,.29-.54.43-.82l.13-.24c.08-.15.15-.31.23-.46l.21-.44c.14-.28.28-.56.41-.84l.06-.13,4-8.67C217.52,78.53,217.46,78.63,217.42,78.73Z"/><path class="cls-1" d="M213,65.91a3.42,3.42,0,0,1,0,.49c0,.56,0,1.13-.06,1.7a.06.06,0,0,1,0,0c0,.55-.09,1.11-.15,1.66l-.06.48c-.06.44-.13.88-.2,1.32,0,.14-.05.28-.08.42-.1.56-.21,1.12-.35,1.68,0,.11,0,.22-.08.33-.11.46-.23.92-.37,1.38,0,.16-.09.33-.14.49-.15.47-.3.94-.46,1.41,0,.09-.06.19-.1.29-.2.55-.41,1.1-.64,1.65-.05.15-.12.29-.18.44-.18.42-.37.84-.57,1.27-.07.15-.14.31-.22.47a.54.54,0,0,0-.05.11c-.09.14-.18.28-.26.42-.22.36-.44.71-.67,1.06-.11.18-.23.36-.35.54-.23.35-.48.71-.73,1.06l-.32.46-1.12,1.5-.06.06c-.37.48-.75,1-1.15,1.41-.13.16-.26.32-.4.47-.29.34-.58.68-.89,1l-.46.51-1,1c-.15.14-.29.29-.43.44l-1.45,1.42,0,0c-.48.45-1,.9-1.48,1.35l-.5.44-1.13,1-.58.48-1.18,1-.54.42c-.58.45-1.17.89-1.8,1.35s-1.21.86-1.83,1.28l-.61.4-1.35.9-.7.44-1.41.87-.64.39c-.69.41-1.39.82-2.11,1.22a125.69,125.69,0,0,1-35.33,12.86C184.41,106.5,206.49,83.56,205.05,63c-1.12-15.95-15.39-27.14-28.11-34.62-15.33-9-31.57-15-49.3-17.09a159.9,159.9,0,0,0-46.47,1.83c-10,1.78-21.67,3.67-30.9,8.09C89.8,2.3,148.53,3.94,184.93,25.7c.73.44,1.45.89,2.16,1.34l.6.39,1.6,1.06.51.35c.67.46,1.32.92,2,1.39l.35.26,1.54,1.18.54.43c.5.4,1,.8,1.47,1.21l.32.26c.57.49,1.12,1,1.66,1.48l.41.38,1.23,1.17.43.43c.51.51,1,1,1.5,1.55s.92,1,1.37,1.53l.38.45,1,1.22.31.4c.41.53.81,1,1.19,1.58l.21.31q.47.66.9,1.32a1.74,1.74,0,0,1,.11.18l.2.3c.28.45.56.9.83,1.35,0,.1.11.19.17.29.31.54.61,1.08.9,1.63l.21.43c.22.42.42.85.62,1.27.08.16.15.32.22.47.25.56.49,1.11.71,1.67,0,0,0,0,0,0,.21.55.41,1.09.6,1.64,0,.16.11.32.16.48.14.44.27.87.4,1.31l.12.42c.15.56.29,1.12.41,1.68,0,.11,0,.22.07.33.1.46.18.92.26,1.38,0,.17.06.34.08.5.08.48.14,1,.19,1.42l0,.3A28.06,28.06,0,0,1,213,65.91Z"/><circle class="cls-27" cx="162.29" cy="92.63" r="8.88"/></g></g></svg>